%TF.GenerationSoftware,KiCad,Pcbnew,8.0.1*%
%TF.CreationDate,2024-08-18T17:01:31-04:00*%
%TF.ProjectId,stm32h7,73746d33-3268-4372-9e6b-696361645f70,rev?*%
%TF.SameCoordinates,Original*%
%TF.FileFunction,Copper,L4,Bot*%
%TF.FilePolarity,Positive*%
%FSLAX46Y46*%
G04 Gerber Fmt 4.6, Leading zero omitted, Abs format (unit mm)*
G04 Created by KiCad (PCBNEW 8.0.1) date 2024-08-18 17:01:31*
%MOMM*%
%LPD*%
G01*
G04 APERTURE LIST*
G04 Aperture macros list*
%AMRoundRect*
0 Rectangle with rounded corners*
0 $1 Rounding radius*
0 $2 $3 $4 $5 $6 $7 $8 $9 X,Y pos of 4 corners*
0 Add a 4 corners polygon primitive as box body*
4,1,4,$2,$3,$4,$5,$6,$7,$8,$9,$2,$3,0*
0 Add four circle primitives for the rounded corners*
1,1,$1+$1,$2,$3*
1,1,$1+$1,$4,$5*
1,1,$1+$1,$6,$7*
1,1,$1+$1,$8,$9*
0 Add four rect primitives between the rounded corners*
20,1,$1+$1,$2,$3,$4,$5,0*
20,1,$1+$1,$4,$5,$6,$7,0*
20,1,$1+$1,$6,$7,$8,$9,0*
20,1,$1+$1,$8,$9,$2,$3,0*%
%AMHorizOval*
0 Thick line with rounded ends*
0 $1 width*
0 $2 $3 position (X,Y) of the first rounded end (center of the circle)*
0 $4 $5 position (X,Y) of the second rounded end (center of the circle)*
0 Add line between two ends*
20,1,$1,$2,$3,$4,$5,0*
0 Add two circle primitives to create the rounded ends*
1,1,$1,$2,$3*
1,1,$1,$4,$5*%
G04 Aperture macros list end*
%TA.AperFunction,ComponentPad*%
%ADD10HorizOval,0.800000X0.173205X0.100000X-0.173205X-0.100000X0*%
%TD*%
%TA.AperFunction,ComponentPad*%
%ADD11RoundRect,0.131234X0.101625X-0.713551X0.567141X-0.444785X-0.101625X0.713551X-0.567141X0.444785X0*%
%TD*%
%TA.AperFunction,ComponentPad*%
%ADD12O,1.000000X2.100000*%
%TD*%
%TA.AperFunction,ComponentPad*%
%ADD13O,1.000000X1.800000*%
%TD*%
%TA.AperFunction,ViaPad*%
%ADD14C,0.600000*%
%TD*%
%TA.AperFunction,ViaPad*%
%ADD15C,1.000000*%
%TD*%
%TA.AperFunction,Conductor*%
%ADD16C,0.200000*%
%TD*%
%TA.AperFunction,Conductor*%
%ADD17C,0.250000*%
%TD*%
G04 APERTURE END LIST*
D10*
%TO.P,SW1,1,1*%
%TO.N,BTN*%
X141742149Y-97881403D03*
%TO.P,SW1,2,2*%
%TO.N,+3V3*%
X145630603Y-95636403D03*
D11*
%TO.P,SW1,3*%
%TO.N,N/C*%
X145650000Y-92750000D03*
%TO.P,SW1,4*%
X139232752Y-96455000D03*
%TD*%
D12*
%TO.P,J1,S1,SHIELD*%
%TO.N,unconnected-(J1-SHIELD-PadS1)_1*%
X134345000Y-48490000D03*
D13*
%TO.N,unconnected-(J1-SHIELD-PadS1)_2*%
X134345000Y-44290000D03*
D12*
%TO.N,unconnected-(J1-SHIELD-PadS1)*%
X125705000Y-48490000D03*
D13*
%TO.N,unconnected-(J1-SHIELD-PadS1)_0*%
X125705000Y-44290000D03*
%TD*%
D14*
%TO.N,GND*%
X127000000Y-52600000D03*
X126600000Y-53300000D03*
X127500000Y-53300000D03*
%TO.N,+3V3*%
X112400000Y-79800000D03*
X134365000Y-90185000D03*
X151500000Y-70900000D03*
X148000000Y-63100000D03*
X102900000Y-72000000D03*
X127500000Y-62400000D03*
X121650000Y-59750000D03*
X106590796Y-86549452D03*
X146300000Y-94300000D03*
X144600000Y-78700000D03*
X134800000Y-84182940D03*
X103595000Y-77200000D03*
X148000000Y-62300000D03*
X126550000Y-89600000D03*
D15*
X143550000Y-47000000D03*
X142780000Y-46080000D03*
D14*
X126400000Y-74000000D03*
X122300000Y-54100000D03*
X137161192Y-79674110D03*
X107600000Y-78000000D03*
X108450000Y-88200000D03*
X125600000Y-88350000D03*
X102050000Y-69800000D03*
X141000000Y-91300000D03*
X114200000Y-52300000D03*
X148000000Y-64000000D03*
X112650000Y-89900000D03*
X112050000Y-71750000D03*
X126275000Y-71775000D03*
X112307777Y-78513878D03*
X116800000Y-66100000D03*
%TO.N,GPS_TXD*%
X117925000Y-62325000D03*
X116200000Y-67350000D03*
%TO.N,VCC*%
X137200000Y-58150000D03*
X128350000Y-57800000D03*
X142500000Y-50512500D03*
X147550000Y-52400000D03*
X123800000Y-76850000D03*
X140724584Y-56475790D03*
X118700000Y-90250000D03*
X123750000Y-64050000D03*
X122350000Y-81450000D03*
%TO.N,VBUS*%
X132250000Y-59450000D03*
X131600000Y-61000000D03*
X127250000Y-63400000D03*
X128950000Y-75875000D03*
%TO.N,Net-(J1-CC1)*%
X131486091Y-50336091D03*
X132400000Y-51050000D03*
%TO.N,Net-(U6-XTB)*%
X151600000Y-68300000D03*
X153300000Y-68100000D03*
%TO.N,Net-(U6-XTA)*%
X155800000Y-69500000D03*
X151700000Y-69141158D03*
%TO.N,Net-(U4-PROG)*%
X140100000Y-54300000D03*
X138200000Y-52350000D03*
%TO.N,ANT_SW_CTRL*%
X146600000Y-66900000D03*
X152800000Y-78800000D03*
%TO.N,LCD_RST*%
X139586091Y-85236091D03*
X123075000Y-92525000D03*
X137200000Y-92450000D03*
X134988603Y-79350000D03*
X141750000Y-88950000D03*
X129900000Y-92350000D03*
X138150000Y-79100000D03*
X139775000Y-79925000D03*
%TO.N,LoRa_BUSY*%
X141550000Y-85788909D03*
X132575000Y-87525000D03*
X141950000Y-77100000D03*
X142300000Y-70550000D03*
%TO.N,LoRa_NSS*%
X127900000Y-61250000D03*
X122813909Y-74813909D03*
X145825000Y-71900000D03*
X134450000Y-60150000D03*
%TO.N,INT_MAG*%
X134300000Y-92950000D03*
X130300000Y-89600000D03*
X129888909Y-87800000D03*
X141300000Y-92950000D03*
%TO.N,LCD_B3*%
X130900000Y-76200000D03*
X115225000Y-84675000D03*
X122050000Y-80650000D03*
X117150000Y-83350000D03*
X137700000Y-73100000D03*
X134150000Y-75150000D03*
%TO.N,SCK*%
X120500000Y-67750000D03*
X141600000Y-67200000D03*
X134300000Y-76900000D03*
X141200000Y-70700000D03*
%TO.N,XL_INT1*%
X137300000Y-84700000D03*
X128275000Y-85125000D03*
X137800000Y-86200000D03*
%TO.N,LCD_CS*%
X132700000Y-76400000D03*
X129500000Y-71050000D03*
%TO.N,USB_D-*%
X126672488Y-61800000D03*
X124922182Y-76800000D03*
%TO.N,USB_D+*%
X124575000Y-62650000D03*
X124250000Y-75948829D03*
%TO.N,LCD_HSYNC*%
X139050000Y-77704664D03*
X132450000Y-79000000D03*
%TO.N,LCD_R1*%
X117400000Y-81000000D03*
X115450000Y-86800000D03*
X115600000Y-78500000D03*
X128500000Y-74300000D03*
X138250000Y-65650000D03*
X130800000Y-73978318D03*
%TO.N,Net-(J5-Pin_12)*%
X137250000Y-89700000D03*
X138700000Y-89700000D03*
X140550000Y-88750000D03*
X132400000Y-93600000D03*
%TO.N,LoRa_RST*%
X138800000Y-88800000D03*
X142850000Y-71300000D03*
X132550000Y-89249184D03*
X142000000Y-86450000D03*
X137050000Y-88800000D03*
X142300000Y-77850000D03*
%TO.N,LCD_B2*%
X138700000Y-74450000D03*
X140550000Y-85050000D03*
X122763909Y-91263909D03*
X141050000Y-75350000D03*
%TO.N,LCD_G3*%
X137250000Y-70350000D03*
X131076603Y-86450000D03*
X124500000Y-86200000D03*
X139661091Y-79111091D03*
X133950000Y-82250000D03*
X139500000Y-71500000D03*
%TO.N,LCD_R4*%
X118100000Y-77200000D03*
X127650000Y-69500000D03*
X131100000Y-67750000D03*
X119350000Y-84050000D03*
X119950000Y-79850000D03*
X122650000Y-71250000D03*
%TO.N,LCD_G0*%
X117050000Y-82250000D03*
X122700000Y-79550000D03*
X114638909Y-87188909D03*
X129850000Y-72300000D03*
%TO.N,LCD_VSYNC*%
X138500000Y-78350000D03*
X121500000Y-84450000D03*
X116700000Y-85850000D03*
X124750000Y-82450000D03*
%TO.N,LoRa_DIO1*%
X132550000Y-88356270D03*
X141100000Y-86450000D03*
X141600000Y-76350000D03*
X141900000Y-69750000D03*
%TO.N,LCD_G4*%
X138750000Y-73250000D03*
X130550000Y-77650000D03*
%TO.N,XL_INT0*%
X133250000Y-86150000D03*
X136900000Y-86200000D03*
X134700000Y-86200000D03*
X125300000Y-84725000D03*
%TO.N,LCD_R3*%
X114750000Y-80650000D03*
X134250000Y-67800000D03*
X128175000Y-75325000D03*
X120950000Y-78700000D03*
X123600000Y-78550000D03*
X134550000Y-73350000D03*
%TO.N,LCD_G1*%
X125638379Y-70738379D03*
X116700461Y-84899661D03*
X131000000Y-69700000D03*
X114400000Y-78500000D03*
X121989674Y-71825208D03*
X134500000Y-69650000D03*
X137486091Y-71363909D03*
X120100000Y-86550000D03*
%TO.N,LCD_B5*%
X116950000Y-76300000D03*
X119300000Y-75850000D03*
%TO.N,LCD_DE*%
X132250000Y-80100000D03*
X137950000Y-77250000D03*
X129100000Y-81150000D03*
X122650000Y-86200000D03*
%TO.N,LCD_R5*%
X134050000Y-65800000D03*
X123600000Y-81150000D03*
X128800000Y-72300000D03*
X124900000Y-79250000D03*
X133150000Y-70650000D03*
X123400000Y-84550000D03*
%TO.N,LCD_B4*%
X127647182Y-74297182D03*
X121250000Y-76600000D03*
%TO.N,LCD_G2*%
X134750000Y-81450000D03*
X134900000Y-70450000D03*
X140100000Y-72500000D03*
X130300000Y-82650000D03*
X140150000Y-77400000D03*
X125086091Y-85513909D03*
%TO.N,LCD_R2*%
X132177913Y-86450000D03*
X125600000Y-91100000D03*
X115450000Y-90950000D03*
X127350000Y-87900000D03*
X140650000Y-74050000D03*
X135275000Y-82725000D03*
X137249262Y-67499262D03*
X139150000Y-80550000D03*
%TO.N,SDA*%
X136150000Y-90950000D03*
X132900000Y-85000000D03*
X141450000Y-87250000D03*
X130300000Y-84200000D03*
X137950000Y-87900000D03*
%TO.N,SCL*%
X126400000Y-57050000D03*
X136110000Y-89600000D03*
X131150000Y-87800000D03*
X133950000Y-91150000D03*
X120800000Y-71100000D03*
X121100000Y-64900000D03*
X122488909Y-67688909D03*
X145750000Y-53900000D03*
X131450000Y-89600000D03*
%TO.N,MISO*%
X143800000Y-71050000D03*
X122450000Y-65350000D03*
%TO.N,MOSI*%
X135850000Y-96300000D03*
X121036091Y-91263909D03*
X143550000Y-72050000D03*
X124650000Y-93750000D03*
X134852274Y-77525067D03*
X142650000Y-81050000D03*
X116713909Y-90986091D03*
X142700000Y-87650000D03*
X137350000Y-93750000D03*
%TO.N,/Accel & Magnetometer/CS_MAG*%
X137700000Y-91100000D03*
X136100000Y-92150000D03*
%TO.N,GND*%
X143550000Y-96450000D03*
X152600000Y-77000000D03*
X114700000Y-67550000D03*
X145900000Y-75000000D03*
X130450000Y-45100000D03*
X146500000Y-82400000D03*
X144400000Y-76650000D03*
X107650000Y-68650000D03*
X121700000Y-45100000D03*
X127646616Y-83729460D03*
X143300000Y-59600000D03*
X109500000Y-63900000D03*
X104400000Y-73400000D03*
X103100000Y-67400000D03*
X154100000Y-59200000D03*
X112850000Y-55800000D03*
X152400000Y-62100000D03*
X131150000Y-81150000D03*
X151800000Y-75600000D03*
X110100000Y-51700000D03*
X120250000Y-98900000D03*
X148300000Y-55250000D03*
X138400000Y-48900000D03*
X152800000Y-86800000D03*
X155000000Y-72900000D03*
X120800000Y-45100000D03*
X152800000Y-76000000D03*
X126950000Y-50250000D03*
X144900000Y-66100000D03*
X144000000Y-60000000D03*
X149900000Y-61100000D03*
X157600000Y-84250000D03*
X104500000Y-68100000D03*
X144550000Y-94650000D03*
X125450000Y-89650000D03*
X147100000Y-81000000D03*
X135500000Y-48900000D03*
X112800000Y-95200000D03*
X147650000Y-50550000D03*
X157600000Y-83350000D03*
X123900000Y-48300000D03*
X147900000Y-71800000D03*
X152800000Y-85900000D03*
X132550000Y-52150000D03*
X157300000Y-78950000D03*
X147600000Y-76800000D03*
X149900000Y-82500000D03*
X149700000Y-68800000D03*
X143050000Y-49850000D03*
X103700000Y-73900000D03*
X151450000Y-57100000D03*
X122500000Y-58500000D03*
X145800000Y-84000000D03*
X111750000Y-88450000D03*
X141250000Y-61500000D03*
X104000000Y-67400000D03*
X153400000Y-59700000D03*
X152000000Y-87200000D03*
X120550000Y-74500000D03*
X128400000Y-55950000D03*
X145100000Y-83600000D03*
X154100000Y-60100000D03*
X114350000Y-82400000D03*
X123350000Y-95100000D03*
X116800000Y-64050000D03*
X127850000Y-58500000D03*
X128800000Y-89600000D03*
X135450000Y-58900000D03*
X117350000Y-52900000D03*
X144550000Y-93750000D03*
X151450000Y-55300000D03*
X149400000Y-62400000D03*
X120350000Y-84550000D03*
X127500000Y-55950000D03*
X146350000Y-90750000D03*
X143050000Y-53900000D03*
X139000000Y-68000000D03*
X119050000Y-70300000D03*
X155200000Y-71200000D03*
X115500000Y-58700000D03*
X140550000Y-62900000D03*
X147800000Y-58750000D03*
X143850000Y-94250000D03*
X129750000Y-45600000D03*
X145500000Y-76700000D03*
X117450000Y-59450000D03*
X148100000Y-83200000D03*
X140200000Y-50000000D03*
X116650000Y-53400000D03*
X123900000Y-49200000D03*
X135600000Y-84350000D03*
X151400000Y-80800000D03*
X142900000Y-52450000D03*
X153300000Y-62300000D03*
X146700000Y-73600000D03*
X114350000Y-90450000D03*
X110500000Y-90350000D03*
X142850000Y-95150000D03*
X148800000Y-68000000D03*
X125050000Y-74850000D03*
X123700000Y-58650000D03*
X109500000Y-83450000D03*
X112150000Y-93550000D03*
X127000000Y-95950000D03*
X135700000Y-55250000D03*
X142150000Y-92100000D03*
X150750000Y-56700000D03*
X113650000Y-92900000D03*
X108600000Y-63900000D03*
X109800000Y-91750000D03*
X129100000Y-92200000D03*
X142650000Y-48950000D03*
X147274997Y-82900000D03*
X137150000Y-99150000D03*
X153200000Y-72300000D03*
X144000000Y-59100000D03*
X112000000Y-69200000D03*
X123100000Y-45800000D03*
X130350000Y-91200000D03*
X147300000Y-88100000D03*
X114800000Y-58300000D03*
X135850000Y-58200000D03*
X147800000Y-80600000D03*
X134050000Y-52900000D03*
X119700000Y-95150000D03*
X142850000Y-96050000D03*
X146800000Y-76700000D03*
X144400000Y-75750000D03*
X114800000Y-60100000D03*
X112100000Y-74050000D03*
X111850000Y-89300000D03*
X119000000Y-74850000D03*
X153000000Y-81000000D03*
X119050000Y-94600000D03*
X133236396Y-84236396D03*
X152400000Y-80400000D03*
X151500000Y-81900000D03*
X156600000Y-67300000D03*
X141550000Y-52050000D03*
X115050000Y-82800000D03*
X158350000Y-75200000D03*
X144400000Y-74850000D03*
X127800000Y-64750000D03*
X119300000Y-86450000D03*
X127900000Y-52600000D03*
X152000000Y-86300000D03*
X107150000Y-67950000D03*
X129750000Y-46500000D03*
X141250000Y-62400000D03*
X140200000Y-49100000D03*
X156600000Y-79450000D03*
X136350000Y-58900000D03*
X148900000Y-77750000D03*
X150700000Y-81700000D03*
X154300000Y-64200000D03*
X120600000Y-49150000D03*
X145100000Y-84500000D03*
X113550000Y-55300000D03*
X145650000Y-89450000D03*
X149700000Y-68000000D03*
X120542112Y-63664552D03*
X114700000Y-48600000D03*
X146100000Y-65200000D03*
X132750000Y-81150000D03*
X110500000Y-92150000D03*
X152700000Y-83100000D03*
X145600000Y-81400000D03*
X116950000Y-58750000D03*
X153700000Y-75800000D03*
X147000000Y-71900000D03*
X134300000Y-52050000D03*
X129750000Y-44700000D03*
X158300000Y-84650000D03*
X153500000Y-82600000D03*
X153400000Y-64300000D03*
X139600000Y-44750000D03*
X151600000Y-61900000D03*
X108500000Y-60800000D03*
X150200000Y-84100000D03*
X112850000Y-54900000D03*
X143550000Y-95550000D03*
X147900000Y-69600000D03*
X114800000Y-59200000D03*
X112150000Y-92650000D03*
X126788909Y-96750000D03*
X153400000Y-58800000D03*
X139700000Y-69300000D03*
X115500000Y-56900000D03*
X132300000Y-53000000D03*
X146400000Y-81400000D03*
X145150000Y-65150000D03*
X130450000Y-46000000D03*
X148800000Y-68800000D03*
X150800000Y-61300000D03*
X140550000Y-63800000D03*
X117050000Y-70600000D03*
X156200000Y-68200000D03*
X128450000Y-97450000D03*
X116500000Y-62700000D03*
X151900000Y-66800000D03*
X110500000Y-91250000D03*
X131700000Y-97500000D03*
X112950000Y-84450000D03*
X150600000Y-80800000D03*
X110800000Y-51200000D03*
X154200000Y-62500000D03*
X138400000Y-47100000D03*
X147900000Y-82300000D03*
X118650000Y-98300000D03*
X145800000Y-85800000D03*
X123200000Y-48800000D03*
X145100000Y-85400000D03*
X143850000Y-93350000D03*
X145100000Y-73200000D03*
X141550000Y-96400000D03*
X112850000Y-93050000D03*
X132150000Y-91950000D03*
X145800000Y-84900000D03*
X124400000Y-50050000D03*
X147300000Y-84200000D03*
X123200000Y-49700000D03*
X153500000Y-63400000D03*
X152000000Y-84500000D03*
X133150000Y-52750000D03*
X109450000Y-82550000D03*
X117350000Y-52000000D03*
X114800000Y-57400000D03*
X119800000Y-74800000D03*
X147300000Y-77700000D03*
X115500000Y-57800000D03*
X128850000Y-69400000D03*
X153500000Y-84400000D03*
X125000000Y-97500000D03*
X149700000Y-69600000D03*
X106200000Y-60100000D03*
X143300000Y-58700000D03*
X147500000Y-61300000D03*
X148900000Y-91800000D03*
X138900000Y-47800000D03*
X146600000Y-63600000D03*
X129250000Y-100600000D03*
X146200000Y-77400000D03*
X157300000Y-79850000D03*
X150200000Y-77100000D03*
X116800000Y-64950000D03*
X103750000Y-80850000D03*
X155900000Y-70600000D03*
X149100000Y-61500000D03*
X153900000Y-72900000D03*
X139000000Y-68900000D03*
X150750000Y-57600000D03*
X152300000Y-65000000D03*
X121950000Y-77400000D03*
X126550000Y-87700000D03*
X132500000Y-97500000D03*
X146000000Y-80700000D03*
X105800000Y-73300000D03*
X146350000Y-89850000D03*
X150700000Y-82600000D03*
X122750000Y-100000000D03*
X157650000Y-73900000D03*
X110400000Y-63900000D03*
X125500000Y-87500000D03*
X145300000Y-75800000D03*
X147300000Y-76000000D03*
X153300000Y-77800000D03*
X152000000Y-82700000D03*
X140600000Y-45850000D03*
X152700000Y-82200000D03*
X142450000Y-54600000D03*
X154400000Y-73600000D03*
X124850000Y-83550000D03*
X123000000Y-76450000D03*
X145100000Y-86300000D03*
X152000000Y-83600000D03*
X153200000Y-65500000D03*
X103050000Y-81350000D03*
X115550000Y-97050000D03*
X136300000Y-55850000D03*
X144600000Y-73900000D03*
X130650000Y-64900000D03*
X145000000Y-80800000D03*
X157400000Y-58950000D03*
X157650000Y-74800000D03*
X147100000Y-59250000D03*
X153800000Y-79300000D03*
X148800000Y-69600000D03*
X135500000Y-83500000D03*
X112550000Y-77350000D03*
X148200000Y-93200000D03*
X155900000Y-65900000D03*
X147500000Y-78700000D03*
X103700000Y-83450000D03*
X106750000Y-68650000D03*
X113800000Y-67550000D03*
X145800000Y-66000000D03*
X148900000Y-92700000D03*
X106250000Y-67950000D03*
X147900000Y-49700000D03*
X131950000Y-81150000D03*
X109800000Y-90850000D03*
X119650000Y-96800000D03*
X155500000Y-63600000D03*
X119400000Y-85100000D03*
X151450000Y-56200000D03*
X118350000Y-59450000D03*
X112367870Y-85649286D03*
X103750000Y-81750000D03*
X156000000Y-64900000D03*
X103050000Y-80450000D03*
X114000000Y-50000000D03*
X145200000Y-77500000D03*
X113550000Y-54400000D03*
X141250000Y-63300000D03*
X127900000Y-100450000D03*
X147100000Y-81800000D03*
X135000000Y-49950000D03*
X145800000Y-86700000D03*
X103750000Y-79950000D03*
X150750000Y-55800000D03*
X148900000Y-90900000D03*
X142500000Y-55800000D03*
X145600000Y-82200000D03*
X157100000Y-68700000D03*
X155500000Y-73600000D03*
X140850000Y-96000000D03*
X149800000Y-80800000D03*
X156000000Y-72800000D03*
X111300000Y-63900000D03*
X121650000Y-62500000D03*
X112000000Y-67750000D03*
X130900000Y-97500000D03*
X155100000Y-65300000D03*
X114350000Y-83300000D03*
X138000000Y-48150000D03*
X114150000Y-96200000D03*
X152600000Y-64000000D03*
X124550000Y-80950000D03*
X153400000Y-80200000D03*
X156600000Y-78550000D03*
X158350000Y-74300000D03*
X122200000Y-45800000D03*
X110150000Y-74000000D03*
X119450000Y-97750000D03*
X112650000Y-83700000D03*
X134900000Y-52650000D03*
X128600000Y-71450000D03*
X153300000Y-71400000D03*
X146300000Y-64400000D03*
X153500000Y-81700000D03*
X153900000Y-78400000D03*
X145800000Y-83100000D03*
X154500000Y-76300000D03*
X112850000Y-93950000D03*
X124172182Y-95227818D03*
X152100000Y-81300000D03*
X147300000Y-74300000D03*
X156700000Y-66300000D03*
X148500000Y-50300000D03*
X155100000Y-64400000D03*
X107600000Y-60800000D03*
X148050000Y-56100000D03*
X146100000Y-76100000D03*
X136450000Y-99650000D03*
X148900000Y-78550000D03*
X105800000Y-74200000D03*
X145800000Y-87600000D03*
X103050000Y-82250000D03*
X112300000Y-87275000D03*
X135450000Y-47950000D03*
X155400000Y-72100000D03*
X150100000Y-64900000D03*
X103700000Y-74800000D03*
X149900000Y-81700000D03*
X119900000Y-95950000D03*
X156900000Y-69700000D03*
X153500000Y-76600000D03*
X147700000Y-72700000D03*
X121300000Y-45800000D03*
X111400000Y-94100000D03*
X153500000Y-83500000D03*
X150600000Y-83400000D03*
X105100000Y-73800000D03*
X154500000Y-75400000D03*
X145800000Y-72800000D03*
X150800000Y-62400000D03*
X121350000Y-93150000D03*
X119900000Y-48750000D03*
X126150000Y-50150000D03*
X117850000Y-58750000D03*
X113000000Y-69200000D03*
X139700000Y-68400000D03*
X152700000Y-84900000D03*
X145650000Y-90350000D03*
X157400000Y-67800000D03*
X151200000Y-74500000D03*
X140150000Y-52400000D03*
X122600000Y-45100000D03*
X129100000Y-91300000D03*
X140550000Y-62000000D03*
X102200000Y-67400000D03*
X157400000Y-59850000D03*
X123500000Y-45100000D03*
X152500000Y-66200000D03*
X110800000Y-52100000D03*
X124000000Y-45800000D03*
X146600000Y-75400000D03*
X158100000Y-60250000D03*
X133300000Y-97500000D03*
X140450000Y-44900000D03*
X120600000Y-48250000D03*
X152600000Y-62900000D03*
X151700000Y-76700000D03*
X148400000Y-61100000D03*
X140700000Y-94300000D03*
X149800000Y-83300000D03*
X108000000Y-60100000D03*
X133350000Y-49800000D03*
X152700000Y-84000000D03*
X155000000Y-74500000D03*
X146700000Y-62700000D03*
X150600000Y-77800000D03*
X147800000Y-81400000D03*
X158300000Y-83750000D03*
X156300000Y-64100000D03*
X134950000Y-58200000D03*
X130350000Y-81150000D03*
X154500000Y-63400000D03*
X156200000Y-71500000D03*
X105100000Y-72900000D03*
X104400000Y-74300000D03*
X110100000Y-52600000D03*
X155900000Y-66900000D03*
X125800000Y-99650000D03*
X121650000Y-99400000D03*
X127863909Y-77013909D03*
X144900000Y-79800000D03*
X127900000Y-55250000D03*
X148200000Y-92300000D03*
X146500000Y-74400000D03*
X148900000Y-55850000D03*
X116300000Y-71050000D03*
X150600000Y-75400000D03*
X147400000Y-75100000D03*
X112900000Y-67750000D03*
X150700000Y-73800000D03*
X144400000Y-77450000D03*
X114700000Y-49500000D03*
X117800000Y-89800000D03*
X146900000Y-61900000D03*
X147100000Y-60150000D03*
X145300000Y-74400000D03*
X126650000Y-99600000D03*
X119900000Y-47850000D03*
X114000000Y-49100000D03*
X127000000Y-55250000D03*
X147800000Y-59650000D03*
X126550000Y-69400000D03*
X135450000Y-56100000D03*
X117100000Y-97700000D03*
X114000000Y-79650000D03*
X106700000Y-60800000D03*
X155200000Y-66300000D03*
X115500000Y-59600000D03*
X158100000Y-59350000D03*
X148200000Y-91400000D03*
X103600000Y-68100000D03*
X150100000Y-62000000D03*
X119050000Y-71150000D03*
X135200000Y-46900000D03*
X147900000Y-68000000D03*
X103700000Y-73000000D03*
X124400000Y-89600000D03*
X156800000Y-70500000D03*
X116650000Y-52500000D03*
X147900000Y-68800000D03*
X130450000Y-44200000D03*
X145900000Y-73800000D03*
X112700000Y-74750000D03*
X105100000Y-74700000D03*
X104400000Y-72500000D03*
X154100000Y-74500000D03*
X154200000Y-77300000D03*
X125300000Y-50250000D03*
X122000000Y-93750000D03*
X107100000Y-60100000D03*
X102700000Y-68100000D03*
X120450000Y-77450000D03*
X115050000Y-81900000D03*
X150600000Y-88200000D03*
X152000000Y-85400000D03*
%TO.N,Net-(C1-Pad2)*%
X128113909Y-76163909D03*
X121950000Y-82550000D03*
X123450000Y-89650000D03*
X121600000Y-86100000D03*
%TO.N,NRST*%
X109836159Y-81391660D03*
X122400000Y-68550000D03*
%TO.N,QSPI_CLK*%
X111500000Y-72400000D03*
X114150000Y-74450000D03*
X118100000Y-84850000D03*
X118463909Y-79236091D03*
%TO.N,QSPI_NCS*%
X115800000Y-74299999D03*
X107600000Y-79950000D03*
%TO.N,QSPI_D0*%
X122481954Y-83595864D03*
X113675000Y-75225000D03*
X119900000Y-81250000D03*
X109650000Y-71800000D03*
%TO.N,QSPI_D1*%
X121350000Y-75450000D03*
X114950000Y-77750000D03*
X113050000Y-75746935D03*
X109825001Y-76798515D03*
%TO.N,QSPI_D3*%
X109999095Y-85692289D03*
X104300000Y-71499998D03*
%TO.N,FG_NALERT*%
X134400000Y-63150000D03*
X127750000Y-66000000D03*
%TO.N,Net-(J6-Pin_2)*%
X113200000Y-85500000D03*
X117850000Y-93100000D03*
%TO.N,BTN*%
X121809719Y-95872893D03*
X116525000Y-69175000D03*
X118950000Y-93350000D03*
X132175000Y-58075000D03*
X117700000Y-68000000D03*
X134650000Y-98100000D03*
%TO.N,Net-(ATGM336H1-GND)*%
X118900000Y-62522182D03*
X112750000Y-59400000D03*
X112250000Y-65400000D03*
%TO.N,GPS_ON*%
X117200000Y-71500000D03*
X110450000Y-70550000D03*
%TO.N,LDO_EN*%
X140700000Y-47150000D03*
X115047182Y-71352818D03*
X133100000Y-53950000D03*
X112400000Y-82300000D03*
X148400000Y-51700000D03*
X118000000Y-63350000D03*
%TO.N,BL_ANODE*%
X121300000Y-98650000D03*
X133700000Y-89700000D03*
X134500000Y-87600000D03*
X124844306Y-98455694D03*
X127500000Y-94150000D03*
X136150000Y-86850000D03*
%TO.N,BL_CATHODE*%
X139250000Y-82000000D03*
X122662649Y-98075823D03*
X125636091Y-95913909D03*
X126850000Y-94725000D03*
X137350000Y-82900000D03*
X140450000Y-82000000D03*
%TD*%
D16*
%TO.N,BL_CATHODE*%
X124272182Y-94550000D02*
X125636091Y-95913909D01*
X121259719Y-95640281D02*
X122350000Y-94550000D01*
X121259719Y-96672893D02*
X121259719Y-95640281D01*
X122350000Y-94550000D02*
X124272182Y-94550000D01*
X122662649Y-98075823D02*
X121259719Y-96672893D01*
D17*
%TO.N,BL_ANODE*%
X124538612Y-98650000D02*
X124788612Y-98400000D01*
X121300000Y-98650000D02*
X124538612Y-98650000D01*
D16*
%TO.N,+3V3*%
X145630603Y-95636403D02*
X145630603Y-94969397D01*
X145630603Y-94969397D02*
X146300000Y-94300000D01*
%TO.N,GPS_TXD*%
X117925000Y-62325000D02*
X117747182Y-62325000D01*
X117747182Y-62325000D02*
X116200000Y-63872182D01*
X116200000Y-63872182D02*
X116200000Y-67350000D01*
D17*
%TO.N,VCC*%
X121622182Y-85200000D02*
X121727818Y-85200000D01*
X128350000Y-57800000D02*
X128650000Y-57500000D01*
X120750000Y-88000000D02*
X120750000Y-86072182D01*
X120750000Y-86072182D02*
X121622182Y-85200000D01*
D16*
X144387500Y-52400000D02*
X142500000Y-50512500D01*
D17*
X142087500Y-50512500D02*
X140850000Y-51750000D01*
X136550000Y-57500000D02*
X137200000Y-58150000D01*
X118700000Y-90050000D02*
X120750000Y-88000000D01*
X128650000Y-57500000D02*
X136550000Y-57500000D01*
D16*
X123800000Y-76850000D02*
X123700000Y-76750000D01*
X142500000Y-50512500D02*
X142309682Y-50512500D01*
D17*
X123700000Y-76750000D02*
X123650000Y-76700000D01*
X123650000Y-64150000D02*
X123750000Y-64050000D01*
X123150000Y-82250000D02*
X122350000Y-81450000D01*
D16*
X147550000Y-52400000D02*
X144387500Y-52400000D01*
D17*
X118700000Y-90250000D02*
X118700000Y-90050000D01*
X140850000Y-56350374D02*
X140724584Y-56475790D01*
X140850000Y-51750000D02*
X140850000Y-56350374D01*
X123150000Y-83777818D02*
X123150000Y-82250000D01*
X121727818Y-85200000D02*
X123150000Y-83777818D01*
X123650000Y-76700000D02*
X123650000Y-64150000D01*
X142309682Y-50512500D02*
X142087500Y-50512500D01*
D16*
%TO.N,VBUS*%
X124850000Y-70850000D02*
X124850000Y-65800000D01*
X128950000Y-75875000D02*
X129050000Y-75775000D01*
X129050000Y-73327818D02*
X126671284Y-70949102D01*
X125854576Y-71300000D02*
X125300000Y-71300000D01*
X126671284Y-70949102D02*
X126205474Y-70949102D01*
X132250000Y-60350000D02*
X131600000Y-61000000D01*
X132250000Y-59450000D02*
X132250000Y-60350000D01*
X129050000Y-75775000D02*
X129050000Y-73327818D01*
X126205474Y-70949102D02*
X125854576Y-71300000D01*
X125300000Y-71300000D02*
X124850000Y-70850000D01*
X124850000Y-65800000D02*
X127250000Y-63400000D01*
%TO.N,Net-(J1-CC1)*%
X131486091Y-50336091D02*
X132200000Y-51050000D01*
X132200000Y-51050000D02*
X132400000Y-51050000D01*
%TO.N,Net-(U4-PROG)*%
X140100000Y-54300000D02*
X138200000Y-52400000D01*
X138200000Y-52400000D02*
X138200000Y-52350000D01*
%TO.N,ANT_SW_CTRL*%
X146375000Y-67125000D02*
X146375000Y-72375000D01*
X146375000Y-72375000D02*
X152800000Y-78800000D01*
X146600000Y-66900000D02*
X146375000Y-67125000D01*
%TO.N,LCD_RST*%
X135902230Y-80263627D02*
X137349493Y-80263627D01*
X139900000Y-84922182D02*
X139586091Y-85236091D01*
X141750000Y-88950000D02*
X141750000Y-90077818D01*
X138150000Y-79463120D02*
X138150000Y-79100000D01*
X123600000Y-93050000D02*
X129200000Y-93050000D01*
X141750000Y-90077818D02*
X141177818Y-90650000D01*
X141177818Y-90650000D02*
X139000000Y-90650000D01*
X139775000Y-79925000D02*
X139900000Y-80050000D01*
X129200000Y-93050000D02*
X129900000Y-92350000D01*
X139000000Y-90650000D02*
X137200000Y-92450000D01*
X139900000Y-80050000D02*
X139900000Y-84922182D01*
X134988603Y-79350000D02*
X135902230Y-80263627D01*
X137349493Y-80263627D02*
X138150000Y-79463120D01*
X123075000Y-92525000D02*
X123600000Y-93050000D01*
%TO.N,LoRa_BUSY*%
X140194975Y-85900000D02*
X139894975Y-86200000D01*
X134472182Y-85650000D02*
X134150000Y-85972182D01*
X141950000Y-77100000D02*
X142300000Y-76750000D01*
X138577817Y-86200000D02*
X138027818Y-85650000D01*
X142300000Y-76750000D02*
X142300000Y-70550000D01*
X139894975Y-86200000D02*
X138577817Y-86200000D01*
X134150000Y-85972182D02*
X134150000Y-86550000D01*
X138027818Y-85650000D02*
X134472182Y-85650000D01*
X134150000Y-86550000D02*
X133175000Y-87525000D01*
X141550000Y-85788909D02*
X141438909Y-85900000D01*
X133175000Y-87525000D02*
X132575000Y-87525000D01*
X141438909Y-85900000D02*
X140194975Y-85900000D01*
%TO.N,LoRa_NSS*%
X123200000Y-74427818D02*
X123200000Y-62169364D01*
X123200000Y-62169364D02*
X124119364Y-61250000D01*
X135350000Y-60150000D02*
X145825000Y-70625000D01*
X122813909Y-74813909D02*
X123200000Y-74427818D01*
X134450000Y-60150000D02*
X135350000Y-60150000D01*
X145825000Y-70625000D02*
X145825000Y-71900000D01*
X124119364Y-61250000D02*
X127900000Y-61250000D01*
%TO.N,INT_MAG*%
X134350000Y-93000000D02*
X141250000Y-93000000D01*
X141250000Y-93000000D02*
X141300000Y-92950000D01*
X129888909Y-89188909D02*
X129888909Y-87800000D01*
X134300000Y-92950000D02*
X134350000Y-93000000D01*
X130300000Y-89600000D02*
X129888909Y-89188909D01*
%TO.N,LCD_B3*%
X126700000Y-80400000D02*
X130900000Y-76200000D01*
X134150000Y-75150000D02*
X135650000Y-75150000D01*
X122300000Y-80400000D02*
X126700000Y-80400000D01*
X122050000Y-80650000D02*
X122300000Y-80400000D01*
X115225000Y-84675000D02*
X116550000Y-83350000D01*
X135650000Y-75150000D02*
X137700000Y-73100000D01*
X116550000Y-83350000D02*
X117150000Y-83350000D01*
%TO.N,SCK*%
X136050000Y-61750000D02*
X129672792Y-61750000D01*
X122400000Y-61905026D02*
X122400000Y-62750000D01*
X135400000Y-75850000D02*
X136522182Y-75850000D01*
X136522182Y-75850000D02*
X138522182Y-73850000D01*
X134300000Y-76900000D02*
X134350000Y-76900000D01*
X139450000Y-73850000D02*
X140300000Y-74700000D01*
X140900000Y-74700000D02*
X141350000Y-74250000D01*
X140300000Y-74700000D02*
X140900000Y-74700000D01*
X128272792Y-60350000D02*
X123955026Y-60350000D01*
X141350000Y-74250000D02*
X141350000Y-70850000D01*
X141350000Y-70850000D02*
X141200000Y-70700000D01*
X134350000Y-76900000D02*
X135400000Y-75850000D01*
X123955026Y-60350000D02*
X122400000Y-61905026D01*
X141600000Y-67200000D02*
X141500000Y-67200000D01*
X138522182Y-73850000D02*
X139450000Y-73850000D01*
X122400000Y-62750000D02*
X120500000Y-64650000D01*
X129672792Y-61750000D02*
X128272792Y-60350000D01*
X141500000Y-67200000D02*
X136050000Y-61750000D01*
X120500000Y-64650000D02*
X120500000Y-67750000D01*
%TO.N,XL_INT1*%
X133350000Y-85550000D02*
X128700000Y-85550000D01*
X137300000Y-84700000D02*
X137050000Y-84950000D01*
X133950000Y-84950000D02*
X133350000Y-85550000D01*
X137050000Y-84950000D02*
X133950000Y-84950000D01*
X128700000Y-85550000D02*
X128275000Y-85125000D01*
%TO.N,LCD_CS*%
X130000000Y-71550000D02*
X129500000Y-71050000D01*
X130350000Y-71550000D02*
X130000000Y-71550000D01*
X130250000Y-72677818D02*
X130400000Y-72527818D01*
X132700000Y-76400000D02*
X132400000Y-76400000D01*
X130250000Y-74250000D02*
X130250000Y-72677818D01*
X130400000Y-72527818D02*
X130400000Y-71600000D01*
X132400000Y-76400000D02*
X130250000Y-74250000D01*
X130400000Y-71600000D02*
X130350000Y-71550000D01*
%TO.N,USB_D-*%
X124700000Y-65455025D02*
X124700000Y-63800000D01*
X125720110Y-63119302D02*
X126087806Y-63486998D01*
X124800000Y-75721011D02*
X124500000Y-75421011D01*
X124956435Y-63543568D02*
X124871581Y-63628420D01*
X124922182Y-76800000D02*
X124800000Y-76677818D01*
X124800000Y-76677818D02*
X124800000Y-75721011D01*
X124700000Y-63800000D02*
X124800000Y-63700000D01*
X126672488Y-61827512D02*
X125720110Y-62779890D01*
X125663542Y-63911262D02*
X125295847Y-63543567D01*
X124500000Y-65655025D02*
X124700000Y-65455025D01*
X124500000Y-75421011D02*
X124500000Y-65655025D01*
X124871581Y-63628420D02*
X124800000Y-63700000D01*
X126672488Y-61800000D02*
X126672488Y-61827512D01*
X126087805Y-63826410D02*
X126002954Y-63911262D01*
X126087806Y-63486998D02*
G75*
G02*
X126087801Y-63826406I-169706J-169702D01*
G01*
X126002953Y-63911261D02*
G75*
G02*
X125663543Y-63911261I-169705J169700D01*
G01*
X125295847Y-63543567D02*
G75*
G03*
X124956394Y-63543527I-169747J-169733D01*
G01*
X125720110Y-62779890D02*
G75*
G03*
X125720106Y-63119306I169690J-169710D01*
G01*
%TO.N,USB_D+*%
X124350000Y-65310051D02*
X124150000Y-65510051D01*
X124575000Y-62650000D02*
X124350000Y-62875000D01*
X124350000Y-62875000D02*
X124350000Y-65310051D01*
X124150000Y-75848829D02*
X124250000Y-75948829D01*
X124150000Y-65510051D02*
X124150000Y-75848829D01*
%TO.N,LCD_HSYNC*%
X137994974Y-77800000D02*
X138954664Y-77800000D01*
X137344974Y-78450000D02*
X137994974Y-77800000D01*
X138954664Y-77800000D02*
X139050000Y-77704664D01*
X133000000Y-78450000D02*
X137344974Y-78450000D01*
X132450000Y-79000000D02*
X133000000Y-78450000D01*
%TO.N,LCD_R1*%
X118000000Y-81600000D02*
X117400000Y-81000000D01*
X132600000Y-66472182D02*
X133822182Y-65250000D01*
X116000000Y-78100000D02*
X119194975Y-78100000D01*
X115250000Y-85477208D02*
X116577208Y-84150000D01*
X133822182Y-65250000D02*
X137850000Y-65250000D01*
X127625000Y-75375000D02*
X127625000Y-75097182D01*
X137850000Y-65250000D02*
X138250000Y-65650000D01*
X116577208Y-84150000D02*
X117450000Y-84150000D01*
X115600000Y-78500000D02*
X116000000Y-78100000D01*
X119294975Y-78000000D02*
X125000000Y-78000000D01*
X125000000Y-78000000D02*
X127625000Y-75375000D01*
X132600000Y-72178318D02*
X132600000Y-66472182D01*
X115450000Y-86800000D02*
X115250000Y-86600000D01*
X128422182Y-74300000D02*
X128500000Y-74300000D01*
X118000000Y-83600000D02*
X118000000Y-81600000D01*
X119194975Y-78100000D02*
X119294975Y-78000000D01*
X130800000Y-73978318D02*
X132600000Y-72178318D01*
X117450000Y-84150000D02*
X118000000Y-83600000D01*
X127625000Y-75097182D02*
X128422182Y-74300000D01*
X115250000Y-86600000D02*
X115250000Y-85477208D01*
%TO.N,Net-(J5-Pin_12)*%
X136750000Y-90200000D02*
X135900000Y-90200000D01*
X140550000Y-88750000D02*
X139600000Y-89700000D01*
X132500000Y-93600000D02*
X132400000Y-93600000D01*
X139600000Y-89700000D02*
X138700000Y-89700000D01*
X137250000Y-89700000D02*
X136750000Y-90200000D01*
X135900000Y-90200000D02*
X132500000Y-93600000D01*
%TO.N,LoRa_RST*%
X137050000Y-88800000D02*
X132999184Y-88800000D01*
X139300000Y-88800000D02*
X138800000Y-88800000D01*
X141700000Y-87800000D02*
X140300000Y-87800000D01*
X142300000Y-77850000D02*
X142644364Y-77850000D01*
X132999184Y-88800000D02*
X132550000Y-89249184D01*
X142644364Y-77850000D02*
X142850000Y-77644364D01*
X142850000Y-77644364D02*
X142850000Y-71300000D01*
X140300000Y-87800000D02*
X139300000Y-88800000D01*
X142000000Y-86450000D02*
X142000000Y-87500000D01*
X142000000Y-87500000D02*
X141700000Y-87800000D01*
%TO.N,LCD_B2*%
X138172792Y-85300000D02*
X138722792Y-85850000D01*
X122763909Y-91263909D02*
X124486091Y-91263909D01*
X139600000Y-75350000D02*
X138700000Y-74450000D01*
X133800000Y-85594974D02*
X134094974Y-85300000D01*
X125200000Y-90550000D02*
X131600000Y-90550000D01*
X133800000Y-86400000D02*
X133800000Y-85594974D01*
X132000000Y-87322182D02*
X132347182Y-86975000D01*
X139750000Y-85850000D02*
X140550000Y-85050000D01*
X133225000Y-86975000D02*
X133800000Y-86400000D01*
X138722792Y-85850000D02*
X139750000Y-85850000D01*
X132000000Y-90150000D02*
X132000000Y-87322182D01*
X134094974Y-85300000D02*
X138172792Y-85300000D01*
X124486091Y-91263909D02*
X125200000Y-90550000D01*
X132347182Y-86975000D02*
X133225000Y-86975000D01*
X131600000Y-90550000D02*
X132000000Y-90150000D01*
X141050000Y-75350000D02*
X139600000Y-75350000D01*
%TO.N,LCD_G3*%
X130826603Y-86700000D02*
X125000000Y-86700000D01*
X125000000Y-86700000D02*
X124500000Y-86200000D01*
X139350000Y-71350000D02*
X138250000Y-71350000D01*
X139500000Y-71500000D02*
X139350000Y-71350000D01*
X131076603Y-86450000D02*
X130826603Y-86700000D01*
X134200000Y-82000000D02*
X133950000Y-82250000D01*
X139661091Y-79111091D02*
X136772182Y-82000000D01*
X138250000Y-71350000D02*
X137250000Y-70350000D01*
X136772182Y-82000000D02*
X134200000Y-82000000D01*
%TO.N,LCD_R4*%
X122650000Y-73277818D02*
X118727818Y-77200000D01*
X130650000Y-68200000D02*
X127972182Y-68200000D01*
X119950000Y-79850000D02*
X119350000Y-80450000D01*
X131100000Y-67750000D02*
X130650000Y-68200000D01*
X119350000Y-80450000D02*
X119350000Y-84050000D01*
X118727818Y-77200000D02*
X118100000Y-77200000D01*
X127650000Y-68522182D02*
X127650000Y-69500000D01*
X122650000Y-71250000D02*
X122650000Y-73277818D01*
X127972182Y-68200000D02*
X127650000Y-68522182D01*
%TO.N,LCD_G0*%
X122950000Y-79800000D02*
X126450000Y-79800000D01*
X126450000Y-79800000D02*
X129850000Y-76400000D01*
X129850000Y-76400000D02*
X129850000Y-72300000D01*
X122700000Y-79550000D02*
X122950000Y-79800000D01*
X116872182Y-82250000D02*
X117050000Y-82250000D01*
X114638909Y-84483273D02*
X116872182Y-82250000D01*
X114638909Y-87188909D02*
X114638909Y-84483273D01*
%TO.N,LCD_VSYNC*%
X137939949Y-78350000D02*
X137489949Y-78800000D01*
X134650000Y-78800000D02*
X134097182Y-79352818D01*
X137489949Y-78800000D02*
X134650000Y-78800000D01*
X134097182Y-79352818D02*
X134097182Y-81152818D01*
X138500000Y-78350000D02*
X137939949Y-78350000D01*
X133550000Y-81700000D02*
X125500000Y-81700000D01*
X125500000Y-81700000D02*
X124750000Y-82450000D01*
X134097182Y-81152818D02*
X133550000Y-81700000D01*
X120100000Y-85850000D02*
X116700000Y-85850000D01*
X121500000Y-84450000D02*
X120100000Y-85850000D01*
%TO.N,LoRa_DIO1*%
X141100000Y-86450000D02*
X140700000Y-86850000D01*
X140700000Y-86850000D02*
X137200000Y-86850000D01*
X141750000Y-69900000D02*
X141900000Y-69750000D01*
X141750000Y-76200000D02*
X141750000Y-69900000D01*
X141600000Y-76350000D02*
X141750000Y-76200000D01*
X135693730Y-88356270D02*
X132550000Y-88356270D01*
X137200000Y-86850000D02*
X135693730Y-88356270D01*
%TO.N,LCD_G4*%
X138327818Y-73250000D02*
X138750000Y-73250000D01*
X132550000Y-77650000D02*
X134700000Y-75500000D01*
X130550000Y-77650000D02*
X132550000Y-77650000D01*
X136077818Y-75500000D02*
X138327818Y-73250000D01*
X134700000Y-75500000D02*
X136077818Y-75500000D01*
%TO.N,XL_INT0*%
X133000000Y-85900000D02*
X129150000Y-85900000D01*
X129150000Y-85900000D02*
X128700000Y-86350000D01*
X134700000Y-86200000D02*
X136900000Y-86200000D01*
X128700000Y-86350000D02*
X126925000Y-86350000D01*
X126925000Y-86350000D02*
X125300000Y-84725000D01*
X133250000Y-86150000D02*
X133000000Y-85900000D01*
%TO.N,LCD_R3*%
X123600000Y-78550000D02*
X123800000Y-78350000D01*
X120700000Y-78450000D02*
X120950000Y-78700000D01*
X116950000Y-78450000D02*
X120700000Y-78450000D01*
X114750000Y-80650000D02*
X116950000Y-78450000D01*
X125150000Y-78350000D02*
X128175000Y-75325000D01*
X133700000Y-68350000D02*
X133700000Y-71250000D01*
X133700000Y-71250000D02*
X134550000Y-72100000D01*
X134550000Y-72100000D02*
X134550000Y-73350000D01*
X134250000Y-67800000D02*
X133700000Y-68350000D01*
X123800000Y-78350000D02*
X125150000Y-78350000D01*
%TO.N,LCD_G1*%
X116150000Y-86650000D02*
X116150000Y-85350000D01*
X120100000Y-86550000D02*
X119450000Y-87200000D01*
X114722182Y-77200000D02*
X115250000Y-77200000D01*
X116700000Y-87200000D02*
X116150000Y-86650000D01*
X116600339Y-84899661D02*
X116700461Y-84899661D01*
X119450000Y-87200000D02*
X116700000Y-87200000D01*
X114400000Y-78500000D02*
X114400000Y-77522182D01*
X125926758Y-70450000D02*
X130250000Y-70450000D01*
X116150000Y-85350000D02*
X116600339Y-84899661D01*
X135772182Y-69650000D02*
X137486091Y-71363909D01*
X134500000Y-69650000D02*
X135772182Y-69650000D01*
X115250000Y-77200000D02*
X120624792Y-71825208D01*
X114400000Y-77522182D02*
X114722182Y-77200000D01*
X130250000Y-70450000D02*
X131000000Y-69700000D01*
X120624792Y-71825208D02*
X121989674Y-71825208D01*
X125638379Y-70738379D02*
X125926758Y-70450000D01*
%TO.N,LCD_B5*%
X117400000Y-75850000D02*
X119300000Y-75850000D01*
X116950000Y-76300000D02*
X117400000Y-75850000D01*
%TO.N,LCD_DE*%
X137100000Y-78100000D02*
X132472182Y-78100000D01*
X129100000Y-81150000D02*
X128900000Y-81350000D01*
X131900000Y-78672182D02*
X131900000Y-79750000D01*
X128900000Y-81350000D02*
X125072182Y-81350000D01*
X131900000Y-79750000D02*
X132250000Y-80100000D01*
X124200000Y-82222182D02*
X124200000Y-82972182D01*
X124200000Y-82972182D02*
X124250000Y-83022182D01*
X125072182Y-81350000D02*
X124200000Y-82222182D01*
X132472182Y-78100000D02*
X131900000Y-78672182D01*
X124250000Y-84600000D02*
X122650000Y-86200000D01*
X124250000Y-83022182D02*
X124250000Y-84600000D01*
X137950000Y-77250000D02*
X137100000Y-78100000D01*
%TO.N,LCD_R5*%
X123600000Y-81150000D02*
X123650000Y-81200000D01*
X123650000Y-81200000D02*
X123650000Y-84300000D01*
X129500000Y-76255026D02*
X129500000Y-73000000D01*
X134050000Y-66822182D02*
X134050000Y-65800000D01*
X126505026Y-79250000D02*
X129500000Y-76255026D01*
X133150000Y-67722182D02*
X134050000Y-66822182D01*
X124900000Y-79250000D02*
X126505026Y-79250000D01*
X133150000Y-70650000D02*
X133150000Y-67722182D01*
X123650000Y-84300000D02*
X123400000Y-84550000D01*
X129500000Y-73000000D02*
X128800000Y-72300000D01*
%TO.N,LCD_B4*%
X127250000Y-75250000D02*
X124950000Y-77550000D01*
X124950000Y-77550000D02*
X123150000Y-77550000D01*
X127647182Y-74297182D02*
X127250000Y-74694364D01*
X122200000Y-76600000D02*
X121250000Y-76600000D01*
X123150000Y-77550000D02*
X122200000Y-76600000D01*
X127250000Y-74694364D02*
X127250000Y-75250000D01*
%TO.N,LCD_G2*%
X134750000Y-81450000D02*
X136800000Y-81450000D01*
X124750000Y-85177818D02*
X124750000Y-84450000D01*
X138700000Y-79150000D02*
X140150000Y-77700000D01*
X125086091Y-85513909D02*
X124750000Y-85177818D01*
X135000000Y-70450000D02*
X137050000Y-72500000D01*
X126550000Y-82650000D02*
X130300000Y-82650000D01*
X134900000Y-70450000D02*
X135000000Y-70450000D01*
X138700000Y-79550000D02*
X138700000Y-79150000D01*
X137050000Y-72500000D02*
X140100000Y-72500000D01*
X124750000Y-84450000D02*
X126550000Y-82650000D01*
X136800000Y-81450000D02*
X138700000Y-79550000D01*
X140150000Y-77700000D02*
X140150000Y-77400000D01*
%TO.N,LCD_R2*%
X128200000Y-87050000D02*
X131577913Y-87050000D01*
X138717156Y-80550000D02*
X136917156Y-82350000D01*
X140650000Y-71700000D02*
X137249262Y-68299262D01*
X116313909Y-91813909D02*
X115450000Y-90950000D01*
X131577913Y-87050000D02*
X132177913Y-86450000D01*
X124886091Y-91813909D02*
X116313909Y-91813909D01*
X136917156Y-82350000D02*
X135650000Y-82350000D01*
X137249262Y-68299262D02*
X137249262Y-67499262D01*
X139150000Y-80550000D02*
X138717156Y-80550000D01*
X135650000Y-82350000D02*
X135275000Y-82725000D01*
X127350000Y-87900000D02*
X128200000Y-87050000D01*
X140650000Y-74050000D02*
X140650000Y-71700000D01*
X125600000Y-91100000D02*
X124886091Y-91813909D01*
%TO.N,SDA*%
X138000000Y-87950000D02*
X138000000Y-89850000D01*
X137950000Y-87900000D02*
X138000000Y-87950000D01*
X138000000Y-89850000D02*
X137100000Y-90750000D01*
X136905025Y-90950000D02*
X136150000Y-90950000D01*
X137100000Y-90755025D02*
X136905025Y-90950000D01*
X138600000Y-87250000D02*
X137950000Y-87900000D01*
X132900000Y-85000000D02*
X132100000Y-84200000D01*
X137100000Y-90750000D02*
X137100000Y-90755025D01*
X141450000Y-87250000D02*
X138600000Y-87250000D01*
X132100000Y-84200000D02*
X130300000Y-84200000D01*
%TO.N,SCL*%
X119950000Y-90900000D02*
X117572182Y-90900000D01*
X130550000Y-90200000D02*
X123927818Y-90200000D01*
X120400000Y-90450000D02*
X119950000Y-90900000D01*
X113450000Y-83722182D02*
X113450000Y-79422182D01*
X122488909Y-67688909D02*
X121100000Y-66300000D01*
X145750000Y-53900000D02*
X145750000Y-55450000D01*
X131150000Y-88000000D02*
X131150000Y-87800000D01*
X144150000Y-57050000D02*
X126400000Y-57050000D01*
X114472182Y-76850000D02*
X115105026Y-76850000D01*
X121100000Y-66300000D02*
X121100000Y-64900000D01*
X135750000Y-89600000D02*
X136110000Y-89600000D01*
X145750000Y-55450000D02*
X144150000Y-57050000D01*
X113800000Y-79072182D02*
X113800000Y-77522182D01*
X117572182Y-90900000D02*
X114050000Y-87377818D01*
X134200000Y-91150000D02*
X135750000Y-89600000D01*
X131150000Y-89600000D02*
X130550000Y-90200000D01*
X131450000Y-89600000D02*
X131450000Y-88300000D01*
X114050000Y-87377818D02*
X114050000Y-84322182D01*
X133950000Y-91150000D02*
X134200000Y-91150000D01*
X131450000Y-89600000D02*
X131150000Y-89600000D01*
X114050000Y-84322182D02*
X113450000Y-83722182D01*
X115105026Y-76850000D02*
X120800000Y-71155026D01*
X123677818Y-90450000D02*
X120400000Y-90450000D01*
X113800000Y-77522182D02*
X114472182Y-76850000D01*
X131450000Y-88300000D02*
X131150000Y-88000000D01*
X120800000Y-71155026D02*
X120800000Y-71100000D01*
X113450000Y-79422182D02*
X113800000Y-79072182D01*
X123927818Y-90200000D02*
X123677818Y-90450000D01*
%TO.N,MISO*%
X135527818Y-62150000D02*
X143800000Y-70422182D01*
X122450000Y-65350000D02*
X122750000Y-65050000D01*
X124100000Y-60700000D02*
X128127818Y-60700000D01*
X129577818Y-62150000D02*
X135527818Y-62150000D01*
X122750000Y-65050000D02*
X122750000Y-62050000D01*
X122750000Y-62050000D02*
X124100000Y-60700000D01*
X143800000Y-70422182D02*
X143800000Y-71050000D01*
X128127818Y-60700000D02*
X129577818Y-62150000D01*
%TO.N,MOSI*%
X142650000Y-81050000D02*
X142750000Y-81050000D01*
X125962822Y-95062822D02*
X125962822Y-95076954D01*
X135672182Y-76700000D02*
X140350000Y-76700000D01*
X126285868Y-95400000D02*
X134950000Y-95400000D01*
X143200000Y-80600000D02*
X143200000Y-79550000D01*
X134852274Y-77525067D02*
X134852274Y-77519908D01*
X121050000Y-91250000D02*
X121036091Y-91263909D01*
X142750000Y-81050000D02*
X143200000Y-80600000D01*
X125962822Y-95076954D02*
X126285868Y-95400000D01*
X140350000Y-76700000D02*
X143200000Y-79550000D01*
X142700000Y-87650000D02*
X143250000Y-88200000D01*
X116713909Y-90986091D02*
X116977818Y-91250000D01*
X143200000Y-72400000D02*
X143200000Y-79550000D01*
X134950000Y-95400000D02*
X135850000Y-96300000D01*
X124550000Y-93750000D02*
X124650000Y-93750000D01*
X143250000Y-88200000D02*
X143250000Y-91950000D01*
X116977818Y-91250000D02*
X121050000Y-91250000D01*
X143250000Y-91950000D02*
X141450000Y-93750000D01*
X141450000Y-93750000D02*
X137350000Y-93750000D01*
X134852274Y-77519908D02*
X135672182Y-76700000D01*
X143550000Y-72050000D02*
X143200000Y-72400000D01*
X124650000Y-93750000D02*
X125962822Y-95062822D01*
%TO.N,/Accel & Magnetometer/CS_MAG*%
X137250000Y-91100000D02*
X137700000Y-91100000D01*
X136200000Y-92150000D02*
X137250000Y-91100000D01*
X136100000Y-92150000D02*
X136200000Y-92150000D01*
%TO.N,Net-(C1-Pad2)*%
X123450000Y-89650000D02*
X121600000Y-87800000D01*
X121500000Y-79950000D02*
X121500000Y-82100000D01*
X127936091Y-76163909D02*
X125400000Y-78700000D01*
X124116727Y-79111091D02*
X123238909Y-79111091D01*
X128113909Y-76163909D02*
X127936091Y-76163909D01*
X121600000Y-87800000D02*
X121600000Y-86100000D01*
X123127818Y-79000000D02*
X122450000Y-79000000D01*
X124527818Y-78700000D02*
X124116727Y-79111091D01*
X123238909Y-79111091D02*
X123127818Y-79000000D01*
X121500000Y-82100000D02*
X121950000Y-82550000D01*
X122450000Y-79000000D02*
X121500000Y-79950000D01*
X125400000Y-78700000D02*
X124527818Y-78700000D01*
%TO.N,NRST*%
X107050000Y-73150000D02*
X111650000Y-68550000D01*
X107050000Y-80177818D02*
X107050000Y-73150000D01*
X107572182Y-80700000D02*
X107050000Y-80177818D01*
X109836159Y-81391660D02*
X109144499Y-80700000D01*
X109144499Y-80700000D02*
X107572182Y-80700000D01*
X111650000Y-68550000D02*
X122400000Y-68550000D01*
%TO.N,QSPI_CLK*%
X118463909Y-79236091D02*
X118463909Y-84486091D01*
X113800000Y-74450000D02*
X114150000Y-74450000D01*
X111500000Y-72400000D02*
X111750000Y-72400000D01*
X111750000Y-72400000D02*
X113800000Y-74450000D01*
X118463909Y-84486091D02*
X118100000Y-84850000D01*
%TO.N,QSPI_NCS*%
X110383039Y-78439755D02*
X110305257Y-78517538D01*
X110057770Y-77492231D02*
X110057769Y-77492231D01*
X111160856Y-77661937D02*
X111083076Y-77739718D01*
X108508958Y-79041042D02*
X107600000Y-79950000D01*
X113199753Y-76375000D02*
X111175000Y-76375000D01*
X110771948Y-77739719D02*
X110446679Y-77414450D01*
X110680023Y-76869974D02*
X111160857Y-77350809D01*
X110057768Y-77803359D02*
X110383038Y-78128629D01*
X115400001Y-74299999D02*
X113800000Y-75900000D01*
X110750734Y-76375000D02*
X110573957Y-76551776D01*
X110573957Y-76763908D02*
X110680023Y-76869974D01*
X109994131Y-78517537D02*
X109668862Y-78192268D01*
X113674753Y-75900000D02*
X113199753Y-76375000D01*
X109668862Y-78192268D02*
X109032464Y-77555870D01*
X110135553Y-77414449D02*
X110057770Y-77492231D01*
X108721337Y-77555870D02*
X108643555Y-77633651D01*
X115800000Y-74299999D02*
X115400001Y-74299999D01*
X108968824Y-78581174D02*
X108891043Y-78658956D01*
X108643555Y-77944778D02*
X108968824Y-78270047D01*
X108891043Y-78658956D02*
X108508958Y-79041042D01*
X113800000Y-75900000D02*
X113674753Y-75900000D01*
X110962867Y-76375000D02*
G75*
G03*
X110750735Y-76375001I-106066J-106064D01*
G01*
X111160856Y-77350810D02*
G75*
G02*
X111160883Y-77661964I-155556J-155590D01*
G01*
X108643555Y-77633651D02*
G75*
G03*
X108643570Y-77944763I155545J-155549D01*
G01*
X110305257Y-78517538D02*
G75*
G02*
X109994137Y-78517531I-155557J155538D01*
G01*
X111175000Y-76375000D02*
G75*
G02*
X110962868Y-76374999I-106066J106067D01*
G01*
X108968824Y-78270047D02*
G75*
G02*
X108968813Y-78581163I-155524J-155553D01*
G01*
X110057770Y-77492232D02*
G75*
G03*
X110057764Y-77803363I155530J-155568D01*
G01*
X110383038Y-78128629D02*
G75*
G02*
X110383046Y-78439762I-155538J-155571D01*
G01*
X110446679Y-77414450D02*
G75*
G03*
X110135538Y-77414434I-155579J-155550D01*
G01*
X109032464Y-77555870D02*
G75*
G03*
X108721338Y-77555871I-155563J-155562D01*
G01*
X110573957Y-76551776D02*
G75*
G03*
X110573999Y-76763866I106043J-106024D01*
G01*
X111083076Y-77739718D02*
G75*
G02*
X110771937Y-77739730I-155576J155518D01*
G01*
%TO.N,QSPI_D0*%
X120477247Y-81827247D02*
X119900000Y-81250000D01*
X120741256Y-83505470D02*
X120640846Y-83405060D01*
X113675000Y-75225000D02*
X113675000Y-74825000D01*
X122245864Y-83595864D02*
X121850000Y-83200000D01*
X113675000Y-74825000D02*
X112197182Y-73347182D01*
X121448362Y-83199999D02*
X121142892Y-83505470D01*
X112197182Y-73347182D02*
X111197182Y-73347182D01*
X120845908Y-82195908D02*
X120477247Y-81827247D01*
X122481954Y-83595864D02*
X122245864Y-83595864D01*
X111197182Y-73347182D02*
X109650000Y-71800000D01*
X120946315Y-82296316D02*
X120845908Y-82195908D01*
X120640846Y-83003424D02*
X120946315Y-82697952D01*
X120946315Y-82697952D02*
G75*
G03*
X120946349Y-82296282I-200815J200852D01*
G01*
X121850000Y-83200000D02*
G75*
G03*
X121448382Y-83200019I-200800J-200800D01*
G01*
X120640846Y-83405060D02*
G75*
G02*
X120640804Y-83003383I200854J200860D01*
G01*
X121142892Y-83505470D02*
G75*
G02*
X120741256Y-83505470I-200818J200816D01*
G01*
%TO.N,QSPI_D1*%
X110823516Y-75800000D02*
X109825001Y-76798515D01*
X113050000Y-75746935D02*
X112996935Y-75800000D01*
X112996935Y-75800000D02*
X110823516Y-75800000D01*
X119050000Y-77750000D02*
X114950000Y-77750000D01*
X121350000Y-75450000D02*
X119050000Y-77750000D01*
%TO.N,QSPI_D3*%
X105777818Y-71800000D02*
X106350000Y-72372182D01*
X106350000Y-74217139D02*
X106350000Y-74467139D01*
X106350000Y-75242139D02*
X105590000Y-75242139D01*
X106700000Y-74817139D02*
X106700000Y-75067139D01*
X106350000Y-76202139D02*
X106350000Y-76370620D01*
X106350000Y-81020152D02*
X107010000Y-81020152D01*
X105690000Y-82220152D02*
X106110000Y-82220152D01*
X107250000Y-81260152D02*
X107250000Y-81380152D01*
X106150000Y-83472870D02*
X106150000Y-85050000D01*
X105450000Y-81860152D02*
X105450000Y-81980152D01*
X106350000Y-76370620D02*
X106350000Y-79645152D01*
X105350000Y-75482139D02*
X105350000Y-75602139D01*
X107150000Y-86050000D02*
X109641384Y-86050000D01*
X106350000Y-80420152D02*
X105690000Y-80420152D01*
X105590000Y-75842139D02*
X106110000Y-75842139D01*
X106350000Y-83272870D02*
X106150000Y-83472870D01*
X106150000Y-85050000D02*
X107150000Y-86050000D01*
X107010000Y-81620152D02*
X106350000Y-81620152D01*
X106525000Y-80420152D02*
X106350000Y-80420152D01*
X106350000Y-82460152D02*
X106350000Y-82580152D01*
X105690000Y-81020152D02*
X106350000Y-81020152D01*
X106525000Y-75242139D02*
X106350000Y-75242139D01*
X109641384Y-86050000D02*
X109999095Y-85692289D01*
X104600002Y-71800000D02*
X105777818Y-71800000D01*
X106350000Y-81620152D02*
X105690000Y-81620152D01*
X106350000Y-82580152D02*
X106350000Y-83272870D01*
X104300000Y-71499998D02*
X104600002Y-71800000D01*
X106350000Y-72372182D02*
X106350000Y-73267139D01*
X106350000Y-76082139D02*
X106350000Y-76202139D01*
X106700000Y-73617139D02*
X106700000Y-73867139D01*
X106700000Y-79995152D02*
X106700000Y-80245152D01*
X105450000Y-80660152D02*
X105450000Y-80780152D01*
X107250000Y-81380152D02*
G75*
G02*
X107010000Y-81620200I-240000J-48D01*
G01*
X106525000Y-73442139D02*
G75*
G02*
X106699961Y-73617139I0J-174961D01*
G01*
X106525000Y-79820152D02*
G75*
G02*
X106700048Y-79995152I0J-175048D01*
G01*
X106110000Y-82220152D02*
G75*
G02*
X106350048Y-82460152I0J-240048D01*
G01*
X106525000Y-74642139D02*
G75*
G02*
X106699961Y-74817139I0J-174961D01*
G01*
X105350000Y-75602139D02*
G75*
G03*
X105590000Y-75842100I240000J39D01*
G01*
X105690000Y-81620152D02*
G75*
G03*
X105449952Y-81860152I0J-240048D01*
G01*
X106350000Y-74467139D02*
G75*
G03*
X106525000Y-74642100I175000J39D01*
G01*
X106700000Y-75067139D02*
G75*
G02*
X106525000Y-75242100I-175000J39D01*
G01*
X105690000Y-80420152D02*
G75*
G03*
X105449952Y-80660152I0J-240048D01*
G01*
X106350000Y-73267139D02*
G75*
G03*
X106525000Y-73442100I175000J39D01*
G01*
X106700000Y-73867139D02*
G75*
G02*
X106525000Y-74042100I-175000J39D01*
G01*
X105590000Y-75242139D02*
G75*
G03*
X105350039Y-75482139I0J-239961D01*
G01*
X106700000Y-80245152D02*
G75*
G02*
X106525000Y-80420200I-175000J-48D01*
G01*
X106110000Y-75842139D02*
G75*
G02*
X106349961Y-76082139I0J-239961D01*
G01*
X105450000Y-81980152D02*
G75*
G03*
X105690000Y-82220200I240000J-48D01*
G01*
X105450000Y-80780152D02*
G75*
G03*
X105690000Y-81020200I240000J-48D01*
G01*
X106525000Y-74042139D02*
G75*
G03*
X106350039Y-74217139I0J-174961D01*
G01*
X106350000Y-79645152D02*
G75*
G03*
X106525000Y-79820200I175000J-48D01*
G01*
X107010000Y-81020152D02*
G75*
G02*
X107250048Y-81260152I0J-240048D01*
G01*
%TO.N,FG_NALERT*%
X134400000Y-63150000D02*
X131550000Y-66000000D01*
X131550000Y-66000000D02*
X127750000Y-66000000D01*
%TO.N,Net-(J6-Pin_2)*%
X117500000Y-92750000D02*
X115850000Y-92750000D01*
X113200000Y-90100000D02*
X113200000Y-85500000D01*
X117850000Y-93100000D02*
X117500000Y-92750000D01*
X115850000Y-92750000D02*
X113200000Y-90100000D01*
%TO.N,BTN*%
X114960052Y-76500000D02*
X114327207Y-76500000D01*
X117750000Y-70400000D02*
X117750000Y-73710052D01*
X124472893Y-95872893D02*
X121809719Y-95872893D01*
X131050000Y-59200000D02*
X124100000Y-59200000D01*
X134650000Y-98100000D02*
X126700000Y-98100000D01*
X111200000Y-89427818D02*
X115472182Y-93700000D01*
X126700000Y-98100000D02*
X124472893Y-95872893D01*
X118600000Y-93700000D02*
X118950000Y-93350000D01*
X114327207Y-76500000D02*
X112950000Y-77877207D01*
X111200000Y-84372182D02*
X111200000Y-89427818D01*
X117750000Y-73710052D02*
X114960052Y-76500000D01*
X119450000Y-66250000D02*
X117700000Y-68000000D01*
X112950000Y-82622182D02*
X111200000Y-84372182D01*
X124100000Y-59200000D02*
X119450000Y-63850000D01*
X112950000Y-77877207D02*
X112950000Y-82622182D01*
X116525000Y-69175000D02*
X117750000Y-70400000D01*
X119450000Y-63850000D02*
X119450000Y-66250000D01*
X132175000Y-58075000D02*
X131050000Y-59200000D01*
X115472182Y-93700000D02*
X118600000Y-93700000D01*
%TO.N,Net-(ATGM336H1-GND)*%
X114000000Y-60650000D02*
X114000000Y-63650000D01*
X118900000Y-62000000D02*
X117550000Y-60650000D01*
X118900000Y-62522182D02*
X118900000Y-62000000D01*
X117550000Y-60650000D02*
X114000000Y-60650000D01*
X114000000Y-60650000D02*
X112750000Y-59400000D01*
X114000000Y-63650000D02*
X112250000Y-65400000D01*
%TO.N,GPS_ON*%
X116072182Y-71600000D02*
X115022182Y-70550000D01*
X115022182Y-70550000D02*
X110450000Y-70550000D01*
X117200000Y-71500000D02*
X117100000Y-71600000D01*
X117100000Y-71600000D02*
X116072182Y-71600000D01*
%TO.N,LDO_EN*%
X113532233Y-76800000D02*
X114182233Y-76150000D01*
X114182233Y-76150000D02*
X114800000Y-76150000D01*
X119050000Y-63350000D02*
X123150000Y-59250000D01*
X147172182Y-50850000D02*
X148022182Y-51700000D01*
X111757777Y-77364405D02*
X112322182Y-76800000D01*
X141627818Y-47150000D02*
X145327818Y-50850000D01*
X116350000Y-72655636D02*
X115047182Y-71352818D01*
X116350000Y-74600000D02*
X116350000Y-72655636D01*
X114800000Y-76150000D02*
X116350000Y-74600000D01*
X140700000Y-47150000D02*
X139400000Y-48450000D01*
X112322182Y-76800000D02*
X113532233Y-76800000D01*
X112400000Y-82300000D02*
X111757777Y-81657777D01*
X134377818Y-53950000D02*
X133100000Y-53950000D01*
X140700000Y-47150000D02*
X141627818Y-47150000D01*
X111757777Y-81657777D02*
X111757777Y-77364405D01*
X127500000Y-53950000D02*
X133100000Y-53950000D01*
X123150000Y-58300000D02*
X127500000Y-53950000D01*
X123150000Y-59250000D02*
X123150000Y-58300000D01*
X139400000Y-48450000D02*
X139400000Y-48927818D01*
X118000000Y-63350000D02*
X119050000Y-63350000D01*
X148022182Y-51700000D02*
X148400000Y-51700000D01*
X139400000Y-48927818D02*
X134377818Y-53950000D01*
X145327818Y-50850000D02*
X147172182Y-50850000D01*
D17*
%TO.N,BL_ANODE*%
X129652513Y-93450000D02*
X133402513Y-89700000D01*
X133402513Y-89700000D02*
X133505026Y-89700000D01*
X134500000Y-87600000D02*
X135400000Y-87600000D01*
D16*
X124788612Y-98400000D02*
X124844306Y-98455694D01*
D17*
X127500000Y-94150000D02*
X128200000Y-93450000D01*
X135400000Y-87600000D02*
X136150000Y-86850000D01*
X128200000Y-93450000D02*
X129652513Y-93450000D01*
D16*
X133505026Y-89700000D02*
X133700000Y-89700000D01*
D17*
%TO.N,BL_CATHODE*%
X143800000Y-87222182D02*
X143800000Y-92300000D01*
D16*
X126850000Y-94725000D02*
X126838686Y-94725000D01*
X140817104Y-82267104D02*
X140717104Y-82267104D01*
D17*
X143600000Y-87022182D02*
X143800000Y-87222182D01*
X139250000Y-82000000D02*
X138250000Y-82000000D01*
X140500000Y-82000000D02*
X143600000Y-85100000D01*
X143800000Y-92300000D02*
X141200000Y-94900000D01*
X138250000Y-82000000D02*
X137350000Y-82900000D01*
D16*
X140717104Y-82267104D02*
X140450000Y-82000000D01*
D17*
X143600000Y-85100000D02*
X143600000Y-87022182D01*
X141200000Y-94900000D02*
X127025000Y-94900000D01*
X140450000Y-82000000D02*
X140500000Y-82000000D01*
%TD*%
%TA.AperFunction,Conductor*%
%TO.N,GND*%
G36*
X124855944Y-43320185D02*
G01*
X124901699Y-43372989D01*
X124911643Y-43442147D01*
X124903466Y-43471952D01*
X124839106Y-43627332D01*
X124839103Y-43627341D01*
X124804500Y-43801304D01*
X124804500Y-44778695D01*
X124839103Y-44952658D01*
X124839106Y-44952667D01*
X124906983Y-45116540D01*
X124906990Y-45116553D01*
X125005535Y-45264034D01*
X125005538Y-45264038D01*
X125130961Y-45389461D01*
X125130965Y-45389464D01*
X125278446Y-45488009D01*
X125278459Y-45488016D01*
X125372970Y-45527163D01*
X125442334Y-45555894D01*
X125442336Y-45555894D01*
X125442341Y-45555896D01*
X125616304Y-45590499D01*
X125616307Y-45590500D01*
X125616309Y-45590500D01*
X125793693Y-45590500D01*
X125793694Y-45590499D01*
X125851682Y-45578964D01*
X125967658Y-45555896D01*
X125967661Y-45555894D01*
X125967666Y-45555894D01*
X126131547Y-45488013D01*
X126279035Y-45389464D01*
X126404464Y-45264035D01*
X126503013Y-45116547D01*
X126570894Y-44952666D01*
X126605500Y-44778691D01*
X126605500Y-43801309D01*
X126605500Y-43801306D01*
X126605499Y-43801304D01*
X126570896Y-43627341D01*
X126570893Y-43627332D01*
X126506534Y-43471952D01*
X126499065Y-43402482D01*
X126530341Y-43340003D01*
X126590430Y-43304352D01*
X126621095Y-43300500D01*
X129998961Y-43300500D01*
X129999577Y-43300502D01*
X133422476Y-43317517D01*
X133489414Y-43337534D01*
X133534906Y-43390565D01*
X133544506Y-43459772D01*
X133536419Y-43488966D01*
X133479106Y-43627334D01*
X133479105Y-43627338D01*
X133479104Y-43627341D01*
X133479103Y-43627341D01*
X133444500Y-43801304D01*
X133444500Y-44778695D01*
X133479103Y-44952658D01*
X133479106Y-44952667D01*
X133546983Y-45116540D01*
X133546990Y-45116553D01*
X133645535Y-45264034D01*
X133645538Y-45264038D01*
X133770961Y-45389461D01*
X133770965Y-45389464D01*
X133918446Y-45488009D01*
X133918459Y-45488016D01*
X134012970Y-45527163D01*
X134082334Y-45555894D01*
X134082336Y-45555894D01*
X134082341Y-45555896D01*
X134256304Y-45590499D01*
X134256307Y-45590500D01*
X134256309Y-45590500D01*
X134433693Y-45590500D01*
X134433694Y-45590499D01*
X134491682Y-45578964D01*
X134607658Y-45555896D01*
X134607661Y-45555894D01*
X134607666Y-45555894D01*
X134771547Y-45488013D01*
X134919035Y-45389464D01*
X135044464Y-45264035D01*
X135143013Y-45116547D01*
X135210894Y-44952666D01*
X135245500Y-44778691D01*
X135245500Y-43801309D01*
X135245500Y-43801306D01*
X135245499Y-43801304D01*
X135210896Y-43627341D01*
X135210893Y-43627332D01*
X135157391Y-43498165D01*
X135149922Y-43428696D01*
X135181197Y-43366217D01*
X135241287Y-43330565D01*
X135272560Y-43326715D01*
X137135218Y-43335975D01*
X137166560Y-43340164D01*
X138110466Y-43592035D01*
X138114578Y-43593210D01*
X138924212Y-43839746D01*
X139094421Y-43891575D01*
X139098528Y-43892904D01*
X140067379Y-44225192D01*
X140071438Y-44226663D01*
X141028163Y-44592488D01*
X141032168Y-44594100D01*
X141975556Y-44992998D01*
X141979496Y-44994745D01*
X142253202Y-45121884D01*
X142305709Y-45167978D01*
X142324960Y-45235143D01*
X142304844Y-45302054D01*
X142273849Y-45334661D01*
X142174127Y-45407113D01*
X142047466Y-45547785D01*
X141952821Y-45711715D01*
X141952818Y-45711722D01*
X141894327Y-45891740D01*
X141894326Y-45891744D01*
X141874540Y-46080000D01*
X141894326Y-46268256D01*
X141894327Y-46268259D01*
X141952818Y-46448277D01*
X141952820Y-46448281D01*
X141952821Y-46448284D01*
X141964080Y-46467785D01*
X141991139Y-46514653D01*
X142007610Y-46582553D01*
X141984758Y-46648580D01*
X141929836Y-46691770D01*
X141860283Y-46698411D01*
X141828574Y-46686583D01*
X141828518Y-46686720D01*
X141824686Y-46685132D01*
X141821748Y-46684037D01*
X141821007Y-46683609D01*
X141821004Y-46683608D01*
X141693710Y-46649500D01*
X141693709Y-46649500D01*
X141238445Y-46649500D01*
X141171406Y-46629815D01*
X141156218Y-46618316D01*
X141100852Y-46569266D01*
X141100850Y-46569265D01*
X141100849Y-46569264D01*
X140950226Y-46490210D01*
X140785056Y-46449500D01*
X140614944Y-46449500D01*
X140449773Y-46490210D01*
X140299150Y-46569263D01*
X140171816Y-46682072D01*
X140075182Y-46822068D01*
X140075182Y-46822069D01*
X140014860Y-46981124D01*
X140014859Y-46981129D01*
X139999811Y-47105055D01*
X139972188Y-47169233D01*
X139964396Y-47177788D01*
X139092686Y-48049500D01*
X138999502Y-48142683D01*
X138999500Y-48142686D01*
X138933608Y-48256812D01*
X138899500Y-48384108D01*
X138899500Y-48669142D01*
X138879815Y-48736181D01*
X138863181Y-48756823D01*
X134206823Y-53413181D01*
X134145500Y-53446666D01*
X134119142Y-53449500D01*
X133638445Y-53449500D01*
X133571406Y-53429815D01*
X133556218Y-53418316D01*
X133534979Y-53399500D01*
X133500852Y-53369266D01*
X133500850Y-53369265D01*
X133500849Y-53369264D01*
X133350226Y-53290210D01*
X133185056Y-53249500D01*
X133014944Y-53249500D01*
X132849773Y-53290210D01*
X132699150Y-53369264D01*
X132643782Y-53418316D01*
X132580549Y-53448037D01*
X132561555Y-53449500D01*
X127434108Y-53449500D01*
X127306812Y-53483608D01*
X127192686Y-53549500D01*
X127192683Y-53549502D01*
X122749502Y-57992683D01*
X122749500Y-57992686D01*
X122683608Y-58106812D01*
X122649500Y-58234108D01*
X122649500Y-58991323D01*
X122629815Y-59058362D01*
X122613181Y-59079004D01*
X122378106Y-59314078D01*
X122316783Y-59347563D01*
X122247091Y-59342579D01*
X122191158Y-59300707D01*
X122188375Y-59296837D01*
X122178183Y-59282071D01*
X122050849Y-59169263D01*
X121900226Y-59090210D01*
X121735056Y-59049500D01*
X121564944Y-59049500D01*
X121399773Y-59090210D01*
X121249150Y-59169263D01*
X121132638Y-59272484D01*
X121122882Y-59281128D01*
X121121816Y-59282072D01*
X121025182Y-59422068D01*
X120964860Y-59581125D01*
X120964859Y-59581130D01*
X120944355Y-59750000D01*
X120964859Y-59918869D01*
X120964860Y-59918874D01*
X121025182Y-60077931D01*
X121121818Y-60217930D01*
X121210096Y-60296138D01*
X121247223Y-60355327D01*
X121246455Y-60425193D01*
X121215550Y-60476634D01*
X119619048Y-62073136D01*
X119557725Y-62106621D01*
X119488033Y-62101637D01*
X119432100Y-62059765D01*
X119429321Y-62055901D01*
X119423926Y-62048086D01*
X119426189Y-62046523D01*
X119401961Y-61994956D01*
X119400500Y-61975978D01*
X119400500Y-61934109D01*
X119400500Y-61934108D01*
X119389593Y-61893404D01*
X119366392Y-61806814D01*
X119362458Y-61800000D01*
X119300500Y-61692686D01*
X119207314Y-61599500D01*
X119207313Y-61599499D01*
X119202983Y-61595169D01*
X119202972Y-61595159D01*
X117857316Y-60249502D01*
X117857315Y-60249501D01*
X117857314Y-60249500D01*
X117800250Y-60216554D01*
X117743187Y-60183608D01*
X117648969Y-60158363D01*
X117615892Y-60149500D01*
X117615891Y-60149500D01*
X114258676Y-60149500D01*
X114191637Y-60129815D01*
X114170995Y-60113181D01*
X113485602Y-59427788D01*
X113452117Y-59366465D01*
X113450187Y-59355053D01*
X113449278Y-59347563D01*
X113435140Y-59231128D01*
X113374818Y-59072070D01*
X113278183Y-58932071D01*
X113150852Y-58819266D01*
X113150849Y-58819263D01*
X113000226Y-58740210D01*
X112835056Y-58699500D01*
X112664944Y-58699500D01*
X112499773Y-58740210D01*
X112349150Y-58819263D01*
X112221816Y-58932072D01*
X112125182Y-59072068D01*
X112064860Y-59231125D01*
X112064859Y-59231130D01*
X112044355Y-59400000D01*
X112064859Y-59568869D01*
X112064860Y-59568874D01*
X112125182Y-59727931D01*
X112159695Y-59777931D01*
X112221817Y-59867929D01*
X112294011Y-59931887D01*
X112349150Y-59980736D01*
X112499773Y-60059789D01*
X112499775Y-60059790D01*
X112664944Y-60100500D01*
X112691324Y-60100500D01*
X112758363Y-60120185D01*
X112779005Y-60136819D01*
X113463181Y-60820995D01*
X113496666Y-60882318D01*
X113499500Y-60908676D01*
X113499500Y-63391324D01*
X113479815Y-63458363D01*
X113463181Y-63479005D01*
X112279005Y-64663181D01*
X112217682Y-64696666D01*
X112191324Y-64699500D01*
X112164944Y-64699500D01*
X111999773Y-64740210D01*
X111849150Y-64819263D01*
X111721816Y-64932072D01*
X111625182Y-65072068D01*
X111564860Y-65231125D01*
X111564859Y-65231130D01*
X111544355Y-65400000D01*
X111564859Y-65568869D01*
X111564860Y-65568874D01*
X111625182Y-65727931D01*
X111671736Y-65795375D01*
X111721817Y-65867929D01*
X111827505Y-65961560D01*
X111849150Y-65980736D01*
X111997056Y-66058363D01*
X111999775Y-66059790D01*
X112164944Y-66100500D01*
X112335056Y-66100500D01*
X112500225Y-66059790D01*
X112614144Y-66000000D01*
X112650849Y-65980736D01*
X112650850Y-65980734D01*
X112650852Y-65980734D01*
X112778183Y-65867929D01*
X112874818Y-65727930D01*
X112935140Y-65568872D01*
X112950187Y-65444943D01*
X112977809Y-65380767D01*
X112985591Y-65372221D01*
X114400500Y-63957314D01*
X114466392Y-63843186D01*
X114500500Y-63715892D01*
X114500500Y-63584107D01*
X114500500Y-61274500D01*
X114520185Y-61207461D01*
X114572989Y-61161706D01*
X114624500Y-61150500D01*
X117291324Y-61150500D01*
X117358363Y-61170185D01*
X117379005Y-61186819D01*
X117675377Y-61483190D01*
X117708862Y-61544513D01*
X117703878Y-61614204D01*
X117662007Y-61670138D01*
X117645323Y-61680667D01*
X117524149Y-61744265D01*
X117396818Y-61857070D01*
X117300182Y-61997069D01*
X117268615Y-62080303D01*
X117240354Y-62124012D01*
X115892686Y-63471682D01*
X115799502Y-63564865D01*
X115799500Y-63564868D01*
X115733608Y-63678994D01*
X115699500Y-63806290D01*
X115699500Y-66803796D01*
X115679815Y-66870835D01*
X115676015Y-66875854D01*
X115676078Y-66875898D01*
X115575182Y-67022068D01*
X115514860Y-67181125D01*
X115514859Y-67181130D01*
X115494355Y-67350000D01*
X115514859Y-67518869D01*
X115514860Y-67518874D01*
X115575182Y-67677931D01*
X115671817Y-67817929D01*
X115688472Y-67832684D01*
X115725599Y-67891873D01*
X115724833Y-67961738D01*
X115686416Y-68020098D01*
X115622545Y-68048424D01*
X115606246Y-68049500D01*
X111584107Y-68049500D01*
X111479142Y-68077625D01*
X111479141Y-68077624D01*
X111456814Y-68083607D01*
X111342686Y-68149500D01*
X111342683Y-68149502D01*
X107062181Y-72430005D01*
X107000858Y-72463490D01*
X106931166Y-72458506D01*
X106875233Y-72416634D01*
X106850816Y-72351170D01*
X106850500Y-72342324D01*
X106850500Y-72306292D01*
X106850500Y-72306290D01*
X106816392Y-72178996D01*
X106750500Y-72064868D01*
X106657314Y-71971682D01*
X106085132Y-71399500D01*
X106000262Y-71350500D01*
X105971005Y-71333608D01*
X105886386Y-71310935D01*
X105843710Y-71299500D01*
X105843709Y-71299500D01*
X105058737Y-71299500D01*
X104991698Y-71279815D01*
X104945943Y-71227011D01*
X104942795Y-71219471D01*
X104942717Y-71219266D01*
X104924818Y-71172068D01*
X104923518Y-71170185D01*
X104875073Y-71100000D01*
X104828183Y-71032069D01*
X104733316Y-70948024D01*
X104700849Y-70919261D01*
X104550226Y-70840208D01*
X104385056Y-70799498D01*
X104214944Y-70799498D01*
X104049773Y-70840208D01*
X103899150Y-70919261D01*
X103771816Y-71032070D01*
X103675182Y-71172066D01*
X103614860Y-71331123D01*
X103614859Y-71331128D01*
X103603178Y-71427334D01*
X103575556Y-71491512D01*
X103517622Y-71530568D01*
X103447769Y-71532103D01*
X103397855Y-71505203D01*
X103300849Y-71419263D01*
X103150226Y-71340210D01*
X102985056Y-71299500D01*
X102814944Y-71299500D01*
X102649773Y-71340210D01*
X102499150Y-71419263D01*
X102371816Y-71532072D01*
X102275182Y-71672068D01*
X102214860Y-71831125D01*
X102214859Y-71831130D01*
X102194355Y-72000000D01*
X102214859Y-72168869D01*
X102214860Y-72168874D01*
X102275182Y-72327931D01*
X102319285Y-72391824D01*
X102371817Y-72467929D01*
X102449578Y-72536819D01*
X102499150Y-72580736D01*
X102649773Y-72659789D01*
X102649775Y-72659790D01*
X102814944Y-72700500D01*
X102985056Y-72700500D01*
X103150225Y-72659790D01*
X103255570Y-72604500D01*
X103300849Y-72580736D01*
X103300850Y-72580734D01*
X103300852Y-72580734D01*
X103428183Y-72467929D01*
X103524818Y-72327930D01*
X103585140Y-72168872D01*
X103596822Y-72072661D01*
X103624442Y-72008486D01*
X103682376Y-71969429D01*
X103752229Y-71967894D01*
X103802143Y-71994793D01*
X103822252Y-72012608D01*
X103899150Y-72080734D01*
X104031802Y-72150355D01*
X104049775Y-72159788D01*
X104214944Y-72200498D01*
X104259459Y-72200498D01*
X104321458Y-72217110D01*
X104406816Y-72266392D01*
X104534110Y-72300500D01*
X104665895Y-72300500D01*
X105519142Y-72300500D01*
X105586181Y-72320185D01*
X105606823Y-72336819D01*
X105813181Y-72543177D01*
X105846666Y-72604500D01*
X105849500Y-72630858D01*
X105849500Y-73193259D01*
X105849483Y-73193523D01*
X105849488Y-73215840D01*
X105849451Y-73215966D01*
X105849475Y-73343351D01*
X105849476Y-73343356D01*
X105863490Y-73404702D01*
X105883374Y-73491741D01*
X105949437Y-73628865D01*
X105978114Y-73664817D01*
X106004530Y-73729498D01*
X105991782Y-73798195D01*
X105978134Y-73819438D01*
X105949367Y-73855519D01*
X105883333Y-73992697D01*
X105883331Y-73992701D01*
X105849486Y-74141119D01*
X105849485Y-74141129D01*
X105849500Y-74217028D01*
X105849500Y-74393259D01*
X105849483Y-74393523D01*
X105849488Y-74415840D01*
X105849451Y-74415966D01*
X105849475Y-74543351D01*
X105849476Y-74543356D01*
X105860137Y-74590023D01*
X105855877Y-74659763D01*
X105814589Y-74716129D01*
X105749382Y-74741224D01*
X105739251Y-74741639D01*
X105641401Y-74741639D01*
X105641264Y-74741599D01*
X105517062Y-74741600D01*
X105373982Y-74770063D01*
X105373974Y-74770066D01*
X105239210Y-74825893D01*
X105117916Y-74906950D01*
X105117914Y-74906952D01*
X105014775Y-75010107D01*
X105014772Y-75010111D01*
X104933738Y-75131415D01*
X104877928Y-75266195D01*
X104849488Y-75409279D01*
X104849500Y-75480900D01*
X104849500Y-75528298D01*
X104849488Y-75528486D01*
X104849491Y-75550815D01*
X104849453Y-75550944D01*
X104849472Y-75675149D01*
X104877947Y-75818201D01*
X104933780Y-75952946D01*
X104933783Y-75952952D01*
X105014825Y-76074214D01*
X105014827Y-76074217D01*
X105014829Y-76074219D01*
X105117975Y-76177348D01*
X105239257Y-76258375D01*
X105374014Y-76314187D01*
X105517071Y-76342640D01*
X105590000Y-76342639D01*
X105655892Y-76342639D01*
X105725500Y-76342639D01*
X105792539Y-76362324D01*
X105838294Y-76415128D01*
X105849500Y-76466639D01*
X105849500Y-79718869D01*
X105849529Y-79719324D01*
X105849528Y-79721129D01*
X105849529Y-79721133D01*
X105859103Y-79763127D01*
X105860235Y-79768088D01*
X105855945Y-79837826D01*
X105814633Y-79894174D01*
X105749415Y-79919242D01*
X105739337Y-79919652D01*
X105617555Y-79919652D01*
X105617075Y-79919699D01*
X105474033Y-79948148D01*
X105339286Y-80003953D01*
X105339277Y-80003958D01*
X105218013Y-80084971D01*
X105218004Y-80084978D01*
X105114873Y-80188088D01*
X105114868Y-80188094D01*
X105033827Y-80309348D01*
X104977991Y-80444090D01*
X104949513Y-80587128D01*
X104949500Y-80587266D01*
X104949500Y-80660077D01*
X104949485Y-80734024D01*
X104949500Y-80734249D01*
X104949500Y-80852643D01*
X104949533Y-80852986D01*
X104957712Y-80894142D01*
X104975137Y-80981823D01*
X104977969Y-80996069D01*
X105033769Y-81130842D01*
X105114230Y-81251293D01*
X105135100Y-81317973D01*
X105116606Y-81385351D01*
X105114214Y-81389072D01*
X105076902Y-81444901D01*
X105023285Y-81489701D01*
X104973807Y-81500000D01*
X104100000Y-81500000D01*
X104100000Y-85300000D01*
X105644818Y-85300000D01*
X105711857Y-85319685D01*
X105742838Y-85352176D01*
X105744550Y-85350863D01*
X105749501Y-85357315D01*
X106187449Y-85795263D01*
X106220934Y-85856586D01*
X106215950Y-85926278D01*
X106181995Y-85975759D01*
X106062614Y-86081521D01*
X105965978Y-86221520D01*
X105905656Y-86380577D01*
X105905655Y-86380582D01*
X105885151Y-86549452D01*
X105905655Y-86718321D01*
X105905656Y-86718326D01*
X105965978Y-86877383D01*
X106015758Y-86949500D01*
X106062613Y-87017381D01*
X106156432Y-87100497D01*
X106189946Y-87130188D01*
X106340569Y-87209241D01*
X106340571Y-87209242D01*
X106505740Y-87249952D01*
X106675852Y-87249952D01*
X106841021Y-87209242D01*
X106948182Y-87152999D01*
X106991645Y-87130188D01*
X106991646Y-87130186D01*
X106991648Y-87130186D01*
X107118979Y-87017381D01*
X107215614Y-86877382D01*
X107275896Y-86718430D01*
X107275935Y-86718327D01*
X107275935Y-86718326D01*
X107275936Y-86718324D01*
X107283072Y-86659553D01*
X107310694Y-86595376D01*
X107368628Y-86556319D01*
X107406168Y-86550500D01*
X109707274Y-86550500D01*
X109707276Y-86550500D01*
X109834570Y-86516392D01*
X109948698Y-86450500D01*
X109970090Y-86429108D01*
X110031413Y-86395623D01*
X110057771Y-86392789D01*
X110084151Y-86392789D01*
X110249320Y-86352079D01*
X110399947Y-86273023D01*
X110471099Y-86209987D01*
X110493273Y-86190344D01*
X110556506Y-86160622D01*
X110625770Y-86169806D01*
X110679073Y-86214978D01*
X110699493Y-86281797D01*
X110699500Y-86283159D01*
X110699500Y-89361926D01*
X110699500Y-89493710D01*
X110704450Y-89512182D01*
X110733608Y-89621005D01*
X110742034Y-89635599D01*
X110799500Y-89735132D01*
X115071682Y-94007314D01*
X115164868Y-94100500D01*
X115278996Y-94166392D01*
X115406290Y-94200500D01*
X115406292Y-94200500D01*
X118665890Y-94200500D01*
X118665892Y-94200500D01*
X118793186Y-94166392D01*
X118907314Y-94100500D01*
X118920995Y-94086819D01*
X118982318Y-94053334D01*
X119008676Y-94050500D01*
X119035056Y-94050500D01*
X119200225Y-94009790D01*
X119333796Y-93939686D01*
X119350849Y-93930736D01*
X119350850Y-93930734D01*
X119350852Y-93930734D01*
X119478183Y-93817929D01*
X119574818Y-93677930D01*
X119635140Y-93518872D01*
X119655645Y-93350000D01*
X119635140Y-93181128D01*
X119574818Y-93022070D01*
X119572880Y-93019263D01*
X119535399Y-92964962D01*
X119478183Y-92882071D01*
X119350852Y-92769266D01*
X119350849Y-92769263D01*
X119200226Y-92690210D01*
X119035056Y-92649500D01*
X118864944Y-92649500D01*
X118699773Y-92690210D01*
X118590435Y-92747596D01*
X118521927Y-92761322D01*
X118456873Y-92735830D01*
X118430759Y-92708240D01*
X118390213Y-92649500D01*
X118378183Y-92632071D01*
X118264348Y-92531223D01*
X118227223Y-92472035D01*
X118227991Y-92402170D01*
X118266408Y-92343810D01*
X118330279Y-92315485D01*
X118346577Y-92314409D01*
X122254958Y-92314409D01*
X122321997Y-92334094D01*
X122367752Y-92386898D01*
X122378054Y-92453355D01*
X122369355Y-92524999D01*
X122389859Y-92693869D01*
X122389860Y-92693874D01*
X122450182Y-92852931D01*
X122470297Y-92882072D01*
X122546817Y-92992929D01*
X122652505Y-93086560D01*
X122674150Y-93105736D01*
X122824773Y-93184789D01*
X122824775Y-93184790D01*
X122989944Y-93225500D01*
X123016324Y-93225500D01*
X123083363Y-93245185D01*
X123104005Y-93261819D01*
X123292686Y-93450500D01*
X123406814Y-93516392D01*
X123534107Y-93550500D01*
X123534108Y-93550500D01*
X123828612Y-93550500D01*
X123895651Y-93570185D01*
X123941406Y-93622989D01*
X123951707Y-93689445D01*
X123944355Y-93750000D01*
X123954320Y-93832072D01*
X123963850Y-93910553D01*
X123952390Y-93979477D01*
X123905486Y-94031263D01*
X123840754Y-94049500D01*
X122284107Y-94049500D01*
X122215328Y-94067928D01*
X122215329Y-94067929D01*
X122156812Y-94083608D01*
X122042686Y-94149500D01*
X122042683Y-94149502D01*
X121949498Y-94242688D01*
X120934964Y-95257221D01*
X120934963Y-95257221D01*
X120934964Y-95257222D01*
X120859219Y-95332967D01*
X120793327Y-95447093D01*
X120779690Y-95497989D01*
X120759219Y-95574389D01*
X120759219Y-96607001D01*
X120759219Y-96738785D01*
X120767028Y-96767927D01*
X120793327Y-96866080D01*
X120826273Y-96923143D01*
X120859219Y-96980207D01*
X120859221Y-96980209D01*
X121659038Y-97780026D01*
X121692523Y-97841349D01*
X121687539Y-97911041D01*
X121645667Y-97966974D01*
X121580203Y-97991391D01*
X121541683Y-97988104D01*
X121385057Y-97949500D01*
X121385056Y-97949500D01*
X121214944Y-97949500D01*
X121049773Y-97990210D01*
X120899150Y-98069263D01*
X120771816Y-98182072D01*
X120675182Y-98322068D01*
X120614860Y-98481125D01*
X120614859Y-98481130D01*
X120594355Y-98650000D01*
X120614859Y-98818869D01*
X120614860Y-98818874D01*
X120675182Y-98977931D01*
X120715562Y-99036430D01*
X120771817Y-99117929D01*
X120836803Y-99175501D01*
X120899150Y-99230736D01*
X121049773Y-99309789D01*
X121049775Y-99309790D01*
X121214944Y-99350500D01*
X121385056Y-99350500D01*
X121550225Y-99309790D01*
X121700852Y-99230734D01*
X121717830Y-99215693D01*
X121728000Y-99206684D01*
X121791233Y-99176963D01*
X121810226Y-99175500D01*
X124461817Y-99175500D01*
X124461833Y-99175501D01*
X124469429Y-99175501D01*
X124607794Y-99175501D01*
X124607795Y-99175501D01*
X124687087Y-99154253D01*
X124748855Y-99153632D01*
X124759250Y-99156194D01*
X124929362Y-99156194D01*
X125094531Y-99115484D01*
X125173998Y-99073775D01*
X125245155Y-99036430D01*
X125245156Y-99036428D01*
X125245158Y-99036428D01*
X125372489Y-98923623D01*
X125469124Y-98783624D01*
X125529446Y-98624566D01*
X125549951Y-98455694D01*
X125529446Y-98286822D01*
X125522637Y-98268869D01*
X125498858Y-98206166D01*
X125469124Y-98127764D01*
X125460514Y-98115291D01*
X125428743Y-98069263D01*
X125372489Y-97987765D01*
X125245158Y-97874960D01*
X125245155Y-97874957D01*
X125094532Y-97795904D01*
X124929362Y-97755194D01*
X124759250Y-97755194D01*
X124594079Y-97795904D01*
X124443456Y-97874957D01*
X124316122Y-97987766D01*
X124258711Y-98070940D01*
X124204428Y-98114931D01*
X124156661Y-98124500D01*
X123484059Y-98124500D01*
X123417020Y-98104815D01*
X123371265Y-98052011D01*
X123360963Y-98015447D01*
X123350725Y-97931130D01*
X123347789Y-97906951D01*
X123287467Y-97747893D01*
X123190832Y-97607894D01*
X123063501Y-97495089D01*
X123063498Y-97495086D01*
X122912875Y-97416033D01*
X122747705Y-97375323D01*
X122721325Y-97375323D01*
X122654286Y-97355638D01*
X122633644Y-97339004D01*
X122026551Y-96731911D01*
X121993066Y-96670588D01*
X121998050Y-96600896D01*
X122039922Y-96544963D01*
X122056607Y-96534433D01*
X122059938Y-96532684D01*
X122059944Y-96532683D01*
X122210571Y-96453627D01*
X122265937Y-96404576D01*
X122329170Y-96374856D01*
X122348164Y-96373393D01*
X124214217Y-96373393D01*
X124281256Y-96393078D01*
X124301898Y-96409712D01*
X126392686Y-98500500D01*
X126506814Y-98566392D01*
X126634108Y-98600500D01*
X126765893Y-98600500D01*
X134111555Y-98600500D01*
X134178594Y-98620185D01*
X134193779Y-98631682D01*
X134249148Y-98680734D01*
X134399775Y-98759790D01*
X134564944Y-98800500D01*
X134735056Y-98800500D01*
X134900225Y-98759790D01*
X134987325Y-98714076D01*
X135050849Y-98680736D01*
X135050850Y-98680734D01*
X135050852Y-98680734D01*
X135178183Y-98567929D01*
X135274818Y-98427930D01*
X135335140Y-98268872D01*
X135355645Y-98100000D01*
X135344440Y-98007723D01*
X140765001Y-98007723D01*
X140785583Y-98164050D01*
X140785585Y-98164062D01*
X140836268Y-98313369D01*
X140836270Y-98313375D01*
X140915110Y-98449929D01*
X140915115Y-98449936D01*
X141019077Y-98568482D01*
X141019084Y-98568489D01*
X141101441Y-98631684D01*
X141144180Y-98664479D01*
X141285604Y-98734221D01*
X141437915Y-98775033D01*
X141595263Y-98785346D01*
X141751598Y-98764763D01*
X141900915Y-98714077D01*
X142383883Y-98435235D01*
X142502437Y-98331266D01*
X142598430Y-98206167D01*
X142668172Y-98064743D01*
X142708984Y-97912432D01*
X142719297Y-97755084D01*
X142698714Y-97598749D01*
X142648028Y-97449432D01*
X142569186Y-97312874D01*
X142547243Y-97287853D01*
X142465220Y-97194323D01*
X142465213Y-97194316D01*
X142340121Y-97098329D01*
X142340116Y-97098326D01*
X142198698Y-97028586D01*
X142198696Y-97028585D01*
X142122539Y-97008179D01*
X142046383Y-96987773D01*
X141889036Y-96977460D01*
X141889035Y-96977460D01*
X141889034Y-96977460D01*
X141732706Y-96998042D01*
X141732694Y-96998044D01*
X141583387Y-97048727D01*
X141583381Y-97048729D01*
X141100417Y-97327569D01*
X141100410Y-97327574D01*
X140981864Y-97431536D01*
X140981857Y-97431543D01*
X140885870Y-97556635D01*
X140885867Y-97556639D01*
X140816127Y-97698059D01*
X140775314Y-97850374D01*
X140765001Y-98007723D01*
X135344440Y-98007723D01*
X135335140Y-97931128D01*
X135274818Y-97772070D01*
X135263169Y-97755194D01*
X135223734Y-97698063D01*
X135178183Y-97632071D01*
X135050852Y-97519266D01*
X135050849Y-97519263D01*
X134900226Y-97440210D01*
X134735056Y-97399500D01*
X134564944Y-97399500D01*
X134399773Y-97440210D01*
X134249150Y-97519264D01*
X134249148Y-97519266D01*
X134206963Y-97556639D01*
X134193782Y-97568316D01*
X134130549Y-97598037D01*
X134111555Y-97599500D01*
X126958676Y-97599500D01*
X126891637Y-97579815D01*
X126870995Y-97563181D01*
X126002327Y-96694513D01*
X125968842Y-96633190D01*
X125973826Y-96563498D01*
X126015698Y-96507565D01*
X126032377Y-96497039D01*
X126036943Y-96494643D01*
X126164274Y-96381838D01*
X126260909Y-96241839D01*
X126321231Y-96082781D01*
X126326038Y-96043187D01*
X126330123Y-96009553D01*
X126357745Y-95945375D01*
X126415680Y-95906319D01*
X126453219Y-95900500D01*
X134691324Y-95900500D01*
X134758363Y-95920185D01*
X134779005Y-95936819D01*
X135114396Y-96272210D01*
X135147881Y-96333533D01*
X135149811Y-96344943D01*
X135164859Y-96468870D01*
X135164860Y-96468875D01*
X135225182Y-96627930D01*
X135225182Y-96627931D01*
X135254199Y-96669968D01*
X135321817Y-96767929D01*
X135427505Y-96861560D01*
X135449150Y-96880736D01*
X135599773Y-96959789D01*
X135599775Y-96959790D01*
X135764944Y-97000500D01*
X135935056Y-97000500D01*
X136100225Y-96959790D01*
X136226184Y-96893681D01*
X136250849Y-96880736D01*
X136250850Y-96880734D01*
X136250852Y-96880734D01*
X136378183Y-96767929D01*
X136474818Y-96627930D01*
X136535140Y-96468872D01*
X136555645Y-96300000D01*
X136535140Y-96131128D01*
X136474818Y-95972070D01*
X136467294Y-95961170D01*
X136438229Y-95919062D01*
X136378183Y-95832071D01*
X136283316Y-95748026D01*
X136250849Y-95719263D01*
X136136591Y-95659296D01*
X136086378Y-95610711D01*
X136070404Y-95542692D01*
X136093739Y-95476835D01*
X136148976Y-95434048D01*
X136194217Y-95425500D01*
X138194164Y-95425500D01*
X138261203Y-95445185D01*
X138306958Y-95497989D01*
X138316902Y-95567147D01*
X138291237Y-95626655D01*
X138203870Y-95736576D01*
X138203868Y-95736579D01*
X138147166Y-95871295D01*
X138147165Y-95871298D01*
X138128913Y-96016318D01*
X138128913Y-96016322D01*
X138150461Y-96160890D01*
X138150462Y-96160895D01*
X138150463Y-96160897D01*
X138184302Y-96240032D01*
X138371056Y-96563498D01*
X138818795Y-97339004D01*
X138894696Y-97470467D01*
X138946308Y-97539341D01*
X139060737Y-97630291D01*
X139060739Y-97630292D01*
X139060741Y-97630293D01*
X139195457Y-97686995D01*
X139195460Y-97686996D01*
X139340486Y-97705249D01*
X139485059Y-97683699D01*
X139564194Y-97649860D01*
X140101809Y-97339467D01*
X140170683Y-97287854D01*
X140261633Y-97173425D01*
X140318338Y-97038702D01*
X140336591Y-96893676D01*
X140315041Y-96749103D01*
X140281202Y-96669968D01*
X139670092Y-95611498D01*
X139653620Y-95543600D01*
X139676472Y-95477573D01*
X139731394Y-95434382D01*
X139777480Y-95425500D01*
X141123205Y-95425500D01*
X141123221Y-95425501D01*
X141130817Y-95425501D01*
X141269181Y-95425501D01*
X141269183Y-95425501D01*
X141339455Y-95406671D01*
X141374592Y-95397256D01*
X141374593Y-95397255D01*
X141402836Y-95389688D01*
X141522665Y-95320505D01*
X141620505Y-95222665D01*
X141620505Y-95222663D01*
X141630709Y-95212460D01*
X141630713Y-95212455D01*
X144112455Y-92730713D01*
X144112460Y-92730709D01*
X144122663Y-92720505D01*
X144122665Y-92720505D01*
X144220505Y-92622665D01*
X144289688Y-92502836D01*
X144309841Y-92427625D01*
X144318383Y-92395743D01*
X144354745Y-92336085D01*
X144417591Y-92305553D01*
X144486967Y-92313846D01*
X144540846Y-92358330D01*
X144560803Y-92409554D01*
X144567711Y-92455897D01*
X144601550Y-92535032D01*
X144738404Y-92772070D01*
X145311945Y-93765469D01*
X145317338Y-93772665D01*
X145363556Y-93834341D01*
X145477985Y-93925291D01*
X145477987Y-93925292D01*
X145477989Y-93925293D01*
X145553078Y-93956898D01*
X145607231Y-94001048D01*
X145628918Y-94067466D01*
X145620917Y-94115155D01*
X145614860Y-94131127D01*
X145599811Y-94255055D01*
X145572188Y-94319233D01*
X145564396Y-94327788D01*
X145305848Y-94586337D01*
X145305847Y-94586337D01*
X145305848Y-94586338D01*
X145230103Y-94662083D01*
X145164211Y-94776209D01*
X145130103Y-94903505D01*
X145130103Y-94929437D01*
X145110418Y-94996476D01*
X145068104Y-95036824D01*
X144988867Y-95082572D01*
X144988864Y-95082574D01*
X144870318Y-95186536D01*
X144870311Y-95186543D01*
X144774324Y-95311635D01*
X144774321Y-95311639D01*
X144704581Y-95453059D01*
X144692542Y-95497989D01*
X144663768Y-95605374D01*
X144655169Y-95736579D01*
X144653455Y-95762723D01*
X144674037Y-95919050D01*
X144674039Y-95919062D01*
X144724722Y-96068369D01*
X144724724Y-96068375D01*
X144803564Y-96204929D01*
X144803569Y-96204936D01*
X144907531Y-96323482D01*
X144907538Y-96323489D01*
X145032630Y-96419476D01*
X145032634Y-96419479D01*
X145174058Y-96489221D01*
X145326369Y-96530033D01*
X145483717Y-96540346D01*
X145640052Y-96519763D01*
X145789369Y-96469077D01*
X146272337Y-96190235D01*
X146390891Y-96086266D01*
X146486884Y-95961167D01*
X146556626Y-95819743D01*
X146597438Y-95667432D01*
X146607751Y-95510084D01*
X146587168Y-95353749D01*
X146536482Y-95204432D01*
X146495827Y-95134016D01*
X146479355Y-95066118D01*
X146502207Y-95000091D01*
X146545590Y-94962221D01*
X146550219Y-94959791D01*
X146550225Y-94959790D01*
X146700852Y-94880734D01*
X146828183Y-94767929D01*
X146924818Y-94627930D01*
X146985140Y-94468872D01*
X147005645Y-94300000D01*
X146985140Y-94131128D01*
X146973524Y-94100500D01*
X146927627Y-93979477D01*
X146924818Y-93972070D01*
X146914345Y-93956898D01*
X146888096Y-93918869D01*
X146828183Y-93832071D01*
X146700852Y-93719266D01*
X146677350Y-93706931D01*
X146627138Y-93658348D01*
X146611163Y-93590329D01*
X146634498Y-93524471D01*
X146637882Y-93520007D01*
X146678881Y-93468425D01*
X146735586Y-93333702D01*
X146753839Y-93188676D01*
X146732289Y-93044103D01*
X146698450Y-92964968D01*
X145988056Y-91734533D01*
X145936444Y-91665659D01*
X145822015Y-91574709D01*
X145822013Y-91574708D01*
X145822010Y-91574706D01*
X145687294Y-91518004D01*
X145687291Y-91518003D01*
X145542271Y-91499751D01*
X145542267Y-91499751D01*
X145542266Y-91499751D01*
X145525092Y-91502310D01*
X145397699Y-91521299D01*
X145397693Y-91521301D01*
X145318558Y-91555140D01*
X145318552Y-91555143D01*
X144780945Y-91865531D01*
X144712068Y-91917146D01*
X144621118Y-92031576D01*
X144621116Y-92031579D01*
X144563789Y-92167781D01*
X144519639Y-92221934D01*
X144453220Y-92243621D01*
X144385620Y-92225957D01*
X144338302Y-92174549D01*
X144325500Y-92119677D01*
X144325500Y-87301368D01*
X144325501Y-87301355D01*
X144325501Y-87153001D01*
X144325501Y-87152999D01*
X144289689Y-87019347D01*
X144289642Y-87019266D01*
X144220507Y-86899520D01*
X144220502Y-86899514D01*
X144161819Y-86840831D01*
X144128334Y-86779508D01*
X144125500Y-86753150D01*
X144125500Y-85179185D01*
X144125501Y-85179172D01*
X144125501Y-85030818D01*
X144125232Y-85029815D01*
X144094706Y-84915892D01*
X144094706Y-84915890D01*
X144089689Y-84897166D01*
X144089688Y-84897165D01*
X144089688Y-84897164D01*
X144031899Y-84797070D01*
X144020507Y-84777338D01*
X144020506Y-84777337D01*
X144020505Y-84777335D01*
X143922665Y-84679495D01*
X143922664Y-84679494D01*
X143918334Y-84675164D01*
X143918323Y-84675154D01*
X141249153Y-82005984D01*
X141229446Y-81980301D01*
X141217606Y-81959793D01*
X141217602Y-81959788D01*
X141171781Y-81913967D01*
X141138296Y-81852644D01*
X141136368Y-81841250D01*
X141135140Y-81831128D01*
X141074818Y-81672070D01*
X140978183Y-81532071D01*
X140860159Y-81427511D01*
X140850849Y-81419263D01*
X140700226Y-81340210D01*
X140535056Y-81299500D01*
X140524500Y-81299500D01*
X140457461Y-81279815D01*
X140411706Y-81227011D01*
X140400500Y-81175500D01*
X140400500Y-80273854D01*
X140408558Y-80229883D01*
X140424407Y-80188094D01*
X140460140Y-80093872D01*
X140480645Y-79925000D01*
X140460140Y-79756128D01*
X140443086Y-79711161D01*
X140417118Y-79642686D01*
X140399818Y-79597070D01*
X140399471Y-79596568D01*
X140324586Y-79488078D01*
X140302703Y-79421724D01*
X140310694Y-79373667D01*
X140320293Y-79348356D01*
X140346231Y-79279963D01*
X140366736Y-79111091D01*
X140346231Y-78942219D01*
X140343996Y-78936327D01*
X140314124Y-78857559D01*
X140285909Y-78783161D01*
X140274713Y-78766940D01*
X140189273Y-78643160D01*
X140142256Y-78601508D01*
X140105129Y-78542319D01*
X140105895Y-78472453D01*
X140136799Y-78421013D01*
X140550500Y-78007314D01*
X140571468Y-77970995D01*
X140596625Y-77940182D01*
X140660772Y-77883353D01*
X140724000Y-77853635D01*
X140793263Y-77862817D01*
X140830676Y-77888490D01*
X142663181Y-79720995D01*
X142696666Y-79782318D01*
X142699500Y-79808676D01*
X142699500Y-80225500D01*
X142679815Y-80292539D01*
X142627011Y-80338294D01*
X142575500Y-80349500D01*
X142564944Y-80349500D01*
X142399773Y-80390210D01*
X142249150Y-80469263D01*
X142121816Y-80582072D01*
X142025182Y-80722068D01*
X141964860Y-80881125D01*
X141964859Y-80881130D01*
X141944355Y-81050000D01*
X141964859Y-81218869D01*
X141964860Y-81218874D01*
X142025182Y-81377931D01*
X142065681Y-81436603D01*
X142121817Y-81517929D01*
X142208791Y-81594981D01*
X142249150Y-81630736D01*
X142399773Y-81709789D01*
X142399775Y-81709790D01*
X142564944Y-81750500D01*
X142735056Y-81750500D01*
X142900225Y-81709790D01*
X142979692Y-81668081D01*
X143050849Y-81630736D01*
X143050850Y-81630734D01*
X143050852Y-81630734D01*
X143178183Y-81517929D01*
X143274818Y-81377930D01*
X143335140Y-81218872D01*
X143336366Y-81208769D01*
X143363983Y-81144593D01*
X143371759Y-81136053D01*
X143600500Y-80907314D01*
X143666392Y-80793186D01*
X143700500Y-80665893D01*
X143700500Y-80534108D01*
X143700500Y-79484108D01*
X143700500Y-79484107D01*
X143700500Y-78980297D01*
X143720185Y-78913258D01*
X143772989Y-78867503D01*
X143842147Y-78857559D01*
X143905703Y-78886584D01*
X143940442Y-78936327D01*
X143975181Y-79027928D01*
X143975182Y-79027931D01*
X144011630Y-79080734D01*
X144071817Y-79167929D01*
X144163892Y-79249500D01*
X144199150Y-79280736D01*
X144345010Y-79357289D01*
X144349775Y-79359790D01*
X144514944Y-79400500D01*
X144685056Y-79400500D01*
X144850225Y-79359790D01*
X144929692Y-79318081D01*
X145000849Y-79280736D01*
X145000850Y-79280734D01*
X145000852Y-79280734D01*
X145128183Y-79167929D01*
X145224818Y-79027930D01*
X145285140Y-78868872D01*
X145305645Y-78700000D01*
X145285140Y-78531128D01*
X145273524Y-78500500D01*
X145242882Y-78419702D01*
X145224818Y-78372070D01*
X145197208Y-78332071D01*
X145167402Y-78288889D01*
X145128183Y-78232071D01*
X145000852Y-78119266D01*
X145000849Y-78119263D01*
X144850226Y-78040210D01*
X144685056Y-77999500D01*
X144514944Y-77999500D01*
X144349773Y-78040210D01*
X144199150Y-78119263D01*
X144128692Y-78181684D01*
X144077055Y-78227431D01*
X144071816Y-78232072D01*
X143975182Y-78372068D01*
X143975182Y-78372069D01*
X143940442Y-78463673D01*
X143898264Y-78519376D01*
X143832667Y-78543433D01*
X143764476Y-78528206D01*
X143715343Y-78478530D01*
X143700500Y-78419702D01*
X143700500Y-72831517D01*
X143720185Y-72764478D01*
X143772989Y-72718723D01*
X143794820Y-72711122D01*
X143800225Y-72709790D01*
X143950852Y-72630734D01*
X144078183Y-72517929D01*
X144174818Y-72377930D01*
X144235140Y-72218872D01*
X144255645Y-72050000D01*
X144235140Y-71881128D01*
X144185787Y-71750995D01*
X144180421Y-71681334D01*
X144213569Y-71619828D01*
X144219491Y-71614221D01*
X144328183Y-71517929D01*
X144424818Y-71377930D01*
X144485140Y-71218872D01*
X144505645Y-71050000D01*
X144485140Y-70881128D01*
X144473524Y-70850500D01*
X144443780Y-70772070D01*
X144424818Y-70722070D01*
X144416503Y-70710024D01*
X144323922Y-70575898D01*
X144326186Y-70574334D01*
X144301961Y-70522774D01*
X144300500Y-70503796D01*
X144300500Y-70356292D01*
X144300500Y-70356290D01*
X144266392Y-70228996D01*
X144200500Y-70114868D01*
X144107314Y-70021682D01*
X142022686Y-67937054D01*
X141989201Y-67875731D01*
X141994185Y-67806039D01*
X142028137Y-67756561D01*
X142057748Y-67730328D01*
X142120979Y-67700610D01*
X142190242Y-67709794D01*
X142227652Y-67735466D01*
X145288181Y-70795995D01*
X145321666Y-70857318D01*
X145324500Y-70883676D01*
X145324500Y-71353796D01*
X145304815Y-71420835D01*
X145301015Y-71425854D01*
X145301078Y-71425898D01*
X145200182Y-71572068D01*
X145139860Y-71731125D01*
X145139859Y-71731130D01*
X145119355Y-71900000D01*
X145139859Y-72068869D01*
X145139860Y-72068874D01*
X145200182Y-72227931D01*
X145231051Y-72272651D01*
X145296817Y-72367929D01*
X145351794Y-72416634D01*
X145424150Y-72480736D01*
X145547344Y-72545393D01*
X145574775Y-72559790D01*
X145739944Y-72600500D01*
X145855673Y-72600500D01*
X145922712Y-72620185D01*
X145963059Y-72662499D01*
X145973868Y-72681220D01*
X145974500Y-72682314D01*
X145974502Y-72682316D01*
X152064396Y-78772210D01*
X152097881Y-78833533D01*
X152099811Y-78844943D01*
X152114859Y-78968870D01*
X152114860Y-78968875D01*
X152175182Y-79127930D01*
X152175182Y-79127931D01*
X152215084Y-79185738D01*
X152271817Y-79267929D01*
X152362600Y-79348355D01*
X152399150Y-79380736D01*
X152544594Y-79457071D01*
X152549775Y-79459790D01*
X152714944Y-79500500D01*
X152885056Y-79500500D01*
X153050225Y-79459790D01*
X153157990Y-79403230D01*
X153200849Y-79380736D01*
X153200850Y-79380734D01*
X153200852Y-79380734D01*
X153328183Y-79267929D01*
X153424818Y-79127930D01*
X153485140Y-78968872D01*
X153505645Y-78800000D01*
X153485140Y-78631128D01*
X153483001Y-78625489D01*
X153446107Y-78528206D01*
X153424818Y-78472070D01*
X153328183Y-78332071D01*
X153213797Y-78230734D01*
X153200849Y-78219263D01*
X153050226Y-78140210D01*
X152885056Y-78099500D01*
X152858676Y-78099500D01*
X152791637Y-78079815D01*
X152770995Y-78063181D01*
X146911819Y-72204005D01*
X146878334Y-72142682D01*
X146875500Y-72116324D01*
X146875500Y-70900000D01*
X150794355Y-70900000D01*
X150814859Y-71068869D01*
X150814860Y-71068874D01*
X150875182Y-71227931D01*
X150932477Y-71310935D01*
X150971817Y-71367929D01*
X151037251Y-71425898D01*
X151099150Y-71480736D01*
X151245057Y-71557314D01*
X151249775Y-71559790D01*
X151414944Y-71600500D01*
X151585056Y-71600500D01*
X151750225Y-71559790D01*
X151864148Y-71499998D01*
X151900849Y-71480736D01*
X151900850Y-71480734D01*
X151900852Y-71480734D01*
X152028183Y-71367929D01*
X152124818Y-71227930D01*
X152185140Y-71068872D01*
X152205645Y-70900000D01*
X152190946Y-70778945D01*
X152202406Y-70710024D01*
X152249310Y-70658237D01*
X152314042Y-70640000D01*
X153238638Y-70640000D01*
X153305677Y-70659685D01*
X153326319Y-70676319D01*
X153583681Y-70933681D01*
X153617166Y-70995004D01*
X153620000Y-71021362D01*
X153620000Y-72440000D01*
X153770000Y-72590000D01*
X154830000Y-72590000D01*
X154830000Y-69500000D01*
X155094355Y-69500000D01*
X155114859Y-69668869D01*
X155114860Y-69668874D01*
X155175182Y-69827931D01*
X155234027Y-69913181D01*
X155271817Y-69967929D01*
X155350775Y-70037879D01*
X155399150Y-70080736D01*
X155549773Y-70159789D01*
X155549775Y-70159790D01*
X155714944Y-70200500D01*
X155885056Y-70200500D01*
X156050225Y-70159790D01*
X156178080Y-70092686D01*
X156200849Y-70080736D01*
X156200850Y-70080734D01*
X156200852Y-70080734D01*
X156328183Y-69967929D01*
X156424818Y-69827930D01*
X156485140Y-69668872D01*
X156505645Y-69500000D01*
X156485140Y-69331128D01*
X156424818Y-69172070D01*
X156402826Y-69140210D01*
X156374726Y-69099500D01*
X156328183Y-69032071D01*
X156200852Y-68919266D01*
X156200849Y-68919263D01*
X156050226Y-68840210D01*
X155885056Y-68799500D01*
X155714944Y-68799500D01*
X155549773Y-68840210D01*
X155399150Y-68919263D01*
X155271816Y-69032072D01*
X155175182Y-69172068D01*
X155114860Y-69331125D01*
X155114859Y-69331130D01*
X155094355Y-69500000D01*
X154830000Y-69500000D01*
X154830000Y-64630000D01*
X153700000Y-64630000D01*
X153699999Y-64630000D01*
X153655800Y-64674199D01*
X153640568Y-66029455D01*
X153620131Y-66096269D01*
X153604257Y-66115742D01*
X152616319Y-67103681D01*
X152554996Y-67137166D01*
X152528638Y-67140000D01*
X150920000Y-67140000D01*
X150920000Y-68095218D01*
X150916397Y-68124894D01*
X150914859Y-68131131D01*
X150894355Y-68300000D01*
X150914859Y-68468869D01*
X150916397Y-68475107D01*
X150920000Y-68504783D01*
X150920000Y-70468499D01*
X150900315Y-70535538D01*
X150898051Y-70538938D01*
X150875182Y-70572069D01*
X150814860Y-70731125D01*
X150814859Y-70731130D01*
X150794355Y-70900000D01*
X146875500Y-70900000D01*
X146875500Y-67621484D01*
X146895185Y-67554445D01*
X146941873Y-67511688D01*
X147000852Y-67480734D01*
X147128183Y-67367929D01*
X147224818Y-67227930D01*
X147285140Y-67068872D01*
X147305645Y-66900000D01*
X147285140Y-66731128D01*
X147273524Y-66700500D01*
X147230294Y-66586509D01*
X147224818Y-66572070D01*
X147221958Y-66567927D01*
X147152934Y-66467929D01*
X147128183Y-66432071D01*
X147000852Y-66319266D01*
X147000849Y-66319263D01*
X146850226Y-66240210D01*
X146685056Y-66199500D01*
X146514944Y-66199500D01*
X146349773Y-66240210D01*
X146199150Y-66319263D01*
X146071816Y-66432072D01*
X145975182Y-66572068D01*
X145914860Y-66731125D01*
X145914859Y-66731130D01*
X145894355Y-66900000D01*
X145898563Y-66934657D01*
X145895242Y-66981695D01*
X145874500Y-67059106D01*
X145874500Y-69667324D01*
X145854815Y-69734363D01*
X145802011Y-69780118D01*
X145732853Y-69790062D01*
X145669297Y-69761037D01*
X145662819Y-69755005D01*
X139907814Y-64000000D01*
X147294355Y-64000000D01*
X147314859Y-64168869D01*
X147314860Y-64168874D01*
X147375182Y-64327931D01*
X147385367Y-64342686D01*
X147471817Y-64467929D01*
X147550707Y-64537819D01*
X147599150Y-64580736D01*
X147742916Y-64656190D01*
X147749775Y-64659790D01*
X147914944Y-64700500D01*
X148085056Y-64700500D01*
X148250225Y-64659790D01*
X148365779Y-64599142D01*
X148400849Y-64580736D01*
X148400850Y-64580734D01*
X148400852Y-64580734D01*
X148528183Y-64467929D01*
X148624818Y-64327930D01*
X148685140Y-64168872D01*
X148705645Y-64000000D01*
X148685140Y-63831128D01*
X148680917Y-63819994D01*
X148646003Y-63727931D01*
X148624818Y-63672070D01*
X148624816Y-63672068D01*
X148624816Y-63672066D01*
X148624815Y-63672065D01*
X148589181Y-63620441D01*
X148567297Y-63554087D01*
X148584762Y-63486435D01*
X148589181Y-63479559D01*
X148611841Y-63446729D01*
X148624818Y-63427930D01*
X148685140Y-63268872D01*
X148705645Y-63100000D01*
X148685140Y-62931128D01*
X148624818Y-62772070D01*
X148624812Y-62772062D01*
X148623697Y-62770446D01*
X148623241Y-62769066D01*
X148621329Y-62765421D01*
X148621934Y-62765103D01*
X148601811Y-62704093D01*
X148619272Y-62636440D01*
X148623697Y-62629554D01*
X148624817Y-62627931D01*
X148624816Y-62627931D01*
X148624818Y-62627930D01*
X148685140Y-62468872D01*
X148705645Y-62300000D01*
X148685140Y-62131128D01*
X148624818Y-61972070D01*
X148528183Y-61832071D01*
X148400852Y-61719266D01*
X148400849Y-61719263D01*
X148250226Y-61640210D01*
X148085056Y-61599500D01*
X147914944Y-61599500D01*
X147749773Y-61640210D01*
X147599150Y-61719263D01*
X147508018Y-61800000D01*
X147482069Y-61822989D01*
X147471816Y-61832072D01*
X147375182Y-61972068D01*
X147314860Y-62131125D01*
X147314859Y-62131130D01*
X147294355Y-62300000D01*
X147314859Y-62468869D01*
X147314860Y-62468874D01*
X147375182Y-62627931D01*
X147375186Y-62627937D01*
X147376312Y-62629569D01*
X147376767Y-62630951D01*
X147378669Y-62634574D01*
X147378066Y-62634890D01*
X147398189Y-62695925D01*
X147380718Y-62763576D01*
X147376312Y-62770431D01*
X147375186Y-62772062D01*
X147375182Y-62772068D01*
X147314860Y-62931125D01*
X147314859Y-62931130D01*
X147294355Y-63100000D01*
X147314859Y-63268869D01*
X147314860Y-63268874D01*
X147375182Y-63427931D01*
X147375185Y-63427936D01*
X147410819Y-63479561D01*
X147432702Y-63545915D01*
X147415236Y-63613567D01*
X147410819Y-63620439D01*
X147375185Y-63672063D01*
X147375182Y-63672068D01*
X147314860Y-63831125D01*
X147314859Y-63831130D01*
X147294355Y-64000000D01*
X139907814Y-64000000D01*
X135657316Y-59749502D01*
X135657314Y-59749500D01*
X135600250Y-59716554D01*
X135543187Y-59683608D01*
X135478931Y-59666391D01*
X135415892Y-59649500D01*
X135415891Y-59649500D01*
X134988445Y-59649500D01*
X134921406Y-59629815D01*
X134906218Y-59618316D01*
X134886108Y-59600500D01*
X134850852Y-59569266D01*
X134850850Y-59569265D01*
X134850849Y-59569264D01*
X134700226Y-59490210D01*
X134535056Y-59449500D01*
X134364944Y-59449500D01*
X134199773Y-59490210D01*
X134049150Y-59569263D01*
X133921816Y-59682072D01*
X133825182Y-59822068D01*
X133764860Y-59981125D01*
X133764859Y-59981130D01*
X133744355Y-60150000D01*
X133764859Y-60318869D01*
X133764860Y-60318874D01*
X133825182Y-60477931D01*
X133862553Y-60532071D01*
X133921817Y-60617929D01*
X133982928Y-60672068D01*
X134049150Y-60730736D01*
X134199773Y-60809789D01*
X134199775Y-60809790D01*
X134364944Y-60850500D01*
X134535056Y-60850500D01*
X134700225Y-60809790D01*
X134850852Y-60730734D01*
X134906218Y-60681683D01*
X134969451Y-60651963D01*
X134988445Y-60650500D01*
X135091324Y-60650500D01*
X135158363Y-60670185D01*
X135179005Y-60686819D01*
X135530005Y-61037819D01*
X135563490Y-61099142D01*
X135558506Y-61168834D01*
X135516634Y-61224767D01*
X135451170Y-61249184D01*
X135442324Y-61249500D01*
X132415317Y-61249500D01*
X132348278Y-61229815D01*
X132302523Y-61177011D01*
X132292221Y-61110554D01*
X132300187Y-61044945D01*
X132327808Y-60980767D01*
X132335580Y-60972232D01*
X132650500Y-60657314D01*
X132716392Y-60543186D01*
X132750500Y-60415892D01*
X132750500Y-60284107D01*
X132750500Y-59996204D01*
X132770185Y-59929165D01*
X132773985Y-59924146D01*
X132773922Y-59924103D01*
X132825416Y-59849500D01*
X132874818Y-59777930D01*
X132935140Y-59618872D01*
X132955645Y-59450000D01*
X132935140Y-59281128D01*
X132916178Y-59231130D01*
X132874817Y-59122068D01*
X132784569Y-58991323D01*
X132778183Y-58982071D01*
X132650852Y-58869266D01*
X132650850Y-58869265D01*
X132650849Y-58869264D01*
X132611462Y-58848592D01*
X132561250Y-58800008D01*
X132545275Y-58731989D01*
X132568610Y-58666131D01*
X132586856Y-58645984D01*
X132703183Y-58542929D01*
X132799818Y-58402930D01*
X132860140Y-58243872D01*
X132873414Y-58134553D01*
X132901036Y-58070375D01*
X132958970Y-58031319D01*
X132996510Y-58025500D01*
X136280969Y-58025500D01*
X136348008Y-58045185D01*
X136368650Y-58061819D01*
X136469283Y-58162452D01*
X136502768Y-58223775D01*
X136504698Y-58235186D01*
X136514859Y-58318868D01*
X136514860Y-58318874D01*
X136575182Y-58477931D01*
X136584643Y-58491637D01*
X136671817Y-58617929D01*
X136747138Y-58684657D01*
X136799150Y-58730736D01*
X136930169Y-58799500D01*
X136949775Y-58809790D01*
X137114944Y-58850500D01*
X137285056Y-58850500D01*
X137450225Y-58809790D01*
X137530186Y-58767823D01*
X137600849Y-58730736D01*
X137600850Y-58730734D01*
X137600852Y-58730734D01*
X137728183Y-58617929D01*
X137824818Y-58477930D01*
X137885140Y-58318872D01*
X137905645Y-58150000D01*
X137885140Y-57981128D01*
X137824818Y-57822070D01*
X137775416Y-57750500D01*
X137771579Y-57744940D01*
X137749696Y-57678586D01*
X137767161Y-57610934D01*
X137818429Y-57563464D01*
X137873629Y-57550500D01*
X144215890Y-57550500D01*
X144215892Y-57550500D01*
X144343186Y-57516392D01*
X144457314Y-57450500D01*
X146150500Y-55757314D01*
X146216392Y-55643186D01*
X146250500Y-55515892D01*
X146250500Y-55384107D01*
X146250500Y-54446204D01*
X146270185Y-54379165D01*
X146273985Y-54374146D01*
X146273922Y-54374103D01*
X146306828Y-54326428D01*
X146374818Y-54227930D01*
X146435140Y-54068872D01*
X146455645Y-53900000D01*
X146435140Y-53731128D01*
X146374818Y-53572070D01*
X146368682Y-53563181D01*
X146338368Y-53519263D01*
X146278183Y-53432071D01*
X146150852Y-53319266D01*
X146150849Y-53319263D01*
X146000226Y-53240210D01*
X145835056Y-53199500D01*
X145664944Y-53199500D01*
X145499773Y-53240210D01*
X145349150Y-53319263D01*
X145221816Y-53432072D01*
X145125182Y-53572068D01*
X145064860Y-53731125D01*
X145064859Y-53731130D01*
X145044355Y-53900000D01*
X145064859Y-54068869D01*
X145064860Y-54068874D01*
X145125182Y-54227931D01*
X145226078Y-54374103D01*
X145223807Y-54375670D01*
X145248034Y-54427190D01*
X145249500Y-54446204D01*
X145249500Y-55191324D01*
X145229815Y-55258363D01*
X145213181Y-55279005D01*
X143979005Y-56513181D01*
X143917682Y-56546666D01*
X143891324Y-56549500D01*
X141549033Y-56549500D01*
X141481994Y-56529815D01*
X141436239Y-56477011D01*
X141425937Y-56440446D01*
X141419837Y-56390210D01*
X141409724Y-56306918D01*
X141396086Y-56270958D01*
X141383558Y-56237922D01*
X141375500Y-56193952D01*
X141375500Y-52019030D01*
X141395185Y-51951991D01*
X141411815Y-51931353D01*
X142137028Y-51206139D01*
X142198349Y-51172656D01*
X142254379Y-51173424D01*
X142414944Y-51213000D01*
X142441324Y-51213000D01*
X142508363Y-51232685D01*
X142529005Y-51249319D01*
X144080186Y-52800500D01*
X144194314Y-52866392D01*
X144321607Y-52900500D01*
X144321608Y-52900500D01*
X147011555Y-52900500D01*
X147078594Y-52920185D01*
X147093779Y-52931682D01*
X147149148Y-52980734D01*
X147299775Y-53059790D01*
X147464944Y-53100500D01*
X147635056Y-53100500D01*
X147800225Y-53059790D01*
X147895491Y-53009790D01*
X147950849Y-52980736D01*
X147950850Y-52980734D01*
X147950852Y-52980734D01*
X148078183Y-52867929D01*
X148174818Y-52727930D01*
X148235140Y-52568872D01*
X148242343Y-52509553D01*
X148269965Y-52445375D01*
X148327900Y-52406319D01*
X148365439Y-52400500D01*
X148485056Y-52400500D01*
X148650225Y-52359790D01*
X148764144Y-52300000D01*
X148800849Y-52280736D01*
X148800850Y-52280734D01*
X148800852Y-52280734D01*
X148928183Y-52167929D01*
X149024818Y-52027930D01*
X149085140Y-51868872D01*
X149105645Y-51700000D01*
X149085140Y-51531128D01*
X149024818Y-51372070D01*
X148928183Y-51232071D01*
X148800852Y-51119266D01*
X148800849Y-51119263D01*
X148650226Y-51040210D01*
X148485056Y-50999500D01*
X148314944Y-50999500D01*
X148153843Y-51039207D01*
X148084040Y-51036138D01*
X148036487Y-51006491D01*
X147479498Y-50449502D01*
X147479496Y-50449500D01*
X147422432Y-50416554D01*
X147365369Y-50383608D01*
X147301721Y-50366554D01*
X147238074Y-50349500D01*
X147238073Y-50349500D01*
X145586493Y-50349500D01*
X145519454Y-50329815D01*
X145498812Y-50313181D01*
X143806626Y-48620995D01*
X143282471Y-48096839D01*
X143248987Y-48035518D01*
X143253971Y-47965826D01*
X143295843Y-47909893D01*
X143361307Y-47885476D01*
X143395933Y-47887870D01*
X143408716Y-47890587D01*
X143455354Y-47900500D01*
X143455355Y-47900500D01*
X143644644Y-47900500D01*
X143644646Y-47900500D01*
X143829803Y-47861144D01*
X144002730Y-47784151D01*
X144155871Y-47672888D01*
X144282533Y-47532216D01*
X144377179Y-47368284D01*
X144435674Y-47188256D01*
X144455460Y-47000000D01*
X144435674Y-46811744D01*
X144377179Y-46631716D01*
X144282533Y-46467784D01*
X144195851Y-46371514D01*
X144165621Y-46308523D01*
X144174246Y-46239187D01*
X144218988Y-46185522D01*
X144285640Y-46164564D01*
X144347936Y-46179989D01*
X144726168Y-46388829D01*
X144729873Y-46390960D01*
X145608785Y-46916979D01*
X145612400Y-46919228D01*
X146472497Y-47475544D01*
X146476069Y-47477945D01*
X146787900Y-47695399D01*
X147316195Y-48063805D01*
X147319693Y-48066335D01*
X147710440Y-48359554D01*
X148122999Y-48669142D01*
X148138967Y-48681124D01*
X148142364Y-48683767D01*
X148939721Y-49326689D01*
X148943028Y-49329452D01*
X149530655Y-49838016D01*
X149717523Y-49999741D01*
X149720728Y-50002614D01*
X150055293Y-50313181D01*
X150471415Y-50699455D01*
X150474528Y-50702447D01*
X150654053Y-50881125D01*
X151159943Y-51384629D01*
X151200507Y-51425001D01*
X151203507Y-51428093D01*
X151903902Y-52175490D01*
X151906768Y-52178657D01*
X152386699Y-52727930D01*
X152580719Y-52949983D01*
X152583503Y-52953283D01*
X152922173Y-53369264D01*
X153109619Y-53599500D01*
X153230190Y-53747594D01*
X153232857Y-53750989D01*
X153851500Y-54567329D01*
X153854047Y-54570815D01*
X154164744Y-55011896D01*
X154426929Y-55384107D01*
X154443888Y-55408182D01*
X154446312Y-55411754D01*
X155006637Y-56269135D01*
X155008936Y-56272789D01*
X155539558Y-57149954D01*
X155540845Y-57152132D01*
X155562886Y-57190306D01*
X155564090Y-57192102D01*
X155564136Y-57192182D01*
X155564137Y-57192183D01*
X155590855Y-57216094D01*
X155595843Y-57220814D01*
X155615489Y-57240460D01*
X155615492Y-57240462D01*
X155621938Y-57245408D01*
X155621798Y-57245590D01*
X155632360Y-57253239D01*
X155635067Y-57255662D01*
X155635068Y-57255662D01*
X155635069Y-57255663D01*
X155649658Y-57262105D01*
X155657668Y-57265643D01*
X155669577Y-57271688D01*
X155684011Y-57280021D01*
X155690569Y-57281778D01*
X155708573Y-57288122D01*
X155722146Y-57294116D01*
X155735615Y-57295490D01*
X155755111Y-57299072D01*
X155760438Y-57300500D01*
X155778402Y-57300500D01*
X155790991Y-57301141D01*
X155816842Y-57303779D01*
X155816842Y-57303778D01*
X155816843Y-57303779D01*
X155818369Y-57303449D01*
X155819121Y-57303288D01*
X155845267Y-57300500D01*
X159375500Y-57300500D01*
X159442539Y-57320185D01*
X159488294Y-57372989D01*
X159499500Y-57424500D01*
X159499500Y-86577509D01*
X159479815Y-86644548D01*
X159427011Y-86690303D01*
X159376088Y-86701508D01*
X155877248Y-86718112D01*
X155850525Y-86715327D01*
X155849237Y-86715049D01*
X155849226Y-86715048D01*
X155822361Y-86717790D01*
X155810369Y-86718430D01*
X155791696Y-86718519D01*
X155791402Y-86718521D01*
X155791400Y-86718521D01*
X155791396Y-86718522D01*
X155787059Y-86719706D01*
X155767009Y-86723439D01*
X155754537Y-86724712D01*
X155754529Y-86724714D01*
X155740027Y-86731119D01*
X155722601Y-86737307D01*
X155715078Y-86739361D01*
X155715071Y-86739364D01*
X155701544Y-86747258D01*
X155689146Y-86753588D01*
X155667457Y-86763167D01*
X155667452Y-86763170D01*
X155663982Y-86766276D01*
X155653106Y-86774193D01*
X155653165Y-86774269D01*
X155646741Y-86779247D01*
X155627884Y-86798281D01*
X155622494Y-86803404D01*
X155596526Y-86826645D01*
X155596519Y-86826654D01*
X155596344Y-86826957D01*
X155593339Y-86831465D01*
X155573248Y-86866646D01*
X155571614Y-86869423D01*
X155014143Y-87789246D01*
X155011727Y-87793073D01*
X154421258Y-88691628D01*
X154418704Y-88695365D01*
X153795823Y-89571792D01*
X153793134Y-89575433D01*
X153138685Y-90428538D01*
X153135865Y-90432078D01*
X152450715Y-91260733D01*
X152447767Y-91264168D01*
X151732854Y-92067239D01*
X151729784Y-92070564D01*
X150986001Y-92847048D01*
X150982811Y-92850259D01*
X150211229Y-93599039D01*
X150207923Y-93602132D01*
X149409492Y-94322286D01*
X149406077Y-94325255D01*
X148581906Y-95015781D01*
X148578384Y-95018624D01*
X147729562Y-95678609D01*
X147725938Y-95681322D01*
X146853604Y-96309883D01*
X146849884Y-96312462D01*
X145955180Y-96908776D01*
X145951369Y-96911217D01*
X145035488Y-97474487D01*
X145031590Y-97476787D01*
X144095785Y-98006242D01*
X144091805Y-98008399D01*
X143137273Y-98503363D01*
X143133218Y-98505372D01*
X142161300Y-98965150D01*
X142157174Y-98967011D01*
X141169087Y-99391028D01*
X141164895Y-99392737D01*
X140161987Y-99780412D01*
X140157736Y-99781966D01*
X139141400Y-100132762D01*
X139137096Y-100134161D01*
X138108566Y-100447652D01*
X138104213Y-100448892D01*
X137064974Y-100724625D01*
X137060578Y-100725706D01*
X136011939Y-100963335D01*
X136007508Y-100964254D01*
X134950938Y-101163445D01*
X134946475Y-101164203D01*
X133883297Y-101324707D01*
X133878810Y-101325301D01*
X132810472Y-101446898D01*
X132805966Y-101447327D01*
X131733948Y-101529850D01*
X131729430Y-101530115D01*
X130655093Y-101573459D01*
X130650568Y-101573559D01*
X129575371Y-101577666D01*
X129570845Y-101577601D01*
X128496185Y-101542464D01*
X128491664Y-101542233D01*
X127419044Y-101467901D01*
X127414536Y-101467506D01*
X126345308Y-101354075D01*
X126340816Y-101353515D01*
X125276471Y-101201141D01*
X125272003Y-101200418D01*
X124213930Y-101009301D01*
X124209491Y-101008416D01*
X123159061Y-100778805D01*
X123154658Y-100777758D01*
X122113311Y-100509963D01*
X122108948Y-100508755D01*
X121078114Y-100203147D01*
X121073799Y-100201782D01*
X120054762Y-99858742D01*
X120050500Y-99857220D01*
X119044678Y-99477225D01*
X119040473Y-99475548D01*
X118049185Y-99059096D01*
X118045045Y-99057267D01*
X117069621Y-98604917D01*
X117065550Y-98602938D01*
X116107287Y-98115291D01*
X116103291Y-98113165D01*
X115163458Y-97590867D01*
X115159543Y-97588597D01*
X114239391Y-97032344D01*
X114235561Y-97029932D01*
X113336341Y-96440479D01*
X113332601Y-96437929D01*
X112455472Y-95816036D01*
X112451828Y-95813351D01*
X111597985Y-95159866D01*
X111594442Y-95157050D01*
X110765028Y-94472846D01*
X110761589Y-94469902D01*
X109957683Y-93755871D01*
X109954355Y-93752804D01*
X109177073Y-93009939D01*
X109173858Y-93006753D01*
X108424167Y-92235974D01*
X108421071Y-92232672D01*
X107826263Y-91574706D01*
X107700027Y-91435066D01*
X107697058Y-91431658D01*
X107693927Y-91427930D01*
X107005602Y-90608267D01*
X107002755Y-90604748D01*
X106341822Y-89756683D01*
X106339105Y-89753063D01*
X105845219Y-89069263D01*
X105709543Y-88881416D01*
X105706967Y-88877709D01*
X105672716Y-88826445D01*
X105254173Y-88200000D01*
X107744355Y-88200000D01*
X107764859Y-88368869D01*
X107764860Y-88368874D01*
X107825182Y-88527931D01*
X107847903Y-88560847D01*
X107921817Y-88667929D01*
X108027078Y-88761182D01*
X108049150Y-88780736D01*
X108199773Y-88859789D01*
X108199775Y-88859790D01*
X108364944Y-88900500D01*
X108535056Y-88900500D01*
X108700225Y-88859790D01*
X108779987Y-88817927D01*
X108850849Y-88780736D01*
X108850850Y-88780734D01*
X108850852Y-88780734D01*
X108978183Y-88667929D01*
X109074818Y-88527930D01*
X109135140Y-88368872D01*
X109155645Y-88200000D01*
X109135140Y-88031128D01*
X109074818Y-87872070D01*
X108978183Y-87732071D01*
X108876252Y-87641768D01*
X108850849Y-87619263D01*
X108700226Y-87540210D01*
X108535056Y-87499500D01*
X108364944Y-87499500D01*
X108199773Y-87540210D01*
X108049150Y-87619263D01*
X107957453Y-87700500D01*
X107922882Y-87731128D01*
X107921816Y-87732072D01*
X107825182Y-87872068D01*
X107764860Y-88031125D01*
X107764859Y-88031130D01*
X107744355Y-88200000D01*
X105254173Y-88200000D01*
X105109633Y-87983663D01*
X105107190Y-87979857D01*
X105057953Y-87900000D01*
X104699897Y-87319266D01*
X104542901Y-87064634D01*
X104540596Y-87060738D01*
X104148869Y-86370185D01*
X104010084Y-86125529D01*
X104007925Y-86121556D01*
X103907653Y-85928715D01*
X103511884Y-85167585D01*
X103509873Y-85163538D01*
X103504009Y-85151179D01*
X103203567Y-84517929D01*
X103048984Y-84192109D01*
X103047119Y-84187985D01*
X102923877Y-83901686D01*
X102621981Y-83200362D01*
X102620288Y-83196221D01*
X102231482Y-82193755D01*
X102229926Y-82189515D01*
X102193698Y-82084938D01*
X101877958Y-81173503D01*
X101876558Y-81169207D01*
X101876455Y-81168872D01*
X101561918Y-80141071D01*
X101560674Y-80136722D01*
X101529263Y-80018872D01*
X101283763Y-79097777D01*
X101282681Y-79093399D01*
X101280193Y-79082478D01*
X101072379Y-78170185D01*
X101043867Y-78045017D01*
X101042943Y-78040586D01*
X100915522Y-77368869D01*
X100883488Y-77200000D01*
X102889355Y-77200000D01*
X102909859Y-77368869D01*
X102909860Y-77368874D01*
X102970182Y-77527931D01*
X103032475Y-77618177D01*
X103066817Y-77667929D01*
X103172505Y-77761560D01*
X103194150Y-77780736D01*
X103333048Y-77853635D01*
X103344775Y-77859790D01*
X103509944Y-77900500D01*
X103680056Y-77900500D01*
X103845225Y-77859790D01*
X103933655Y-77813378D01*
X103995849Y-77780736D01*
X103995850Y-77780734D01*
X103995852Y-77780734D01*
X104123183Y-77667929D01*
X104219818Y-77527930D01*
X104280140Y-77368872D01*
X104300645Y-77200000D01*
X104280140Y-77031128D01*
X104275809Y-77019709D01*
X104248710Y-76948252D01*
X104219818Y-76872070D01*
X104191007Y-76830331D01*
X104147934Y-76767929D01*
X104123183Y-76732071D01*
X104019326Y-76640062D01*
X103995849Y-76619263D01*
X103845226Y-76540210D01*
X103680056Y-76499500D01*
X103509944Y-76499500D01*
X103344773Y-76540210D01*
X103194150Y-76619263D01*
X103066816Y-76732072D01*
X102970182Y-76872068D01*
X102909860Y-77031125D01*
X102909859Y-77031130D01*
X102889355Y-77200000D01*
X100883488Y-77200000D01*
X100842560Y-76984241D01*
X100841798Y-76979786D01*
X100841502Y-76977838D01*
X100680085Y-75916733D01*
X100679500Y-75912352D01*
X100556691Y-74844100D01*
X100556258Y-74839597D01*
X100550827Y-74770066D01*
X100472524Y-73767666D01*
X100472255Y-73763152D01*
X100470435Y-73719262D01*
X100427696Y-72688823D01*
X100427593Y-72684383D01*
X100422273Y-71609134D01*
X100422333Y-71604622D01*
X100422495Y-71599500D01*
X100456256Y-70529935D01*
X100456481Y-70525430D01*
X100456901Y-70519266D01*
X100505929Y-69800000D01*
X101344355Y-69800000D01*
X101364859Y-69968869D01*
X101364860Y-69968874D01*
X101425182Y-70127931D01*
X101461900Y-70181125D01*
X101521817Y-70267929D01*
X101621556Y-70356290D01*
X101649150Y-70380736D01*
X101799773Y-70459789D01*
X101799775Y-70459790D01*
X101964944Y-70500500D01*
X102135056Y-70500500D01*
X102300225Y-70459790D01*
X102407792Y-70403334D01*
X102450849Y-70380736D01*
X102450850Y-70380734D01*
X102450852Y-70380734D01*
X102578183Y-70267929D01*
X102674818Y-70127930D01*
X102735140Y-69968872D01*
X102755645Y-69800000D01*
X102735140Y-69631128D01*
X102716178Y-69581130D01*
X102686522Y-69502931D01*
X102674818Y-69472070D01*
X102578183Y-69332071D01*
X102450852Y-69219266D01*
X102450849Y-69219263D01*
X102300226Y-69140210D01*
X102135056Y-69099500D01*
X101964944Y-69099500D01*
X101799773Y-69140210D01*
X101649150Y-69219263D01*
X101578254Y-69282072D01*
X101522882Y-69331128D01*
X101521816Y-69332072D01*
X101425182Y-69472068D01*
X101364860Y-69631125D01*
X101364859Y-69631130D01*
X101344355Y-69800000D01*
X100505929Y-69800000D01*
X100529606Y-69452657D01*
X100529989Y-69448237D01*
X100642221Y-68378816D01*
X100642774Y-68374343D01*
X100649214Y-68328994D01*
X100793950Y-67309803D01*
X100794664Y-67305360D01*
X100795716Y-67299500D01*
X100984593Y-66247033D01*
X100985458Y-66242673D01*
X101213904Y-65191890D01*
X101214930Y-65187556D01*
X101481562Y-64145861D01*
X101482737Y-64141594D01*
X101787203Y-63110339D01*
X101788559Y-63106038D01*
X101796564Y-63082171D01*
X102130458Y-62086586D01*
X102131971Y-62082337D01*
X102164075Y-61997069D01*
X102510841Y-61076060D01*
X102512479Y-61071937D01*
X102927836Y-60080123D01*
X102929654Y-60075996D01*
X103380913Y-59100038D01*
X103382865Y-59096011D01*
X103869465Y-58137130D01*
X103871564Y-58133177D01*
X104392818Y-57192722D01*
X104395057Y-57188851D01*
X104950310Y-56268007D01*
X104952666Y-56264257D01*
X105541136Y-55364325D01*
X105543673Y-55360595D01*
X105601383Y-55279005D01*
X106164615Y-54482707D01*
X106167221Y-54479163D01*
X106456734Y-54100000D01*
X121594355Y-54100000D01*
X121614859Y-54268869D01*
X121614860Y-54268874D01*
X121675182Y-54427931D01*
X121711756Y-54480916D01*
X121771817Y-54567929D01*
X121839546Y-54627931D01*
X121899150Y-54680736D01*
X122049773Y-54759789D01*
X122049775Y-54759790D01*
X122214944Y-54800500D01*
X122385056Y-54800500D01*
X122550225Y-54759790D01*
X122629692Y-54718081D01*
X122700849Y-54680736D01*
X122700850Y-54680734D01*
X122700852Y-54680734D01*
X122828183Y-54567929D01*
X122924818Y-54427930D01*
X122985140Y-54268872D01*
X123005645Y-54100000D01*
X122985140Y-53931128D01*
X122924818Y-53772070D01*
X122907923Y-53747594D01*
X122890476Y-53722318D01*
X122828183Y-53632071D01*
X122700852Y-53519266D01*
X122700849Y-53519263D01*
X122550226Y-53440210D01*
X122385056Y-53399500D01*
X122214944Y-53399500D01*
X122049773Y-53440210D01*
X121899150Y-53519263D01*
X121771816Y-53632072D01*
X121675182Y-53772068D01*
X121614860Y-53931125D01*
X121614859Y-53931130D01*
X121594355Y-54100000D01*
X106456734Y-54100000D01*
X106819806Y-53624500D01*
X106822547Y-53621043D01*
X107505882Y-52790773D01*
X107508777Y-52787384D01*
X107940689Y-52300000D01*
X113494355Y-52300000D01*
X113514859Y-52468869D01*
X113514860Y-52468874D01*
X113575182Y-52627931D01*
X113609695Y-52677931D01*
X113671817Y-52767929D01*
X113728256Y-52817929D01*
X113799150Y-52880736D01*
X113934201Y-52951616D01*
X113949775Y-52959790D01*
X114114944Y-53000500D01*
X114285056Y-53000500D01*
X114450225Y-52959790D01*
X114529692Y-52918081D01*
X114600849Y-52880736D01*
X114600850Y-52880734D01*
X114600852Y-52880734D01*
X114728183Y-52767929D01*
X114824818Y-52627930D01*
X114885140Y-52468872D01*
X114905645Y-52300000D01*
X114885140Y-52131128D01*
X114824818Y-51972070D01*
X114821780Y-51967669D01*
X114762696Y-51882072D01*
X114728183Y-51832071D01*
X114616580Y-51733200D01*
X114600849Y-51719263D01*
X114450226Y-51640210D01*
X114285056Y-51599500D01*
X114114944Y-51599500D01*
X113949773Y-51640210D01*
X113799150Y-51719263D01*
X113671816Y-51832072D01*
X113575182Y-51972068D01*
X113514860Y-52131125D01*
X113514859Y-52131130D01*
X113494355Y-52300000D01*
X107940689Y-52300000D01*
X108221939Y-51982628D01*
X108224946Y-51979358D01*
X108967013Y-51201156D01*
X108970148Y-51197987D01*
X109740108Y-50447399D01*
X109743343Y-50444358D01*
X109862835Y-50336091D01*
X130780446Y-50336091D01*
X130800950Y-50504960D01*
X130800951Y-50504965D01*
X130861273Y-50664022D01*
X130923566Y-50754268D01*
X130957908Y-50804020D01*
X131044942Y-50881125D01*
X131085241Y-50916827D01*
X131235864Y-50995880D01*
X131235866Y-50995881D01*
X131401035Y-51036591D01*
X131427415Y-51036591D01*
X131494454Y-51056276D01*
X131515096Y-51072910D01*
X131728906Y-51286720D01*
X131757167Y-51330429D01*
X131775182Y-51377930D01*
X131871817Y-51517929D01*
X131936698Y-51575408D01*
X131999150Y-51630736D01*
X132131122Y-51700000D01*
X132149775Y-51709790D01*
X132314944Y-51750500D01*
X132485056Y-51750500D01*
X132650225Y-51709790D01*
X132765097Y-51649500D01*
X132800849Y-51630736D01*
X132800850Y-51630734D01*
X132800852Y-51630734D01*
X132928183Y-51517929D01*
X133024818Y-51377930D01*
X133085140Y-51218872D01*
X133105645Y-51050000D01*
X133085140Y-50881128D01*
X133024818Y-50722070D01*
X132928183Y-50582071D01*
X132800852Y-50469266D01*
X132800849Y-50469263D01*
X132650226Y-50390210D01*
X132485056Y-50349500D01*
X132314944Y-50349500D01*
X132307444Y-50349500D01*
X132307444Y-50347311D01*
X132249283Y-50337631D01*
X132197505Y-50290719D01*
X132180183Y-50240952D01*
X132171231Y-50167219D01*
X132110909Y-50008161D01*
X132108662Y-50004906D01*
X132058177Y-49931766D01*
X132014274Y-49868162D01*
X131886943Y-49755357D01*
X131886940Y-49755354D01*
X131736317Y-49676301D01*
X131571147Y-49635591D01*
X131401035Y-49635591D01*
X131235864Y-49676301D01*
X131085241Y-49755354D01*
X130957907Y-49868163D01*
X130861273Y-50008159D01*
X130800951Y-50167216D01*
X130800950Y-50167221D01*
X130780446Y-50336091D01*
X109862835Y-50336091D01*
X110540201Y-49722354D01*
X110543558Y-49719422D01*
X111245392Y-49128695D01*
X124804500Y-49128695D01*
X124839103Y-49302658D01*
X124839106Y-49302667D01*
X124906983Y-49466540D01*
X124906990Y-49466553D01*
X125005535Y-49614034D01*
X125005538Y-49614038D01*
X125130961Y-49739461D01*
X125130965Y-49739464D01*
X125278446Y-49838009D01*
X125278459Y-49838016D01*
X125351242Y-49868163D01*
X125442334Y-49905894D01*
X125442336Y-49905894D01*
X125442341Y-49905896D01*
X125616304Y-49940499D01*
X125616307Y-49940500D01*
X125616309Y-49940500D01*
X125793693Y-49940500D01*
X125793694Y-49940499D01*
X125851682Y-49928964D01*
X125967658Y-49905896D01*
X125967661Y-49905894D01*
X125967666Y-49905894D01*
X126131547Y-49838013D01*
X126279035Y-49739464D01*
X126404464Y-49614035D01*
X126503013Y-49466547D01*
X126570894Y-49302666D01*
X126584328Y-49235132D01*
X126605499Y-49128695D01*
X126605500Y-49128693D01*
X126605500Y-48412321D01*
X126625185Y-48345282D01*
X126677989Y-48299527D01*
X126747147Y-48289583D01*
X126810703Y-48318608D01*
X126817181Y-48324640D01*
X126843036Y-48350495D01*
X126951464Y-48413095D01*
X127072399Y-48445500D01*
X127072401Y-48445500D01*
X127197599Y-48445500D01*
X127197601Y-48445500D01*
X127318536Y-48413095D01*
X127426964Y-48350495D01*
X127515495Y-48261964D01*
X127578095Y-48153536D01*
X127610500Y-48032601D01*
X132439500Y-48032601D01*
X132471905Y-48153536D01*
X132534505Y-48261964D01*
X132623036Y-48350495D01*
X132731464Y-48413095D01*
X132852399Y-48445500D01*
X132852401Y-48445500D01*
X132977599Y-48445500D01*
X132977601Y-48445500D01*
X133098536Y-48413095D01*
X133206964Y-48350495D01*
X133232819Y-48324640D01*
X133294142Y-48291155D01*
X133363834Y-48296139D01*
X133419767Y-48338011D01*
X133444184Y-48403475D01*
X133444500Y-48412321D01*
X133444500Y-49128695D01*
X133479103Y-49302658D01*
X133479106Y-49302667D01*
X133546983Y-49466540D01*
X133546990Y-49466553D01*
X133645535Y-49614034D01*
X133645538Y-49614038D01*
X133770961Y-49739461D01*
X133770965Y-49739464D01*
X133918446Y-49838009D01*
X133918459Y-49838016D01*
X133991242Y-49868163D01*
X134082334Y-49905894D01*
X134082336Y-49905894D01*
X134082341Y-49905896D01*
X134256304Y-49940499D01*
X134256307Y-49940500D01*
X134256309Y-49940500D01*
X134433693Y-49940500D01*
X134433694Y-49940499D01*
X134491682Y-49928964D01*
X134607658Y-49905896D01*
X134607661Y-49905894D01*
X134607666Y-49905894D01*
X134771547Y-49838013D01*
X134919035Y-49739464D01*
X135044464Y-49614035D01*
X135143013Y-49466547D01*
X135210894Y-49302666D01*
X135224328Y-49235132D01*
X135245499Y-49128695D01*
X135245500Y-49128693D01*
X135245500Y-47851306D01*
X135245499Y-47851304D01*
X135210896Y-47677341D01*
X135210893Y-47677332D01*
X135143016Y-47513459D01*
X135143009Y-47513446D01*
X135044464Y-47365965D01*
X135044461Y-47365961D01*
X134919038Y-47240538D01*
X134919034Y-47240535D01*
X134771553Y-47141990D01*
X134771540Y-47141983D01*
X134607667Y-47074106D01*
X134607658Y-47074103D01*
X134433694Y-47039500D01*
X134433691Y-47039500D01*
X134256309Y-47039500D01*
X134256306Y-47039500D01*
X134082341Y-47074103D01*
X134082332Y-47074106D01*
X133918459Y-47141983D01*
X133918446Y-47141990D01*
X133770965Y-47240535D01*
X133770961Y-47240538D01*
X133645538Y-47365961D01*
X133645535Y-47365965D01*
X133546990Y-47513446D01*
X133546985Y-47513456D01*
X133496139Y-47636210D01*
X133452298Y-47690613D01*
X133386004Y-47712678D01*
X133318304Y-47695399D01*
X133293897Y-47676438D01*
X133206965Y-47589506D01*
X133206964Y-47589505D01*
X133098536Y-47526905D01*
X133098537Y-47526905D01*
X133058224Y-47516103D01*
X132977601Y-47494500D01*
X132852399Y-47494500D01*
X132771775Y-47516103D01*
X132731463Y-47526905D01*
X132623037Y-47589504D01*
X132623034Y-47589506D01*
X132534506Y-47678034D01*
X132534504Y-47678037D01*
X132471905Y-47786463D01*
X132471905Y-47786464D01*
X132439500Y-47907399D01*
X132439500Y-48032601D01*
X127610500Y-48032601D01*
X127610500Y-47907399D01*
X127578095Y-47786464D01*
X127515495Y-47678036D01*
X127426964Y-47589505D01*
X127318536Y-47526905D01*
X127318537Y-47526905D01*
X127278224Y-47516103D01*
X127197601Y-47494500D01*
X127072399Y-47494500D01*
X126991775Y-47516103D01*
X126951463Y-47526905D01*
X126843037Y-47589503D01*
X126756102Y-47676439D01*
X126694778Y-47709923D01*
X126625087Y-47704939D01*
X126569153Y-47663067D01*
X126553860Y-47636209D01*
X126503016Y-47513459D01*
X126503009Y-47513446D01*
X126404464Y-47365965D01*
X126404461Y-47365961D01*
X126279038Y-47240538D01*
X126279034Y-47240535D01*
X126131553Y-47141990D01*
X126131540Y-47141983D01*
X125967667Y-47074106D01*
X125967658Y-47074103D01*
X125793694Y-47039500D01*
X125793691Y-47039500D01*
X125616309Y-47039500D01*
X125616306Y-47039500D01*
X125442341Y-47074103D01*
X125442332Y-47074106D01*
X125278459Y-47141983D01*
X125278446Y-47141990D01*
X125130965Y-47240535D01*
X125130961Y-47240538D01*
X125005538Y-47365961D01*
X125005535Y-47365965D01*
X124906990Y-47513446D01*
X124906983Y-47513459D01*
X124839106Y-47677332D01*
X124839103Y-47677341D01*
X124804500Y-47851304D01*
X124804500Y-49128695D01*
X111245392Y-49128695D01*
X111366219Y-49026996D01*
X111369686Y-49024184D01*
X112217064Y-48362247D01*
X112220609Y-48359580D01*
X113091617Y-47728983D01*
X113095241Y-47726459D01*
X113988692Y-47128063D01*
X113992384Y-47125687D01*
X114907087Y-46560292D01*
X114910899Y-46558031D01*
X115845578Y-46026424D01*
X115849513Y-46024280D01*
X116802966Y-45527142D01*
X116806934Y-45525164D01*
X117777920Y-45063142D01*
X117781949Y-45061313D01*
X118769143Y-44635040D01*
X118773294Y-44633337D01*
X119775327Y-44243399D01*
X119779511Y-44241857D01*
X120795162Y-43888729D01*
X120799439Y-43887329D01*
X121827256Y-43571518D01*
X121831567Y-43570279D01*
X122823429Y-43304718D01*
X122855499Y-43300500D01*
X124788905Y-43300500D01*
X124855944Y-43320185D01*
G37*
%TD.AperFunction*%
%TA.AperFunction,Conductor*%
G36*
X124080545Y-95070185D02*
G01*
X124101187Y-95086819D01*
X124175080Y-95160712D01*
X124208565Y-95222035D01*
X124203581Y-95291727D01*
X124161709Y-95347660D01*
X124096245Y-95372077D01*
X124087399Y-95372393D01*
X122534782Y-95372393D01*
X122467743Y-95352708D01*
X122421988Y-95299904D01*
X122412044Y-95230746D01*
X122441069Y-95167190D01*
X122447101Y-95160712D01*
X122520994Y-95086819D01*
X122582317Y-95053334D01*
X122608675Y-95050500D01*
X124013506Y-95050500D01*
X124080545Y-95070185D01*
G37*
%TD.AperFunction*%
%TA.AperFunction,Conductor*%
G36*
X133231983Y-90716211D02*
G01*
X133287916Y-90758083D01*
X133312333Y-90823547D01*
X133304591Y-90876363D01*
X133264861Y-90981122D01*
X133264859Y-90981130D01*
X133244355Y-91150000D01*
X133264859Y-91318869D01*
X133264860Y-91318874D01*
X133325182Y-91477931D01*
X133421818Y-91617930D01*
X133510096Y-91696138D01*
X133547223Y-91755327D01*
X133546455Y-91825193D01*
X133515550Y-91876634D01*
X132529004Y-92863181D01*
X132467681Y-92896666D01*
X132441323Y-92899500D01*
X132314944Y-92899500D01*
X132149773Y-92940210D01*
X131999150Y-93019263D01*
X131871816Y-93132072D01*
X131775182Y-93272068D01*
X131714860Y-93431125D01*
X131714859Y-93431130D01*
X131694355Y-93600000D01*
X131714859Y-93768869D01*
X131714860Y-93768874D01*
X131775182Y-93927931D01*
X131871817Y-94067929D01*
X131973130Y-94157685D01*
X132010257Y-94216874D01*
X132009489Y-94286740D01*
X131971071Y-94345099D01*
X131907201Y-94373424D01*
X131890903Y-94374500D01*
X128318353Y-94374500D01*
X128251314Y-94354815D01*
X128205559Y-94302011D01*
X128195230Y-94235779D01*
X128195274Y-94235411D01*
X128222778Y-94171182D01*
X128230694Y-94162473D01*
X128381351Y-94011816D01*
X128442674Y-93978334D01*
X128469031Y-93975500D01*
X129575718Y-93975500D01*
X129575734Y-93975501D01*
X129583330Y-93975501D01*
X129721694Y-93975501D01*
X129721696Y-93975501D01*
X129827444Y-93947165D01*
X129855349Y-93939688D01*
X129975178Y-93870505D01*
X130073018Y-93772665D01*
X130073018Y-93772663D01*
X130083222Y-93762460D01*
X130083226Y-93762455D01*
X133100970Y-90744710D01*
X133162291Y-90711227D01*
X133231983Y-90716211D01*
G37*
%TD.AperFunction*%
%TA.AperFunction,Conductor*%
G36*
X131076521Y-91070185D02*
G01*
X131122276Y-91122989D01*
X131132220Y-91192147D01*
X131103195Y-91255703D01*
X131097163Y-91262181D01*
X130536749Y-91822593D01*
X130475426Y-91856078D01*
X130405734Y-91851094D01*
X130366841Y-91827727D01*
X130300852Y-91769266D01*
X130300850Y-91769264D01*
X130150226Y-91690210D01*
X129985056Y-91649500D01*
X129814944Y-91649500D01*
X129649773Y-91690210D01*
X129499150Y-91769263D01*
X129371816Y-91882072D01*
X129275182Y-92022068D01*
X129275182Y-92022069D01*
X129214860Y-92181124D01*
X129214859Y-92181129D01*
X129199811Y-92305055D01*
X129172188Y-92369233D01*
X129164397Y-92377788D01*
X129029003Y-92513182D01*
X128967683Y-92546666D01*
X128941324Y-92549500D01*
X125016484Y-92549500D01*
X124949445Y-92529815D01*
X124903690Y-92477011D01*
X124893746Y-92407853D01*
X124922771Y-92344297D01*
X124981549Y-92306523D01*
X124984361Y-92305733D01*
X125079277Y-92280301D01*
X125193405Y-92214409D01*
X125570995Y-91836819D01*
X125632318Y-91803334D01*
X125658676Y-91800500D01*
X125685056Y-91800500D01*
X125850225Y-91759790D01*
X125929692Y-91718081D01*
X126000849Y-91680736D01*
X126000850Y-91680734D01*
X126000852Y-91680734D01*
X126128183Y-91567929D01*
X126224818Y-91427930D01*
X126285140Y-91268872D01*
X126298414Y-91159553D01*
X126326036Y-91095375D01*
X126383970Y-91056319D01*
X126421510Y-91050500D01*
X131009482Y-91050500D01*
X131076521Y-91070185D01*
G37*
%TD.AperFunction*%
%TA.AperFunction,Conductor*%
G36*
X142439702Y-88304503D02*
G01*
X142443162Y-88306319D01*
X142449774Y-88309790D01*
X142614944Y-88350500D01*
X142625500Y-88350500D01*
X142692539Y-88370185D01*
X142738294Y-88422989D01*
X142749500Y-88474500D01*
X142749500Y-91691323D01*
X142729815Y-91758362D01*
X142713181Y-91779004D01*
X142006791Y-92485393D01*
X141945468Y-92518878D01*
X141875776Y-92513894D01*
X141834874Y-92485828D01*
X141833797Y-92487045D01*
X141823508Y-92477930D01*
X141730742Y-92395746D01*
X141700849Y-92369263D01*
X141550226Y-92290210D01*
X141385056Y-92249500D01*
X141214944Y-92249500D01*
X141049773Y-92290210D01*
X140899149Y-92369264D01*
X140899147Y-92369266D01*
X140787344Y-92468315D01*
X140724111Y-92498037D01*
X140705117Y-92499500D01*
X138157675Y-92499500D01*
X138090636Y-92479815D01*
X138044881Y-92427011D01*
X138034937Y-92357853D01*
X138063962Y-92294297D01*
X138069994Y-92287819D01*
X138557314Y-91800500D01*
X139170995Y-91186819D01*
X139232318Y-91153334D01*
X139258676Y-91150500D01*
X140172541Y-91150500D01*
X140239580Y-91170185D01*
X140285335Y-91222989D01*
X140295636Y-91289450D01*
X140294355Y-91299997D01*
X140294355Y-91299999D01*
X140314859Y-91468869D01*
X140314860Y-91468874D01*
X140375182Y-91627931D01*
X140412553Y-91682071D01*
X140471817Y-91767929D01*
X140549578Y-91836819D01*
X140599150Y-91880736D01*
X140749773Y-91959789D01*
X140749775Y-91959790D01*
X140914944Y-92000500D01*
X141085056Y-92000500D01*
X141250225Y-91959790D01*
X141398305Y-91882071D01*
X141400849Y-91880736D01*
X141400850Y-91880734D01*
X141400852Y-91880734D01*
X141528183Y-91767929D01*
X141624818Y-91627930D01*
X141685140Y-91468872D01*
X141705645Y-91300000D01*
X141685140Y-91131128D01*
X141636402Y-91002617D01*
X141631036Y-90932954D01*
X141664184Y-90871448D01*
X141664395Y-90871235D01*
X142150500Y-90385132D01*
X142173266Y-90345700D01*
X142216392Y-90271004D01*
X142250500Y-90143710D01*
X142250500Y-89496204D01*
X142270185Y-89429165D01*
X142273985Y-89424146D01*
X142273922Y-89424103D01*
X142316839Y-89361926D01*
X142374818Y-89277930D01*
X142435140Y-89118872D01*
X142455645Y-88950000D01*
X142435140Y-88781128D01*
X142374818Y-88622070D01*
X142359929Y-88600500D01*
X142280024Y-88484738D01*
X142258141Y-88418384D01*
X142275606Y-88350732D01*
X142326874Y-88303262D01*
X142395667Y-88291045D01*
X142439702Y-88304503D01*
G37*
%TD.AperFunction*%
%TA.AperFunction,Conductor*%
G36*
X113905703Y-87941781D02*
G01*
X113912181Y-87947813D01*
X116249959Y-90285591D01*
X116283444Y-90346914D01*
X116278460Y-90416606D01*
X116244506Y-90466087D01*
X116180113Y-90523135D01*
X116178630Y-90521461D01*
X116128821Y-90552693D01*
X116058956Y-90551915D01*
X116000602Y-90513488D01*
X115993165Y-90503775D01*
X115978184Y-90482072D01*
X115850849Y-90369263D01*
X115700226Y-90290210D01*
X115535056Y-90249500D01*
X115364944Y-90249500D01*
X115199773Y-90290210D01*
X115049150Y-90369263D01*
X114921816Y-90482072D01*
X114825183Y-90622067D01*
X114784496Y-90729350D01*
X114742318Y-90785052D01*
X114676720Y-90809109D01*
X114608530Y-90793882D01*
X114580873Y-90773059D01*
X113736819Y-89929005D01*
X113703334Y-89867682D01*
X113700500Y-89841324D01*
X113700500Y-88035494D01*
X113720185Y-87968455D01*
X113772989Y-87922700D01*
X113842147Y-87912756D01*
X113905703Y-87941781D01*
G37*
%TD.AperFunction*%
%TA.AperFunction,Conductor*%
G36*
X116066752Y-87286305D02*
G01*
X116104164Y-87311978D01*
X116299500Y-87507314D01*
X116392686Y-87600500D01*
X116464168Y-87641770D01*
X116477556Y-87649500D01*
X116506814Y-87666392D01*
X116634107Y-87700500D01*
X116634108Y-87700500D01*
X116634109Y-87700500D01*
X119515890Y-87700500D01*
X119515892Y-87700500D01*
X119643186Y-87666392D01*
X119757314Y-87600500D01*
X120012819Y-87344995D01*
X120074142Y-87311510D01*
X120143834Y-87316494D01*
X120199767Y-87358366D01*
X120224184Y-87423830D01*
X120224500Y-87432676D01*
X120224500Y-87730968D01*
X120204815Y-87798007D01*
X120188181Y-87818649D01*
X118393344Y-89613485D01*
X118363291Y-89635599D01*
X118299151Y-89669263D01*
X118299148Y-89669266D01*
X118223864Y-89735962D01*
X118171816Y-89782072D01*
X118075182Y-89922068D01*
X118014860Y-90081125D01*
X118014859Y-90081130D01*
X117994355Y-90250000D01*
X117994355Y-90250002D01*
X117995636Y-90260550D01*
X117984178Y-90329474D01*
X117937276Y-90381261D01*
X117872541Y-90399500D01*
X117830858Y-90399500D01*
X117763819Y-90379815D01*
X117743177Y-90363181D01*
X115186971Y-87806975D01*
X115153486Y-87745652D01*
X115158470Y-87675960D01*
X115172600Y-87648857D01*
X115239461Y-87551993D01*
X115293744Y-87508004D01*
X115357326Y-87500991D01*
X115357496Y-87499596D01*
X115364942Y-87500500D01*
X115364944Y-87500500D01*
X115535056Y-87500500D01*
X115700225Y-87459790D01*
X115850852Y-87380734D01*
X115934259Y-87306842D01*
X115997488Y-87277122D01*
X116066752Y-87286305D01*
G37*
%TD.AperFunction*%
%TA.AperFunction,Conductor*%
G36*
X123731611Y-85928715D02*
G01*
X123787544Y-85970587D01*
X123811961Y-86036051D01*
X123811373Y-86059843D01*
X123794355Y-86199999D01*
X123814859Y-86368869D01*
X123814860Y-86368874D01*
X123875182Y-86527931D01*
X123895836Y-86557853D01*
X123971817Y-86667929D01*
X124052450Y-86739363D01*
X124099150Y-86780736D01*
X124203422Y-86835462D01*
X124249775Y-86859790D01*
X124414944Y-86900500D01*
X124441324Y-86900500D01*
X124508363Y-86920185D01*
X124529005Y-86936819D01*
X124692686Y-87100500D01*
X124806814Y-87166392D01*
X124934108Y-87200500D01*
X125065893Y-87200500D01*
X126756246Y-87200500D01*
X126823285Y-87220185D01*
X126869040Y-87272989D01*
X126878984Y-87342147D01*
X126849959Y-87405703D01*
X126838472Y-87417316D01*
X126821817Y-87432070D01*
X126725182Y-87572068D01*
X126664860Y-87731125D01*
X126664859Y-87731130D01*
X126644355Y-87900000D01*
X126664859Y-88068869D01*
X126664860Y-88068874D01*
X126725182Y-88227931D01*
X126780247Y-88307705D01*
X126821817Y-88367929D01*
X126915642Y-88451050D01*
X126949150Y-88480736D01*
X127039071Y-88527930D01*
X127099775Y-88559790D01*
X127264944Y-88600500D01*
X127435056Y-88600500D01*
X127600225Y-88559790D01*
X127714840Y-88499635D01*
X127750849Y-88480736D01*
X127750850Y-88480734D01*
X127750852Y-88480734D01*
X127878183Y-88367929D01*
X127974818Y-88227930D01*
X128035140Y-88068872D01*
X128050187Y-87944943D01*
X128077809Y-87880767D01*
X128085580Y-87872232D01*
X128370996Y-87586816D01*
X128432318Y-87553334D01*
X128458676Y-87550500D01*
X129073592Y-87550500D01*
X129140631Y-87570185D01*
X129186386Y-87622989D01*
X129196687Y-87689445D01*
X129188930Y-87753334D01*
X129183264Y-87800000D01*
X129203768Y-87968869D01*
X129203769Y-87968874D01*
X129264091Y-88127931D01*
X129364987Y-88274103D01*
X129362716Y-88275670D01*
X129386943Y-88327190D01*
X129388409Y-88346204D01*
X129388409Y-89123017D01*
X129388409Y-89254801D01*
X129394607Y-89277931D01*
X129422517Y-89382096D01*
X129488411Y-89496227D01*
X129491317Y-89500013D01*
X129516512Y-89565182D01*
X129502474Y-89633627D01*
X129453660Y-89683617D01*
X129392942Y-89699500D01*
X127377581Y-89699500D01*
X127310542Y-89679815D01*
X127264787Y-89627011D01*
X127254485Y-89590447D01*
X127243504Y-89500013D01*
X127235140Y-89431128D01*
X127232475Y-89424102D01*
X127208895Y-89361926D01*
X127174818Y-89272070D01*
X127162897Y-89254800D01*
X127121965Y-89195500D01*
X127078183Y-89132071D01*
X126950852Y-89019266D01*
X126950849Y-89019263D01*
X126800226Y-88940210D01*
X126635056Y-88899500D01*
X126464944Y-88899500D01*
X126308757Y-88937996D01*
X126238954Y-88934927D01*
X126181892Y-88894607D01*
X126155687Y-88829837D01*
X126168659Y-88761182D01*
X126177025Y-88747169D01*
X126224818Y-88677930D01*
X126285140Y-88518872D01*
X126305645Y-88350000D01*
X126285140Y-88181128D01*
X126224818Y-88022070D01*
X126198309Y-87983666D01*
X126142262Y-87902468D01*
X126128183Y-87882071D01*
X126015598Y-87782330D01*
X126000849Y-87769263D01*
X125850226Y-87690210D01*
X125685056Y-87649500D01*
X125514944Y-87649500D01*
X125349773Y-87690210D01*
X125199150Y-87769263D01*
X125071816Y-87882072D01*
X124975182Y-88022068D01*
X124914860Y-88181125D01*
X124914859Y-88181130D01*
X124894355Y-88350000D01*
X124914859Y-88518869D01*
X124914860Y-88518874D01*
X124975182Y-88677931D01*
X125022967Y-88747158D01*
X125071817Y-88817929D01*
X125139295Y-88877709D01*
X125199150Y-88930736D01*
X125349773Y-89009789D01*
X125349775Y-89009790D01*
X125514944Y-89050500D01*
X125685056Y-89050500D01*
X125841245Y-89012003D01*
X125911044Y-89015072D01*
X125968106Y-89055392D01*
X125994311Y-89120161D01*
X125981340Y-89188816D01*
X125972968Y-89202839D01*
X125925182Y-89272069D01*
X125864860Y-89431125D01*
X125864859Y-89431130D01*
X125845515Y-89590447D01*
X125817893Y-89654625D01*
X125759959Y-89693681D01*
X125722419Y-89699500D01*
X124271510Y-89699500D01*
X124204471Y-89679815D01*
X124158716Y-89627011D01*
X124148414Y-89590447D01*
X124141596Y-89534296D01*
X124135140Y-89481128D01*
X124123524Y-89450500D01*
X124108085Y-89409789D01*
X124074818Y-89322070D01*
X124072880Y-89319263D01*
X124028385Y-89254801D01*
X123978183Y-89182071D01*
X123850852Y-89069266D01*
X123850849Y-89069263D01*
X123700226Y-88990210D01*
X123535056Y-88949500D01*
X123508676Y-88949500D01*
X123441637Y-88929815D01*
X123420995Y-88913181D01*
X122136819Y-87629005D01*
X122103334Y-87567682D01*
X122100500Y-87541324D01*
X122100500Y-86907838D01*
X122120185Y-86840799D01*
X122172989Y-86795044D01*
X122242147Y-86785100D01*
X122282122Y-86798040D01*
X122399775Y-86859790D01*
X122564944Y-86900500D01*
X122735056Y-86900500D01*
X122900225Y-86859790D01*
X122999182Y-86807853D01*
X123050849Y-86780736D01*
X123050850Y-86780734D01*
X123050852Y-86780734D01*
X123178183Y-86667929D01*
X123274818Y-86527930D01*
X123335140Y-86368872D01*
X123350187Y-86244943D01*
X123377809Y-86180767D01*
X123385591Y-86172221D01*
X123600598Y-85957214D01*
X123661919Y-85923731D01*
X123731611Y-85928715D01*
G37*
%TD.AperFunction*%
%TA.AperFunction,Conductor*%
G36*
X112868834Y-83513676D02*
G01*
X112924767Y-83555548D01*
X112949184Y-83621012D01*
X112949500Y-83629858D01*
X112949500Y-83656290D01*
X112949500Y-83788074D01*
X112956121Y-83812784D01*
X112983608Y-83915369D01*
X112995041Y-83935171D01*
X113049500Y-84029496D01*
X113049502Y-84029498D01*
X113513181Y-84493177D01*
X113546666Y-84554500D01*
X113549500Y-84580858D01*
X113549500Y-84706404D01*
X113529815Y-84773443D01*
X113477011Y-84819198D01*
X113407853Y-84829142D01*
X113395826Y-84826801D01*
X113285057Y-84799500D01*
X113285056Y-84799500D01*
X113114944Y-84799500D01*
X112949773Y-84840210D01*
X112799150Y-84919263D01*
X112695651Y-85010956D01*
X112673233Y-85030817D01*
X112671816Y-85032072D01*
X112575182Y-85172068D01*
X112514860Y-85331125D01*
X112514859Y-85331130D01*
X112494355Y-85500000D01*
X112514859Y-85668869D01*
X112514860Y-85668874D01*
X112575182Y-85827931D01*
X112676078Y-85974103D01*
X112673807Y-85975670D01*
X112698034Y-86027190D01*
X112699500Y-86046204D01*
X112699500Y-89075500D01*
X112679815Y-89142539D01*
X112627011Y-89188294D01*
X112575500Y-89199500D01*
X112564944Y-89199500D01*
X112399773Y-89240210D01*
X112249150Y-89319263D01*
X112121814Y-89432073D01*
X112120680Y-89433717D01*
X112119539Y-89434641D01*
X112116840Y-89437688D01*
X112116333Y-89437239D01*
X112066396Y-89477706D01*
X111996947Y-89485363D01*
X111934383Y-89454258D01*
X111930951Y-89450955D01*
X111736819Y-89256823D01*
X111703334Y-89195500D01*
X111700500Y-89169142D01*
X111700500Y-84630858D01*
X111720185Y-84563819D01*
X111736819Y-84543177D01*
X112737819Y-83542177D01*
X112799142Y-83508692D01*
X112868834Y-83513676D01*
G37*
%TD.AperFunction*%
%TA.AperFunction,Conductor*%
G36*
X119345650Y-86370185D02*
G01*
X119391405Y-86422989D01*
X119401706Y-86489455D01*
X119399810Y-86505061D01*
X119372184Y-86569237D01*
X119364397Y-86577786D01*
X119279005Y-86663180D01*
X119217683Y-86696666D01*
X119191323Y-86699500D01*
X117091850Y-86699500D01*
X117024811Y-86679815D01*
X116979056Y-86627011D01*
X116969112Y-86557853D01*
X116998137Y-86494297D01*
X117034224Y-86465704D01*
X117067252Y-86448369D01*
X117100852Y-86430734D01*
X117156218Y-86381683D01*
X117219451Y-86351963D01*
X117238445Y-86350500D01*
X119278611Y-86350500D01*
X119345650Y-86370185D01*
G37*
%TD.AperFunction*%
%TA.AperFunction,Conductor*%
G36*
X129828594Y-83170185D02*
G01*
X129843779Y-83181682D01*
X129899148Y-83230734D01*
X129899150Y-83230735D01*
X130056416Y-83313276D01*
X130055562Y-83314901D01*
X130103550Y-83351241D01*
X130127604Y-83416839D01*
X130112374Y-83485029D01*
X130062696Y-83534160D01*
X130051960Y-83539062D01*
X129899150Y-83619263D01*
X129771816Y-83732072D01*
X129675182Y-83872068D01*
X129614860Y-84031125D01*
X129614859Y-84031130D01*
X129594355Y-84200000D01*
X129614859Y-84368869D01*
X129614860Y-84368874D01*
X129675182Y-84527931D01*
X129711716Y-84580858D01*
X129771817Y-84667929D01*
X129842772Y-84730789D01*
X129899150Y-84780736D01*
X129965776Y-84815704D01*
X130015989Y-84864289D01*
X130031963Y-84932308D01*
X130008628Y-84998165D01*
X129953391Y-85040952D01*
X129908150Y-85049500D01*
X129080302Y-85049500D01*
X129013263Y-85029815D01*
X128967508Y-84977011D01*
X128961322Y-84959244D01*
X128937779Y-84897166D01*
X128899818Y-84797070D01*
X128897288Y-84793405D01*
X128846748Y-84720185D01*
X128803183Y-84657071D01*
X128697923Y-84563819D01*
X128675849Y-84544263D01*
X128525226Y-84465210D01*
X128360056Y-84424500D01*
X128189944Y-84424500D01*
X128024773Y-84465210D01*
X127874150Y-84544263D01*
X127746816Y-84657072D01*
X127650182Y-84797068D01*
X127589860Y-84956125D01*
X127589859Y-84956130D01*
X127569355Y-85125000D01*
X127589859Y-85293869D01*
X127589860Y-85293874D01*
X127650182Y-85452931D01*
X127695566Y-85518680D01*
X127746817Y-85592929D01*
X127791692Y-85632685D01*
X127828819Y-85691874D01*
X127828051Y-85761739D01*
X127789634Y-85820099D01*
X127725763Y-85848424D01*
X127709465Y-85849500D01*
X127183676Y-85849500D01*
X127116637Y-85829815D01*
X127095995Y-85813181D01*
X126035602Y-84752788D01*
X126002117Y-84691465D01*
X126000187Y-84680053D01*
X125999712Y-84676139D01*
X125985140Y-84556128D01*
X125981616Y-84546837D01*
X125943955Y-84447531D01*
X125924818Y-84397070D01*
X125912674Y-84379477D01*
X125844788Y-84281128D01*
X125828183Y-84257071D01*
X125828179Y-84257067D01*
X125823209Y-84251457D01*
X125825424Y-84249493D01*
X125795554Y-84201828D01*
X125796351Y-84131963D01*
X125827239Y-84080573D01*
X126720995Y-83186819D01*
X126782318Y-83153334D01*
X126808676Y-83150500D01*
X129761555Y-83150500D01*
X129828594Y-83170185D01*
G37*
%TD.AperFunction*%
%TA.AperFunction,Conductor*%
G36*
X111178668Y-78288889D02*
G01*
X111233848Y-78331748D01*
X111257099Y-78397635D01*
X111257277Y-78404283D01*
X111257277Y-81723668D01*
X111291385Y-81850964D01*
X111324331Y-81908027D01*
X111357277Y-81965091D01*
X111357279Y-81965093D01*
X111664396Y-82272210D01*
X111697881Y-82333533D01*
X111699811Y-82344943D01*
X111714859Y-82468870D01*
X111714860Y-82468875D01*
X111775182Y-82627930D01*
X111775182Y-82627931D01*
X111871816Y-82767928D01*
X111892322Y-82786095D01*
X111929448Y-82845285D01*
X111928680Y-82915151D01*
X111897775Y-82966591D01*
X110892686Y-83971682D01*
X110799502Y-84064865D01*
X110799500Y-84064868D01*
X110733608Y-84178994D01*
X110699500Y-84306290D01*
X110699500Y-85101418D01*
X110679815Y-85168457D01*
X110627011Y-85214212D01*
X110557853Y-85224156D01*
X110494297Y-85195131D01*
X110493273Y-85194234D01*
X110444673Y-85151179D01*
X110399947Y-85111555D01*
X110399945Y-85111554D01*
X110399944Y-85111553D01*
X110249321Y-85032499D01*
X110084151Y-84991789D01*
X109914039Y-84991789D01*
X109748868Y-85032499D01*
X109598245Y-85111552D01*
X109470911Y-85224361D01*
X109374277Y-85364357D01*
X109355606Y-85413591D01*
X109340687Y-85452931D01*
X109334414Y-85469471D01*
X109292236Y-85525174D01*
X109226639Y-85549231D01*
X109218472Y-85549500D01*
X107408676Y-85549500D01*
X107341637Y-85529815D01*
X107320995Y-85513181D01*
X107319495Y-85511681D01*
X107286010Y-85450358D01*
X107290994Y-85380666D01*
X107332866Y-85324733D01*
X107398330Y-85300316D01*
X107407176Y-85300000D01*
X108200000Y-85300000D01*
X108200000Y-81500000D01*
X107874500Y-81500000D01*
X107807461Y-81480315D01*
X107761706Y-81427511D01*
X107750500Y-81376000D01*
X107750500Y-81334249D01*
X107750514Y-81334024D01*
X107750513Y-81324526D01*
X107751334Y-81321725D01*
X107751597Y-81317789D01*
X107751612Y-81317677D01*
X107752488Y-81317794D01*
X107770184Y-81257482D01*
X107822978Y-81211716D01*
X107874513Y-81200500D01*
X108885823Y-81200500D01*
X108952862Y-81220185D01*
X108973504Y-81236819D01*
X109100555Y-81363870D01*
X109134040Y-81425193D01*
X109135970Y-81436603D01*
X109151018Y-81560530D01*
X109151019Y-81560535D01*
X109211341Y-81719590D01*
X109211341Y-81719591D01*
X109254468Y-81782070D01*
X109307976Y-81859589D01*
X109378502Y-81922069D01*
X109435309Y-81972396D01*
X109581289Y-82049012D01*
X109585934Y-82051450D01*
X109751103Y-82092160D01*
X109921215Y-82092160D01*
X110086384Y-82051450D01*
X110174309Y-82005303D01*
X110237008Y-81972396D01*
X110237009Y-81972394D01*
X110237011Y-81972394D01*
X110364342Y-81859589D01*
X110460977Y-81719590D01*
X110521299Y-81560532D01*
X110541804Y-81391660D01*
X110521299Y-81222788D01*
X110460977Y-81063730D01*
X110364342Y-80923731D01*
X110259817Y-80831130D01*
X110237008Y-80810923D01*
X110086385Y-80731870D01*
X109921215Y-80691160D01*
X109894835Y-80691160D01*
X109827796Y-80671475D01*
X109807154Y-80654841D01*
X109451815Y-80299502D01*
X109451813Y-80299500D01*
X109368036Y-80251131D01*
X109337686Y-80233608D01*
X109274038Y-80216554D01*
X109210391Y-80199500D01*
X109210390Y-80199500D01*
X108415317Y-80199500D01*
X108348278Y-80179815D01*
X108302523Y-80127011D01*
X108292221Y-80060554D01*
X108297282Y-80018872D01*
X108300187Y-79994943D01*
X108327808Y-79930767D01*
X108335591Y-79922221D01*
X108909458Y-79348356D01*
X108909458Y-79348355D01*
X109198358Y-79059455D01*
X109198360Y-79059454D01*
X109282664Y-78975149D01*
X109291543Y-78966270D01*
X109291543Y-78966268D01*
X109369326Y-78888485D01*
X109369327Y-78888482D01*
X109372820Y-78884990D01*
X109372849Y-78884954D01*
X109372854Y-78884950D01*
X109401427Y-78842199D01*
X109455042Y-78797401D01*
X109524367Y-78788701D01*
X109587392Y-78818862D01*
X109592201Y-78823421D01*
X109690355Y-78921575D01*
X109690366Y-78921584D01*
X109690369Y-78921586D01*
X109690371Y-78921588D01*
X109808380Y-79000454D01*
X109939509Y-79054779D01*
X109998518Y-79066519D01*
X110078716Y-79082475D01*
X110078718Y-79082475D01*
X110220653Y-79082478D01*
X110359862Y-79054787D01*
X110490993Y-79000468D01*
X110609006Y-78921608D01*
X110645699Y-78884910D01*
X110700603Y-78830005D01*
X110700624Y-78829993D01*
X110736934Y-78793686D01*
X110736935Y-78793687D01*
X110787120Y-78743507D01*
X110865980Y-78625492D01*
X110920299Y-78494360D01*
X110940198Y-78394312D01*
X110972581Y-78332403D01*
X111033296Y-78297828D01*
X111037601Y-78296891D01*
X111109076Y-78282668D01*
X111178668Y-78288889D01*
G37*
%TD.AperFunction*%
%TA.AperFunction,Conductor*%
G36*
X120166421Y-83648611D02*
G01*
X120222584Y-83690174D01*
X120226816Y-83696119D01*
X120229076Y-83699500D01*
X120232313Y-83704344D01*
X120260039Y-83732067D01*
X120260041Y-83732072D01*
X120260043Y-83732071D01*
X120340755Y-83812782D01*
X120340757Y-83812784D01*
X120387346Y-83859375D01*
X120441979Y-83914008D01*
X120441983Y-83914011D01*
X120570473Y-83999866D01*
X120713243Y-84059004D01*
X120713247Y-84059004D01*
X120713248Y-84059005D01*
X120742354Y-84064795D01*
X120804265Y-84097180D01*
X120838839Y-84157896D01*
X120835099Y-84227665D01*
X120834104Y-84230382D01*
X120814861Y-84281121D01*
X120814859Y-84281129D01*
X120799811Y-84405055D01*
X120772188Y-84469233D01*
X120764396Y-84477788D01*
X119929005Y-85313181D01*
X119867682Y-85346666D01*
X119841324Y-85349500D01*
X118839395Y-85349500D01*
X118772356Y-85329815D01*
X118726601Y-85277011D01*
X118716657Y-85207853D01*
X118723453Y-85181529D01*
X118728135Y-85169183D01*
X118785140Y-85018872D01*
X118800187Y-84894945D01*
X118827809Y-84830768D01*
X118835588Y-84822224D01*
X118864409Y-84793405D01*
X118896641Y-84737576D01*
X118947206Y-84689363D01*
X119015813Y-84676139D01*
X119061652Y-84689781D01*
X119099775Y-84709790D01*
X119264944Y-84750500D01*
X119435056Y-84750500D01*
X119600225Y-84709790D01*
X119700672Y-84657071D01*
X119750849Y-84630736D01*
X119750850Y-84630734D01*
X119750852Y-84630734D01*
X119878183Y-84517929D01*
X119974818Y-84377930D01*
X120035140Y-84218872D01*
X120055645Y-84050000D01*
X120035140Y-83881128D01*
X120007784Y-83808997D01*
X120002418Y-83739337D01*
X120035565Y-83677831D01*
X120096703Y-83644010D01*
X120166421Y-83648611D01*
G37*
%TD.AperFunction*%
%TA.AperFunction,Conductor*%
G36*
X138806813Y-82545185D02*
G01*
X138822000Y-82556684D01*
X138849147Y-82580733D01*
X138849149Y-82580735D01*
X138939071Y-82627930D01*
X138999775Y-82659790D01*
X139164944Y-82700500D01*
X139275500Y-82700500D01*
X139342539Y-82720185D01*
X139388294Y-82772989D01*
X139399500Y-82824500D01*
X139399500Y-84467942D01*
X139379815Y-84534981D01*
X139333126Y-84577738D01*
X139185241Y-84655354D01*
X139057907Y-84768163D01*
X138961273Y-84908159D01*
X138961273Y-84908160D01*
X138899358Y-85071419D01*
X138857180Y-85127122D01*
X138791583Y-85151179D01*
X138723392Y-85135952D01*
X138695735Y-85115129D01*
X138480108Y-84899502D01*
X138480106Y-84899500D01*
X138419119Y-84864289D01*
X138365979Y-84833608D01*
X138299159Y-84815704D01*
X138238684Y-84799500D01*
X138238683Y-84799500D01*
X138127581Y-84799500D01*
X138060542Y-84779815D01*
X138014787Y-84727011D01*
X138004485Y-84690447D01*
X138001751Y-84667927D01*
X137985140Y-84531128D01*
X137924818Y-84372070D01*
X137922608Y-84368869D01*
X137874726Y-84299500D01*
X137828183Y-84232071D01*
X137700852Y-84119266D01*
X137700849Y-84119263D01*
X137550226Y-84040210D01*
X137385056Y-83999500D01*
X137214944Y-83999500D01*
X137049773Y-84040210D01*
X136899150Y-84119263D01*
X136816925Y-84192109D01*
X136773724Y-84230382D01*
X136771816Y-84232072D01*
X136675182Y-84372068D01*
X136671698Y-84378709D01*
X136669891Y-84377760D01*
X136633990Y-84425174D01*
X136568393Y-84449231D01*
X136560226Y-84449500D01*
X135613246Y-84449500D01*
X135546207Y-84429815D01*
X135500452Y-84377011D01*
X135490150Y-84310554D01*
X135505645Y-84182940D01*
X135487211Y-84031125D01*
X135485140Y-84014068D01*
X135424818Y-83855010D01*
X135328183Y-83715011D01*
X135246124Y-83642314D01*
X135208999Y-83583126D01*
X135209767Y-83513261D01*
X135248184Y-83454901D01*
X135312055Y-83426576D01*
X135328353Y-83425500D01*
X135360056Y-83425500D01*
X135525225Y-83384790D01*
X135604692Y-83343081D01*
X135675849Y-83305736D01*
X135675850Y-83305734D01*
X135675852Y-83305734D01*
X135803183Y-83192929D01*
X135899818Y-83052930D01*
X135946238Y-82930528D01*
X135988416Y-82874826D01*
X136054013Y-82850769D01*
X136062180Y-82850500D01*
X136528490Y-82850500D01*
X136595529Y-82870185D01*
X136641284Y-82922989D01*
X136651586Y-82959553D01*
X136664859Y-83068869D01*
X136664860Y-83068874D01*
X136725182Y-83227931D01*
X136778888Y-83305736D01*
X136821817Y-83367929D01*
X136927505Y-83461560D01*
X136949150Y-83480736D01*
X137099773Y-83559789D01*
X137099775Y-83559790D01*
X137264944Y-83600500D01*
X137435056Y-83600500D01*
X137600225Y-83559790D01*
X137715097Y-83499500D01*
X137750849Y-83480736D01*
X137750850Y-83480734D01*
X137750852Y-83480734D01*
X137878183Y-83367929D01*
X137974818Y-83227930D01*
X138035140Y-83068872D01*
X138045301Y-82985184D01*
X138072922Y-82921008D01*
X138080705Y-82912463D01*
X138431350Y-82561819D01*
X138492673Y-82528334D01*
X138519031Y-82525500D01*
X138739774Y-82525500D01*
X138806813Y-82545185D01*
G37*
%TD.AperFunction*%
%TA.AperFunction,Conductor*%
G36*
X133195529Y-82220185D02*
G01*
X133241284Y-82272989D01*
X133251586Y-82309553D01*
X133264859Y-82418869D01*
X133264860Y-82418874D01*
X133325182Y-82577931D01*
X133359695Y-82627931D01*
X133421817Y-82717929D01*
X133497114Y-82784636D01*
X133549150Y-82830736D01*
X133699285Y-82909533D01*
X133699775Y-82909790D01*
X133864944Y-82950500D01*
X134035056Y-82950500D01*
X134200225Y-82909790D01*
X134350852Y-82830734D01*
X134382881Y-82802358D01*
X134446111Y-82772638D01*
X134515375Y-82781820D01*
X134568679Y-82826991D01*
X134588203Y-82880226D01*
X134589859Y-82893869D01*
X134589860Y-82893874D01*
X134650182Y-83052931D01*
X134661187Y-83068874D01*
X134746817Y-83192929D01*
X134828875Y-83265625D01*
X134866001Y-83324814D01*
X134865233Y-83394679D01*
X134826816Y-83453039D01*
X134762945Y-83481364D01*
X134746647Y-83482440D01*
X134714944Y-83482440D01*
X134549773Y-83523150D01*
X134399150Y-83602203D01*
X134271816Y-83715012D01*
X134175182Y-83855008D01*
X134114860Y-84014065D01*
X134114859Y-84014070D01*
X134094355Y-84182940D01*
X134109850Y-84310554D01*
X134098390Y-84379477D01*
X134051486Y-84431263D01*
X133986754Y-84449500D01*
X133884107Y-84449500D01*
X133756813Y-84483608D01*
X133710496Y-84510349D01*
X133642686Y-84549500D01*
X133642684Y-84549502D01*
X133628102Y-84564083D01*
X133566777Y-84597565D01*
X133497086Y-84592577D01*
X133441154Y-84550703D01*
X133438375Y-84546837D01*
X133436600Y-84544266D01*
X133428183Y-84532071D01*
X133412218Y-84517927D01*
X133300849Y-84419263D01*
X133150226Y-84340210D01*
X132985056Y-84299500D01*
X132958676Y-84299500D01*
X132891637Y-84279815D01*
X132870995Y-84263181D01*
X132407316Y-83799502D01*
X132407314Y-83799500D01*
X132350250Y-83766554D01*
X132293187Y-83733608D01*
X132183955Y-83704340D01*
X132165892Y-83699500D01*
X132165891Y-83699500D01*
X130838445Y-83699500D01*
X130771406Y-83679815D01*
X130756218Y-83668316D01*
X130700852Y-83619266D01*
X130700850Y-83619265D01*
X130700849Y-83619264D01*
X130543584Y-83536724D01*
X130544437Y-83535097D01*
X130496454Y-83498766D01*
X130472395Y-83433169D01*
X130487621Y-83364978D01*
X130537296Y-83315844D01*
X130548040Y-83310936D01*
X130550222Y-83309790D01*
X130550225Y-83309790D01*
X130647307Y-83258836D01*
X130700849Y-83230736D01*
X130700850Y-83230734D01*
X130700852Y-83230734D01*
X130828183Y-83117929D01*
X130924818Y-82977930D01*
X130985140Y-82818872D01*
X131005645Y-82650000D01*
X130985140Y-82481128D01*
X130942414Y-82368469D01*
X130937048Y-82298808D01*
X130970196Y-82237302D01*
X131031334Y-82203480D01*
X131058357Y-82200500D01*
X133128490Y-82200500D01*
X133195529Y-82220185D01*
G37*
%TD.AperFunction*%
%TA.AperFunction,Conductor*%
G36*
X117720013Y-78970185D02*
G01*
X117765768Y-79022989D01*
X117776070Y-79089447D01*
X117758264Y-79236090D01*
X117778768Y-79404960D01*
X117778769Y-79404965D01*
X117839091Y-79564022D01*
X117939987Y-79710194D01*
X117937716Y-79711761D01*
X117961943Y-79763281D01*
X117963409Y-79782295D01*
X117963409Y-80299461D01*
X117943724Y-80366500D01*
X117890920Y-80412255D01*
X117821762Y-80422199D01*
X117781783Y-80409257D01*
X117650226Y-80340210D01*
X117485056Y-80299500D01*
X117314944Y-80299500D01*
X117149773Y-80340210D01*
X116999150Y-80419263D01*
X116871816Y-80532072D01*
X116775182Y-80672068D01*
X116714860Y-80831125D01*
X116714859Y-80831130D01*
X116694355Y-81000000D01*
X116714859Y-81168869D01*
X116714860Y-81168874D01*
X116775182Y-81327931D01*
X116835106Y-81414745D01*
X116856989Y-81481099D01*
X116839524Y-81548751D01*
X116790683Y-81594981D01*
X116649149Y-81669265D01*
X116521818Y-81782070D01*
X116425182Y-81922069D01*
X116393615Y-82005303D01*
X116365354Y-82049012D01*
X114512680Y-83901686D01*
X114451357Y-83935171D01*
X114381665Y-83930187D01*
X114337318Y-83901686D01*
X113986819Y-83551187D01*
X113953334Y-83489864D01*
X113950500Y-83463506D01*
X113950500Y-81122788D01*
X113970185Y-81055749D01*
X114022989Y-81009994D01*
X114092147Y-81000050D01*
X114155703Y-81029075D01*
X114176547Y-81052345D01*
X114184406Y-81063730D01*
X114221815Y-81117927D01*
X114221817Y-81117929D01*
X114236393Y-81130842D01*
X114349150Y-81230736D01*
X114480169Y-81299500D01*
X114499775Y-81309790D01*
X114664944Y-81350500D01*
X114835056Y-81350500D01*
X115000225Y-81309790D01*
X115094992Y-81260052D01*
X115150849Y-81230736D01*
X115150850Y-81230734D01*
X115150852Y-81230734D01*
X115278183Y-81117929D01*
X115374818Y-80977930D01*
X115435140Y-80818872D01*
X115450187Y-80694943D01*
X115477809Y-80630767D01*
X115485591Y-80622221D01*
X117120995Y-78986819D01*
X117182318Y-78953334D01*
X117208676Y-78950500D01*
X117652974Y-78950500D01*
X117720013Y-78970185D01*
G37*
%TD.AperFunction*%
%TA.AperFunction,Conductor*%
G36*
X125216678Y-83078050D02*
G01*
X125257622Y-83134665D01*
X125261459Y-83204429D01*
X125228424Y-83263761D01*
X124962181Y-83530005D01*
X124900858Y-83563490D01*
X124831167Y-83558506D01*
X124775233Y-83516635D01*
X124750816Y-83451170D01*
X124750500Y-83442324D01*
X124750500Y-83268489D01*
X124770185Y-83201450D01*
X124822989Y-83155695D01*
X124844823Y-83148092D01*
X125000225Y-83109790D01*
X125083119Y-83066283D01*
X125151624Y-83052558D01*
X125216678Y-83078050D01*
G37*
%TD.AperFunction*%
%TA.AperFunction,Conductor*%
G36*
X129912070Y-77998256D02*
G01*
X129968003Y-78040128D01*
X129970780Y-78043989D01*
X130021817Y-78117929D01*
X130093782Y-78181684D01*
X130149150Y-78230736D01*
X130290025Y-78304673D01*
X130299775Y-78309790D01*
X130464944Y-78350500D01*
X130635056Y-78350500D01*
X130800225Y-78309790D01*
X130950852Y-78230734D01*
X131006218Y-78181683D01*
X131069451Y-78151963D01*
X131088445Y-78150500D01*
X131414506Y-78150500D01*
X131481545Y-78170185D01*
X131527300Y-78222989D01*
X131537244Y-78292147D01*
X131508219Y-78355703D01*
X131502187Y-78362181D01*
X131499502Y-78364865D01*
X131499500Y-78364868D01*
X131433608Y-78478994D01*
X131399500Y-78606290D01*
X131399500Y-79815891D01*
X131433608Y-79943187D01*
X131460757Y-79990210D01*
X131499500Y-80057314D01*
X131499502Y-80057316D01*
X131514396Y-80072210D01*
X131547881Y-80133533D01*
X131549811Y-80144943D01*
X131564859Y-80268870D01*
X131564860Y-80268875D01*
X131625182Y-80427930D01*
X131625182Y-80427931D01*
X131653712Y-80469263D01*
X131721817Y-80567929D01*
X131817242Y-80652468D01*
X131849150Y-80680736D01*
X131951111Y-80734249D01*
X131999775Y-80759790D01*
X132164944Y-80800500D01*
X132335056Y-80800500D01*
X132500225Y-80759790D01*
X132599182Y-80707853D01*
X132650849Y-80680736D01*
X132650850Y-80680734D01*
X132650852Y-80680734D01*
X132778183Y-80567929D01*
X132874818Y-80427930D01*
X132935140Y-80268872D01*
X132955645Y-80100000D01*
X132935140Y-79931128D01*
X132874818Y-79772070D01*
X132846172Y-79730570D01*
X132824290Y-79664219D01*
X132841754Y-79596568D01*
X132865990Y-79567322D01*
X132978183Y-79467929D01*
X133074818Y-79327930D01*
X133135140Y-79168872D01*
X133145630Y-79082477D01*
X133148414Y-79059553D01*
X133176036Y-78995375D01*
X133233970Y-78956319D01*
X133271510Y-78950500D01*
X133536758Y-78950500D01*
X133603797Y-78970185D01*
X133649552Y-79022989D01*
X133659496Y-79092147D01*
X133644145Y-79136501D01*
X133630790Y-79159631D01*
X133596682Y-79286926D01*
X133596682Y-80894142D01*
X133576997Y-80961181D01*
X133560363Y-80981823D01*
X133379005Y-81163181D01*
X133317682Y-81196666D01*
X133291324Y-81199500D01*
X129921510Y-81199500D01*
X129854471Y-81179815D01*
X129808716Y-81127011D01*
X129798414Y-81090447D01*
X129788645Y-81009994D01*
X129785140Y-80981128D01*
X129724818Y-80822070D01*
X129706782Y-80795941D01*
X129686169Y-80766078D01*
X129628183Y-80682071D01*
X129533316Y-80598026D01*
X129500849Y-80569263D01*
X129350226Y-80490210D01*
X129185056Y-80449500D01*
X129014944Y-80449500D01*
X128849773Y-80490210D01*
X128699150Y-80569263D01*
X128573326Y-80680734D01*
X128571817Y-80682071D01*
X128495120Y-80793186D01*
X128493218Y-80795941D01*
X128438935Y-80839931D01*
X128391168Y-80849500D01*
X127257676Y-80849500D01*
X127190637Y-80829815D01*
X127144882Y-80777011D01*
X127134938Y-80707853D01*
X127163963Y-80644297D01*
X127169995Y-80637819D01*
X127817604Y-79990210D01*
X129781057Y-78026755D01*
X129842378Y-77993272D01*
X129912070Y-77998256D01*
G37*
%TD.AperFunction*%
%TA.AperFunction,Conductor*%
G36*
X115050269Y-78956613D02*
G01*
X115082225Y-78977149D01*
X115108530Y-79000454D01*
X115199145Y-79080732D01*
X115199146Y-79080732D01*
X115199148Y-79080734D01*
X115320323Y-79144332D01*
X115370533Y-79192915D01*
X115386508Y-79260934D01*
X115363173Y-79326792D01*
X115350376Y-79341808D01*
X114779005Y-79913181D01*
X114717682Y-79946666D01*
X114691324Y-79949500D01*
X114664944Y-79949500D01*
X114499773Y-79990210D01*
X114349150Y-80069263D01*
X114221816Y-80182072D01*
X114176550Y-80247651D01*
X114122267Y-80291642D01*
X114052818Y-80299301D01*
X113990253Y-80268197D01*
X113954436Y-80208206D01*
X113950500Y-80177211D01*
X113950500Y-79680858D01*
X113970185Y-79613819D01*
X113986819Y-79593177D01*
X114093329Y-79486667D01*
X114200500Y-79379496D01*
X114260890Y-79274896D01*
X114268048Y-79262500D01*
X114318615Y-79214284D01*
X114375435Y-79200500D01*
X114485056Y-79200500D01*
X114650225Y-79159790D01*
X114800852Y-79080734D01*
X114917774Y-78977150D01*
X114981006Y-78947429D01*
X115050269Y-78956613D01*
G37*
%TD.AperFunction*%
%TA.AperFunction,Conductor*%
G36*
X120632487Y-76977838D02*
G01*
X120688421Y-77019709D01*
X120691203Y-77023578D01*
X120696413Y-77031125D01*
X120721817Y-77067929D01*
X120816476Y-77151789D01*
X120849150Y-77180736D01*
X121006416Y-77263276D01*
X121005749Y-77264544D01*
X121054866Y-77301736D01*
X121078923Y-77367334D01*
X121063696Y-77435524D01*
X121014020Y-77484657D01*
X120955192Y-77499500D01*
X120307676Y-77499500D01*
X120240637Y-77479815D01*
X120194882Y-77427011D01*
X120184938Y-77357853D01*
X120213963Y-77294297D01*
X120219985Y-77287828D01*
X120501476Y-77006336D01*
X120562795Y-76972854D01*
X120632487Y-76977838D01*
G37*
%TD.AperFunction*%
%TA.AperFunction,Conductor*%
G36*
X122008363Y-77120185D02*
G01*
X122029005Y-77136819D01*
X122180005Y-77287819D01*
X122213490Y-77349142D01*
X122208506Y-77418834D01*
X122166634Y-77474767D01*
X122101170Y-77499184D01*
X122092324Y-77499500D01*
X121544808Y-77499500D01*
X121477769Y-77479815D01*
X121432014Y-77427011D01*
X121422070Y-77357853D01*
X121451095Y-77294297D01*
X121494101Y-77264261D01*
X121493584Y-77263276D01*
X121588338Y-77213544D01*
X121650852Y-77180734D01*
X121706218Y-77131683D01*
X121769451Y-77101963D01*
X121788445Y-77100500D01*
X121941324Y-77100500D01*
X122008363Y-77120185D01*
G37*
%TD.AperFunction*%
%TA.AperFunction,Conductor*%
G36*
X108953133Y-72057193D02*
G01*
X109009066Y-72099065D01*
X109021375Y-72121460D01*
X109021698Y-72121291D01*
X109025182Y-72127931D01*
X109061928Y-72181166D01*
X109121817Y-72267929D01*
X109199578Y-72336819D01*
X109249150Y-72380736D01*
X109399773Y-72459789D01*
X109399775Y-72459790D01*
X109564944Y-72500500D01*
X109591324Y-72500500D01*
X109658363Y-72520185D01*
X109679005Y-72536819D01*
X110889868Y-73747682D01*
X111003996Y-73813574D01*
X111131290Y-73847682D01*
X111263075Y-73847682D01*
X111938506Y-73847682D01*
X112005545Y-73867367D01*
X112026187Y-73884001D01*
X112988928Y-74846742D01*
X113022413Y-74908065D01*
X113017429Y-74977757D01*
X112975557Y-75033690D01*
X112930922Y-75054820D01*
X112799773Y-75087145D01*
X112649150Y-75166198D01*
X112588230Y-75220169D01*
X112536275Y-75266198D01*
X112533884Y-75268316D01*
X112470651Y-75298037D01*
X112451657Y-75299500D01*
X110757623Y-75299500D01*
X110685325Y-75318871D01*
X110685326Y-75318872D01*
X110630328Y-75333608D01*
X110516202Y-75399500D01*
X110516199Y-75399502D01*
X109854006Y-76061696D01*
X109792683Y-76095181D01*
X109766325Y-76098015D01*
X109739945Y-76098015D01*
X109574774Y-76138725D01*
X109424151Y-76217778D01*
X109296817Y-76330587D01*
X109200183Y-76470583D01*
X109139861Y-76629640D01*
X109139860Y-76629645D01*
X109119356Y-76798515D01*
X109119356Y-76798516D01*
X109126904Y-76860686D01*
X109115443Y-76929609D01*
X109068539Y-76981395D01*
X109001083Y-76999601D01*
X108979619Y-76997249D01*
X108947864Y-76990933D01*
X108947863Y-76990933D01*
X108805936Y-76990933D01*
X108805934Y-76990933D01*
X108666742Y-77018620D01*
X108666740Y-77018621D01*
X108666738Y-77018621D01*
X108666737Y-77018622D01*
X108535614Y-77072936D01*
X108492173Y-77101963D01*
X108417604Y-77151789D01*
X108415818Y-77153575D01*
X108414026Y-77155368D01*
X108349208Y-77220185D01*
X108325985Y-77243407D01*
X108325923Y-77243440D01*
X108239456Y-77329906D01*
X108192182Y-77400658D01*
X108138570Y-77445463D01*
X108069245Y-77454170D01*
X108006853Y-77424582D01*
X108000854Y-77419267D01*
X108000845Y-77419261D01*
X107850226Y-77340210D01*
X107685056Y-77299500D01*
X107674500Y-77299500D01*
X107607461Y-77279815D01*
X107561706Y-77227011D01*
X107550500Y-77175500D01*
X107550500Y-73408675D01*
X107570185Y-73341636D01*
X107586814Y-73320999D01*
X108822120Y-72085692D01*
X108883441Y-72052209D01*
X108953133Y-72057193D01*
G37*
%TD.AperFunction*%
%TA.AperFunction,Conductor*%
G36*
X122234806Y-75223114D02*
G01*
X122267539Y-75255490D01*
X122285726Y-75281838D01*
X122326901Y-75318316D01*
X122413059Y-75394645D01*
X122563682Y-75473698D01*
X122563684Y-75473699D01*
X122728853Y-75514409D01*
X122898965Y-75514409D01*
X122970826Y-75496697D01*
X123040627Y-75499766D01*
X123097689Y-75540086D01*
X123123895Y-75604855D01*
X123124500Y-75617094D01*
X123124500Y-76517324D01*
X123104815Y-76584363D01*
X123052011Y-76630118D01*
X122982853Y-76640062D01*
X122919297Y-76611037D01*
X122912819Y-76605005D01*
X122507316Y-76199502D01*
X122507314Y-76199500D01*
X122450250Y-76166554D01*
X122393187Y-76133608D01*
X122320959Y-76114255D01*
X122265892Y-76099500D01*
X122265891Y-76099500D01*
X121989116Y-76099500D01*
X121922077Y-76079815D01*
X121876322Y-76027011D01*
X121866378Y-75957853D01*
X121887066Y-75905060D01*
X121939112Y-75829658D01*
X121974818Y-75777930D01*
X122035140Y-75618872D01*
X122055645Y-75450000D01*
X122042395Y-75340878D01*
X122053855Y-75271955D01*
X122100759Y-75220169D01*
X122168215Y-75201962D01*
X122234806Y-75223114D01*
G37*
%TD.AperFunction*%
%TA.AperFunction,Conductor*%
G36*
X125156567Y-71779723D02*
G01*
X125234107Y-71800500D01*
X125234108Y-71800500D01*
X125462597Y-71800500D01*
X125529636Y-71820185D01*
X125575391Y-71872989D01*
X125585693Y-71909554D01*
X125589859Y-71943869D01*
X125589860Y-71943875D01*
X125650182Y-72102930D01*
X125650182Y-72102931D01*
X125702687Y-72178996D01*
X125746817Y-72242929D01*
X125845929Y-72330734D01*
X125874150Y-72355736D01*
X125969810Y-72405942D01*
X126024775Y-72434790D01*
X126189944Y-72475500D01*
X126360056Y-72475500D01*
X126525225Y-72434790D01*
X126633562Y-72377930D01*
X126675849Y-72355736D01*
X126675850Y-72355734D01*
X126675852Y-72355734D01*
X126803183Y-72242929D01*
X126899818Y-72102930D01*
X126899818Y-72102929D01*
X126904079Y-72096757D01*
X126907039Y-72098800D01*
X126943701Y-72060024D01*
X127011531Y-72043265D01*
X127077654Y-72065838D01*
X127093835Y-72079467D01*
X128419070Y-73404702D01*
X128452555Y-73466025D01*
X128447571Y-73535717D01*
X128405699Y-73591650D01*
X128361064Y-73612780D01*
X128249773Y-73640210D01*
X128133901Y-73701025D01*
X128065392Y-73714751D01*
X128018649Y-73701025D01*
X127897408Y-73637392D01*
X127732238Y-73596682D01*
X127562126Y-73596682D01*
X127396955Y-73637392D01*
X127246332Y-73716445D01*
X127227588Y-73733052D01*
X127164354Y-73762772D01*
X127095091Y-73753588D01*
X127041788Y-73708415D01*
X127029423Y-73684213D01*
X127024818Y-73672070D01*
X126928183Y-73532071D01*
X126800852Y-73419266D01*
X126800849Y-73419263D01*
X126650226Y-73340210D01*
X126485056Y-73299500D01*
X126314944Y-73299500D01*
X126149773Y-73340210D01*
X125999150Y-73419263D01*
X125871816Y-73532072D01*
X125775182Y-73672068D01*
X125714860Y-73831125D01*
X125714859Y-73831130D01*
X125694355Y-74000000D01*
X125714859Y-74168869D01*
X125714860Y-74168874D01*
X125775182Y-74327931D01*
X125820458Y-74393523D01*
X125871817Y-74467929D01*
X125939670Y-74528041D01*
X125999150Y-74580736D01*
X126149773Y-74659789D01*
X126149775Y-74659790D01*
X126314944Y-74700500D01*
X126485056Y-74700500D01*
X126595825Y-74673198D01*
X126665627Y-74676267D01*
X126722689Y-74716587D01*
X126748895Y-74781356D01*
X126749500Y-74793595D01*
X126749500Y-74991323D01*
X126729815Y-75058362D01*
X126713181Y-75079004D01*
X125538071Y-76254113D01*
X125476748Y-76287598D01*
X125407056Y-76282614D01*
X125368163Y-76259247D01*
X125351390Y-76244387D01*
X125342270Y-76236307D01*
X125305145Y-76177116D01*
X125300500Y-76143494D01*
X125300500Y-75655116D01*
X125299912Y-75652923D01*
X125299907Y-75652907D01*
X125290787Y-75618872D01*
X125266392Y-75527825D01*
X125200500Y-75413697D01*
X125036819Y-75250016D01*
X125003334Y-75188693D01*
X125000500Y-75162335D01*
X125000500Y-71899504D01*
X125020185Y-71832465D01*
X125072989Y-71786710D01*
X125142147Y-71776766D01*
X125156567Y-71779723D01*
G37*
%TD.AperFunction*%
%TA.AperFunction,Conductor*%
G36*
X121518268Y-72345393D02*
G01*
X121533453Y-72356890D01*
X121588822Y-72405942D01*
X121588824Y-72405943D01*
X121731328Y-72480736D01*
X121739449Y-72484998D01*
X121904618Y-72525708D01*
X122025500Y-72525708D01*
X122092539Y-72545393D01*
X122138294Y-72598197D01*
X122149500Y-72649708D01*
X122149500Y-73019141D01*
X122129815Y-73086180D01*
X122113181Y-73106822D01*
X119915889Y-75304113D01*
X119854566Y-75337598D01*
X119784874Y-75332614D01*
X119745984Y-75309249D01*
X119700852Y-75269266D01*
X119700850Y-75269265D01*
X119700849Y-75269264D01*
X119550226Y-75190210D01*
X119385056Y-75149500D01*
X119214944Y-75149500D01*
X119049773Y-75190210D01*
X118899150Y-75269264D01*
X118843782Y-75318316D01*
X118780549Y-75348037D01*
X118761555Y-75349500D01*
X118107676Y-75349500D01*
X118040637Y-75329815D01*
X117994882Y-75277011D01*
X117984938Y-75207853D01*
X118013963Y-75144297D01*
X118019995Y-75137819D01*
X120795787Y-72362027D01*
X120857110Y-72328542D01*
X120883468Y-72325708D01*
X121451229Y-72325708D01*
X121518268Y-72345393D01*
G37*
%TD.AperFunction*%
%TA.AperFunction,Conductor*%
G36*
X128478477Y-61770213D02*
G01*
X128515890Y-61795886D01*
X129270504Y-62550500D01*
X129384632Y-62616392D01*
X129511926Y-62650500D01*
X129643711Y-62650500D01*
X133660605Y-62650500D01*
X133727644Y-62670185D01*
X133773399Y-62722989D01*
X133783343Y-62792147D01*
X133776547Y-62818471D01*
X133714860Y-62981124D01*
X133714859Y-62981129D01*
X133699811Y-63105055D01*
X133672188Y-63169233D01*
X133664396Y-63177788D01*
X131379005Y-65463181D01*
X131317682Y-65496666D01*
X131291324Y-65499500D01*
X128288445Y-65499500D01*
X128221406Y-65479815D01*
X128206218Y-65468316D01*
X128200422Y-65463181D01*
X128150852Y-65419266D01*
X128150850Y-65419265D01*
X128150849Y-65419264D01*
X128000226Y-65340210D01*
X127835056Y-65299500D01*
X127664944Y-65299500D01*
X127499773Y-65340210D01*
X127349150Y-65419263D01*
X127221816Y-65532072D01*
X127125182Y-65672068D01*
X127064860Y-65831125D01*
X127064859Y-65831130D01*
X127044355Y-66000000D01*
X127064859Y-66168869D01*
X127064860Y-66168874D01*
X127125182Y-66327931D01*
X127163447Y-66383366D01*
X127221817Y-66467929D01*
X127260234Y-66501963D01*
X127349150Y-66580736D01*
X127499773Y-66659789D01*
X127499775Y-66659790D01*
X127664944Y-66700500D01*
X127835056Y-66700500D01*
X128000225Y-66659790D01*
X128150852Y-66580734D01*
X128206218Y-66531683D01*
X128269451Y-66501963D01*
X128288445Y-66500500D01*
X131615890Y-66500500D01*
X131615892Y-66500500D01*
X131743186Y-66466392D01*
X131857314Y-66400500D01*
X131887819Y-66369995D01*
X131949142Y-66336510D01*
X132018834Y-66341494D01*
X132074767Y-66383366D01*
X132099184Y-66448830D01*
X132099500Y-66457676D01*
X132099500Y-71919642D01*
X132079815Y-71986681D01*
X132063181Y-72007323D01*
X130962181Y-73108323D01*
X130900858Y-73141808D01*
X130831166Y-73136824D01*
X130775233Y-73094952D01*
X130750816Y-73029488D01*
X130750500Y-73020642D01*
X130750500Y-72936494D01*
X130770185Y-72869455D01*
X130786819Y-72848813D01*
X130800500Y-72835132D01*
X130866392Y-72721004D01*
X130900500Y-72593710D01*
X130900500Y-72461926D01*
X130900500Y-71534108D01*
X130866392Y-71406814D01*
X130800500Y-71292686D01*
X130707314Y-71199500D01*
X130657314Y-71149500D01*
X130543186Y-71083608D01*
X130543185Y-71083607D01*
X130536147Y-71079544D01*
X130537618Y-71076994D01*
X130494212Y-71042003D01*
X130472158Y-70975705D01*
X130489449Y-70908009D01*
X130534079Y-70863914D01*
X130557314Y-70850500D01*
X130970995Y-70436819D01*
X131032318Y-70403334D01*
X131058676Y-70400500D01*
X131085056Y-70400500D01*
X131250225Y-70359790D01*
X131354517Y-70305053D01*
X131400849Y-70280736D01*
X131400850Y-70280734D01*
X131400852Y-70280734D01*
X131528183Y-70167929D01*
X131624818Y-70027930D01*
X131685140Y-69868872D01*
X131705645Y-69700000D01*
X131685140Y-69531128D01*
X131685138Y-69531124D01*
X131643780Y-69422070D01*
X131624818Y-69372070D01*
X131597208Y-69332071D01*
X131562696Y-69282072D01*
X131528183Y-69232071D01*
X131424493Y-69140210D01*
X131400849Y-69119263D01*
X131250226Y-69040210D01*
X131085056Y-68999500D01*
X130914944Y-68999500D01*
X130749773Y-69040210D01*
X130599150Y-69119263D01*
X130471816Y-69232072D01*
X130375182Y-69372068D01*
X130375182Y-69372069D01*
X130314860Y-69531124D01*
X130314859Y-69531129D01*
X130299811Y-69655055D01*
X130272188Y-69719233D01*
X130264397Y-69727788D01*
X130079003Y-69913182D01*
X130017683Y-69946666D01*
X129991324Y-69949500D01*
X128408357Y-69949500D01*
X128341318Y-69929815D01*
X128295563Y-69877011D01*
X128285619Y-69807853D01*
X128292415Y-69781529D01*
X128297067Y-69769264D01*
X128335140Y-69668872D01*
X128355645Y-69500000D01*
X128335140Y-69331128D01*
X128274818Y-69172070D01*
X128252826Y-69140210D01*
X128173922Y-69025898D01*
X128176186Y-69024334D01*
X128151961Y-68972774D01*
X128150500Y-68953796D01*
X128150500Y-68824500D01*
X128170185Y-68757461D01*
X128222989Y-68711706D01*
X128274500Y-68700500D01*
X130715890Y-68700500D01*
X130715892Y-68700500D01*
X130843186Y-68666392D01*
X130957314Y-68600500D01*
X131070995Y-68486819D01*
X131132318Y-68453334D01*
X131158676Y-68450500D01*
X131185056Y-68450500D01*
X131350225Y-68409790D01*
X131435273Y-68365153D01*
X131500849Y-68330736D01*
X131500850Y-68330734D01*
X131500852Y-68330734D01*
X131628183Y-68217929D01*
X131724818Y-68077930D01*
X131785140Y-67918872D01*
X131805645Y-67750000D01*
X131785140Y-67581128D01*
X131724818Y-67422070D01*
X131722880Y-67419263D01*
X131687447Y-67367929D01*
X131628183Y-67282071D01*
X131514244Y-67181130D01*
X131500849Y-67169263D01*
X131350226Y-67090210D01*
X131185056Y-67049500D01*
X131014944Y-67049500D01*
X130849773Y-67090210D01*
X130699150Y-67169263D01*
X130571816Y-67282072D01*
X130475182Y-67422068D01*
X130414860Y-67581125D01*
X130414857Y-67581137D01*
X130413727Y-67590450D01*
X130386104Y-67654627D01*
X130328169Y-67693682D01*
X130290632Y-67699500D01*
X127906289Y-67699500D01*
X127778994Y-67733608D01*
X127664868Y-67799500D01*
X127664865Y-67799502D01*
X127249502Y-68214865D01*
X127249500Y-68214868D01*
X127183608Y-68328994D01*
X127149500Y-68456290D01*
X127149500Y-68953796D01*
X127129815Y-69020835D01*
X127126015Y-69025854D01*
X127126078Y-69025898D01*
X127025182Y-69172068D01*
X126964860Y-69331125D01*
X126964859Y-69331130D01*
X126944355Y-69500000D01*
X126964859Y-69668869D01*
X126964860Y-69668874D01*
X127007585Y-69781529D01*
X127012952Y-69851192D01*
X126979804Y-69912698D01*
X126918666Y-69946520D01*
X126891643Y-69949500D01*
X125860865Y-69949500D01*
X125755900Y-69977625D01*
X125755899Y-69977624D01*
X125733574Y-69983607D01*
X125733569Y-69983609D01*
X125668347Y-70021266D01*
X125606347Y-70037879D01*
X125553319Y-70037879D01*
X125504173Y-70049992D01*
X125434371Y-70046922D01*
X125377309Y-70006601D01*
X125351105Y-69941832D01*
X125350500Y-69929595D01*
X125350500Y-66058676D01*
X125370185Y-65991637D01*
X125386819Y-65970995D01*
X127220995Y-64136819D01*
X127282318Y-64103334D01*
X127308676Y-64100500D01*
X127335056Y-64100500D01*
X127500225Y-64059790D01*
X127614144Y-64000000D01*
X127650849Y-63980736D01*
X127650850Y-63980734D01*
X127650852Y-63980734D01*
X127778183Y-63867929D01*
X127874818Y-63727930D01*
X127935140Y-63568872D01*
X127955645Y-63400000D01*
X127935140Y-63231128D01*
X127885787Y-63100995D01*
X127880421Y-63031334D01*
X127913569Y-62969828D01*
X127919491Y-62964221D01*
X128028183Y-62867929D01*
X128124818Y-62727930D01*
X128185140Y-62568872D01*
X128205645Y-62400000D01*
X128185140Y-62231128D01*
X128124818Y-62072070D01*
X128124816Y-62072068D01*
X128124816Y-62072066D01*
X128121329Y-62065421D01*
X128124226Y-62063900D01*
X128106975Y-62011519D01*
X128124467Y-61943874D01*
X128173280Y-61897689D01*
X128300852Y-61830734D01*
X128345984Y-61790750D01*
X128409214Y-61761031D01*
X128478477Y-61770213D01*
G37*
%TD.AperFunction*%
%TA.AperFunction,Conductor*%
G36*
X121928594Y-69070185D02*
G01*
X121943779Y-69081682D01*
X121999148Y-69130734D01*
X122149775Y-69209790D01*
X122314944Y-69250500D01*
X122485054Y-69250500D01*
X122485056Y-69250500D01*
X122545828Y-69235521D01*
X122615626Y-69238590D01*
X122672689Y-69278909D01*
X122698894Y-69343678D01*
X122699500Y-69355918D01*
X122699500Y-70425500D01*
X122679815Y-70492539D01*
X122627011Y-70538294D01*
X122575500Y-70549500D01*
X122564944Y-70549500D01*
X122399773Y-70590210D01*
X122249150Y-70669263D01*
X122121816Y-70782072D01*
X122025182Y-70922068D01*
X122025182Y-70922069D01*
X121975917Y-71051971D01*
X121933739Y-71107674D01*
X121889650Y-71128397D01*
X121739448Y-71165417D01*
X121686186Y-71193372D01*
X121617677Y-71207096D01*
X121552624Y-71181604D01*
X121511681Y-71124988D01*
X121505465Y-71098521D01*
X121503654Y-71083608D01*
X121485140Y-70931128D01*
X121481704Y-70922069D01*
X121447665Y-70832314D01*
X121424818Y-70772070D01*
X121422584Y-70768834D01*
X121353855Y-70669263D01*
X121328183Y-70632071D01*
X121222330Y-70538294D01*
X121200849Y-70519263D01*
X121050226Y-70440210D01*
X120885056Y-70399500D01*
X120714944Y-70399500D01*
X120549773Y-70440210D01*
X120399150Y-70519263D01*
X120271816Y-70632072D01*
X120175182Y-70772068D01*
X120114860Y-70931125D01*
X120114859Y-70931130D01*
X120094355Y-71100000D01*
X120094355Y-71101494D01*
X120094045Y-71102546D01*
X120093451Y-71107446D01*
X120092636Y-71107347D01*
X120074670Y-71168533D01*
X120058036Y-71189175D01*
X118462181Y-72785030D01*
X118400858Y-72818515D01*
X118331166Y-72813531D01*
X118275233Y-72771659D01*
X118250816Y-72706195D01*
X118250500Y-72697349D01*
X118250500Y-70334110D01*
X118250500Y-70334108D01*
X118216392Y-70206814D01*
X118150500Y-70092686D01*
X118057314Y-69999500D01*
X117319995Y-69262181D01*
X117286510Y-69200858D01*
X117291494Y-69131166D01*
X117333366Y-69075233D01*
X117398830Y-69050816D01*
X117407676Y-69050500D01*
X121861555Y-69050500D01*
X121928594Y-69070185D01*
G37*
%TD.AperFunction*%
%TA.AperFunction,Conductor*%
G36*
X128739458Y-70970185D02*
G01*
X128785213Y-71022989D01*
X128795514Y-71059552D01*
X128796332Y-71066284D01*
X128814859Y-71218869D01*
X128814860Y-71218874D01*
X128875182Y-71377931D01*
X128875183Y-71377932D01*
X128893908Y-71405059D01*
X128915792Y-71471413D01*
X128898327Y-71539065D01*
X128847060Y-71586535D01*
X128791859Y-71599500D01*
X128714944Y-71599500D01*
X128549773Y-71640210D01*
X128399149Y-71719264D01*
X128399147Y-71719266D01*
X128354016Y-71759248D01*
X128290783Y-71788969D01*
X128221519Y-71779785D01*
X128184109Y-71754113D01*
X127592177Y-71162181D01*
X127558692Y-71100858D01*
X127563676Y-71031166D01*
X127605548Y-70975233D01*
X127671012Y-70950816D01*
X127679858Y-70950500D01*
X128672419Y-70950500D01*
X128739458Y-70970185D01*
G37*
%TD.AperFunction*%
%TA.AperFunction,Conductor*%
G36*
X115762394Y-69070185D02*
G01*
X115808149Y-69122989D01*
X115817859Y-69167625D01*
X115818451Y-69167554D01*
X115819217Y-69173869D01*
X115819355Y-69174500D01*
X115819355Y-69174999D01*
X115839859Y-69343869D01*
X115839860Y-69343874D01*
X115900182Y-69502931D01*
X115954160Y-69581130D01*
X115996817Y-69642929D01*
X116070852Y-69708518D01*
X116124150Y-69755736D01*
X116261706Y-69827931D01*
X116274775Y-69834790D01*
X116439944Y-69875500D01*
X116466324Y-69875500D01*
X116533363Y-69895185D01*
X116554005Y-69911819D01*
X117213181Y-70570995D01*
X117246666Y-70632318D01*
X117249500Y-70658676D01*
X117249500Y-70675500D01*
X117229815Y-70742539D01*
X117177011Y-70788294D01*
X117125500Y-70799500D01*
X117114944Y-70799500D01*
X116949773Y-70840210D01*
X116799150Y-70919263D01*
X116671816Y-71032071D01*
X116662244Y-71045940D01*
X116607961Y-71089930D01*
X116560194Y-71099500D01*
X116330857Y-71099500D01*
X116263818Y-71079815D01*
X116243176Y-71063181D01*
X115799995Y-70620000D01*
X115329496Y-70149500D01*
X115231092Y-70092686D01*
X115215369Y-70083608D01*
X115151721Y-70066554D01*
X115088074Y-70049500D01*
X115088073Y-70049500D01*
X111157675Y-70049500D01*
X111090636Y-70029815D01*
X111044881Y-69977011D01*
X111034937Y-69907853D01*
X111063962Y-69844297D01*
X111069994Y-69837819D01*
X111404883Y-69502931D01*
X111820995Y-69086819D01*
X111882318Y-69053334D01*
X111908676Y-69050500D01*
X115695355Y-69050500D01*
X115762394Y-69070185D01*
G37*
%TD.AperFunction*%
%TA.AperFunction,Conductor*%
G36*
X137520378Y-65770185D02*
G01*
X137566133Y-65822989D01*
X137569281Y-65830529D01*
X137625182Y-65977931D01*
X137647296Y-66009968D01*
X137721817Y-66117929D01*
X137809813Y-66195886D01*
X137849150Y-66230736D01*
X137966742Y-66292453D01*
X137999775Y-66309790D01*
X138164944Y-66350500D01*
X138335056Y-66350500D01*
X138500225Y-66309790D01*
X138579984Y-66267929D01*
X138650849Y-66230736D01*
X138650850Y-66230734D01*
X138650852Y-66230734D01*
X138695984Y-66190750D01*
X138759214Y-66161031D01*
X138828477Y-66170213D01*
X138865890Y-66195886D01*
X141603039Y-68933035D01*
X141636524Y-68994358D01*
X141631540Y-69064050D01*
X141589668Y-69119983D01*
X141572985Y-69130512D01*
X141499149Y-69169265D01*
X141371816Y-69282072D01*
X141275182Y-69422068D01*
X141214860Y-69581125D01*
X141214859Y-69581130D01*
X141194355Y-69750000D01*
X141208220Y-69864192D01*
X141196759Y-69933115D01*
X141149855Y-69984901D01*
X141114799Y-69999535D01*
X140949773Y-70040210D01*
X140799150Y-70119263D01*
X140671816Y-70232072D01*
X140575182Y-70372068D01*
X140514860Y-70531125D01*
X140514859Y-70531130D01*
X140510268Y-70568944D01*
X140482645Y-70633121D01*
X140424711Y-70672177D01*
X140354858Y-70673712D01*
X140299491Y-70641677D01*
X137788266Y-68130452D01*
X137754781Y-68069129D01*
X137759765Y-67999437D01*
X137773897Y-67972331D01*
X137798247Y-67937054D01*
X137874080Y-67827192D01*
X137934402Y-67668134D01*
X137954907Y-67499262D01*
X137934402Y-67330390D01*
X137924909Y-67305360D01*
X137895545Y-67227931D01*
X137874080Y-67171332D01*
X137777445Y-67031333D01*
X137664698Y-66931448D01*
X137650111Y-66918525D01*
X137499488Y-66839472D01*
X137334318Y-66798762D01*
X137164206Y-66798762D01*
X136999035Y-66839472D01*
X136848412Y-66918525D01*
X136721078Y-67031334D01*
X136624444Y-67171330D01*
X136564122Y-67330387D01*
X136564121Y-67330392D01*
X136543617Y-67499262D01*
X136564121Y-67668131D01*
X136564122Y-67668136D01*
X136624444Y-67827193D01*
X136725340Y-67973365D01*
X136723069Y-67974932D01*
X136747296Y-68026452D01*
X136748762Y-68045466D01*
X136748762Y-68365153D01*
X136782870Y-68492449D01*
X136815816Y-68549512D01*
X136848762Y-68606576D01*
X136848764Y-68606578D01*
X137910130Y-69667944D01*
X137932285Y-69708518D01*
X137962266Y-69721033D01*
X137971876Y-69729690D01*
X138880005Y-70637819D01*
X138913490Y-70699142D01*
X138908506Y-70768834D01*
X138866634Y-70824767D01*
X138801170Y-70849184D01*
X138792324Y-70849500D01*
X138508676Y-70849500D01*
X138441637Y-70829815D01*
X138420995Y-70813181D01*
X137985602Y-70377788D01*
X137952117Y-70316465D01*
X137950187Y-70305053D01*
X137947282Y-70281128D01*
X137935140Y-70181128D01*
X137923524Y-70150500D01*
X137897066Y-70080734D01*
X137874818Y-70022070D01*
X137874550Y-70021682D01*
X137782145Y-69887811D01*
X137775325Y-69867133D01*
X137763022Y-69864457D01*
X137740222Y-69848441D01*
X137735544Y-69844297D01*
X137664694Y-69781529D01*
X137650849Y-69769263D01*
X137500226Y-69690210D01*
X137335056Y-69649500D01*
X137164944Y-69649500D01*
X136999773Y-69690210D01*
X136849149Y-69769264D01*
X136849147Y-69769266D01*
X136804016Y-69809248D01*
X136740783Y-69838969D01*
X136671519Y-69829785D01*
X136634109Y-69804113D01*
X136079498Y-69249502D01*
X136079496Y-69249500D01*
X136022432Y-69216554D01*
X135965369Y-69183608D01*
X135901721Y-69166554D01*
X135838074Y-69149500D01*
X135838073Y-69149500D01*
X135038445Y-69149500D01*
X134971406Y-69129815D01*
X134956218Y-69118316D01*
X134934979Y-69099500D01*
X134900852Y-69069266D01*
X134900850Y-69069265D01*
X134900849Y-69069264D01*
X134750226Y-68990210D01*
X134585056Y-68949500D01*
X134414944Y-68949500D01*
X134354175Y-68964478D01*
X134284372Y-68961409D01*
X134227310Y-68921089D01*
X134201105Y-68856319D01*
X134200500Y-68844081D01*
X134200500Y-68624500D01*
X134220185Y-68557461D01*
X134272989Y-68511706D01*
X134324500Y-68500500D01*
X134335056Y-68500500D01*
X134500225Y-68459790D01*
X134595493Y-68409789D01*
X134650849Y-68380736D01*
X134650850Y-68380734D01*
X134650852Y-68380734D01*
X134778183Y-68267929D01*
X134874818Y-68127930D01*
X134935140Y-67968872D01*
X134955645Y-67800000D01*
X134935140Y-67631128D01*
X134919562Y-67590053D01*
X134892566Y-67518869D01*
X134874818Y-67472070D01*
X134778183Y-67332071D01*
X134650852Y-67219266D01*
X134578191Y-67181130D01*
X134571298Y-67177512D01*
X134521086Y-67128927D01*
X134505112Y-67060908D01*
X134514364Y-67020263D01*
X134516391Y-67015369D01*
X134516392Y-67015368D01*
X134542340Y-66918528D01*
X134550500Y-66888075D01*
X134550500Y-66756290D01*
X134550500Y-66346204D01*
X134570185Y-66279165D01*
X134573985Y-66274146D01*
X134573922Y-66274103D01*
X134627911Y-66195886D01*
X134674818Y-66127930D01*
X134735140Y-65968872D01*
X134748414Y-65859553D01*
X134776036Y-65795375D01*
X134833970Y-65756319D01*
X134871510Y-65750500D01*
X137453339Y-65750500D01*
X137520378Y-65770185D01*
G37*
%TD.AperFunction*%
%TA.AperFunction,Conductor*%
G36*
X117295483Y-63587024D02*
G01*
X117351417Y-63628895D01*
X117368092Y-63659234D01*
X117375183Y-63677932D01*
X117401384Y-63715890D01*
X117471817Y-63817929D01*
X117543782Y-63881684D01*
X117599150Y-63930736D01*
X117731122Y-64000000D01*
X117749775Y-64009790D01*
X117914944Y-64050500D01*
X118085056Y-64050500D01*
X118250225Y-64009790D01*
X118400852Y-63930734D01*
X118456218Y-63881683D01*
X118519451Y-63851963D01*
X118538445Y-63850500D01*
X118825500Y-63850500D01*
X118892539Y-63870185D01*
X118938294Y-63922989D01*
X118949500Y-63974500D01*
X118949500Y-65991324D01*
X118929815Y-66058363D01*
X118913181Y-66079005D01*
X117729005Y-67263181D01*
X117667682Y-67296666D01*
X117641324Y-67299500D01*
X117614944Y-67299500D01*
X117449773Y-67340210D01*
X117299150Y-67419263D01*
X117186713Y-67518874D01*
X117171817Y-67532071D01*
X117137957Y-67581125D01*
X117104567Y-67629499D01*
X117050283Y-67673489D01*
X116980835Y-67681148D01*
X116918270Y-67650044D01*
X116882453Y-67590053D01*
X116884550Y-67526450D01*
X116883345Y-67526153D01*
X116884748Y-67520460D01*
X116884756Y-67520221D01*
X116884923Y-67519747D01*
X116885139Y-67518874D01*
X116885140Y-67518872D01*
X116905645Y-67350000D01*
X116885140Y-67181128D01*
X116880641Y-67169266D01*
X116824817Y-67022068D01*
X116824816Y-67022066D01*
X116804887Y-66993195D01*
X116783003Y-66926841D01*
X116800468Y-66859189D01*
X116851735Y-66811719D01*
X116878146Y-66803810D01*
X116877773Y-66802295D01*
X116885056Y-66800500D01*
X117050225Y-66759790D01*
X117149521Y-66707675D01*
X117200849Y-66680736D01*
X117200850Y-66680734D01*
X117200852Y-66680734D01*
X117328183Y-66567929D01*
X117424818Y-66427930D01*
X117485140Y-66268872D01*
X117505645Y-66100000D01*
X117485140Y-65931128D01*
X117424818Y-65772070D01*
X117409826Y-65750351D01*
X117363552Y-65683312D01*
X117328183Y-65632071D01*
X117200852Y-65519266D01*
X117200849Y-65519263D01*
X117050226Y-65440210D01*
X116885056Y-65399500D01*
X116824500Y-65399500D01*
X116757461Y-65379815D01*
X116711706Y-65327011D01*
X116700500Y-65275500D01*
X116700500Y-64130857D01*
X116720185Y-64063818D01*
X116736815Y-64043180D01*
X117164471Y-63615523D01*
X117225792Y-63582040D01*
X117295483Y-63587024D01*
G37*
%TD.AperFunction*%
%TA.AperFunction,Conductor*%
G36*
X121818834Y-62291494D02*
G01*
X121874767Y-62333366D01*
X121899184Y-62398830D01*
X121899500Y-62407676D01*
X121899500Y-62491324D01*
X121879815Y-62558363D01*
X121863181Y-62579005D01*
X120162181Y-64280005D01*
X120100858Y-64313490D01*
X120031166Y-64308506D01*
X119975233Y-64266634D01*
X119950816Y-64201170D01*
X119950500Y-64192324D01*
X119950500Y-64108676D01*
X119970185Y-64041637D01*
X119986819Y-64020995D01*
X121687819Y-62319995D01*
X121749142Y-62286510D01*
X121818834Y-62291494D01*
G37*
%TD.AperFunction*%
%TA.AperFunction,Conductor*%
G36*
X125705117Y-56555210D02*
G01*
X125761050Y-56597082D01*
X125785467Y-56662546D01*
X125777725Y-56715362D01*
X125714861Y-56881122D01*
X125714859Y-56881130D01*
X125694355Y-57050000D01*
X125714859Y-57218869D01*
X125714860Y-57218874D01*
X125775182Y-57377931D01*
X125807327Y-57424500D01*
X125871817Y-57517929D01*
X125943782Y-57581684D01*
X125999150Y-57630736D01*
X126090321Y-57678586D01*
X126149775Y-57709790D01*
X126314944Y-57750500D01*
X126485056Y-57750500D01*
X126650225Y-57709790D01*
X126800852Y-57630734D01*
X126856218Y-57581683D01*
X126919451Y-57551963D01*
X126938445Y-57550500D01*
X127534683Y-57550500D01*
X127601722Y-57570185D01*
X127647477Y-57622989D01*
X127657778Y-57689445D01*
X127644355Y-57800000D01*
X127664859Y-57968869D01*
X127664860Y-57968874D01*
X127725182Y-58127931D01*
X127769897Y-58192710D01*
X127821817Y-58267929D01*
X127927505Y-58361560D01*
X127949150Y-58380736D01*
X128106416Y-58463276D01*
X128105749Y-58464544D01*
X128154866Y-58501736D01*
X128178923Y-58567334D01*
X128163696Y-58635524D01*
X128114020Y-58684657D01*
X128055192Y-58699500D01*
X124165892Y-58699500D01*
X124034108Y-58699500D01*
X123906814Y-58733608D01*
X123906813Y-58733608D01*
X123906811Y-58733609D01*
X123906810Y-58733609D01*
X123836500Y-58774203D01*
X123768600Y-58790676D01*
X123702573Y-58767823D01*
X123659382Y-58712902D01*
X123650500Y-58666816D01*
X123650500Y-58558676D01*
X123670185Y-58491637D01*
X123686819Y-58470995D01*
X124607315Y-57550499D01*
X125574104Y-56583709D01*
X125635425Y-56550226D01*
X125705117Y-56555210D01*
G37*
%TD.AperFunction*%
%TA.AperFunction,Conductor*%
G36*
X141436181Y-47670185D02*
G01*
X141456823Y-47686819D01*
X144922977Y-51152972D01*
X144922987Y-51152983D01*
X144927317Y-51157313D01*
X144927318Y-51157314D01*
X145020504Y-51250500D01*
X145119021Y-51307379D01*
X145134632Y-51316392D01*
X145261925Y-51350500D01*
X145261926Y-51350500D01*
X146913506Y-51350500D01*
X146980545Y-51370185D01*
X147001187Y-51386819D01*
X147216553Y-51602185D01*
X147250038Y-51663508D01*
X147245054Y-51733200D01*
X147203182Y-51789133D01*
X147186499Y-51799662D01*
X147149149Y-51819265D01*
X147093782Y-51868316D01*
X147030549Y-51898037D01*
X147011555Y-51899500D01*
X144646176Y-51899500D01*
X144579137Y-51879815D01*
X144558495Y-51863181D01*
X143235602Y-50540288D01*
X143202117Y-50478965D01*
X143200187Y-50467553D01*
X143197995Y-50449500D01*
X143185140Y-50343628D01*
X143179901Y-50329815D01*
X143126815Y-50189837D01*
X143124818Y-50184570D01*
X143112841Y-50167219D01*
X143060918Y-50091996D01*
X143028183Y-50044571D01*
X142900852Y-49931766D01*
X142900849Y-49931763D01*
X142750226Y-49852710D01*
X142585056Y-49812000D01*
X142414944Y-49812000D01*
X142249773Y-49852710D01*
X142099149Y-49931764D01*
X142099147Y-49931766D01*
X142066701Y-49960510D01*
X142016569Y-49987468D01*
X141951489Y-50004905D01*
X141951490Y-50004906D01*
X141884662Y-50022812D01*
X141884661Y-50022813D01*
X141764838Y-50091992D01*
X141764833Y-50091996D01*
X140429496Y-51427333D01*
X140429494Y-51427336D01*
X140400254Y-51477982D01*
X140360312Y-51547164D01*
X140352743Y-51575408D01*
X140337919Y-51630734D01*
X140324499Y-51680817D01*
X140324499Y-51829172D01*
X140324500Y-51829185D01*
X140324500Y-53476464D01*
X140304815Y-53543503D01*
X140252011Y-53589258D01*
X140192556Y-53598476D01*
X140192556Y-53599500D01*
X140185955Y-53599500D01*
X140185562Y-53599561D01*
X140185059Y-53599500D01*
X140185056Y-53599500D01*
X140158676Y-53599500D01*
X140091637Y-53579815D01*
X140070995Y-53563181D01*
X138941964Y-52434150D01*
X138908479Y-52372827D01*
X138906821Y-52357412D01*
X138906549Y-52357446D01*
X138885140Y-52181130D01*
X138885139Y-52181125D01*
X138824817Y-52022068D01*
X138787267Y-51967669D01*
X138728183Y-51882071D01*
X138600852Y-51769266D01*
X138600849Y-51769263D01*
X138450226Y-51690210D01*
X138285056Y-51649500D01*
X138114944Y-51649500D01*
X137949773Y-51690210D01*
X137799150Y-51769263D01*
X137671816Y-51882072D01*
X137575182Y-52022068D01*
X137514860Y-52181125D01*
X137514859Y-52181130D01*
X137494355Y-52350000D01*
X137514859Y-52518869D01*
X137514860Y-52518874D01*
X137575182Y-52677931D01*
X137609695Y-52727931D01*
X137671817Y-52817929D01*
X137742712Y-52880736D01*
X137799150Y-52930736D01*
X137949774Y-53009790D01*
X137949773Y-53009790D01*
X138030451Y-53029674D01*
X138114944Y-53050500D01*
X138114946Y-53050500D01*
X138118196Y-53051301D01*
X138176203Y-53084017D01*
X139364396Y-54272210D01*
X139397881Y-54333533D01*
X139399811Y-54344943D01*
X139414859Y-54468870D01*
X139414860Y-54468875D01*
X139475182Y-54627930D01*
X139475182Y-54627931D01*
X139537475Y-54718177D01*
X139571817Y-54767929D01*
X139677505Y-54861560D01*
X139699150Y-54880736D01*
X139849773Y-54959789D01*
X139849775Y-54959790D01*
X140014944Y-55000500D01*
X140185051Y-55000500D01*
X140185056Y-55000500D01*
X140185060Y-55000498D01*
X140185545Y-55000440D01*
X140185906Y-55000500D01*
X140192557Y-55000500D01*
X140192557Y-55001605D01*
X140254469Y-55011896D01*
X140306259Y-55058796D01*
X140324500Y-55123535D01*
X140324500Y-55838567D01*
X140304815Y-55905606D01*
X140282727Y-55931382D01*
X140196402Y-56007859D01*
X140099766Y-56147858D01*
X140039444Y-56306915D01*
X140039443Y-56306921D01*
X140023231Y-56440446D01*
X139995609Y-56504624D01*
X139937675Y-56543681D01*
X139900135Y-56549500D01*
X126938445Y-56549500D01*
X126871406Y-56529815D01*
X126856218Y-56518316D01*
X126809594Y-56477011D01*
X126800852Y-56469266D01*
X126800850Y-56469265D01*
X126800849Y-56469264D01*
X126650226Y-56390210D01*
X126485056Y-56349500D01*
X126314944Y-56349500D01*
X126149776Y-56390209D01*
X126066882Y-56433716D01*
X125998373Y-56447441D01*
X125933320Y-56421948D01*
X125892376Y-56365332D01*
X125888541Y-56295568D01*
X125921573Y-56236240D01*
X127670995Y-54486819D01*
X127732318Y-54453334D01*
X127758676Y-54450500D01*
X132561555Y-54450500D01*
X132628594Y-54470185D01*
X132643779Y-54481682D01*
X132699148Y-54530734D01*
X132849775Y-54609790D01*
X133014944Y-54650500D01*
X133185056Y-54650500D01*
X133350225Y-54609790D01*
X133500852Y-54530734D01*
X133556218Y-54481683D01*
X133619451Y-54451963D01*
X133638445Y-54450500D01*
X134443708Y-54450500D01*
X134443710Y-54450500D01*
X134571004Y-54416392D01*
X134685132Y-54350500D01*
X139800500Y-49235132D01*
X139866392Y-49121004D01*
X139900500Y-48993710D01*
X139900500Y-48861925D01*
X139900500Y-48708676D01*
X139920185Y-48641637D01*
X139936819Y-48620995D01*
X140670995Y-47886819D01*
X140732318Y-47853334D01*
X140758676Y-47850500D01*
X140785056Y-47850500D01*
X140950225Y-47809790D01*
X141100852Y-47730734D01*
X141156218Y-47681683D01*
X141219451Y-47651963D01*
X141238445Y-47650500D01*
X141369142Y-47650500D01*
X141436181Y-47670185D01*
G37*
%TD.AperFunction*%
%TD*%
M02*
