M48
; DRILL file {KiCad 8.0.1} date 2024-08-18T17:01:33-0400
; FORMAT={-:-/ absolute / inch / decimal}
; #@! TF.CreationDate,2024-08-18T17:01:33-04:00
; #@! TF.GenerationSoftware,Kicad,Pcbnew,8.0.1
; #@! TF.FileFunction,Plated,1,4,PTH
FMAT,2
INCH
; #@! TA.AperFunction,Plated,PTH,ViaDrill
T1C0.0118
; #@! TA.AperFunction,Plated,PTH,ComponentDrill
T2C0.0157
; #@! TA.AperFunction,Plated,PTH,ViaDrill
T3C0.0197
; #@! TA.AperFunction,Plated,PTH,ComponentDrill
T4C0.0197
; #@! TA.AperFunction,Plated,PTH,ComponentDrill
T5C0.0236
%
G90
G05
T1
X4.0177Y-2.748
X4.0236Y-2.6535
X4.0433Y-2.6811
X4.0512Y-2.8346
X4.0571Y-3.1673
X4.0571Y-3.2028
X4.0571Y-3.2382
X4.0591Y-2.6535
X4.0785Y-3.0394
X4.0787Y-2.6811
X4.0827Y-2.874
X4.0827Y-2.9094
X4.0827Y-2.9449
X4.0827Y-3.2854
X4.0846Y-3.1476
X4.0846Y-3.1831
X4.0846Y-3.2185
X4.0945Y-2.6535
X4.1063Y-2.815
X4.1102Y-2.8543
X4.1102Y-2.8898
X4.1102Y-2.9252
X4.1142Y-2.6811
X4.1378Y-2.8701
X4.1378Y-2.9055
X4.1378Y-2.9409
X4.1654Y-2.8858
X4.1654Y-2.9213
X4.1811Y-2.3661
X4.1831Y-2.6752
X4.1965Y-3.4075
X4.2008Y-2.3937
X4.2028Y-2.7028
X4.2165Y-2.3661
X4.2185Y-2.6752
X4.2362Y-2.3937
X4.2362Y-3.0709
X4.2362Y-3.1476
X4.2382Y-2.7028
X4.252Y-2.3661
X4.2697Y-3.4724
X4.2717Y-2.3937
X4.2756Y-2.5157
X4.3091Y-3.25
X4.311Y-2.5157
X4.311Y-3.2854
X4.3169Y-2.8268
X4.3228Y-3.5768
X4.3228Y-3.6122
X4.3238Y-3.0236
X4.3243Y-3.2044
X4.3307Y-3.3737
X4.3346Y-2.0354
X4.3346Y-2.0709
X4.3366Y-2.9134
X4.3465Y-2.5157
X4.3484Y-2.7776
X4.3504Y-3.5571
X4.3504Y-3.5925
X4.3504Y-3.628
X4.3622Y-2.0157
X4.3622Y-2.0512
X4.3819Y-2.5157
X4.3858Y-3.7047
X4.3898Y-2.8504
X4.3996Y-3.4823
X4.4035Y-3.5157
X4.4094Y-2.6673
X4.4094Y-2.7244
X4.4114Y-2.8248
X4.4134Y-2.9154
X4.4154Y-3.6476
X4.4154Y-3.6831
X4.4193Y-2.5748
X4.4213Y-3.436
X4.4216Y-3.0911
X4.4239Y-3.372
X4.4252Y-3.1417
X4.4252Y-3.2402
X4.4311Y-3.0453
X4.435Y-3.2953
X4.435Y-3.5394
X4.437Y-2.9429
X4.439Y-2.3386
X4.4409Y-3.748
X4.4429Y-2.1614
X4.4429Y-2.1969
X4.4429Y-3.6634
X4.4429Y-3.6988
X4.4449Y-2.6673
X4.4469Y-3.3248
X4.4488Y-2.7244
X4.4508Y-2.9822
X4.4567Y-3.3661
X4.4705Y-2.1417
X4.4705Y-2.1772
X4.4744Y-3.6575
X4.4754Y-2.9616
X4.4803Y-2.6594
X4.4882Y-1.9331
X4.4882Y-1.9685
X4.4882Y-3.1358
X4.4941Y-2.9311
X4.4941Y-3.7874
X4.4961Y-2.0591
X4.502Y-3.2441
X4.502Y-3.2795
X4.502Y-3.561
X4.5039Y-3.0906
X4.5133Y-3.4326
X4.5157Y-1.9134
X4.5157Y-1.9488
X4.5157Y-2.6594
X4.5177Y-3.1752
X4.5197Y-2.2598
X4.5197Y-2.2953
X4.5197Y-2.3307
X4.5197Y-2.3661
X4.5256Y-3.061
X4.5294Y-2.8092
X4.5295Y-3.2244
X4.5295Y-3.2598
X4.5364Y-3.3337
X4.5453Y-3.4173
X4.5453Y-3.5807
X4.5472Y-2.2402
X4.5472Y-2.2756
X4.5472Y-2.311
X4.5472Y-2.3465
X4.5492Y-3.8209
X4.5512Y-3.0906
X4.5591Y-2.9252
X4.5748Y-2.6516
X4.5787Y-2.7972
X4.5866Y-2.4685
X4.5876Y-2.7234
X4.5925Y-2.0669
X4.5925Y-2.1024
X4.5945Y-3.3799
X4.5945Y-3.3425
X4.595Y-3.5821
X4.5984Y-2.5217
X4.5984Y-2.5571
X4.5984Y-2.6024
X4.6043Y-2.313
X4.6043Y-3.0039
X4.6083Y-2.7795
X4.6083Y-3.2382
X4.6102Y-3.8465
X4.6122Y-3.2815
X4.6142Y-2.815
X4.6201Y-2.0472
X4.6201Y-2.0827
X4.622Y-3.189
X4.624Y-2.3406
X4.6339Y-2.6772
X4.6378Y-3.5354
X4.6398Y-2.313
X4.6398Y-3.6654
X4.6427Y-2.4537
X4.6457Y-2.4941
X4.6496Y-3.0394
X4.6496Y-3.3406
X4.6594Y-2.3406
X4.6639Y-3.1195
X4.6713Y-3.8701
X4.6732Y-3.5531
X4.6811Y-2.4615
X4.6831Y-3.6752
X4.685Y-2.9469
X4.687Y-2.7677
X4.687Y-2.8012
X4.687Y-3.7244
X4.6969Y-2.9862
X4.6969Y-3.4035
X4.6988Y-3.3091
X4.7008Y-3.3504
X4.7028Y-3.8484
X4.7106Y-3.811
X4.7126Y-3.7461
X4.7165Y-2.9449
X4.7205Y-1.8839
X4.7205Y-1.9193
X4.7205Y-3.1988
X4.7205Y-3.7776
X4.7224Y-3.1437
X4.7283Y-3.4075
X4.7343Y-3.8937
X4.7382Y-3.3287
X4.7421Y-3.0492
X4.7441Y-2.6673
X4.7458Y-2.5065
X4.7461Y-2.9331
X4.748Y-1.8996
X4.748Y-1.935
X4.7559Y-1.7756
X4.7559Y-2.7992
X4.7618Y-3.0984
X4.7652Y-3.5931
X4.7677Y-2.5551
X4.7736Y-3.0157
X4.7756Y-1.8031
X4.7756Y-3.8839
X4.7776Y-2.9705
X4.7776Y-3.6673
X4.7835Y-3.3248
X4.7874Y-3.3898
X4.7894Y-2.3524
X4.7894Y-2.4606
X4.7894Y-3.9134
X4.7913Y-1.7756
X4.7957Y-3.7745
X4.8012Y-3.0472
X4.8012Y-3.25
X4.8027Y-2.8278
X4.8031Y-3.6909
X4.8051Y-3.1752
X4.811Y-1.8031
X4.815Y-2.1299
X4.8169Y-3.2067
X4.8189Y-2.6988
X4.8209Y-2.5728
X4.8221Y-3.2912
X4.8224Y-2.6649
X4.8228Y-2.3031
X4.8268Y-1.7756
X4.8287Y-2.8051
X4.8287Y-3.3937
X4.8292Y-3.8613
X4.8307Y-3.1319
X4.8327Y-3.937
X4.8332Y-3.5931
X4.8352Y-2.9454
X4.8425Y-3.0098
X4.8455Y-3.6427
X4.8465Y-1.8031
X4.8504Y-1.9213
X4.8504Y-1.9567
X4.8563Y-3.7441
X4.8583Y-3.3287
X4.8602Y-3.5295
X4.8622Y-1.7756
X4.8661Y-3.0925
X4.8661Y-3.1949
X4.8701Y-2.3091
X4.872Y-2.5217
X4.874Y-3.0256
X4.878Y-1.9016
X4.878Y-1.937
X4.8819Y-1.8031
X4.8887Y-3.7491
X4.8917Y-2.9901
X4.8976Y-1.9705
X4.8976Y-3.5276
X4.9016Y-3.3937
X4.9035Y-3.187
X4.9045Y-2.4665
X4.9075Y-3.6909
X4.9114Y-3.2461
X4.9151Y-3.8762
X4.9154Y-3.2894
X4.9173Y-3.1201
X4.9182Y-3.0236
X4.9213Y-3.8386
X4.9232Y-2.9469
X4.9246Y-3.3667
X4.9331Y-1.9783
X4.9331Y-3.3356
X4.939Y-3.5295
X4.9409Y-3.4449
X4.9449Y-3.4783
X4.9449Y-3.5866
X4.9463Y-3.7761
X4.9464Y-2.785
X4.9528Y-3.9232
X4.9665Y-1.9744
X4.9715Y-2.8258
X4.9764Y-2.2461
X4.9764Y-2.9134
X4.9823Y-2.7323
X4.9823Y-3.4528
X4.9823Y-3.5276
X4.9843Y-2.0984
X4.9862Y-3.9213
X4.9871Y-2.4331
X4.9917Y-3.8091
X4.9941Y-3.7293
X4.998Y-1.9783
X5.0Y-2.0709
X5.0Y-2.1752
X5.0Y-3.7776
X5.0098Y-2.4961
X5.0138Y-3.4606
X5.0197Y-2.0984
X5.0197Y-2.2028
X5.0197Y-2.4567
X5.0197Y-3.7067
X5.0255Y-3.2964
X5.0255Y-2.9251
X5.0256Y-2.7362
X5.0295Y-2.5984
X5.0315Y-2.5492
X5.0335Y-2.3031
X5.034Y-3.032
X5.0354Y-2.0709
X5.0354Y-2.1752
X5.0354Y-2.4114
X5.0354Y-3.9547
X5.0439Y-2.9986
X5.0463Y-2.9656
X5.0502Y-3.3514
X5.0531Y-2.2756
X5.0551Y-2.2028
X5.0571Y-3.8366
X5.0591Y-2.9252
X5.063Y-2.813
X5.0709Y-2.8465
X5.0709Y-3.5276
X5.0728Y-2.7323
X5.0768Y-2.9872
X5.0827Y-3.1949
X5.0827Y-3.5945
X5.0827Y-3.6299
X5.0886Y-3.9606
X5.0984Y-2.7972
X5.1083Y-1.7598
X5.1083Y-1.7953
X5.1083Y-1.8307
X5.1122Y-2.8465
X5.1137Y-3.4567
X5.1142Y-3.6358
X5.1299Y-3.2539
X5.1299Y-3.315
X5.1299Y-3.5276
X5.1319Y-3.1949
X5.1319Y-3.5906
X5.1358Y-1.7402
X5.1358Y-1.7756
X5.1358Y-1.811
X5.1398Y-3.0571
X5.1437Y-2.5551
X5.1496Y-2.9125
X5.1535Y-3.0
X5.1535Y-3.8386
X5.1575Y-2.7441
X5.1605Y-3.4035
X5.1614Y-2.6673
X5.1634Y-3.1949
X5.1634Y-3.4567
X5.1752Y-3.5276
X5.1766Y-1.9817
X5.1811Y-2.4016
X5.185Y-3.8386
X5.1949Y-3.1949
X5.2028Y-3.6201
X5.2037Y-2.2864
X5.2039Y-3.4035
X5.2067Y-2.3406
X5.2067Y-3.1535
X5.2087Y-2.0866
X5.2126Y-2.0098
X5.2126Y-3.685
X5.2146Y-3.1102
X5.2165Y-3.8386
X5.2185Y-2.0531
X5.2185Y-3.4786
X5.2185Y-3.5137
X5.2195Y-3.4459
X5.2244Y-3.0079
X5.2264Y-3.1949
X5.2323Y-3.3465
X5.2402Y-2.124
X5.2421Y-2.0768
X5.2421Y-2.7815
X5.2455Y-3.3164
X5.2461Y-3.3917
X5.248Y-3.8386
X5.25Y-1.9606
X5.2638Y-3.5315
X5.2736Y-3.2382
X5.2736Y-3.5886
X5.2776Y-2.0827
X5.2776Y-2.5906
X5.2815Y-2.9587
X5.2854Y-2.6693
X5.2874Y-2.0492
X5.2874Y-3.0276
X5.2874Y-3.6594
X5.29Y-3.5506
X5.2913Y-2.4862
X5.2933Y-2.3681
X5.2953Y-2.7421
X5.2953Y-3.4488
X5.2972Y-2.8878
X5.3012Y-3.8622
X5.3031Y-3.3937
X5.3051Y-3.2067
X5.3071Y-3.3143
X5.3091Y-3.0522
X5.311Y-2.0728
X5.311Y-2.7736
X5.313Y-2.2913
X5.3145Y-3.124
X5.315Y-1.9665
X5.3228Y-1.8465
X5.3258Y-3.2569
X5.3327Y-1.8878
X5.3327Y-2.2087
X5.3327Y-2.3189
X5.3346Y-1.9252
X5.3346Y-3.2874
X5.3386Y-3.3209
X5.3425Y-2.1752
X5.3484Y-2.2913
X5.3484Y-3.7913
X5.3583Y-3.628
X5.3587Y-3.5276
X5.3602Y-3.4193
X5.3602Y-3.5807
X5.3661Y-2.1988
X5.3681Y-2.3189
X5.372Y-3.9232
X5.3898Y-3.3937
X5.3957Y-3.4961
X5.3996Y-3.9035
X5.4Y-3.1368
X5.4016Y-2.2894
X5.4016Y-3.6398
X5.4035Y-2.6575
X5.4035Y-2.7697
X5.4035Y-3.5315
X5.4055Y-3.3346
X5.4075Y-3.2638
X5.4075Y-3.6909
X5.4128Y-2.8096
X5.4213Y-2.878
X5.4213Y-3.5866
X5.4252Y-3.3937
X5.4311Y-3.0413
X5.4311Y-3.4606
X5.4331Y-1.8957
X5.439Y-3.1142
X5.4409Y-2.061
X5.4429Y-2.5846
X5.4488Y-1.8543
X5.4488Y-1.9252
X5.4528Y-3.0846
X5.4606Y-2.9311
X5.4606Y-3.5315
X5.4626Y-2.8839
X5.4646Y-3.4961
X5.4685Y-1.8819
X5.4724Y-2.6772
X5.4724Y-2.7126
X5.4744Y-3.0592
X5.4783Y-3.1713
X5.4823Y-3.2283
X5.4921Y-2.815
X5.4955Y-3.3558
X5.4961Y-1.7618
X5.4985Y-3.1146
X5.5Y-2.6929
X5.5Y-2.7283
X5.503Y-3.1467
X5.5157Y-2.1378
X5.5157Y-2.8543
X5.5177Y-2.063
X5.5177Y-3.0472
X5.5197Y-1.9331
X5.5197Y-1.9685
X5.5295Y-1.7677
X5.5295Y-3.2283
X5.5335Y-2.4409
X5.5335Y-2.4764
X5.5335Y-2.5118
X5.5335Y-3.3484
X5.5335Y-3.4941
X5.5354Y-1.8051
X5.5374Y-2.9154
X5.5394Y-1.8563
X5.5394Y-3.7126
X5.5403Y-2.2235
X5.5453Y-3.7795
X5.5512Y-3.5945
X5.5531Y-2.9665
X5.5551Y-3.4035
X5.5591Y-2.7835
X5.561Y-2.4213
X5.561Y-2.4567
X5.561Y-2.4921
X5.563Y-3.6594
X5.5689Y-3.435
X5.5728Y-2.0492
X5.5728Y-3.3775
X5.5728Y-3.7953
X5.5748Y-2.6457
X5.5748Y-3.0059
X5.5807Y-3.502
X5.5866Y-2.7461
X5.5886Y-3.0354
X5.5906Y-3.4035
X5.5965Y-3.626
X5.6024Y-2.7776
X5.6024Y-3.065
X5.6083Y-2.1496
X5.6102Y-1.9887
X5.6102Y-2.1969
X5.6161Y-1.9272
X5.6161Y-3.1909
X5.6181Y-3.4508
X5.624Y-2.8071
X5.624Y-3.7461
X5.624Y-3.7815
X5.626Y-2.065
X5.6319Y-1.9626
X5.6319Y-2.122
X5.6417Y-2.311
X5.6417Y-2.3465
X5.6516Y-2.8366
X5.6516Y-3.7618
X5.6516Y-3.7972
X5.6614Y-2.7972
X5.6634Y-3.6752
X5.6634Y-3.7106
X5.6693Y-2.3268
X5.6693Y-2.3622
X5.685Y-2.9469
X5.685Y-2.9823
X5.685Y-3.0177
X5.685Y-3.0492
X5.6909Y-3.6909
X5.6909Y-3.7264
X5.6929Y-2.9094
X5.6929Y-3.0984
X5.7047Y-2.6024
X5.7047Y-3.1417
X5.7087Y-3.1811
X5.7126Y-2.8819
X5.7126Y-3.2913
X5.7126Y-3.3268
X5.7126Y-3.3622
X5.7126Y-3.3976
X5.7146Y-2.565
X5.7165Y-3.0512
X5.7205Y-2.9291
X5.7205Y-2.9843
X5.7283Y-3.0197
X5.7323Y-3.2047
X5.7323Y-3.2362
X5.7343Y-3.5217
X5.7343Y-3.5571
X5.7382Y-2.122
X5.7402Y-2.5984
X5.7402Y-2.8661
X5.7402Y-3.2717
X5.7402Y-3.3071
X5.7402Y-3.3425
X5.7402Y-3.378
X5.7402Y-3.4134
X5.7402Y-3.4488
X5.7411Y-2.8307
X5.7441Y-2.9055
X5.7441Y-2.9528
X5.748Y-3.1772
X5.752Y-2.5669
X5.752Y-2.9961
X5.7559Y-3.0472
X5.7598Y-2.5354
X5.7598Y-3.7126
X5.7618Y-3.5374
X5.7618Y-3.5728
X5.7638Y-3.2047
X5.7677Y-2.9291
X5.7677Y-3.2441
X5.7717Y-2.5039
X5.7717Y-2.6339
X5.7717Y-2.9685
X5.7756Y-2.4685
X5.7756Y-2.8976
X5.7795Y-3.0197
X5.7835Y-2.437
X5.7874Y-2.8307
X5.7913Y-2.3327
X5.7913Y-2.3681
X5.7913Y-3.189
X5.7913Y-3.2205
X5.7982Y-3.2638
X5.7992Y-2.9252
X5.7992Y-2.9921
X5.7992Y-3.0591
X5.7992Y-3.315
X5.7992Y-3.4685
X5.8031Y-2.9567
X5.8071Y-2.4134
X5.8071Y-3.0984
X5.8091Y-2.063
X5.811Y-3.0236
X5.813Y-1.9902
X5.815Y-2.8622
X5.8189Y-2.313
X5.8189Y-2.3484
X5.8189Y-3.1732
X5.8189Y-3.2047
X5.8228Y-1.9567
X5.8228Y-2.6772
X5.8228Y-2.7087
X5.8228Y-2.7402
X5.8228Y-2.8268
X5.8228Y-3.2402
X5.8268Y-2.4528
X5.8268Y-2.4843
X5.8268Y-2.5197
X5.8287Y-2.2087
X5.8307Y-3.2756
X5.8346Y-3.5984
X5.8346Y-3.6339
X5.8346Y-3.6693
X5.8386Y-2.1752
X5.8425Y-2.0354
X5.8425Y-2.4055
X5.8465Y-1.9803
X5.8583Y-2.6772
X5.8583Y-2.7087
X5.8583Y-2.7402
X5.8622Y-2.1988
X5.8622Y-3.061
X5.8622Y-3.0925
X5.8622Y-3.5787
X5.8622Y-3.6142
X5.8622Y-3.6496
X5.8701Y-2.4213
X5.8819Y-2.4567
X5.8937Y-2.6772
X5.8937Y-2.7087
X5.8937Y-2.7402
X5.8976Y-3.1811
X5.8976Y-3.2795
X5.9016Y-2.4055
X5.9016Y-3.2165
X5.9016Y-3.248
X5.9094Y-2.4409
X5.9094Y-2.5551
X5.9134Y-3.0354
X5.9134Y-3.311
X5.9291Y-2.9685
X5.9291Y-3.063
X5.9291Y-3.1811
X5.9291Y-3.2835
X5.9291Y-3.4724
X5.9331Y-2.9055
X5.9331Y-3.2165
X5.9331Y-3.252
X5.935Y-2.1969
X5.935Y-2.2323
X5.935Y-2.2677
X5.937Y-2.4134
X5.937Y-2.4567
X5.9528Y-2.9331
X5.9606Y-3.1811
X5.9626Y-2.1772
X5.9626Y-2.2126
X5.9626Y-2.248
X5.9646Y-2.7913
X5.9646Y-3.2244
X5.9685Y-2.437
X5.9685Y-2.689
X5.9724Y-2.7221
X5.9724Y-3.0197
X5.9764Y-2.9764
X5.9803Y-2.6299
X5.9843Y-3.2559
X5.9843Y-3.2913
X5.9843Y-3.3268
X5.9843Y-3.3622
X5.9843Y-3.3976
X5.9843Y-3.4331
X5.9882Y-3.2008
X5.9961Y-2.5591
X6.0Y-2.4449
X6.0Y-3.1654
X6.0039Y-2.6063
X6.0079Y-2.4764
X6.0079Y-2.5197
X6.0079Y-3.0315
X6.0118Y-3.2362
X6.0118Y-3.2717
X6.0118Y-3.3071
X6.0118Y-3.3425
X6.0157Y-2.9921
X6.0157Y-3.1024
X6.0157Y-3.3819
X6.0157Y-3.4173
X6.0236Y-3.189
X6.0315Y-2.5787
X6.0315Y-2.8465
X6.0354Y-2.4528
X6.0354Y-2.6811
X6.0354Y-2.811
X6.0354Y-3.063
X6.0394Y-2.315
X6.0394Y-2.3504
X6.0394Y-2.5315
X6.0394Y-3.1575
X6.0433Y-2.4961
X6.0433Y-3.0157
X6.0433Y-3.2165
X6.0433Y-3.252
X6.0433Y-3.2874
X6.0433Y-3.3228
X6.0512Y-2.9843
X6.0551Y-3.122
X6.0591Y-2.8701
X6.0591Y-3.0866
X6.0669Y-2.3307
X6.0669Y-2.3661
X6.0669Y-2.9331
X6.0709Y-2.4606
X6.0709Y-3.0433
X6.0748Y-2.5276
X6.0787Y-2.8976
X6.0827Y-2.4961
X6.0827Y-2.9685
X6.0827Y-3.0039
X6.1024Y-2.8701
X6.1024Y-2.9331
X6.1063Y-2.5354
X6.1063Y-2.5709
X6.1102Y-2.6102
X6.1102Y-2.8031
X6.1181Y-2.8386
X6.122Y-2.5039
X6.122Y-2.8976
X6.1339Y-2.7362
X6.1378Y-2.5945
X6.1378Y-2.6339
X6.1378Y-2.7795
X6.1417Y-2.5551
X6.1417Y-2.8661
X6.1496Y-2.685
X6.1496Y-2.815
X6.1535Y-2.5236
X6.1654Y-2.6496
X6.1654Y-3.0925
X6.1654Y-3.128
X6.1693Y-2.6102
X6.1732Y-2.7756
X6.1772Y-2.7441
X6.185Y-2.7047
X6.1929Y-3.1083
X6.1929Y-3.1437
X6.1969Y-2.3209
X6.1969Y-2.3563
X6.1969Y-2.6693
X6.2047Y-3.2815
X6.2047Y-3.3169
X6.2067Y-2.9094
X6.2067Y-2.9449
X6.2244Y-2.3366
X6.2244Y-2.372
X6.2323Y-3.2972
X6.2323Y-3.3327
X6.2343Y-2.9252
X6.2343Y-2.9606
T3
X5.6213Y-1.8142
X5.6516Y-1.8504
T2
G00X5.5736Y-3.8575
M15
G01X5.5872Y-3.8497
M16
G05
G00X5.7267Y-3.7691
M15
G01X5.7403Y-3.7613
M16
G05
T4
G00X5.4757Y-3.7872
M15
G01X5.4875Y-3.8077
M16
G05
G00X5.7283Y-3.6413
M15
G01X5.7402Y-3.6618
M16
G05
T5
G00X4.949Y-1.7594
M15
G01X4.949Y-1.728
M16
G05
G00X4.949Y-1.9307
M15
G01X4.949Y-1.8874
M16
G05
G00X5.2892Y-1.7594
M15
G01X5.2892Y-1.728
M16
G05
G00X5.2892Y-1.9307
M15
G01X5.2892Y-1.8874
M16
G05
M30
