M48
; DRILL file {KiCad 8.0.1} date 2024-09-23T16:13:31-0400
; FORMAT={-:-/ absolute / inch / decimal}
; #@! TF.CreationDate,2024-09-23T16:13:31-04:00
; #@! TF.GenerationSoftware,Kicad,Pcbnew,8.0.1
; #@! TF.FileFunction,Plated,1,6,PTH
FMAT,2
INCH
; #@! TA.AperFunction,Plated,PTH,ViaDrill
T1C0.0118
; #@! TA.AperFunction,Plated,PTH,ViaDrill
T2C0.0157
; #@! TA.AperFunction,Plated,PTH,ComponentDrill
T3C0.0157
; #@! TA.AperFunction,Plated,PTH,ViaDrill
T4C0.0197
; #@! TA.AperFunction,Plated,PTH,ComponentDrill
T5C0.0197
; #@! TA.AperFunction,Plated,PTH,ComponentDrill
T6C0.0236
%
G90
G05
T1
X3.9933Y-2.8311
X3.9933Y-2.8811
X3.9933Y-2.9311
X3.9933Y-2.9811
X3.9933Y-3.0311
X4.0177Y-2.748
X4.0236Y-2.6535
X4.0433Y-2.6811
X4.0512Y-2.8346
X4.0571Y-3.1673
X4.0571Y-3.2028
X4.0571Y-3.2382
X4.0591Y-2.6535
X4.0785Y-3.0394
X4.0787Y-2.6811
X4.0827Y-2.874
X4.0827Y-2.9094
X4.0827Y-2.9449
X4.0827Y-3.2854
X4.0837Y-2.9764
X4.0846Y-3.1476
X4.0846Y-3.1831
X4.0846Y-3.2185
X4.0933Y-2.3311
X4.0933Y-2.3811
X4.0945Y-2.6535
X4.1063Y-2.815
X4.1102Y-2.8543
X4.1102Y-2.8898
X4.1102Y-2.9252
X4.1122Y-3.1063
X4.1142Y-2.6811
X4.1339Y-2.9724
X4.1378Y-2.8701
X4.1378Y-2.9055
X4.1433Y-2.7311
X4.1433Y-3.4311
X4.1811Y-2.3661
X4.1831Y-2.6752
X4.185Y-2.813
X4.1933Y-2.1811
X4.1965Y-3.4075
X4.2008Y-2.3937
X4.2028Y-2.7028
X4.2146Y-2.8484
X4.2165Y-2.3661
X4.2185Y-2.6752
X4.2323Y-3.1043
X4.2362Y-2.3937
X4.2382Y-2.7028
X4.2433Y-2.1311
X4.2433Y-2.5811
X4.252Y-2.3661
X4.2697Y-3.4724
X4.2717Y-2.3937
X4.2756Y-2.5157
X4.2933Y-2.8311
X4.2933Y-2.8811
X4.3071Y-3.4124
X4.311Y-2.5157
X4.3174Y-3.3716
X4.3199Y-3.2224
X4.3228Y-3.5768
X4.3228Y-3.6122
X4.3346Y-2.0354
X4.3346Y-2.0709
X4.3433Y-2.8311
X4.3433Y-2.8811
X4.3465Y-2.5157
X4.3504Y-3.5571
X4.3504Y-3.5925
X4.3504Y-3.628
X4.3622Y-2.0157
X4.3622Y-2.0512
X4.3819Y-2.5157
X4.3858Y-3.7047
X4.3933Y-2.8811
X4.4016Y-3.4931
X4.4094Y-2.6673
X4.4094Y-2.7244
X4.4114Y-2.8248
X4.4154Y-3.6476
X4.4154Y-3.6831
X4.4193Y-2.5748
X4.4203Y-3.19
X4.435Y-3.5394
X4.439Y-2.3386
X4.439Y-3.4183
X4.4409Y-3.748
X4.4429Y-2.1614
X4.4429Y-2.1969
X4.4429Y-3.6634
X4.4429Y-3.6988
X4.4433Y-2.2811
X4.4433Y-2.9811
X4.4433Y-3.0311
X4.4449Y-2.6673
X4.4488Y-2.7244
X4.4522Y-3.284
X4.4705Y-2.1417
X4.4705Y-2.1772
X4.4744Y-3.6575
X4.4803Y-2.6594
X4.4882Y-1.9331
X4.4882Y-1.9685
X4.4933Y-2.9811
X4.4938Y-2.7478
X4.4941Y-3.7874
X4.4961Y-2.0591
X4.4961Y-2.8248
X4.4961Y-3.5472
X4.501Y-3.4193
X4.5157Y-1.9134
X4.5157Y-1.9488
X4.5157Y-2.6594
X4.5197Y-2.2598
X4.5197Y-2.2953
X4.5197Y-2.3307
X4.5197Y-2.3661
X4.5354Y-2.7677
X4.5354Y-3.5354
X4.5433Y-2.1811
X4.5433Y-3.1311
X4.5433Y-3.1811
X4.5433Y-3.2311
X4.5472Y-2.2402
X4.5472Y-2.2756
X4.5472Y-2.311
X4.5472Y-2.3465
X4.5492Y-3.8209
X4.5645Y-2.783
X4.5669Y-3.2933
X4.5748Y-3.3327
X4.5787Y-2.812
X4.5787Y-2.9508
X4.5866Y-2.4685
X4.5925Y-2.0669
X4.5925Y-2.1024
X4.5933Y-1.8311
X4.5933Y-2.1811
X4.5933Y-3.1311
X4.5933Y-3.1811
X4.5984Y-2.5217
X4.5984Y-2.5571
X4.5984Y-2.6024
X4.6043Y-2.313
X4.6083Y-3.001
X4.6102Y-3.8465
X4.6152Y-3.6959
X4.6201Y-2.0472
X4.6201Y-2.0827
X4.624Y-2.3406
X4.6309Y-2.4242
X4.6358Y-3.437
X4.6398Y-2.313
X4.6433Y-1.8311
X4.6467Y-2.4528
X4.6496Y-3.4075
X4.6555Y-2.9291
X4.6566Y-3.5373
X4.6594Y-2.3406
X4.6604Y-2.8253
X4.6713Y-3.8701
X4.6772Y-3.3228
X4.6811Y-2.4615
X4.6831Y-3.2677
X4.687Y-3.5984
X4.687Y-3.7244
X4.69Y-3.5413
X4.6933Y-1.7811
X4.6933Y-1.8311
X4.6933Y-1.9811
X4.7028Y-2.9941
X4.7028Y-3.6417
X4.7028Y-3.8484
X4.7087Y-2.9311
X4.7106Y-3.811
X4.7126Y-3.7461
X4.7205Y-1.8839
X4.7205Y-1.9193
X4.7205Y-3.7776
X4.7266Y-3.2348
X4.7343Y-3.8937
X4.7433Y-3.0811
X4.7433Y-3.1311
X4.7433Y-3.6811
X4.7458Y-2.5065
X4.748Y-1.8996
X4.748Y-1.935
X4.7559Y-1.7756
X4.7598Y-2.9311
X4.7717Y-3.5236
X4.7756Y-1.8031
X4.7894Y-2.3524
X4.7894Y-2.4606
X4.7894Y-3.9134
X4.7913Y-1.7756
X4.7933Y-3.0311
X4.7933Y-3.0811
X4.7933Y-3.1311
X4.7933Y-3.7311
X4.7992Y-3.3169
X4.811Y-1.8031
X4.815Y-2.1299
X4.8169Y-2.9311
X4.8228Y-2.3031
X4.8268Y-1.7756
X4.8287Y-3.2224
X4.8287Y-3.5453
X4.8327Y-3.435
X4.8327Y-3.937
X4.8433Y-2.1811
X4.8465Y-1.8031
X4.8504Y-1.9213
X4.8504Y-1.9567
X4.8504Y-3.3425
X4.8622Y-1.7756
X4.8701Y-2.3091
X4.872Y-2.9252
X4.874Y-3.435
X4.878Y-1.9016
X4.878Y-1.937
X4.8819Y-1.8031
X4.8858Y-2.503
X4.8933Y-2.1811
X4.8937Y-3.2549
X4.8976Y-1.9705
X4.9045Y-3.4232
X4.9075Y-3.378
X4.9104Y-3.0709
X4.913Y-3.228
X4.9134Y-3.1358
X4.9193Y-3.8465
X4.9291Y-2.8327
X4.9291Y-3.5594
X4.9331Y-1.9783
X4.9331Y-3.2008
X4.9333Y-2.9252
X4.9367Y-2.9813
X4.9433Y-1.8311
X4.9433Y-3.7311
X4.9528Y-3.9232
X4.9665Y-1.9744
X4.9675Y-2.2726
X4.9705Y-3.6417
X4.9715Y-2.8258
X4.9783Y-3.5197
X4.9823Y-2.7323
X4.9843Y-2.0984
X4.9862Y-3.9213
X4.9872Y-2.6542
X4.9902Y-3.815
X4.9933Y-1.8311
X4.998Y-1.9783
X5.0Y-2.0709
X5.0Y-2.1752
X5.0Y-3.7776
X5.0197Y-2.0984
X5.0197Y-2.2028
X5.0236Y-2.4154
X5.0315Y-2.5492
X5.0319Y-2.6993
X5.0335Y-2.3031
X5.0354Y-2.0709
X5.0354Y-2.1752
X5.0354Y-3.9547
X5.0433Y-1.7311
X5.0433Y-1.7811
X5.0433Y-1.8311
X5.0551Y-2.2028
X5.0571Y-3.8366
X5.063Y-2.813
X5.0728Y-2.7323
X5.0827Y-3.5945
X5.0827Y-3.6299
X5.0886Y-3.9606
X5.0933Y-2.3311
X5.0933Y-3.5311
X5.1083Y-1.7598
X5.1083Y-1.7953
X5.1083Y-1.8307
X5.1111Y-3.0388
X5.122Y-3.2165
X5.124Y-2.9508
X5.1319Y-3.5906
X5.1358Y-1.7402
X5.1358Y-1.7756
X5.1358Y-1.811
X5.1422Y-3.189
X5.1437Y-2.5551
X5.151Y-2.9252
X5.1535Y-3.8386
X5.1766Y-1.9817
X5.1772Y-2.8819
X5.1844Y-3.4994
X5.185Y-3.8386
X5.1909Y-2.0364
X5.1933Y-1.7311
X5.1933Y-1.7811
X5.1933Y-1.8311
X5.1933Y-2.1811
X5.1998Y-3.4272
X5.2012Y-3.3785
X5.2087Y-2.0866
X5.2087Y-2.9646
X5.2126Y-2.0098
X5.2165Y-2.6152
X5.2165Y-3.8386
X5.2185Y-2.0531
X5.2239Y-3.4055
X5.2244Y-2.7303
X5.2303Y-2.9941
X5.2362Y-3.3031
X5.2367Y-2.8381
X5.2421Y-2.0768
X5.2433Y-1.7311
X5.2433Y-1.7811
X5.2433Y-1.8311
X5.2433Y-2.3311
X5.2433Y-2.3811
X5.2433Y-3.6811
X5.248Y-3.8386
X5.25Y-1.9606
X5.2674Y-2.6893
X5.2776Y-2.0827
X5.2815Y-3.8701
X5.283Y-3.0074
X5.2874Y-2.0492
X5.2894Y-2.8465
X5.2897Y-3.1481
X5.29Y-3.5506
X5.2933Y-2.937
X5.2933Y-3.9311
X5.31Y-2.6663
X5.311Y-2.0728
X5.312Y-3.3317
X5.313Y-2.2913
X5.313Y-2.5492
X5.315Y-1.9665
X5.3228Y-1.8465
X5.3327Y-1.8878
X5.3327Y-2.2087
X5.3327Y-2.3189
X5.3346Y-1.9252
X5.3425Y-2.1752
X5.3433Y-1.7311
X5.3484Y-2.2913
X5.3535Y-3.2535
X5.3583Y-3.628
X5.3661Y-2.1988
X5.3681Y-2.3189
X5.372Y-3.9232
X5.3933Y-1.7311
X5.3933Y-3.7811
X5.3933Y-3.8311
X5.3996Y-3.9035
X5.4026Y-3.561
X5.4042Y-3.4692
X5.4055Y-2.7362
X5.4069Y-3.277
X5.4114Y-2.5354
X5.4154Y-2.3012
X5.4193Y-2.125
X5.4213Y-3.5866
X5.4311Y-3.6378
X5.4331Y-1.8957
X5.4331Y-2.9764
X5.435Y-3.1634
X5.437Y-2.9409
X5.4385Y-3.0752
X5.4405Y-2.8882
X5.4409Y-2.061
X5.4439Y-3.4675
X5.4488Y-1.8543
X5.4488Y-1.9252
X5.4537Y-3.19
X5.4626Y-2.9173
X5.4685Y-1.8819
X5.4709Y-3.0881
X5.4823Y-2.8346
X5.4961Y-1.7618
X5.502Y-3.1556
X5.5089Y-2.7215
X5.5148Y-3.4272
X5.5157Y-2.1378
X5.5177Y-2.063
X5.5197Y-1.9331
X5.5197Y-1.9685
X5.5295Y-1.7677
X5.5354Y-1.8051
X5.5413Y-1.861
X5.5433Y-2.4811
X5.5512Y-3.5945
X5.561Y-3.7244
X5.563Y-3.7598
X5.5728Y-2.0492
X5.5933Y-3.3811
X5.5933Y-3.4311
X5.5933Y-3.4811
X5.5933Y-3.6811
X5.5945Y-3.7559
X5.5965Y-3.626
X5.6083Y-2.1496
X5.6083Y-3.7205
X5.6102Y-2.1969
X5.6161Y-1.9272
X5.623Y-2.5768
X5.626Y-2.065
X5.626Y-2.626
X5.6319Y-2.122
X5.6319Y-3.7736
X5.6417Y-2.311
X5.6417Y-2.3465
X5.6417Y-3.7362
X5.6433Y-2.4311
X5.6433Y-2.4811
X5.6433Y-3.3311
X5.6433Y-3.3811
X5.6433Y-3.4311
X5.6433Y-3.4811
X5.6437Y-1.9587
X5.6594Y-2.6299
X5.6634Y-3.6752
X5.6634Y-3.7106
X5.6693Y-2.3268
X5.6693Y-2.3622
X5.6801Y-2.6812
X5.685Y-2.9469
X5.685Y-2.9823
X5.685Y-3.0177
X5.685Y-3.0492
X5.686Y-2.7175
X5.69Y-2.1014
X5.6909Y-3.6909
X5.6909Y-3.7264
X5.6929Y-2.9094
X5.6929Y-3.0984
X5.7047Y-3.1417
X5.7087Y-3.1811
X5.7126Y-2.5295
X5.7126Y-2.8819
X5.7126Y-3.2913
X5.7126Y-3.3268
X5.7126Y-3.3622
X5.7126Y-3.3976
X5.7165Y-3.0512
X5.7185Y-2.3031
X5.7185Y-2.3374
X5.7201Y-2.2547
X5.7205Y-2.9291
X5.7205Y-2.9843
X5.7283Y-3.0197
X5.7323Y-3.2047
X5.7323Y-3.2362
X5.7343Y-3.5217
X5.7343Y-3.5571
X5.7402Y-2.5984
X5.7402Y-2.8661
X5.7402Y-3.2717
X5.7402Y-3.3071
X5.7402Y-3.3425
X5.7402Y-3.378
X5.7402Y-3.4134
X5.7402Y-3.4488
X5.7411Y-2.6585
X5.7433Y-1.8811
X5.7441Y-2.2776
X5.7441Y-2.9055
X5.7441Y-2.9528
X5.748Y-3.1772
X5.752Y-2.5669
X5.752Y-2.9961
X5.7559Y-3.0472
X5.7598Y-2.5354
X5.7618Y-3.5374
X5.7618Y-3.5728
X5.7638Y-3.2047
X5.7677Y-2.9291
X5.7677Y-3.2441
X5.7717Y-2.5039
X5.7717Y-2.6339
X5.7717Y-2.9685
X5.7756Y-2.4685
X5.7756Y-2.8976
X5.7795Y-3.0197
X5.7835Y-2.437
X5.7874Y-2.8307
X5.7913Y-2.3327
X5.7913Y-2.3681
X5.7913Y-3.189
X5.7913Y-3.2205
X5.7933Y-3.7311
X5.7982Y-3.2638
X5.7992Y-2.9252
X5.7992Y-2.9921
X5.7992Y-3.0591
X5.7992Y-3.315
X5.7992Y-3.4685
X5.8031Y-2.9567
X5.8071Y-2.0276
X5.8071Y-2.4134
X5.8071Y-3.0984
X5.811Y-3.0236
X5.813Y-1.9902
X5.815Y-2.8622
X5.8189Y-2.313
X5.8189Y-2.3484
X5.8189Y-3.1732
X5.8189Y-3.2047
X5.8228Y-1.9567
X5.8228Y-2.6772
X5.8228Y-2.7087
X5.8228Y-2.7402
X5.8228Y-2.8268
X5.8228Y-3.2402
X5.8268Y-2.4528
X5.8268Y-2.4843
X5.8268Y-2.5197
X5.8287Y-2.2087
X5.8307Y-3.2756
X5.8346Y-3.5984
X5.8346Y-3.6339
X5.8346Y-3.6693
X5.8386Y-2.1752
X5.8425Y-2.4055
X5.8465Y-1.9803
X5.8583Y-2.6772
X5.8583Y-2.7087
X5.8583Y-2.7402
X5.8622Y-2.1988
X5.8622Y-3.061
X5.8622Y-3.0925
X5.8622Y-3.5787
X5.8622Y-3.6142
X5.8622Y-3.6496
X5.8701Y-2.4213
X5.8819Y-2.4567
X5.8933Y-2.3311
X5.8937Y-2.6772
X5.8937Y-2.7087
X5.8937Y-2.7402
X5.8976Y-3.1811
X5.8976Y-3.2795
X5.9016Y-2.4055
X5.9016Y-3.2165
X5.9016Y-3.248
X5.9094Y-2.4409
X5.9094Y-2.5551
X5.9134Y-3.0354
X5.9134Y-3.311
X5.9291Y-2.9685
X5.9291Y-3.063
X5.9291Y-3.1811
X5.9291Y-3.2835
X5.9291Y-3.4724
X5.9331Y-2.9055
X5.9331Y-3.2165
X5.9331Y-3.252
X5.935Y-2.1969
X5.935Y-2.2323
X5.935Y-2.2677
X5.937Y-2.4134
X5.937Y-2.4567
X5.9433Y-2.0811
X5.9433Y-2.3311
X5.9433Y-3.5311
X5.9433Y-3.5811
X5.9528Y-2.9331
X5.9606Y-3.1811
X5.9626Y-2.1772
X5.9626Y-2.2126
X5.9626Y-2.248
X5.9646Y-2.7913
X5.9646Y-3.2244
X5.9685Y-2.437
X5.9685Y-2.689
X5.9724Y-2.7221
X5.9724Y-3.0197
X5.9764Y-2.9764
X5.9803Y-2.6299
X5.9843Y-3.2559
X5.9843Y-3.2913
X5.9843Y-3.3268
X5.9843Y-3.3622
X5.9843Y-3.3976
X5.9843Y-3.4331
X5.9882Y-3.2008
X5.9933Y-3.5311
X5.9961Y-2.5591
X6.0Y-2.4449
X6.0Y-3.1654
X6.0039Y-2.6063
X6.0079Y-2.4764
X6.0079Y-2.5197
X6.0079Y-3.0315
X6.0118Y-3.2362
X6.0118Y-3.2717
X6.0118Y-3.3071
X6.0118Y-3.3425
X6.0157Y-2.9921
X6.0157Y-3.1024
X6.0157Y-3.3819
X6.0157Y-3.4173
X6.0236Y-3.189
X6.0315Y-2.5787
X6.0315Y-2.8465
X6.0354Y-2.4528
X6.0354Y-2.6811
X6.0354Y-2.811
X6.0354Y-3.063
X6.0394Y-2.315
X6.0394Y-2.3504
X6.0394Y-2.5315
X6.0394Y-3.1575
X6.0433Y-2.1811
X6.0433Y-2.2311
X6.0433Y-2.4961
X6.0433Y-3.0157
X6.0433Y-3.2165
X6.0433Y-3.252
X6.0433Y-3.2874
X6.0433Y-3.3228
X6.0433Y-3.4811
X6.0512Y-2.9843
X6.0551Y-3.122
X6.0591Y-2.8701
X6.0591Y-3.0866
X6.0669Y-2.3307
X6.0669Y-2.3661
X6.0669Y-2.9331
X6.0709Y-2.4606
X6.0709Y-3.0433
X6.0748Y-2.5276
X6.0787Y-2.8976
X6.0827Y-2.4961
X6.0827Y-2.9685
X6.0827Y-3.0039
X6.0933Y-2.2811
X6.0933Y-3.1811
X6.0933Y-3.2311
X6.0933Y-3.2811
X6.0933Y-3.3311
X6.0933Y-3.3811
X6.0933Y-3.4311
X6.1024Y-2.8701
X6.1024Y-2.9331
X6.1063Y-2.5354
X6.1063Y-2.5709
X6.1102Y-2.6102
X6.1102Y-2.8031
X6.1181Y-2.8386
X6.122Y-2.5039
X6.122Y-2.8976
X6.1339Y-2.7362
X6.1378Y-2.5945
X6.1378Y-2.6339
X6.1378Y-2.7795
X6.1417Y-2.5551
X6.1417Y-2.8661
X6.1433Y-2.2811
X6.1433Y-2.3311
X6.1433Y-2.3811
X6.1433Y-2.4311
X6.1433Y-3.0311
X6.1433Y-3.1811
X6.1433Y-3.2311
X6.1433Y-3.2811
X6.1433Y-3.3311
X6.1433Y-3.3811
X6.1496Y-2.685
X6.1496Y-2.815
X6.1535Y-2.5236
X6.1654Y-2.6496
X6.1654Y-3.0925
X6.1654Y-3.128
X6.1693Y-2.6102
X6.1732Y-2.7756
X6.1772Y-2.7441
X6.185Y-2.7047
X6.1929Y-3.1083
X6.1929Y-3.1437
X6.1933Y-2.4311
X6.1933Y-3.0311
X6.1933Y-3.2311
X6.1969Y-2.3209
X6.1969Y-2.3563
X6.1969Y-2.6693
X6.2047Y-3.2815
X6.2047Y-3.3169
X6.2067Y-2.9094
X6.2067Y-2.9449
X6.2244Y-2.3366
X6.2244Y-2.372
X6.2323Y-3.2972
X6.2323Y-3.3327
X6.2343Y-2.9252
X6.2343Y-2.9606
X6.2433Y-2.4311
X6.2433Y-2.4811
X6.2433Y-2.5311
X6.2433Y-2.5811
X6.2433Y-2.7311
X6.2433Y-2.7811
X6.2433Y-2.8311
X6.2433Y-3.0311
X6.2433Y-3.0811
X6.2433Y-3.1311
X6.2433Y-3.1811
X6.2433Y-3.2311
T2
X4.8287Y-3.9035
X5.0039Y-3.8878
X5.061Y-3.7165
X5.1024Y-3.8602
X5.498Y-2.5807
X5.5571Y-2.5846
X5.6161Y-1.9902
X5.812Y-2.1053
T4
X5.6213Y-1.8142
X5.6516Y-1.8504
T3
G00X5.5644Y-3.8475
M15
G01X5.5781Y-3.8396
M16
G05
G00X5.7175Y-3.7591
M15
G01X5.7311Y-3.7512
M16
G05
T5
G00X5.4665Y-3.7772
M15
G01X5.4783Y-3.7976
M16
G05
G00X5.7192Y-3.6313
M15
G01X5.731Y-3.6518
M16
G05
T6
G00X4.949Y-1.7594
M15
G01X4.949Y-1.728
M16
G05
G00X4.949Y-1.9307
M15
G01X4.949Y-1.8874
M16
G05
G00X5.2892Y-1.7594
M15
G01X5.2892Y-1.728
M16
G05
G00X5.2892Y-1.9307
M15
G01X5.2892Y-1.8874
M16
G05
M30
