%TF.GenerationSoftware,KiCad,Pcbnew,8.0.1*%
%TF.CreationDate,2024-07-20T14:05:52-04:00*%
%TF.ProjectId,esp32s3,65737033-3273-4332-9e6b-696361645f70,rev?*%
%TF.SameCoordinates,Original*%
%TF.FileFunction,Copper,L2,Inr*%
%TF.FilePolarity,Positive*%
%FSLAX46Y46*%
G04 Gerber Fmt 4.6, Leading zero omitted, Abs format (unit mm)*
G04 Created by KiCad (PCBNEW 8.0.1) date 2024-07-20 14:05:52*
%MOMM*%
%LPD*%
G01*
G04 APERTURE LIST*
G04 Aperture macros list*
%AMRoundRect*
0 Rectangle with rounded corners*
0 $1 Rounding radius*
0 $2 $3 $4 $5 $6 $7 $8 $9 X,Y pos of 4 corners*
0 Add a 4 corners polygon primitive as box body*
4,1,4,$2,$3,$4,$5,$6,$7,$8,$9,$2,$3,0*
0 Add four circle primitives for the rounded corners*
1,1,$1+$1,$2,$3*
1,1,$1+$1,$4,$5*
1,1,$1+$1,$6,$7*
1,1,$1+$1,$8,$9*
0 Add four rect primitives between the rounded corners*
20,1,$1+$1,$2,$3,$4,$5,0*
20,1,$1+$1,$4,$5,$6,$7,0*
20,1,$1+$1,$6,$7,$8,$9,0*
20,1,$1+$1,$8,$9,$2,$3,0*%
%AMHorizOval*
0 Thick line with rounded ends*
0 $1 width*
0 $2 $3 position (X,Y) of the first rounded end (center of the circle)*
0 $4 $5 position (X,Y) of the second rounded end (center of the circle)*
0 Add line between two ends*
20,1,$1,$2,$3,$4,$5,0*
0 Add two circle primitives to create the rounded ends*
1,1,$1,$2,$3*
1,1,$1,$4,$5*%
G04 Aperture macros list end*
%TA.AperFunction,ComponentPad*%
%ADD10HorizOval,0.800000X0.128558X-0.153209X-0.128558X0.153209X0*%
%TD*%
%TA.AperFunction,ComponentPad*%
%ADD11RoundRect,0.131234X-0.685064X-0.223988X-0.339545X-0.635761X0.685064X0.223988X0.339545X0.635761X0*%
%TD*%
%TA.AperFunction,ComponentPad*%
%ADD12O,1.000000X2.100000*%
%TD*%
%TA.AperFunction,ComponentPad*%
%ADD13O,1.000000X1.800000*%
%TD*%
%TA.AperFunction,ViaPad*%
%ADD14C,0.600000*%
%TD*%
%TA.AperFunction,Conductor*%
%ADD15C,0.200000*%
%TD*%
G04 APERTURE END LIST*
D10*
%TO.N,GND*%
%TO.C,SW1*%
X107100000Y-88500000D03*
%TO.N,GP0*%
X109986117Y-91939540D03*
D11*
%TO.N,N/C*%
X112832038Y-91457424D03*
X108068981Y-85781036D03*
%TD*%
D12*
%TO.N,unconnected-(J1-SHIELD-PadS1)_1*%
%TO.C,J1*%
X134345000Y-48490000D03*
D13*
%TO.N,unconnected-(J1-SHIELD-PadS1)_2*%
X134345000Y-44290000D03*
D12*
%TO.N,unconnected-(J1-SHIELD-PadS1)_0*%
X125705000Y-48490000D03*
D13*
%TO.N,unconnected-(J1-SHIELD-PadS1)*%
X125705000Y-44290000D03*
%TD*%
D14*
%TO.N,GPS_ON*%
X120900000Y-91600000D03*
X122200000Y-59300000D03*
%TO.N,+3V3*%
X134100000Y-90000000D03*
X151500000Y-70900000D03*
X123026085Y-80373915D03*
X148000000Y-63100000D03*
X139800000Y-49700000D03*
X140600000Y-89600000D03*
X137300000Y-81900000D03*
X144600000Y-78700000D03*
X122300000Y-86500000D03*
X132300000Y-84500000D03*
X128300971Y-80252441D03*
X148000000Y-62300000D03*
X115720000Y-69760000D03*
X122300000Y-54100000D03*
X137300000Y-79700000D03*
X118100000Y-88000000D03*
X121000000Y-70600000D03*
X136800000Y-53600000D03*
X114200000Y-52300000D03*
X148000000Y-64000000D03*
X107800000Y-68400000D03*
X115600000Y-86500000D03*
X119000000Y-83400000D03*
X145000000Y-64100000D03*
X116800000Y-66100000D03*
%TO.N,GPS_TXD*%
X118400000Y-62100000D03*
X119100000Y-82000000D03*
%TO.N,GPS_RXD*%
X118500000Y-81400000D03*
X117800000Y-61500000D03*
%TO.N,XTAL_N*%
X124750000Y-82909998D03*
X123600000Y-85000000D03*
%TO.N,VCC*%
X138100000Y-49700000D03*
X145281149Y-57210103D03*
%TO.N,Net-(J1-CC1)*%
X131500000Y-50200000D03*
X132300000Y-51400000D03*
%TO.N,Net-(U6-XTB)*%
X151600000Y-68300000D03*
X153300000Y-68100000D03*
%TO.N,Net-(U6-XTA)*%
X155800000Y-69500000D03*
X151700000Y-69141158D03*
%TO.N,ANT_SW_CTRL*%
X146600000Y-66900000D03*
X152800000Y-78800000D03*
%TO.N,LCD_RST*%
X116800000Y-93800000D03*
X130050000Y-80300000D03*
%TO.N,LoRa_BUSY*%
X115400000Y-88600000D03*
X144974265Y-67574265D03*
%TO.N,LoRa_NSS*%
X145400000Y-71700000D03*
X114968081Y-95700000D03*
%TO.N,INT_MAG*%
X122701302Y-92101302D03*
X140550000Y-93050000D03*
%TO.N,SCK*%
X138900000Y-71300000D03*
X117400000Y-70500000D03*
X121200000Y-66200000D03*
X116900000Y-81900000D03*
%TO.N,XL_INT1*%
X124100000Y-90800000D03*
X139800000Y-89200000D03*
%TO.N,LCD_CS*%
X134700000Y-86100000D03*
X130000000Y-79000000D03*
X116200000Y-92800000D03*
%TO.N,LCD_HSYNC*%
X127262500Y-77262500D03*
X121250000Y-80950000D03*
%TO.N,Net-(J5-Pin_12)*%
X122700000Y-83200000D03*
X128976515Y-79676429D03*
%TO.N,LoRa_RST*%
X116200000Y-95600000D03*
X145103260Y-68452940D03*
%TO.N,GP0*%
X123500000Y-79700000D03*
X122500000Y-77300000D03*
%TO.N,LCD_VSYNC*%
X122074925Y-81753431D03*
X127400000Y-78200000D03*
%TO.N,LoRa_DIO1*%
X114800000Y-89400000D03*
X145400000Y-66800000D03*
%TO.N,CHIP_PU*%
X124312500Y-77212500D03*
X119500000Y-67300000D03*
%TO.N,XL_INT0*%
X123401302Y-91401302D03*
X139300000Y-89900000D03*
%TO.N,Net-(J5-Pin_2)*%
X133000000Y-81500000D03*
X127300000Y-89700000D03*
%TO.N,LCD_DE*%
X128300000Y-79000000D03*
X120900000Y-82300000D03*
%TO.N,BAT_V*%
X127500000Y-69900000D03*
X134600000Y-62000000D03*
%TO.N,SDA*%
X114575000Y-77900000D03*
X137900000Y-88700000D03*
X125300000Y-89600000D03*
X119025735Y-87974265D03*
%TO.N,SCL*%
X124700000Y-90200000D03*
X136800000Y-90400000D03*
X119900000Y-88300000D03*
X115500000Y-78100000D03*
%TO.N,MISO*%
X143400000Y-67600000D03*
X108424265Y-80475735D03*
%TO.N,GPIO_INT*%
X119218611Y-73481389D03*
X119250000Y-86450000D03*
%TO.N,MOSI*%
X142792433Y-68407567D03*
X110500000Y-81100000D03*
X141300000Y-69800000D03*
%TO.N,SPI_IO1*%
X111000000Y-78200000D03*
X113900000Y-75700000D03*
%TO.N,SPI_IO2*%
X112200000Y-74900000D03*
X114600000Y-73100000D03*
%TO.N,SPI_IO0*%
X114800000Y-76100000D03*
X114400000Y-72100000D03*
%TO.N,SPI_CS0*%
X114600000Y-74000000D03*
X109800000Y-78200000D03*
%TO.N,GPIO_RST*%
X117150000Y-71350000D03*
X118400000Y-85500000D03*
%TO.N,CHG_STAT*%
X143000000Y-58600000D03*
X127900000Y-88900000D03*
X139675735Y-69675735D03*
X143300000Y-65900000D03*
%TO.N,GND*%
X120650000Y-63950000D03*
X152600000Y-77000000D03*
X111500000Y-83100000D03*
X122400000Y-76300000D03*
X118100000Y-90800000D03*
X145900000Y-75000000D03*
X146500000Y-82400000D03*
X144400000Y-76650000D03*
X121700000Y-45100000D03*
X143600000Y-91500000D03*
X109500000Y-63900000D03*
X124000000Y-60500000D03*
X103100000Y-67400000D03*
X142100000Y-63600000D03*
X112850000Y-55800000D03*
X152400000Y-62100000D03*
X122050000Y-64650000D03*
X126000000Y-77200000D03*
X151800000Y-75600000D03*
X110100000Y-51700000D03*
X126700000Y-60500000D03*
X142100000Y-62700000D03*
X152800000Y-86800000D03*
X138000000Y-56900000D03*
X155000000Y-72900000D03*
X117300000Y-91600000D03*
X120800000Y-45100000D03*
X152800000Y-76000000D03*
X141400000Y-61400000D03*
X144300000Y-91000000D03*
X144900000Y-66100000D03*
X141400000Y-63200000D03*
X137100000Y-56900000D03*
X149900000Y-61100000D03*
X104500000Y-68100000D03*
X122600000Y-84500000D03*
X110600000Y-74100000D03*
X147100000Y-81000000D03*
X123900000Y-48300000D03*
X147900000Y-71800000D03*
X152800000Y-85900000D03*
X110600000Y-75900000D03*
X147600000Y-76800000D03*
X149900000Y-82500000D03*
X149700000Y-68800000D03*
X124900000Y-60500000D03*
X132700000Y-53600000D03*
X110600000Y-75000000D03*
X145800000Y-84000000D03*
X104000000Y-67400000D03*
X138750000Y-80650000D03*
X152000000Y-87200000D03*
X133100000Y-52900000D03*
X145100000Y-83600000D03*
X138200000Y-86100000D03*
X143600000Y-90600000D03*
X116800000Y-64050000D03*
X128900000Y-93500000D03*
X138750000Y-78850000D03*
X134800000Y-93400000D03*
X117350000Y-52900000D03*
X149400000Y-62400000D03*
X136100000Y-92700000D03*
X117300000Y-90000000D03*
X109900000Y-75500000D03*
X155200000Y-71200000D03*
X115500000Y-58700000D03*
X147800000Y-58750000D03*
X124800000Y-71600000D03*
X128400000Y-92800000D03*
X138700000Y-86800000D03*
X145500000Y-76700000D03*
X148100000Y-83200000D03*
X116650000Y-53400000D03*
X123900000Y-49200000D03*
X151400000Y-80800000D03*
X120900000Y-77400000D03*
X153300000Y-62300000D03*
X146700000Y-73600000D03*
X121700000Y-75500000D03*
X148800000Y-68000000D03*
X131800000Y-63500000D03*
X127500000Y-92800000D03*
X103900000Y-76600000D03*
X121800000Y-78500000D03*
X108600000Y-63900000D03*
X147274997Y-82900000D03*
X125300000Y-59800000D03*
X153200000Y-72300000D03*
X123100000Y-45800000D03*
X140500000Y-86800000D03*
X127400000Y-56600000D03*
X147300000Y-88100000D03*
X120900000Y-75800000D03*
X114800000Y-58300000D03*
X147800000Y-80600000D03*
X135700000Y-93400000D03*
X137750000Y-72500000D03*
X146800000Y-76700000D03*
X144400000Y-75750000D03*
X114800000Y-60100000D03*
X113800000Y-69500000D03*
X139200000Y-66700000D03*
X104800000Y-76600000D03*
X153000000Y-81000000D03*
X152400000Y-80400000D03*
X151500000Y-81900000D03*
X156600000Y-67300000D03*
X141400000Y-62300000D03*
X144400000Y-74850000D03*
X152000000Y-86300000D03*
X125700000Y-92800000D03*
X135400000Y-53600000D03*
X142850000Y-53550000D03*
X148900000Y-78200000D03*
X150700000Y-81700000D03*
X154300000Y-64200000D03*
X145100000Y-84500000D03*
X113550000Y-55300000D03*
X112400000Y-83100000D03*
X149700000Y-68000000D03*
X143600000Y-93300000D03*
X113500000Y-77100000D03*
X114700000Y-48600000D03*
X142100000Y-61800000D03*
X146100000Y-65200000D03*
X138750000Y-81550000D03*
X132200000Y-52900000D03*
X152700000Y-83100000D03*
X145600000Y-81400000D03*
X109900000Y-74600000D03*
X153700000Y-75800000D03*
X147000000Y-71900000D03*
X113500000Y-78000000D03*
X110600000Y-68800000D03*
X121000000Y-74800000D03*
X142950000Y-57150000D03*
X153500000Y-82600000D03*
X153400000Y-64300000D03*
X110000000Y-64600000D03*
X151600000Y-61900000D03*
X108500000Y-60800000D03*
X150200000Y-84100000D03*
X112850000Y-54900000D03*
X147900000Y-69600000D03*
X114800000Y-59200000D03*
X115500000Y-56900000D03*
X112900000Y-69500000D03*
X133600000Y-53600000D03*
X137750000Y-75200000D03*
X136600000Y-56200000D03*
X146400000Y-81400000D03*
X145150000Y-65150000D03*
X148800000Y-68800000D03*
X137800000Y-86800000D03*
X150800000Y-61300000D03*
X156200000Y-68200000D03*
X151900000Y-66800000D03*
X150600000Y-80800000D03*
X110800000Y-51200000D03*
X119100000Y-75300000D03*
X138500000Y-66300000D03*
X154200000Y-62500000D03*
X137750000Y-73400000D03*
X147900000Y-82300000D03*
X145800000Y-85800000D03*
X123200000Y-48800000D03*
X145100000Y-85400000D03*
X145100000Y-73200000D03*
X145800000Y-84900000D03*
X147300000Y-84200000D03*
X123200000Y-49700000D03*
X119100000Y-76400000D03*
X153500000Y-63400000D03*
X152000000Y-84500000D03*
X126600000Y-92800000D03*
X137500000Y-56200000D03*
X106200000Y-77300000D03*
X128600000Y-62800000D03*
X117350000Y-52000000D03*
X128000000Y-93500000D03*
X114800000Y-57400000D03*
X134000000Y-52900000D03*
X147300000Y-77700000D03*
X115500000Y-57800000D03*
X153500000Y-84400000D03*
X127700000Y-96200000D03*
X134500000Y-53600000D03*
X138750000Y-79750000D03*
X149700000Y-69600000D03*
X106200000Y-60100000D03*
X143550000Y-53050000D03*
X121150000Y-64650000D03*
X147500000Y-61300000D03*
X146600000Y-63600000D03*
X146200000Y-77400000D03*
X150200000Y-77100000D03*
X116800000Y-64950000D03*
X155900000Y-70600000D03*
X149100000Y-61500000D03*
X119100000Y-78500000D03*
X153900000Y-72900000D03*
X152300000Y-65000000D03*
X134900000Y-52900000D03*
X129100000Y-63500000D03*
X146000000Y-80700000D03*
X150700000Y-82600000D03*
X110400000Y-63900000D03*
X145300000Y-75800000D03*
X147300000Y-76000000D03*
X153300000Y-77800000D03*
X130000000Y-63500000D03*
X126200000Y-93500000D03*
X152000000Y-82700000D03*
X111500000Y-68800000D03*
X152700000Y-82200000D03*
X136200000Y-56900000D03*
X105300000Y-77300000D03*
X133400000Y-92700000D03*
X154400000Y-73600000D03*
X111800000Y-64600000D03*
X145100000Y-86300000D03*
X152000000Y-83600000D03*
X153200000Y-65500000D03*
X122400000Y-73600000D03*
X144600000Y-73900000D03*
X143550000Y-52150000D03*
X145000000Y-80800000D03*
X147100000Y-59250000D03*
X153800000Y-79300000D03*
X148800000Y-69600000D03*
X155900000Y-65900000D03*
X147500000Y-78700000D03*
X145800000Y-66000000D03*
X155500000Y-63600000D03*
X156000000Y-64900000D03*
X141400000Y-64100000D03*
X144250000Y-65400000D03*
X114000000Y-50000000D03*
X129500000Y-62800000D03*
X104400000Y-77300000D03*
X145200000Y-77500000D03*
X113550000Y-54400000D03*
X147100000Y-81800000D03*
X145800000Y-86700000D03*
X145600000Y-82200000D03*
X157100000Y-68700000D03*
X155500000Y-73600000D03*
X149800000Y-80800000D03*
X156000000Y-72800000D03*
X111300000Y-63900000D03*
X155100000Y-65300000D03*
X144300000Y-92800000D03*
X152600000Y-64000000D03*
X153400000Y-80200000D03*
X126200000Y-72300000D03*
X126200000Y-59800000D03*
X122200000Y-45800000D03*
X118900000Y-91600000D03*
X145200000Y-70700000D03*
X120900000Y-78500000D03*
X105700000Y-76600000D03*
X144200000Y-66600000D03*
X140000000Y-86100000D03*
X153300000Y-71400000D03*
X142100000Y-60900000D03*
X112400000Y-68800000D03*
X146300000Y-64400000D03*
X153500000Y-81700000D03*
X153900000Y-78400000D03*
X145800000Y-83100000D03*
X142100000Y-49150000D03*
X154500000Y-76300000D03*
X152100000Y-81300000D03*
X147300000Y-74300000D03*
X156700000Y-66300000D03*
X155100000Y-64400000D03*
X107600000Y-60800000D03*
X146100000Y-76100000D03*
X126700000Y-55300000D03*
X110600000Y-83100000D03*
X145800000Y-87600000D03*
X120800000Y-73500000D03*
X119100000Y-77500000D03*
X155400000Y-72100000D03*
X150100000Y-64900000D03*
X112000000Y-83800000D03*
X149900000Y-81700000D03*
X156900000Y-69700000D03*
X153500000Y-76600000D03*
X147700000Y-72700000D03*
X121300000Y-45800000D03*
X153500000Y-83500000D03*
X150600000Y-83400000D03*
X154500000Y-75400000D03*
X125800000Y-60500000D03*
X111100000Y-83800000D03*
X145800000Y-72800000D03*
X150800000Y-62400000D03*
X127500000Y-81800000D03*
X144300000Y-91900000D03*
X139200000Y-68500000D03*
X152700000Y-84900000D03*
X136600000Y-93400000D03*
X157400000Y-67800000D03*
X143400000Y-71300000D03*
X138500000Y-68100000D03*
X109700000Y-83100000D03*
X151200000Y-74500000D03*
X125700000Y-71600000D03*
X144300000Y-90100000D03*
X106600000Y-76600000D03*
X122600000Y-45100000D03*
X112000000Y-69500000D03*
X139200000Y-67600000D03*
X102200000Y-67400000D03*
X137750000Y-74300000D03*
X123500000Y-45100000D03*
X152500000Y-66200000D03*
X110800000Y-52100000D03*
X124000000Y-45800000D03*
X130400000Y-62800000D03*
X146600000Y-75400000D03*
X118900000Y-90000000D03*
X144700000Y-58000000D03*
X152600000Y-62900000D03*
X124400000Y-72300000D03*
X141400000Y-49650000D03*
X151700000Y-76700000D03*
X148400000Y-61100000D03*
X149800000Y-83300000D03*
X108000000Y-60100000D03*
X127100000Y-93500000D03*
X152700000Y-84000000D03*
X155000000Y-74500000D03*
X146700000Y-62700000D03*
X150600000Y-77800000D03*
X147800000Y-81400000D03*
X121500000Y-76600000D03*
X156300000Y-64100000D03*
X110900000Y-64600000D03*
X154500000Y-63400000D03*
X138500000Y-69000000D03*
X137300000Y-86100000D03*
X127400000Y-55700000D03*
X156200000Y-71500000D03*
X121900000Y-89200000D03*
X110100000Y-52600000D03*
X155900000Y-66900000D03*
X144900000Y-79800000D03*
X124400000Y-59800000D03*
X139200000Y-65700000D03*
X146500000Y-74400000D03*
X110200000Y-83800000D03*
X150600000Y-75400000D03*
X147400000Y-75100000D03*
X109100000Y-64600000D03*
X138400000Y-56200000D03*
X150700000Y-73800000D03*
X139100000Y-86100000D03*
X144400000Y-77450000D03*
X114700000Y-49500000D03*
X146900000Y-61900000D03*
X147100000Y-60150000D03*
X145300000Y-74400000D03*
X111100000Y-69500000D03*
X114000000Y-49100000D03*
X147800000Y-59650000D03*
X135200000Y-92700000D03*
X142850000Y-52650000D03*
X106700000Y-60800000D03*
X127400000Y-54800000D03*
X155200000Y-66300000D03*
X115500000Y-59600000D03*
X125300000Y-72300000D03*
X103600000Y-68100000D03*
X150100000Y-62000000D03*
X107100000Y-77300000D03*
X143300000Y-72300000D03*
X147900000Y-68000000D03*
X130900000Y-63500000D03*
X156800000Y-70500000D03*
X116650000Y-52500000D03*
X147900000Y-68800000D03*
X138500000Y-67200000D03*
X123500000Y-59800000D03*
X144300000Y-71700000D03*
X145900000Y-73800000D03*
X135700000Y-56200000D03*
X131300000Y-62800000D03*
X144100000Y-70800000D03*
X134300000Y-92700000D03*
X154100000Y-74500000D03*
X133900000Y-93400000D03*
X139600000Y-86800000D03*
X154200000Y-77300000D03*
X126700000Y-56200000D03*
X113300000Y-68800000D03*
X109900000Y-76400000D03*
X107100000Y-60100000D03*
X119000000Y-74400000D03*
X102700000Y-68100000D03*
X143600000Y-92400000D03*
X121550000Y-63950000D03*
X150600000Y-88200000D03*
X112900000Y-83800000D03*
X152000000Y-85400000D03*
%TD*%
D15*
%TO.N,Net-(U6-XTB)*%
X151600000Y-68300000D02*
X153100000Y-68300000D01*
X153100000Y-68300000D02*
X153300000Y-68100000D01*
%TO.N,Net-(U6-XTA)*%
X151700000Y-69141158D02*
X152058842Y-69500000D01*
X152058842Y-69500000D02*
X155800000Y-69500000D01*
%TD*%
%TA.AperFunction,Conductor*%
%TO.N,GND*%
G36*
X124855944Y-43320185D02*
G01*
X124901699Y-43372989D01*
X124911643Y-43442147D01*
X124903466Y-43471952D01*
X124839106Y-43627332D01*
X124839103Y-43627341D01*
X124804500Y-43801304D01*
X124804500Y-44778695D01*
X124839103Y-44952658D01*
X124839106Y-44952667D01*
X124906983Y-45116540D01*
X124906990Y-45116553D01*
X125005535Y-45264034D01*
X125005538Y-45264038D01*
X125130961Y-45389461D01*
X125130965Y-45389464D01*
X125278446Y-45488009D01*
X125278459Y-45488016D01*
X125372970Y-45527163D01*
X125442334Y-45555894D01*
X125442336Y-45555894D01*
X125442341Y-45555896D01*
X125616304Y-45590499D01*
X125616307Y-45590500D01*
X125616309Y-45590500D01*
X125793693Y-45590500D01*
X125793694Y-45590499D01*
X125851682Y-45578964D01*
X125967658Y-45555896D01*
X125967661Y-45555894D01*
X125967666Y-45555894D01*
X126131547Y-45488013D01*
X126279035Y-45389464D01*
X126404464Y-45264035D01*
X126503013Y-45116547D01*
X126570894Y-44952666D01*
X126605500Y-44778691D01*
X126605500Y-43801309D01*
X126605500Y-43801306D01*
X126605499Y-43801304D01*
X126570896Y-43627341D01*
X126570893Y-43627332D01*
X126506534Y-43471952D01*
X126499065Y-43402482D01*
X126530341Y-43340003D01*
X126590430Y-43304352D01*
X126621095Y-43300500D01*
X129998961Y-43300500D01*
X129999577Y-43300502D01*
X133422476Y-43317517D01*
X133489414Y-43337534D01*
X133534906Y-43390565D01*
X133544506Y-43459772D01*
X133536419Y-43488966D01*
X133479106Y-43627334D01*
X133479105Y-43627338D01*
X133479104Y-43627341D01*
X133479103Y-43627341D01*
X133444500Y-43801304D01*
X133444500Y-44778695D01*
X133479103Y-44952658D01*
X133479106Y-44952667D01*
X133546983Y-45116540D01*
X133546990Y-45116553D01*
X133645535Y-45264034D01*
X133645538Y-45264038D01*
X133770961Y-45389461D01*
X133770965Y-45389464D01*
X133918446Y-45488009D01*
X133918459Y-45488016D01*
X134012970Y-45527163D01*
X134082334Y-45555894D01*
X134082336Y-45555894D01*
X134082341Y-45555896D01*
X134256304Y-45590499D01*
X134256307Y-45590500D01*
X134256309Y-45590500D01*
X134433693Y-45590500D01*
X134433694Y-45590499D01*
X134491682Y-45578964D01*
X134607658Y-45555896D01*
X134607661Y-45555894D01*
X134607666Y-45555894D01*
X134771547Y-45488013D01*
X134919035Y-45389464D01*
X135044464Y-45264035D01*
X135143013Y-45116547D01*
X135210894Y-44952666D01*
X135245500Y-44778691D01*
X135245500Y-43801309D01*
X135245500Y-43801306D01*
X135245499Y-43801304D01*
X135210896Y-43627341D01*
X135210893Y-43627332D01*
X135157391Y-43498165D01*
X135149922Y-43428696D01*
X135181197Y-43366217D01*
X135241287Y-43330565D01*
X135272560Y-43326715D01*
X137135218Y-43335975D01*
X137166560Y-43340164D01*
X138110466Y-43592035D01*
X138114578Y-43593210D01*
X138924212Y-43839746D01*
X139094421Y-43891575D01*
X139098528Y-43892904D01*
X140067379Y-44225192D01*
X140071438Y-44226663D01*
X141028163Y-44592488D01*
X141032168Y-44594100D01*
X141975556Y-44992998D01*
X141979496Y-44994745D01*
X142908464Y-45426259D01*
X142912297Y-45428122D01*
X143265139Y-45607208D01*
X143825682Y-45891714D01*
X143829498Y-45893735D01*
X144726168Y-46388829D01*
X144729873Y-46390960D01*
X145608785Y-46916979D01*
X145612400Y-46919228D01*
X146472497Y-47475544D01*
X146476069Y-47477945D01*
X146761994Y-47677334D01*
X147316195Y-48063805D01*
X147319693Y-48066335D01*
X148138967Y-48681124D01*
X148142364Y-48683767D01*
X148939721Y-49326689D01*
X148943028Y-49329452D01*
X149570003Y-49872070D01*
X149717523Y-49999741D01*
X149720728Y-50002614D01*
X150105503Y-50359789D01*
X150471415Y-50699455D01*
X150474528Y-50702447D01*
X150746352Y-50972989D01*
X151159943Y-51384629D01*
X151200507Y-51425001D01*
X151203507Y-51428093D01*
X151903902Y-52175490D01*
X151906768Y-52178657D01*
X152421646Y-52767927D01*
X152580719Y-52949983D01*
X152583503Y-52953283D01*
X153230190Y-53747594D01*
X153232857Y-53750989D01*
X153851500Y-54567329D01*
X153854047Y-54570815D01*
X153987161Y-54759790D01*
X154413003Y-55364337D01*
X154443888Y-55408182D01*
X154446312Y-55411754D01*
X155006637Y-56269135D01*
X155008936Y-56272789D01*
X155539558Y-57149954D01*
X155540845Y-57152132D01*
X155562886Y-57190306D01*
X155564090Y-57192102D01*
X155564136Y-57192182D01*
X155564137Y-57192183D01*
X155590855Y-57216094D01*
X155595843Y-57220814D01*
X155615489Y-57240460D01*
X155615492Y-57240462D01*
X155621938Y-57245408D01*
X155621798Y-57245590D01*
X155632360Y-57253239D01*
X155635067Y-57255662D01*
X155635068Y-57255662D01*
X155635069Y-57255663D01*
X155649658Y-57262105D01*
X155657668Y-57265643D01*
X155669577Y-57271688D01*
X155684011Y-57280021D01*
X155690569Y-57281778D01*
X155708573Y-57288122D01*
X155722146Y-57294116D01*
X155735615Y-57295490D01*
X155755111Y-57299072D01*
X155760438Y-57300500D01*
X155778402Y-57300500D01*
X155790991Y-57301141D01*
X155816842Y-57303779D01*
X155816842Y-57303778D01*
X155816843Y-57303779D01*
X155818369Y-57303449D01*
X155819121Y-57303288D01*
X155845267Y-57300500D01*
X159375500Y-57300500D01*
X159442539Y-57320185D01*
X159488294Y-57372989D01*
X159499500Y-57424500D01*
X159499500Y-86577509D01*
X159479815Y-86644548D01*
X159427011Y-86690303D01*
X159376088Y-86701508D01*
X155877243Y-86718112D01*
X155850521Y-86715328D01*
X155849232Y-86715050D01*
X155849225Y-86715049D01*
X155822371Y-86717790D01*
X155810379Y-86718430D01*
X155791553Y-86718520D01*
X155791402Y-86718521D01*
X155791400Y-86718521D01*
X155791396Y-86718522D01*
X155787055Y-86719707D01*
X155767005Y-86723440D01*
X155754536Y-86724713D01*
X155754528Y-86724715D01*
X155740026Y-86731119D01*
X155722617Y-86737302D01*
X155715077Y-86739361D01*
X155715069Y-86739364D01*
X155701544Y-86747258D01*
X155689147Y-86753588D01*
X155667460Y-86763166D01*
X155667453Y-86763171D01*
X155663984Y-86766276D01*
X155653100Y-86774198D01*
X155653159Y-86774274D01*
X155646735Y-86779251D01*
X155627880Y-86798285D01*
X155622486Y-86803414D01*
X155596524Y-86826650D01*
X155596518Y-86826657D01*
X155596345Y-86826956D01*
X155593338Y-86831466D01*
X155573247Y-86866649D01*
X155571612Y-86869428D01*
X155014142Y-87789247D01*
X155011726Y-87793074D01*
X154421258Y-88691628D01*
X154418704Y-88695365D01*
X153795822Y-89571792D01*
X153793133Y-89575433D01*
X153138684Y-90428539D01*
X153135864Y-90432079D01*
X152450714Y-91260733D01*
X152447766Y-91264168D01*
X151732853Y-92067239D01*
X151729783Y-92070564D01*
X150986001Y-92847048D01*
X150982811Y-92850259D01*
X150211229Y-93599039D01*
X150207923Y-93602132D01*
X149409479Y-94322298D01*
X149406064Y-94325267D01*
X149196916Y-94500500D01*
X148581895Y-95015789D01*
X148578397Y-95018614D01*
X147729562Y-95678610D01*
X147725938Y-95681323D01*
X146853604Y-96309884D01*
X146849884Y-96312463D01*
X145955180Y-96908777D01*
X145951369Y-96911218D01*
X145035488Y-97474487D01*
X145031590Y-97476787D01*
X144095763Y-98006254D01*
X144091783Y-98008410D01*
X143137295Y-98503353D01*
X143133240Y-98505363D01*
X142161300Y-98965150D01*
X142157174Y-98967011D01*
X141169086Y-99391028D01*
X141164894Y-99392737D01*
X140161987Y-99780412D01*
X140157736Y-99781966D01*
X139141399Y-100132762D01*
X139137095Y-100134161D01*
X138341042Y-100376794D01*
X138271176Y-100377510D01*
X138215506Y-100344126D01*
X135000001Y-97000000D01*
X135000000Y-97000000D01*
X125000000Y-97000000D01*
X121785576Y-100342998D01*
X121724921Y-100377678D01*
X121660948Y-100375937D01*
X121078121Y-100203149D01*
X121073805Y-100201784D01*
X120054762Y-99858742D01*
X120050500Y-99857220D01*
X119044677Y-99477225D01*
X119040472Y-99475548D01*
X118049185Y-99059096D01*
X118045045Y-99057267D01*
X117069621Y-98604917D01*
X117065550Y-98602938D01*
X116107286Y-98115290D01*
X116103290Y-98113164D01*
X115163458Y-97590867D01*
X115159543Y-97588597D01*
X114239391Y-97032344D01*
X114235561Y-97029932D01*
X113336341Y-96440479D01*
X113332601Y-96437929D01*
X112455472Y-95816036D01*
X112451828Y-95813351D01*
X112303724Y-95700000D01*
X114262436Y-95700000D01*
X114282940Y-95868869D01*
X114282941Y-95868874D01*
X114343263Y-96027931D01*
X114374308Y-96072906D01*
X114439898Y-96167929D01*
X114537593Y-96254479D01*
X114567231Y-96280736D01*
X114717854Y-96359789D01*
X114717856Y-96359790D01*
X114883025Y-96400500D01*
X115053137Y-96400500D01*
X115218306Y-96359790D01*
X115313393Y-96309884D01*
X115368930Y-96280736D01*
X115368931Y-96280734D01*
X115368933Y-96280734D01*
X115496264Y-96167929D01*
X115526202Y-96124555D01*
X115580485Y-96080566D01*
X115649933Y-96072906D01*
X115710479Y-96102180D01*
X115799150Y-96180736D01*
X115939656Y-96254479D01*
X115949775Y-96259790D01*
X116114944Y-96300500D01*
X116285056Y-96300500D01*
X116450225Y-96259790D01*
X116529692Y-96218081D01*
X116600849Y-96180736D01*
X116600850Y-96180734D01*
X116600852Y-96180734D01*
X116728183Y-96067929D01*
X116824818Y-95927930D01*
X116885140Y-95768872D01*
X116905645Y-95600000D01*
X116885140Y-95431128D01*
X116824818Y-95272070D01*
X116797208Y-95232071D01*
X116758122Y-95175445D01*
X116728183Y-95132071D01*
X116600852Y-95019266D01*
X116600849Y-95019263D01*
X116450226Y-94940210D01*
X116285056Y-94899500D01*
X116114944Y-94899500D01*
X115949773Y-94940210D01*
X115799150Y-95019263D01*
X115671816Y-95132071D01*
X115641877Y-95175445D01*
X115587593Y-95219434D01*
X115518144Y-95227092D01*
X115457601Y-95197819D01*
X115368930Y-95119263D01*
X115218307Y-95040210D01*
X115053137Y-94999500D01*
X114883025Y-94999500D01*
X114717854Y-95040210D01*
X114567231Y-95119263D01*
X114439897Y-95232072D01*
X114343263Y-95372068D01*
X114282941Y-95531125D01*
X114282940Y-95531130D01*
X114262436Y-95700000D01*
X112303724Y-95700000D01*
X111597985Y-95159866D01*
X111594442Y-95157050D01*
X110765027Y-94472846D01*
X110761588Y-94469902D01*
X109957683Y-93755871D01*
X109954355Y-93752804D01*
X109177073Y-93009939D01*
X109173858Y-93006753D01*
X109137010Y-92968869D01*
X108760795Y-92582071D01*
X108424167Y-92235974D01*
X108421071Y-92232672D01*
X108025510Y-91795110D01*
X109053234Y-91795110D01*
X109070399Y-91951850D01*
X109070399Y-91951852D01*
X109070400Y-91951854D01*
X109116954Y-92099500D01*
X109117819Y-92102243D01*
X109191186Y-92235974D01*
X109193662Y-92240487D01*
X109352039Y-92429233D01*
X109552134Y-92667696D01*
X109552136Y-92667698D01*
X109675110Y-92766395D01*
X109675112Y-92766396D01*
X109814980Y-92839207D01*
X109966366Y-92883332D01*
X110123451Y-92897075D01*
X110280198Y-92879908D01*
X110430585Y-92832490D01*
X110489807Y-92800000D01*
X115494355Y-92800000D01*
X115514859Y-92968869D01*
X115514860Y-92968874D01*
X115575182Y-93127931D01*
X115583658Y-93140210D01*
X115671817Y-93267929D01*
X115744219Y-93332071D01*
X115799150Y-93380736D01*
X115949774Y-93459790D01*
X115976082Y-93466274D01*
X116024820Y-93478286D01*
X116085200Y-93513441D01*
X116116989Y-93575660D01*
X116115672Y-93623671D01*
X116115764Y-93623683D01*
X116115645Y-93624662D01*
X116115544Y-93628349D01*
X116114860Y-93631122D01*
X116094355Y-93800000D01*
X116114859Y-93968869D01*
X116114860Y-93968874D01*
X116175182Y-94127931D01*
X116201253Y-94165700D01*
X116271817Y-94267929D01*
X116373676Y-94358168D01*
X116399150Y-94380736D01*
X116549773Y-94459789D01*
X116549775Y-94459790D01*
X116714944Y-94500500D01*
X116885056Y-94500500D01*
X117050225Y-94459790D01*
X117129692Y-94418081D01*
X117200849Y-94380736D01*
X117200850Y-94380734D01*
X117200852Y-94380734D01*
X117328183Y-94267929D01*
X117424818Y-94127930D01*
X117485140Y-93968872D01*
X117505645Y-93800000D01*
X117485140Y-93631128D01*
X117424818Y-93472070D01*
X117328183Y-93332071D01*
X117200852Y-93219266D01*
X117200849Y-93219263D01*
X117050226Y-93140210D01*
X116975179Y-93121713D01*
X116914799Y-93086557D01*
X116896121Y-93050000D01*
X139844355Y-93050000D01*
X139864859Y-93218869D01*
X139864860Y-93218874D01*
X139925182Y-93377931D01*
X139981686Y-93459790D01*
X140021817Y-93517929D01*
X140113372Y-93599039D01*
X140149150Y-93630736D01*
X140299773Y-93709789D01*
X140299775Y-93709790D01*
X140464944Y-93750500D01*
X140635056Y-93750500D01*
X140800225Y-93709790D01*
X140879692Y-93668081D01*
X140950849Y-93630736D01*
X140950850Y-93630734D01*
X140950852Y-93630734D01*
X141078183Y-93517929D01*
X141174818Y-93377930D01*
X141235140Y-93218872D01*
X141255645Y-93050000D01*
X141235140Y-92881128D01*
X141174818Y-92722070D01*
X141078183Y-92582071D01*
X140950852Y-92469266D01*
X140950849Y-92469263D01*
X140800226Y-92390210D01*
X140635056Y-92349500D01*
X140464944Y-92349500D01*
X140299773Y-92390210D01*
X140149150Y-92469263D01*
X140021816Y-92582072D01*
X139925182Y-92722068D01*
X139864860Y-92881125D01*
X139864859Y-92881130D01*
X139844355Y-93050000D01*
X116896121Y-93050000D01*
X116883010Y-93024338D01*
X116884329Y-92976328D01*
X116884236Y-92976317D01*
X116884356Y-92975322D01*
X116884458Y-92971636D01*
X116885136Y-92968881D01*
X116885140Y-92968872D01*
X116905645Y-92800000D01*
X116885140Y-92631128D01*
X116881173Y-92620669D01*
X116824817Y-92472068D01*
X116769856Y-92392444D01*
X116728183Y-92332071D01*
X116619712Y-92235974D01*
X116600849Y-92219263D01*
X116450226Y-92140210D01*
X116285056Y-92099500D01*
X116114944Y-92099500D01*
X115949773Y-92140210D01*
X115799150Y-92219263D01*
X115671816Y-92332072D01*
X115575182Y-92472068D01*
X115514860Y-92631125D01*
X115514859Y-92631130D01*
X115494355Y-92800000D01*
X110489807Y-92800000D01*
X110568831Y-92756646D01*
X110689624Y-92655288D01*
X110788322Y-92532312D01*
X110861133Y-92392444D01*
X110905258Y-92241059D01*
X110919001Y-92083974D01*
X110901834Y-91927226D01*
X110901834Y-91927224D01*
X110901832Y-91927219D01*
X110866829Y-91816209D01*
X110854416Y-91776840D01*
X110778572Y-91638593D01*
X110775248Y-91634632D01*
X111612283Y-91634632D01*
X111612478Y-91638590D01*
X111619490Y-91780619D01*
X111619491Y-91780627D01*
X111631382Y-91816209D01*
X111665819Y-91919259D01*
X111687110Y-91951854D01*
X111712886Y-91991317D01*
X111712891Y-91991324D01*
X112111910Y-92466854D01*
X112111926Y-92466871D01*
X112117472Y-92472070D01*
X112174707Y-92525729D01*
X112174709Y-92525730D01*
X112174710Y-92525731D01*
X112186842Y-92532312D01*
X112303190Y-92595427D01*
X112445714Y-92627876D01*
X112591706Y-92620669D01*
X112730341Y-92574341D01*
X112802397Y-92527274D01*
X113890781Y-91614011D01*
X113903916Y-91600000D01*
X120194355Y-91600000D01*
X120214859Y-91768869D01*
X120214860Y-91768874D01*
X120275182Y-91927931D01*
X120312529Y-91982036D01*
X120371817Y-92067929D01*
X120410550Y-92102243D01*
X120499150Y-92180736D01*
X120614086Y-92241059D01*
X120649775Y-92259790D01*
X120814944Y-92300500D01*
X120985056Y-92300500D01*
X121150225Y-92259790D01*
X121250881Y-92206961D01*
X121300849Y-92180736D01*
X121300850Y-92180734D01*
X121300852Y-92180734D01*
X121390513Y-92101302D01*
X121995657Y-92101302D01*
X122016161Y-92270171D01*
X122016162Y-92270176D01*
X122076484Y-92429233D01*
X122106053Y-92472070D01*
X122173119Y-92569231D01*
X122242987Y-92631128D01*
X122300452Y-92682038D01*
X122442600Y-92756643D01*
X122451077Y-92761092D01*
X122616246Y-92801802D01*
X122786358Y-92801802D01*
X122951527Y-92761092D01*
X123030994Y-92719383D01*
X123102151Y-92682038D01*
X123102152Y-92682036D01*
X123102154Y-92682036D01*
X123229485Y-92569231D01*
X123326120Y-92429232D01*
X123386442Y-92270174D01*
X123394117Y-92206959D01*
X123421738Y-92142783D01*
X123479672Y-92103726D01*
X123487513Y-92101517D01*
X123651527Y-92061092D01*
X123710188Y-92030304D01*
X123802151Y-91982038D01*
X123802152Y-91982036D01*
X123802154Y-91982036D01*
X123929485Y-91869231D01*
X124026120Y-91729232D01*
X124082799Y-91579778D01*
X124124976Y-91524076D01*
X124177942Y-91502984D01*
X124177773Y-91502295D01*
X124182763Y-91501065D01*
X124183798Y-91500653D01*
X124185053Y-91500500D01*
X124185056Y-91500500D01*
X124350225Y-91459790D01*
X124466284Y-91398877D01*
X124500849Y-91380736D01*
X124500850Y-91380734D01*
X124500852Y-91380734D01*
X124628183Y-91267929D01*
X124724818Y-91127930D01*
X124785140Y-90968872D01*
X124785140Y-90968864D01*
X124785147Y-90968841D01*
X124785160Y-90968817D01*
X124787800Y-90961858D01*
X124788957Y-90962296D01*
X124820302Y-90908460D01*
X124875870Y-90878116D01*
X124950225Y-90859790D01*
X125100852Y-90780734D01*
X125228183Y-90667929D01*
X125324818Y-90527930D01*
X125385140Y-90368872D01*
X125385140Y-90368864D01*
X125385147Y-90368841D01*
X125385160Y-90368817D01*
X125387800Y-90361858D01*
X125388957Y-90362296D01*
X125420302Y-90308460D01*
X125475870Y-90278116D01*
X125550225Y-90259790D01*
X125700852Y-90180734D01*
X125828183Y-90067929D01*
X125924818Y-89927930D01*
X125985140Y-89768872D01*
X125993503Y-89700000D01*
X126594355Y-89700000D01*
X126614859Y-89868869D01*
X126614860Y-89868874D01*
X126675182Y-90027931D01*
X126737475Y-90118177D01*
X126771817Y-90167929D01*
X126875506Y-90259789D01*
X126899150Y-90280736D01*
X127022931Y-90345701D01*
X127049775Y-90359790D01*
X127214944Y-90400500D01*
X127385056Y-90400500D01*
X127550225Y-90359790D01*
X127648025Y-90308460D01*
X127700849Y-90280736D01*
X127700850Y-90280734D01*
X127700852Y-90280734D01*
X127828183Y-90167929D01*
X127924818Y-90027930D01*
X127935410Y-90000000D01*
X133394355Y-90000000D01*
X133414859Y-90168869D01*
X133414860Y-90168874D01*
X133475182Y-90327931D01*
X133517416Y-90389116D01*
X133571817Y-90467929D01*
X133639546Y-90527931D01*
X133699150Y-90580736D01*
X133849773Y-90659789D01*
X133849775Y-90659790D01*
X134014944Y-90700500D01*
X134185056Y-90700500D01*
X134350225Y-90659790D01*
X134455100Y-90604747D01*
X134500849Y-90580736D01*
X134500850Y-90580734D01*
X134500852Y-90580734D01*
X134628183Y-90467929D01*
X134675071Y-90400000D01*
X136094355Y-90400000D01*
X136114859Y-90568869D01*
X136114860Y-90568874D01*
X136175182Y-90727931D01*
X136211630Y-90780734D01*
X136271817Y-90867929D01*
X136353406Y-90940210D01*
X136399150Y-90980736D01*
X136549773Y-91059789D01*
X136549775Y-91059790D01*
X136714944Y-91100500D01*
X136885056Y-91100500D01*
X137050225Y-91059790D01*
X137172246Y-90995748D01*
X137200849Y-90980736D01*
X137200850Y-90980734D01*
X137200852Y-90980734D01*
X137328183Y-90867929D01*
X137424818Y-90727930D01*
X137485140Y-90568872D01*
X137505645Y-90400000D01*
X137485140Y-90231128D01*
X137483926Y-90227928D01*
X137450660Y-90140210D01*
X137424818Y-90072070D01*
X137422608Y-90068869D01*
X137348346Y-89961282D01*
X137328183Y-89932071D01*
X137291982Y-89900000D01*
X138594355Y-89900000D01*
X138614859Y-90068869D01*
X138614860Y-90068874D01*
X138675182Y-90227931D01*
X138715936Y-90286972D01*
X138771817Y-90367929D01*
X138840232Y-90428539D01*
X138899150Y-90480736D01*
X138989071Y-90527930D01*
X139049775Y-90559790D01*
X139214944Y-90600500D01*
X139385056Y-90600500D01*
X139550225Y-90559790D01*
X139629692Y-90518081D01*
X139700849Y-90480736D01*
X139700850Y-90480734D01*
X139700852Y-90480734D01*
X139828183Y-90367929D01*
X139924818Y-90227930D01*
X139943503Y-90178658D01*
X139985680Y-90122957D01*
X140051277Y-90098899D01*
X140119468Y-90114125D01*
X140141672Y-90129815D01*
X140199147Y-90180733D01*
X140199149Y-90180735D01*
X140349773Y-90259789D01*
X140349775Y-90259790D01*
X140514944Y-90300500D01*
X140685056Y-90300500D01*
X140850225Y-90259790D01*
X140929692Y-90218081D01*
X141000849Y-90180736D01*
X141000850Y-90180734D01*
X141000852Y-90180734D01*
X141128183Y-90067929D01*
X141224818Y-89927930D01*
X141285140Y-89768872D01*
X141305645Y-89600000D01*
X141285140Y-89431128D01*
X141280641Y-89419266D01*
X141234828Y-89298464D01*
X141224818Y-89272070D01*
X141216342Y-89259791D01*
X141175071Y-89200000D01*
X141128183Y-89132071D01*
X141014245Y-89031131D01*
X141000849Y-89019263D01*
X140850226Y-88940210D01*
X140685056Y-88899500D01*
X140514944Y-88899500D01*
X140508832Y-88899500D01*
X140441793Y-88879815D01*
X140406782Y-88845941D01*
X140328183Y-88732071D01*
X140239845Y-88653811D01*
X140200849Y-88619263D01*
X140050226Y-88540210D01*
X139885056Y-88499500D01*
X139714944Y-88499500D01*
X139549773Y-88540210D01*
X139399150Y-88619263D01*
X139285195Y-88720219D01*
X139272882Y-88731128D01*
X139271816Y-88732072D01*
X139175182Y-88872068D01*
X139114860Y-89031125D01*
X139114859Y-89031131D01*
X139100019Y-89153351D01*
X139072397Y-89217529D01*
X139034550Y-89248200D01*
X138899149Y-89319265D01*
X138899148Y-89319266D01*
X138772882Y-89431128D01*
X138771816Y-89432072D01*
X138675182Y-89572068D01*
X138614860Y-89731125D01*
X138614859Y-89731130D01*
X138594355Y-89900000D01*
X137291982Y-89900000D01*
X137214244Y-89831130D01*
X137200849Y-89819263D01*
X137050226Y-89740210D01*
X136885056Y-89699500D01*
X136714944Y-89699500D01*
X136549773Y-89740210D01*
X136399150Y-89819263D01*
X136271816Y-89932072D01*
X136175182Y-90072068D01*
X136114860Y-90231125D01*
X136114859Y-90231130D01*
X136094355Y-90400000D01*
X134675071Y-90400000D01*
X134724818Y-90327930D01*
X134785140Y-90168872D01*
X134805645Y-90000000D01*
X134785140Y-89831128D01*
X134780641Y-89819266D01*
X134735221Y-89699500D01*
X134724818Y-89672070D01*
X134628183Y-89532071D01*
X134514322Y-89431199D01*
X134500849Y-89419263D01*
X134350226Y-89340210D01*
X134185056Y-89299500D01*
X134014944Y-89299500D01*
X133849773Y-89340210D01*
X133699150Y-89419263D01*
X133617556Y-89491550D01*
X133572882Y-89531128D01*
X133571816Y-89532072D01*
X133475182Y-89672068D01*
X133414860Y-89831125D01*
X133414859Y-89831130D01*
X133394355Y-90000000D01*
X127935410Y-90000000D01*
X127985140Y-89868872D01*
X128005645Y-89700000D01*
X128005645Y-89699999D01*
X128005645Y-89692573D01*
X128025330Y-89625534D01*
X128078134Y-89579779D01*
X128099972Y-89572176D01*
X128150222Y-89559791D01*
X128150223Y-89559790D01*
X128150225Y-89559790D01*
X128300852Y-89480734D01*
X128428183Y-89367929D01*
X128524818Y-89227930D01*
X128585140Y-89068872D01*
X128605645Y-88900000D01*
X128585140Y-88731128D01*
X128574763Y-88703767D01*
X128573334Y-88700000D01*
X137194355Y-88700000D01*
X137214859Y-88868869D01*
X137214860Y-88868874D01*
X137275182Y-89027931D01*
X137337475Y-89118177D01*
X137371817Y-89167929D01*
X137444219Y-89232071D01*
X137499150Y-89280736D01*
X137649773Y-89359789D01*
X137649775Y-89359790D01*
X137814944Y-89400500D01*
X137985056Y-89400500D01*
X138150225Y-89359790D01*
X138267071Y-89298464D01*
X138300849Y-89280736D01*
X138300850Y-89280734D01*
X138300852Y-89280734D01*
X138428183Y-89167929D01*
X138524818Y-89027930D01*
X138585140Y-88868872D01*
X138605645Y-88700000D01*
X138585140Y-88531128D01*
X138524818Y-88372070D01*
X138428183Y-88232071D01*
X138314244Y-88131130D01*
X138300849Y-88119263D01*
X138150226Y-88040210D01*
X137985056Y-87999500D01*
X137814944Y-87999500D01*
X137649773Y-88040210D01*
X137499150Y-88119263D01*
X137371816Y-88232072D01*
X137275182Y-88372068D01*
X137214860Y-88531125D01*
X137214859Y-88531130D01*
X137194355Y-88700000D01*
X128573334Y-88700000D01*
X128555818Y-88653811D01*
X128524818Y-88572070D01*
X128518882Y-88563471D01*
X128452934Y-88467929D01*
X128428183Y-88432071D01*
X128300852Y-88319266D01*
X128300849Y-88319263D01*
X128150226Y-88240210D01*
X127985056Y-88199500D01*
X127814944Y-88199500D01*
X127649773Y-88240210D01*
X127499150Y-88319263D01*
X127439544Y-88372070D01*
X127372882Y-88431128D01*
X127371816Y-88432072D01*
X127275182Y-88572068D01*
X127214860Y-88731125D01*
X127214859Y-88731130D01*
X127194355Y-88900000D01*
X127194355Y-88907425D01*
X127174670Y-88974464D01*
X127121866Y-89020219D01*
X127100032Y-89027821D01*
X127049777Y-89040208D01*
X127049774Y-89040209D01*
X126899150Y-89119263D01*
X126808018Y-89200000D01*
X126772882Y-89231128D01*
X126771816Y-89232072D01*
X126675182Y-89372068D01*
X126614860Y-89531125D01*
X126614859Y-89531130D01*
X126594355Y-89700000D01*
X125993503Y-89700000D01*
X126005645Y-89600000D01*
X125985140Y-89431128D01*
X125980641Y-89419266D01*
X125934828Y-89298464D01*
X125924818Y-89272070D01*
X125916342Y-89259791D01*
X125875071Y-89200000D01*
X125828183Y-89132071D01*
X125714245Y-89031131D01*
X125700849Y-89019263D01*
X125550226Y-88940210D01*
X125385056Y-88899500D01*
X125214944Y-88899500D01*
X125049773Y-88940210D01*
X124899150Y-89019263D01*
X124771816Y-89132072D01*
X124675182Y-89272068D01*
X124675182Y-89272069D01*
X124614858Y-89431132D01*
X124614848Y-89431173D01*
X124614832Y-89431199D01*
X124612200Y-89438141D01*
X124611045Y-89437703D01*
X124579686Y-89491550D01*
X124524130Y-89521883D01*
X124449772Y-89540210D01*
X124299150Y-89619263D01*
X124239544Y-89672070D01*
X124172882Y-89731128D01*
X124171816Y-89732072D01*
X124075182Y-89872068D01*
X124075182Y-89872069D01*
X124014858Y-90031132D01*
X124014848Y-90031173D01*
X124014832Y-90031199D01*
X124012200Y-90038141D01*
X124011045Y-90037703D01*
X123979686Y-90091550D01*
X123924130Y-90121883D01*
X123849772Y-90140210D01*
X123699150Y-90219263D01*
X123571816Y-90332072D01*
X123475182Y-90472068D01*
X123475182Y-90472069D01*
X123418502Y-90621523D01*
X123376324Y-90677226D01*
X123323359Y-90698319D01*
X123323529Y-90699007D01*
X123318557Y-90700232D01*
X123317519Y-90700646D01*
X123316256Y-90700799D01*
X123151075Y-90741512D01*
X123000452Y-90820565D01*
X122873118Y-90933374D01*
X122776484Y-91073370D01*
X122716162Y-91232427D01*
X122716161Y-91232432D01*
X122708486Y-91295644D01*
X122680864Y-91359821D01*
X122622929Y-91398877D01*
X122615065Y-91401093D01*
X122451075Y-91441512D01*
X122300452Y-91520565D01*
X122173118Y-91633374D01*
X122076484Y-91773370D01*
X122016162Y-91932427D01*
X122016161Y-91932432D01*
X121995657Y-92101302D01*
X121390513Y-92101302D01*
X121428183Y-92067929D01*
X121524818Y-91927930D01*
X121585140Y-91768872D01*
X121605645Y-91600000D01*
X121585140Y-91431128D01*
X121524818Y-91272070D01*
X121521958Y-91267927D01*
X121475458Y-91200560D01*
X121428183Y-91132071D01*
X121300852Y-91019266D01*
X121300849Y-91019263D01*
X121150226Y-90940210D01*
X120985056Y-90899500D01*
X120814944Y-90899500D01*
X120649773Y-90940210D01*
X120499150Y-91019263D01*
X120371816Y-91132072D01*
X120275182Y-91272068D01*
X120214860Y-91431125D01*
X120214859Y-91431130D01*
X120194355Y-91600000D01*
X113903916Y-91600000D01*
X113949646Y-91551222D01*
X114019344Y-91422739D01*
X114051793Y-91280216D01*
X114044585Y-91134223D01*
X113998257Y-90995589D01*
X113951191Y-90923532D01*
X113951187Y-90923527D01*
X113951184Y-90923523D01*
X113552165Y-90447993D01*
X113552149Y-90447976D01*
X113501508Y-90400500D01*
X113489369Y-90389119D01*
X113489366Y-90389117D01*
X113489365Y-90389116D01*
X113360886Y-90319421D01*
X113218363Y-90286972D01*
X113218362Y-90286972D01*
X113210781Y-90287346D01*
X113072372Y-90294178D01*
X113072369Y-90294179D01*
X112933734Y-90340507D01*
X112861674Y-90387577D01*
X111773295Y-91300836D01*
X111714428Y-91363627D01*
X111644732Y-91492109D01*
X111644731Y-91492110D01*
X111612569Y-91633374D01*
X111612283Y-91634632D01*
X110775248Y-91634632D01*
X110495159Y-91300836D01*
X110420099Y-91211383D01*
X110420097Y-91211381D01*
X110297123Y-91112684D01*
X110157256Y-91039874D01*
X110157249Y-91039871D01*
X110005873Y-90995749D01*
X110005866Y-90995747D01*
X109848789Y-90982006D01*
X109848779Y-90982006D01*
X109692039Y-90999171D01*
X109692036Y-90999172D01*
X109541646Y-91046591D01*
X109403407Y-91122431D01*
X109403400Y-91122436D01*
X109282611Y-91223790D01*
X109282609Y-91223792D01*
X109183912Y-91346766D01*
X109183912Y-91346767D01*
X109111102Y-91486633D01*
X109111099Y-91486640D01*
X109066977Y-91638016D01*
X109066975Y-91638023D01*
X109053234Y-91795100D01*
X109053234Y-91795110D01*
X108025510Y-91795110D01*
X107777321Y-91520568D01*
X107700026Y-91435066D01*
X107697057Y-91431658D01*
X107696609Y-91431125D01*
X107005602Y-90608266D01*
X107002755Y-90604747D01*
X106341822Y-89756683D01*
X106339105Y-89753063D01*
X106084099Y-89400000D01*
X114094355Y-89400000D01*
X114114859Y-89568869D01*
X114114860Y-89568874D01*
X114175182Y-89727931D01*
X114237475Y-89818177D01*
X114271817Y-89867929D01*
X114339546Y-89927931D01*
X114399150Y-89980736D01*
X114549773Y-90059789D01*
X114549775Y-90059790D01*
X114714944Y-90100500D01*
X114885056Y-90100500D01*
X115050225Y-90059790D01*
X115164144Y-90000000D01*
X115200849Y-89980736D01*
X115200850Y-89980734D01*
X115200852Y-89980734D01*
X115328183Y-89867929D01*
X115424818Y-89727930D01*
X115485140Y-89568872D01*
X115505645Y-89400000D01*
X115505645Y-89399999D01*
X115505645Y-89392573D01*
X115525330Y-89325534D01*
X115578134Y-89279779D01*
X115599972Y-89272176D01*
X115650222Y-89259791D01*
X115650223Y-89259790D01*
X115650225Y-89259790D01*
X115800852Y-89180734D01*
X115928183Y-89067929D01*
X116024818Y-88927930D01*
X116085140Y-88768872D01*
X116105645Y-88600000D01*
X116085140Y-88431128D01*
X116024818Y-88272070D01*
X116002826Y-88240210D01*
X115953583Y-88168869D01*
X115928183Y-88132071D01*
X115800852Y-88019266D01*
X115800849Y-88019263D01*
X115764146Y-88000000D01*
X117394355Y-88000000D01*
X117414859Y-88168869D01*
X117414860Y-88168874D01*
X117475182Y-88327931D01*
X117537475Y-88418177D01*
X117571817Y-88467929D01*
X117653406Y-88540210D01*
X117699150Y-88580736D01*
X117849773Y-88659789D01*
X117849775Y-88659790D01*
X118014944Y-88700500D01*
X118185056Y-88700500D01*
X118350225Y-88659790D01*
X118500852Y-88580734D01*
X118501165Y-88580457D01*
X118501444Y-88580325D01*
X118507031Y-88576470D01*
X118507671Y-88577398D01*
X118564396Y-88550732D01*
X118633660Y-88559910D01*
X118641024Y-88563471D01*
X118747332Y-88619266D01*
X118775510Y-88634055D01*
X118940679Y-88674765D01*
X119110792Y-88674765D01*
X119110795Y-88674764D01*
X119112012Y-88674464D01*
X119195805Y-88653811D01*
X119265605Y-88656879D01*
X119322667Y-88697198D01*
X119327528Y-88703766D01*
X119371817Y-88767929D01*
X119429765Y-88819266D01*
X119499150Y-88880736D01*
X119649773Y-88959789D01*
X119649775Y-88959790D01*
X119814944Y-89000500D01*
X119985056Y-89000500D01*
X120150225Y-88959790D01*
X120299534Y-88881426D01*
X120300849Y-88880736D01*
X120300850Y-88880734D01*
X120300852Y-88880734D01*
X120428183Y-88767929D01*
X120524818Y-88627930D01*
X120585140Y-88468872D01*
X120605645Y-88300000D01*
X120585140Y-88131128D01*
X120580641Y-88119266D01*
X120524817Y-87972068D01*
X120474726Y-87899500D01*
X120428183Y-87832071D01*
X120300852Y-87719266D01*
X120300849Y-87719263D01*
X120150226Y-87640210D01*
X119985056Y-87599500D01*
X119814944Y-87599500D01*
X119814942Y-87599500D01*
X119729929Y-87620453D01*
X119660127Y-87617383D01*
X119603065Y-87577063D01*
X119598205Y-87570497D01*
X119553918Y-87506336D01*
X119426587Y-87393531D01*
X119419015Y-87389557D01*
X119371762Y-87364756D01*
X119321550Y-87316171D01*
X119305576Y-87248152D01*
X119328912Y-87182294D01*
X119384148Y-87139508D01*
X119399712Y-87134563D01*
X119500225Y-87109790D01*
X119586239Y-87064646D01*
X119650849Y-87030736D01*
X119650850Y-87030734D01*
X119650852Y-87030734D01*
X119778183Y-86917929D01*
X119874818Y-86777930D01*
X119935140Y-86618872D01*
X119955645Y-86450000D01*
X119935140Y-86281128D01*
X119874818Y-86122070D01*
X119874447Y-86121533D01*
X119812696Y-86032072D01*
X119778183Y-85982071D01*
X119650852Y-85869266D01*
X119650849Y-85869263D01*
X119500226Y-85790210D01*
X119335056Y-85749500D01*
X119215317Y-85749500D01*
X119148278Y-85729815D01*
X119102523Y-85677011D01*
X119092221Y-85610553D01*
X119092715Y-85606488D01*
X119105645Y-85500000D01*
X119085140Y-85331128D01*
X119080617Y-85319203D01*
X119024817Y-85172068D01*
X118961773Y-85080734D01*
X118928183Y-85032071D01*
X118800852Y-84919266D01*
X118800849Y-84919263D01*
X118650226Y-84840210D01*
X118485056Y-84799500D01*
X118314944Y-84799500D01*
X118149773Y-84840210D01*
X117999150Y-84919263D01*
X117871816Y-85032072D01*
X117775182Y-85172068D01*
X117714860Y-85331125D01*
X117714859Y-85331130D01*
X117694355Y-85500000D01*
X117714859Y-85668869D01*
X117714860Y-85668874D01*
X117775182Y-85827931D01*
X117837475Y-85918177D01*
X117871817Y-85967929D01*
X117944219Y-86032071D01*
X117999150Y-86080736D01*
X118149773Y-86159789D01*
X118149775Y-86159790D01*
X118314944Y-86200500D01*
X118434683Y-86200500D01*
X118501722Y-86220185D01*
X118547477Y-86272989D01*
X118557779Y-86339447D01*
X118544355Y-86450000D01*
X118564859Y-86618869D01*
X118564860Y-86618874D01*
X118625182Y-86777931D01*
X118674474Y-86849341D01*
X118721817Y-86917929D01*
X118849148Y-87030734D01*
X118849150Y-87030735D01*
X118903971Y-87059508D01*
X118954183Y-87108092D01*
X118970158Y-87176111D01*
X118946823Y-87241969D01*
X118891587Y-87284756D01*
X118876021Y-87289701D01*
X118775507Y-87314475D01*
X118624885Y-87393529D01*
X118624883Y-87393531D01*
X118624561Y-87393815D01*
X118624275Y-87393950D01*
X118618711Y-87397791D01*
X118618072Y-87396865D01*
X118561329Y-87423535D01*
X118492066Y-87414351D01*
X118484711Y-87410794D01*
X118350226Y-87340210D01*
X118185056Y-87299500D01*
X118014944Y-87299500D01*
X117849773Y-87340210D01*
X117699150Y-87419263D01*
X117571816Y-87532072D01*
X117475182Y-87672068D01*
X117414860Y-87831125D01*
X117414859Y-87831130D01*
X117394355Y-88000000D01*
X115764146Y-88000000D01*
X115650226Y-87940210D01*
X115485056Y-87899500D01*
X115314944Y-87899500D01*
X115149773Y-87940210D01*
X114999150Y-88019263D01*
X114886274Y-88119263D01*
X114872882Y-88131128D01*
X114871816Y-88132072D01*
X114775182Y-88272068D01*
X114714860Y-88431125D01*
X114714859Y-88431130D01*
X114694355Y-88600000D01*
X114694355Y-88607425D01*
X114674670Y-88674464D01*
X114621866Y-88720219D01*
X114600032Y-88727821D01*
X114549777Y-88740208D01*
X114549774Y-88740209D01*
X114399150Y-88819263D01*
X114271816Y-88932072D01*
X114175182Y-89072068D01*
X114114860Y-89231125D01*
X114114859Y-89231130D01*
X114094355Y-89400000D01*
X106084099Y-89400000D01*
X105743139Y-88927931D01*
X105709543Y-88881416D01*
X105706967Y-88877709D01*
X105703199Y-88872070D01*
X105109633Y-87983663D01*
X105107190Y-87979857D01*
X104898597Y-87641539D01*
X104542901Y-87064634D01*
X104540603Y-87060750D01*
X104010073Y-86125509D01*
X104007912Y-86121533D01*
X103998919Y-86104237D01*
X103923005Y-85958242D01*
X106849226Y-85958242D01*
X106856433Y-86104231D01*
X106856434Y-86104239D01*
X106895181Y-86220185D01*
X106902762Y-86242871D01*
X106922688Y-86273376D01*
X106949829Y-86314929D01*
X106949834Y-86314936D01*
X107348853Y-86790466D01*
X107348869Y-86790483D01*
X107362662Y-86803414D01*
X107411650Y-86849341D01*
X107411652Y-86849342D01*
X107411653Y-86849343D01*
X107448679Y-86869428D01*
X107540133Y-86919039D01*
X107682657Y-86951488D01*
X107828649Y-86944281D01*
X107967284Y-86897953D01*
X108039340Y-86850886D01*
X108457509Y-86500000D01*
X114894355Y-86500000D01*
X114914859Y-86668869D01*
X114914860Y-86668874D01*
X114975182Y-86827931D01*
X114991027Y-86850886D01*
X115071817Y-86967929D01*
X115175189Y-87059508D01*
X115199150Y-87080736D01*
X115349773Y-87159789D01*
X115349775Y-87159790D01*
X115514944Y-87200500D01*
X115685056Y-87200500D01*
X115850225Y-87159790D01*
X115948726Y-87108092D01*
X116000849Y-87080736D01*
X116000850Y-87080734D01*
X116000852Y-87080734D01*
X116128183Y-86967929D01*
X116224818Y-86827930D01*
X116285140Y-86668872D01*
X116305645Y-86500000D01*
X116285140Y-86331128D01*
X116266178Y-86281130D01*
X116224817Y-86172068D01*
X116161773Y-86080734D01*
X116128183Y-86032071D01*
X116014244Y-85931130D01*
X116000849Y-85919263D01*
X115850226Y-85840210D01*
X115685056Y-85799500D01*
X115514944Y-85799500D01*
X115349773Y-85840210D01*
X115199150Y-85919263D01*
X115071816Y-86032072D01*
X114975182Y-86172068D01*
X114914860Y-86331125D01*
X114914859Y-86331130D01*
X114894355Y-86500000D01*
X108457509Y-86500000D01*
X109127724Y-85937623D01*
X109186589Y-85874834D01*
X109256287Y-85746351D01*
X109288736Y-85603828D01*
X109281528Y-85457835D01*
X109235200Y-85319201D01*
X109188134Y-85247144D01*
X109188130Y-85247139D01*
X109188127Y-85247135D01*
X108789108Y-84771605D01*
X108789092Y-84771588D01*
X108766267Y-84750190D01*
X108726312Y-84712731D01*
X108726309Y-84712729D01*
X108726308Y-84712728D01*
X108597829Y-84643033D01*
X108455306Y-84610584D01*
X108455305Y-84610584D01*
X108447724Y-84610958D01*
X108309315Y-84617790D01*
X108309312Y-84617791D01*
X108170677Y-84664119D01*
X108098617Y-84711189D01*
X107010238Y-85624448D01*
X106951371Y-85687239D01*
X106881675Y-85815721D01*
X106881674Y-85815722D01*
X106849226Y-85958242D01*
X103923005Y-85958242D01*
X103511874Y-85167565D01*
X103509879Y-85163551D01*
X103508094Y-85159789D01*
X103048984Y-84192108D01*
X103047119Y-84187984D01*
X102879890Y-83799500D01*
X102621981Y-83200362D01*
X102620288Y-83196221D01*
X102231482Y-82193755D01*
X102229926Y-82189515D01*
X102220345Y-82161859D01*
X102129632Y-81900000D01*
X116194355Y-81900000D01*
X116214859Y-82068869D01*
X116214860Y-82068874D01*
X116275182Y-82227931D01*
X116290559Y-82250208D01*
X116371817Y-82367929D01*
X116468894Y-82453931D01*
X116499150Y-82480736D01*
X116649773Y-82559789D01*
X116649775Y-82559790D01*
X116814944Y-82600500D01*
X116985056Y-82600500D01*
X117150225Y-82559790D01*
X117265097Y-82499500D01*
X117300849Y-82480736D01*
X117300850Y-82480734D01*
X117300852Y-82480734D01*
X117428183Y-82367929D01*
X117524818Y-82227930D01*
X117585140Y-82068872D01*
X117605645Y-81900000D01*
X117585140Y-81731128D01*
X117580641Y-81719266D01*
X117524817Y-81572068D01*
X117475071Y-81500000D01*
X117428183Y-81432071D01*
X117391982Y-81400000D01*
X117794355Y-81400000D01*
X117814859Y-81568869D01*
X117814860Y-81568874D01*
X117875182Y-81727931D01*
X117913247Y-81783076D01*
X117971817Y-81867929D01*
X118099148Y-81980734D01*
X118249775Y-82059790D01*
X118286611Y-82068869D01*
X118324128Y-82078116D01*
X118384509Y-82113272D01*
X118411240Y-82162222D01*
X118412200Y-82161859D01*
X118414831Y-82168798D01*
X118414849Y-82168830D01*
X118414858Y-82168869D01*
X118475182Y-82327930D01*
X118475182Y-82327931D01*
X118541885Y-82424566D01*
X118571762Y-82467850D01*
X118571818Y-82467930D01*
X118696558Y-82578440D01*
X118733685Y-82637629D01*
X118732917Y-82707494D01*
X118694500Y-82765854D01*
X118671958Y-82781051D01*
X118599149Y-82819265D01*
X118471816Y-82932072D01*
X118375182Y-83072068D01*
X118314860Y-83231125D01*
X118314859Y-83231130D01*
X118294355Y-83400000D01*
X118314859Y-83568869D01*
X118314860Y-83568874D01*
X118375182Y-83727931D01*
X118437475Y-83818177D01*
X118471817Y-83867929D01*
X118529765Y-83919266D01*
X118599150Y-83980736D01*
X118696961Y-84032071D01*
X118749775Y-84059790D01*
X118914944Y-84100500D01*
X119085056Y-84100500D01*
X119250225Y-84059790D01*
X119329692Y-84018081D01*
X119400849Y-83980736D01*
X119400850Y-83980734D01*
X119400852Y-83980734D01*
X119528183Y-83867929D01*
X119624818Y-83727930D01*
X119685140Y-83568872D01*
X119705645Y-83400000D01*
X119685140Y-83231128D01*
X119672695Y-83198314D01*
X119624817Y-83072068D01*
X119547315Y-82959789D01*
X119528183Y-82932071D01*
X119470238Y-82880736D01*
X119403441Y-82821559D01*
X119366314Y-82762370D01*
X119367082Y-82692505D01*
X119405499Y-82634145D01*
X119428034Y-82618951D01*
X119500852Y-82580734D01*
X119628183Y-82467929D01*
X119724818Y-82327930D01*
X119735410Y-82300000D01*
X120194355Y-82300000D01*
X120214859Y-82468869D01*
X120214860Y-82468874D01*
X120275182Y-82627931D01*
X120325274Y-82700500D01*
X120371817Y-82767929D01*
X120477505Y-82861560D01*
X120499150Y-82880736D01*
X120596961Y-82932071D01*
X120649775Y-82959790D01*
X120814944Y-83000500D01*
X120985056Y-83000500D01*
X121150225Y-82959790D01*
X121229692Y-82918081D01*
X121300849Y-82880736D01*
X121300850Y-82880734D01*
X121300852Y-82880734D01*
X121428183Y-82767929D01*
X121524818Y-82627930D01*
X121585140Y-82468872D01*
X121585140Y-82468869D01*
X121586848Y-82461942D01*
X121622003Y-82401561D01*
X121684222Y-82369772D01*
X121753751Y-82376667D01*
X121764863Y-82381816D01*
X121802484Y-82401561D01*
X121824700Y-82413221D01*
X121989869Y-82453931D01*
X122158811Y-82453931D01*
X122225850Y-82473616D01*
X122271605Y-82526420D01*
X122281549Y-82595578D01*
X122252524Y-82659134D01*
X122241038Y-82670746D01*
X122171818Y-82732069D01*
X122075182Y-82872068D01*
X122014860Y-83031125D01*
X122014859Y-83031130D01*
X121994355Y-83200000D01*
X122014859Y-83368869D01*
X122014860Y-83368874D01*
X122075182Y-83527931D01*
X122137475Y-83618177D01*
X122171817Y-83667929D01*
X122239546Y-83727931D01*
X122299150Y-83780736D01*
X122449773Y-83859789D01*
X122449775Y-83859790D01*
X122614944Y-83900500D01*
X122785056Y-83900500D01*
X122950225Y-83859790D01*
X123021555Y-83822352D01*
X123090061Y-83808627D01*
X123155115Y-83834119D01*
X123196059Y-83890734D01*
X123203180Y-83932149D01*
X123203180Y-84359885D01*
X123183495Y-84426924D01*
X123161408Y-84452700D01*
X123071816Y-84532071D01*
X122975182Y-84672068D01*
X122914860Y-84831125D01*
X122914859Y-84831130D01*
X122894355Y-85000000D01*
X122914859Y-85168869D01*
X122914860Y-85168874D01*
X122975182Y-85327931D01*
X123037475Y-85418177D01*
X123071817Y-85467929D01*
X123161407Y-85547299D01*
X123198534Y-85606488D01*
X123203180Y-85640114D01*
X123203180Y-86229405D01*
X123183495Y-86296444D01*
X123130691Y-86342199D01*
X123061533Y-86352143D01*
X122997977Y-86323118D01*
X122963238Y-86273376D01*
X122935600Y-86200500D01*
X122924818Y-86172070D01*
X122828183Y-86032071D01*
X122714244Y-85931130D01*
X122700849Y-85919263D01*
X122550226Y-85840210D01*
X122385056Y-85799500D01*
X122214944Y-85799500D01*
X122049773Y-85840210D01*
X121899150Y-85919263D01*
X121771816Y-86032072D01*
X121675182Y-86172068D01*
X121614860Y-86331125D01*
X121614859Y-86331130D01*
X121594355Y-86500000D01*
X121614859Y-86668869D01*
X121614860Y-86668874D01*
X121675182Y-86827931D01*
X121691027Y-86850886D01*
X121771817Y-86967929D01*
X121875189Y-87059508D01*
X121899150Y-87080736D01*
X122049773Y-87159789D01*
X122049775Y-87159790D01*
X122214944Y-87200500D01*
X122385056Y-87200500D01*
X122550225Y-87159790D01*
X122648726Y-87108092D01*
X122700849Y-87080736D01*
X122700850Y-87080734D01*
X122700852Y-87080734D01*
X122828183Y-86967929D01*
X122924818Y-86827930D01*
X122985140Y-86668872D01*
X122995253Y-86585583D01*
X123022875Y-86521406D01*
X123080809Y-86482350D01*
X123150662Y-86480815D01*
X123201104Y-86510000D01*
X123203180Y-86510000D01*
X127803180Y-86510000D01*
X127803180Y-86100000D01*
X133994355Y-86100000D01*
X134014859Y-86268869D01*
X134014860Y-86268874D01*
X134075182Y-86427931D01*
X134124929Y-86500000D01*
X134171817Y-86567929D01*
X134277505Y-86661560D01*
X134299150Y-86680736D01*
X134437958Y-86753588D01*
X134449775Y-86759790D01*
X134614944Y-86800500D01*
X134785056Y-86800500D01*
X134950225Y-86759790D01*
X135061271Y-86701508D01*
X135100849Y-86680736D01*
X135100850Y-86680734D01*
X135100852Y-86680734D01*
X135228183Y-86567929D01*
X135324818Y-86427930D01*
X135385140Y-86268872D01*
X135405645Y-86100000D01*
X135385140Y-85931128D01*
X135380641Y-85919266D01*
X135335221Y-85799500D01*
X135324818Y-85772070D01*
X135307065Y-85746351D01*
X135253583Y-85668869D01*
X135228183Y-85632071D01*
X135100852Y-85519266D01*
X135100849Y-85519263D01*
X134950226Y-85440210D01*
X134785056Y-85399500D01*
X134614944Y-85399500D01*
X134449773Y-85440210D01*
X134299150Y-85519263D01*
X134200694Y-85606488D01*
X134180421Y-85624449D01*
X134171816Y-85632072D01*
X134075182Y-85772068D01*
X134014860Y-85931125D01*
X134014859Y-85931130D01*
X133994355Y-86100000D01*
X127803180Y-86100000D01*
X127803180Y-84500000D01*
X131594355Y-84500000D01*
X131614859Y-84668869D01*
X131614860Y-84668874D01*
X131675182Y-84827931D01*
X131683658Y-84840210D01*
X131771817Y-84967929D01*
X131844219Y-85032071D01*
X131899150Y-85080736D01*
X132049773Y-85159789D01*
X132049775Y-85159790D01*
X132214944Y-85200500D01*
X132385056Y-85200500D01*
X132550225Y-85159790D01*
X132629692Y-85118081D01*
X132700849Y-85080736D01*
X132700850Y-85080734D01*
X132700852Y-85080734D01*
X132828183Y-84967929D01*
X132924818Y-84827930D01*
X132985140Y-84668872D01*
X133005645Y-84500000D01*
X132985140Y-84331128D01*
X132924818Y-84172070D01*
X132828183Y-84032071D01*
X132700852Y-83919266D01*
X132700849Y-83919263D01*
X132550226Y-83840210D01*
X132385056Y-83799500D01*
X132214944Y-83799500D01*
X132049773Y-83840210D01*
X131899150Y-83919263D01*
X131771816Y-84032072D01*
X131675182Y-84172068D01*
X131614860Y-84331125D01*
X131614859Y-84331130D01*
X131594355Y-84500000D01*
X127803180Y-84500000D01*
X127803180Y-82310000D01*
X125144711Y-82310000D01*
X125087085Y-82295796D01*
X125000224Y-82250207D01*
X125000225Y-82250207D01*
X124835056Y-82209498D01*
X124664944Y-82209498D01*
X124499775Y-82250207D01*
X124412915Y-82295796D01*
X124355289Y-82310000D01*
X123203180Y-82310000D01*
X123203180Y-82467850D01*
X123183495Y-82534889D01*
X123130691Y-82580644D01*
X123061533Y-82590588D01*
X123021554Y-82577646D01*
X122950226Y-82540210D01*
X122785056Y-82499500D01*
X122616114Y-82499500D01*
X122549075Y-82479815D01*
X122503320Y-82427011D01*
X122493376Y-82357853D01*
X122522401Y-82294297D01*
X122533887Y-82282685D01*
X122570546Y-82250207D01*
X122603108Y-82221360D01*
X122699743Y-82081361D01*
X122760065Y-81922303D01*
X122780570Y-81753431D01*
X122760065Y-81584559D01*
X122727996Y-81500000D01*
X132294355Y-81500000D01*
X132314859Y-81668869D01*
X132314860Y-81668874D01*
X132375182Y-81827931D01*
X132424929Y-81900000D01*
X132471817Y-81967929D01*
X132575507Y-82059790D01*
X132599150Y-82080736D01*
X132749773Y-82159789D01*
X132749775Y-82159790D01*
X132914944Y-82200500D01*
X133085056Y-82200500D01*
X133250225Y-82159790D01*
X133367252Y-82098369D01*
X133400849Y-82080736D01*
X133400850Y-82080734D01*
X133400852Y-82080734D01*
X133528183Y-81967929D01*
X133575071Y-81900000D01*
X136594355Y-81900000D01*
X136614859Y-82068869D01*
X136614860Y-82068874D01*
X136675182Y-82227931D01*
X136690559Y-82250208D01*
X136771817Y-82367929D01*
X136868894Y-82453931D01*
X136899150Y-82480736D01*
X137049773Y-82559789D01*
X137049775Y-82559790D01*
X137214944Y-82600500D01*
X137385056Y-82600500D01*
X137550225Y-82559790D01*
X137665097Y-82499500D01*
X137700849Y-82480736D01*
X137700850Y-82480734D01*
X137700852Y-82480734D01*
X137828183Y-82367929D01*
X137924818Y-82227930D01*
X137985140Y-82068872D01*
X138005645Y-81900000D01*
X137985140Y-81731128D01*
X137980641Y-81719266D01*
X137924817Y-81572068D01*
X137875071Y-81500000D01*
X137828183Y-81432071D01*
X137714244Y-81331130D01*
X137700849Y-81319263D01*
X137550226Y-81240210D01*
X137385056Y-81199500D01*
X137214944Y-81199500D01*
X137049773Y-81240210D01*
X136899150Y-81319263D01*
X136771816Y-81432072D01*
X136675182Y-81572068D01*
X136614860Y-81731125D01*
X136614859Y-81731130D01*
X136594355Y-81900000D01*
X133575071Y-81900000D01*
X133624818Y-81827930D01*
X133685140Y-81668872D01*
X133705645Y-81500000D01*
X133685140Y-81331128D01*
X133680641Y-81319266D01*
X133635221Y-81199500D01*
X133624818Y-81172070D01*
X133528183Y-81032071D01*
X133428392Y-80943664D01*
X133400849Y-80919263D01*
X133250226Y-80840210D01*
X133085056Y-80799500D01*
X132914944Y-80799500D01*
X132749773Y-80840210D01*
X132599150Y-80919263D01*
X132471816Y-81032072D01*
X132375182Y-81172068D01*
X132314860Y-81331125D01*
X132314859Y-81331130D01*
X132294355Y-81500000D01*
X122727996Y-81500000D01*
X122699743Y-81425501D01*
X122695439Y-81419266D01*
X122634603Y-81331130D01*
X122603108Y-81285502D01*
X122475777Y-81172697D01*
X122475774Y-81172694D01*
X122325151Y-81093641D01*
X122159981Y-81052931D01*
X122077998Y-81052931D01*
X122010959Y-81033246D01*
X121965204Y-80980442D01*
X121954902Y-80943878D01*
X121939770Y-80819263D01*
X121935140Y-80781128D01*
X121874818Y-80622070D01*
X121778183Y-80482071D01*
X121656100Y-80373915D01*
X122320440Y-80373915D01*
X122340944Y-80542784D01*
X122340945Y-80542789D01*
X122401267Y-80701846D01*
X122463560Y-80792092D01*
X122497902Y-80841844D01*
X122585294Y-80919266D01*
X122625235Y-80954651D01*
X122774985Y-81033246D01*
X122775860Y-81033705D01*
X122941029Y-81074415D01*
X123111141Y-81074415D01*
X123276310Y-81033705D01*
X123417144Y-80959789D01*
X123426934Y-80954651D01*
X123426935Y-80954649D01*
X123426937Y-80954649D01*
X123554268Y-80841844D01*
X123650903Y-80701845D01*
X123711225Y-80542787D01*
X123724458Y-80433800D01*
X123752080Y-80369624D01*
X123789928Y-80338952D01*
X123795135Y-80336219D01*
X123900852Y-80280734D01*
X124028183Y-80167929D01*
X124124818Y-80027930D01*
X124185140Y-79868872D01*
X124205645Y-79700000D01*
X124185140Y-79531128D01*
X124173524Y-79500500D01*
X124135600Y-79400500D01*
X124124818Y-79372070D01*
X124028183Y-79232071D01*
X123900852Y-79119266D01*
X123900849Y-79119263D01*
X123750226Y-79040210D01*
X123585056Y-78999500D01*
X123414944Y-78999500D01*
X123249773Y-79040210D01*
X123099150Y-79119263D01*
X122971816Y-79232072D01*
X122875182Y-79372068D01*
X122814860Y-79531125D01*
X122814859Y-79531131D01*
X122801626Y-79640113D01*
X122774004Y-79704291D01*
X122736157Y-79734962D01*
X122625234Y-79793180D01*
X122497901Y-79905987D01*
X122401267Y-80045983D01*
X122340945Y-80205040D01*
X122340944Y-80205045D01*
X122320440Y-80373915D01*
X121656100Y-80373915D01*
X121650852Y-80369266D01*
X121650849Y-80369263D01*
X121500226Y-80290210D01*
X121335056Y-80249500D01*
X121164944Y-80249500D01*
X120999773Y-80290210D01*
X120849150Y-80369263D01*
X120721816Y-80482072D01*
X120625182Y-80622068D01*
X120564860Y-80781125D01*
X120564859Y-80781130D01*
X120544355Y-80950000D01*
X120564859Y-81118869D01*
X120564860Y-81118874D01*
X120625182Y-81277931D01*
X120668171Y-81340210D01*
X120721817Y-81417929D01*
X120725579Y-81421262D01*
X120762708Y-81480447D01*
X120761944Y-81550313D01*
X120723530Y-81608675D01*
X120673034Y-81634476D01*
X120649775Y-81640209D01*
X120649774Y-81640209D01*
X120499150Y-81719263D01*
X120427121Y-81783076D01*
X120372882Y-81831128D01*
X120371816Y-81832072D01*
X120275182Y-81972068D01*
X120214860Y-82131125D01*
X120214859Y-82131130D01*
X120194355Y-82300000D01*
X119735410Y-82300000D01*
X119785140Y-82168872D01*
X119805645Y-82000000D01*
X119785140Y-81831128D01*
X119773524Y-81800500D01*
X119742716Y-81719263D01*
X119724818Y-81672070D01*
X119722608Y-81668869D01*
X119664411Y-81584556D01*
X119628183Y-81532071D01*
X119500852Y-81419266D01*
X119500849Y-81419263D01*
X119350226Y-81340210D01*
X119275870Y-81321883D01*
X119215489Y-81286727D01*
X119188760Y-81237777D01*
X119187800Y-81238142D01*
X119185162Y-81231187D01*
X119185148Y-81231161D01*
X119185140Y-81231130D01*
X119185140Y-81231128D01*
X119124818Y-81072070D01*
X119119801Y-81064802D01*
X119047315Y-80959789D01*
X119028183Y-80932071D01*
X118924493Y-80840210D01*
X118900849Y-80819263D01*
X118750226Y-80740210D01*
X118585056Y-80699500D01*
X118414944Y-80699500D01*
X118249773Y-80740210D01*
X118099150Y-80819263D01*
X118029762Y-80880736D01*
X117972882Y-80931128D01*
X117971816Y-80932072D01*
X117875182Y-81072068D01*
X117814860Y-81231125D01*
X117814859Y-81231130D01*
X117794355Y-81400000D01*
X117391982Y-81400000D01*
X117314244Y-81331130D01*
X117300849Y-81319263D01*
X117150226Y-81240210D01*
X116985056Y-81199500D01*
X116814944Y-81199500D01*
X116649773Y-81240210D01*
X116499150Y-81319263D01*
X116371816Y-81432072D01*
X116275182Y-81572068D01*
X116214860Y-81731125D01*
X116214859Y-81731130D01*
X116194355Y-81900000D01*
X102129632Y-81900000D01*
X101877958Y-81173503D01*
X101876558Y-81169207D01*
X101842057Y-81056471D01*
X101664335Y-80475735D01*
X107718620Y-80475735D01*
X107739124Y-80644604D01*
X107739125Y-80644609D01*
X107799447Y-80803666D01*
X107825800Y-80841844D01*
X107896082Y-80943664D01*
X107960237Y-81000500D01*
X108023415Y-81056471D01*
X108174038Y-81135524D01*
X108174040Y-81135525D01*
X108339209Y-81176235D01*
X108509321Y-81176235D01*
X108674490Y-81135525D01*
X108742176Y-81100000D01*
X109794355Y-81100000D01*
X109814859Y-81268869D01*
X109814860Y-81268874D01*
X109875182Y-81427931D01*
X109911432Y-81480447D01*
X109971817Y-81567929D01*
X110051620Y-81638628D01*
X110099150Y-81680736D01*
X110237659Y-81753431D01*
X110249775Y-81759790D01*
X110414944Y-81800500D01*
X110585056Y-81800500D01*
X110750225Y-81759790D01*
X110829692Y-81718081D01*
X110900849Y-81680736D01*
X110900850Y-81680734D01*
X110900852Y-81680734D01*
X111028183Y-81567929D01*
X111124818Y-81427930D01*
X111185140Y-81268872D01*
X111205645Y-81100000D01*
X111185140Y-80931128D01*
X111180641Y-80919266D01*
X111150660Y-80840210D01*
X111124818Y-80772070D01*
X111121958Y-80767927D01*
X111089130Y-80720368D01*
X111028183Y-80632071D01*
X110927402Y-80542787D01*
X110900849Y-80519263D01*
X110750226Y-80440210D01*
X110585056Y-80399500D01*
X110414944Y-80399500D01*
X110249773Y-80440210D01*
X110099150Y-80519263D01*
X109971816Y-80632072D01*
X109875182Y-80772068D01*
X109814860Y-80931125D01*
X109814859Y-80931130D01*
X109794355Y-81100000D01*
X108742176Y-81100000D01*
X108754292Y-81093641D01*
X108825114Y-81056471D01*
X108825115Y-81056469D01*
X108825117Y-81056469D01*
X108952448Y-80943664D01*
X109049083Y-80803665D01*
X109109405Y-80644607D01*
X109129910Y-80475735D01*
X109109405Y-80306863D01*
X109103089Y-80290210D01*
X109049082Y-80147803D01*
X108978801Y-80045985D01*
X108952448Y-80007806D01*
X108825117Y-79895001D01*
X108825114Y-79894998D01*
X108674491Y-79815945D01*
X108509321Y-79775235D01*
X108339209Y-79775235D01*
X108174038Y-79815945D01*
X108023415Y-79894998D01*
X107896081Y-80007807D01*
X107799447Y-80147803D01*
X107739125Y-80306860D01*
X107739124Y-80306865D01*
X107718620Y-80475735D01*
X101664335Y-80475735D01*
X101561918Y-80141071D01*
X101560674Y-80136722D01*
X101466799Y-79784512D01*
X101283763Y-79097777D01*
X101282681Y-79093399D01*
X101263581Y-79009553D01*
X101086477Y-78232071D01*
X101079171Y-78200000D01*
X109094355Y-78200000D01*
X109114859Y-78368869D01*
X109114860Y-78368874D01*
X109175182Y-78527931D01*
X109225274Y-78600500D01*
X109271817Y-78667929D01*
X109375506Y-78759789D01*
X109399150Y-78780736D01*
X109495172Y-78831132D01*
X109549775Y-78859790D01*
X109714944Y-78900500D01*
X109885056Y-78900500D01*
X110050225Y-78859790D01*
X110200852Y-78780734D01*
X110317774Y-78677150D01*
X110381006Y-78647429D01*
X110450269Y-78656613D01*
X110482225Y-78677149D01*
X110508018Y-78700000D01*
X110599147Y-78780733D01*
X110599149Y-78780735D01*
X110695172Y-78831132D01*
X110749775Y-78859790D01*
X110914944Y-78900500D01*
X111085056Y-78900500D01*
X111250225Y-78859790D01*
X111329692Y-78818081D01*
X111400849Y-78780736D01*
X111400850Y-78780734D01*
X111400852Y-78780734D01*
X111528183Y-78667929D01*
X111624818Y-78527930D01*
X111685140Y-78368872D01*
X111705645Y-78200000D01*
X111685140Y-78031128D01*
X111673524Y-78000500D01*
X111647214Y-77931125D01*
X111635410Y-77900000D01*
X113869355Y-77900000D01*
X113889859Y-78068869D01*
X113889860Y-78068874D01*
X113950182Y-78227931D01*
X114012475Y-78318177D01*
X114046817Y-78367929D01*
X114114546Y-78427931D01*
X114174150Y-78480736D01*
X114271961Y-78532071D01*
X114324775Y-78559790D01*
X114489944Y-78600500D01*
X114660056Y-78600500D01*
X114825225Y-78559790D01*
X114835720Y-78554281D01*
X114904226Y-78540553D01*
X114969280Y-78566041D01*
X114975576Y-78571259D01*
X115043156Y-78631130D01*
X115099147Y-78680733D01*
X115099149Y-78680735D01*
X115249773Y-78759789D01*
X115249775Y-78759790D01*
X115414944Y-78800500D01*
X115585056Y-78800500D01*
X115750225Y-78759790D01*
X115864144Y-78700000D01*
X115900849Y-78680736D01*
X115900850Y-78680734D01*
X115900852Y-78680734D01*
X116028183Y-78567929D01*
X116124818Y-78427930D01*
X116185140Y-78268872D01*
X116205645Y-78100000D01*
X116185140Y-77931128D01*
X116124818Y-77772070D01*
X116121958Y-77767927D01*
X116061561Y-77680427D01*
X116028183Y-77632071D01*
X115933316Y-77548026D01*
X115900849Y-77519263D01*
X115750226Y-77440210D01*
X115585056Y-77399500D01*
X115414944Y-77399500D01*
X115249774Y-77440209D01*
X115249774Y-77440210D01*
X115239269Y-77445723D01*
X115170760Y-77459444D01*
X115105708Y-77433948D01*
X115099424Y-77428739D01*
X114975852Y-77319266D01*
X114975850Y-77319264D01*
X114939146Y-77300000D01*
X121794355Y-77300000D01*
X121814859Y-77468869D01*
X121814860Y-77468874D01*
X121875182Y-77627931D01*
X121937475Y-77718177D01*
X121971817Y-77767929D01*
X122077505Y-77861560D01*
X122099150Y-77880736D01*
X122249773Y-77959789D01*
X122249775Y-77959790D01*
X122414944Y-78000500D01*
X122585056Y-78000500D01*
X122750225Y-77959790D01*
X122864144Y-77900000D01*
X122900849Y-77880736D01*
X122900850Y-77880734D01*
X122900852Y-77880734D01*
X123028183Y-77767929D01*
X123124818Y-77627930D01*
X123185140Y-77468872D01*
X123205645Y-77300000D01*
X123195020Y-77212500D01*
X123606855Y-77212500D01*
X123627359Y-77381369D01*
X123627360Y-77381374D01*
X123687682Y-77540431D01*
X123722195Y-77590431D01*
X123784317Y-77680429D01*
X123887756Y-77772068D01*
X123911650Y-77793236D01*
X124049225Y-77865441D01*
X124062275Y-77872290D01*
X124227444Y-77913000D01*
X124397556Y-77913000D01*
X124562725Y-77872290D01*
X124642192Y-77830581D01*
X124713349Y-77793236D01*
X124713350Y-77793234D01*
X124713352Y-77793234D01*
X124840683Y-77680429D01*
X124937318Y-77540430D01*
X124997640Y-77381372D01*
X125012074Y-77262500D01*
X126556855Y-77262500D01*
X126577359Y-77431369D01*
X126577360Y-77431374D01*
X126637682Y-77590431D01*
X126699804Y-77680429D01*
X126734317Y-77730429D01*
X126741044Y-77736389D01*
X126778172Y-77795576D01*
X126777408Y-77865441D01*
X126774762Y-77873176D01*
X126714861Y-78031122D01*
X126714859Y-78031130D01*
X126694355Y-78200000D01*
X126714859Y-78368869D01*
X126714860Y-78368874D01*
X126775182Y-78527931D01*
X126825274Y-78600500D01*
X126871817Y-78667929D01*
X126975506Y-78759789D01*
X126999150Y-78780736D01*
X127095172Y-78831132D01*
X127149775Y-78859790D01*
X127314944Y-78900500D01*
X127472419Y-78900500D01*
X127539458Y-78920185D01*
X127585213Y-78972989D01*
X127595515Y-79009553D01*
X127614859Y-79168869D01*
X127614860Y-79168874D01*
X127675182Y-79327931D01*
X127725274Y-79400500D01*
X127766198Y-79459789D01*
X127771818Y-79467930D01*
X127846209Y-79533835D01*
X127883336Y-79593024D01*
X127882568Y-79662890D01*
X127846210Y-79719465D01*
X127772787Y-79784512D01*
X127676153Y-79924509D01*
X127615831Y-80083566D01*
X127615830Y-80083571D01*
X127595326Y-80252441D01*
X127615830Y-80421310D01*
X127615831Y-80421315D01*
X127676153Y-80580372D01*
X127738446Y-80670618D01*
X127772788Y-80720370D01*
X127862108Y-80799500D01*
X127900121Y-80833177D01*
X128050744Y-80912230D01*
X128050746Y-80912231D01*
X128215915Y-80952941D01*
X128386027Y-80952941D01*
X128551196Y-80912231D01*
X128685310Y-80841842D01*
X128701820Y-80833177D01*
X128701821Y-80833175D01*
X128701823Y-80833175D01*
X128829154Y-80720370D01*
X128925789Y-80580371D01*
X128973820Y-80453719D01*
X129015997Y-80398018D01*
X129060087Y-80377294D01*
X129061568Y-80376929D01*
X129061571Y-80376929D01*
X129209309Y-80340515D01*
X129279109Y-80343584D01*
X129336171Y-80383904D01*
X129362078Y-80445963D01*
X129364859Y-80468869D01*
X129364860Y-80468874D01*
X129425182Y-80627931D01*
X129476202Y-80701845D01*
X129521817Y-80767929D01*
X129579765Y-80819266D01*
X129649150Y-80880736D01*
X129799773Y-80959789D01*
X129799775Y-80959790D01*
X129964944Y-81000500D01*
X130135056Y-81000500D01*
X130300225Y-80959790D01*
X130390842Y-80912230D01*
X130450849Y-80880736D01*
X130450850Y-80880734D01*
X130450852Y-80880734D01*
X130578183Y-80767929D01*
X130674818Y-80627930D01*
X130735140Y-80468872D01*
X130755645Y-80300000D01*
X130735140Y-80131128D01*
X130674818Y-79972070D01*
X130578183Y-79832071D01*
X130452431Y-79720664D01*
X130439469Y-79700000D01*
X136594355Y-79700000D01*
X136614859Y-79868869D01*
X136614860Y-79868874D01*
X136675182Y-80027931D01*
X136713585Y-80083566D01*
X136771817Y-80167929D01*
X136863892Y-80249500D01*
X136899150Y-80280736D01*
X137018897Y-80343584D01*
X137049775Y-80359790D01*
X137214944Y-80400500D01*
X137385056Y-80400500D01*
X137550225Y-80359790D01*
X137664144Y-80300000D01*
X137700849Y-80280736D01*
X137700850Y-80280734D01*
X137700852Y-80280734D01*
X137828183Y-80167929D01*
X137924818Y-80027930D01*
X137985140Y-79868872D01*
X138005645Y-79700000D01*
X137985140Y-79531128D01*
X137973524Y-79500500D01*
X137935600Y-79400500D01*
X137924818Y-79372070D01*
X137828183Y-79232071D01*
X137700852Y-79119266D01*
X137700849Y-79119263D01*
X137550226Y-79040210D01*
X137385056Y-78999500D01*
X137214944Y-78999500D01*
X137049773Y-79040210D01*
X136899150Y-79119263D01*
X136771816Y-79232072D01*
X136675182Y-79372068D01*
X136614860Y-79531125D01*
X136614859Y-79531130D01*
X136594355Y-79700000D01*
X130439469Y-79700000D01*
X130415307Y-79661479D01*
X130416074Y-79591613D01*
X130452433Y-79535037D01*
X130528183Y-79467929D01*
X130624818Y-79327930D01*
X130685140Y-79168872D01*
X130705645Y-79000000D01*
X130685140Y-78831128D01*
X130673524Y-78800500D01*
X130635410Y-78700000D01*
X143894355Y-78700000D01*
X143914859Y-78868869D01*
X143914860Y-78868874D01*
X143975182Y-79027931D01*
X143983658Y-79040210D01*
X144071817Y-79167929D01*
X144144219Y-79232071D01*
X144199150Y-79280736D01*
X144349773Y-79359789D01*
X144349775Y-79359790D01*
X144514944Y-79400500D01*
X144685056Y-79400500D01*
X144850225Y-79359790D01*
X144929692Y-79318081D01*
X145000849Y-79280736D01*
X145000850Y-79280734D01*
X145000852Y-79280734D01*
X145128183Y-79167929D01*
X145224818Y-79027930D01*
X145285140Y-78868872D01*
X145293503Y-78800000D01*
X152094355Y-78800000D01*
X152114859Y-78968869D01*
X152114860Y-78968874D01*
X152175182Y-79127931D01*
X152237475Y-79218177D01*
X152271817Y-79267929D01*
X152339546Y-79327931D01*
X152399150Y-79380736D01*
X152549773Y-79459789D01*
X152549775Y-79459790D01*
X152714944Y-79500500D01*
X152885056Y-79500500D01*
X153050225Y-79459790D01*
X153129692Y-79418081D01*
X153200849Y-79380736D01*
X153200850Y-79380734D01*
X153200852Y-79380734D01*
X153328183Y-79267929D01*
X153424818Y-79127930D01*
X153485140Y-78968872D01*
X153505645Y-78800000D01*
X153485140Y-78631128D01*
X153473524Y-78600500D01*
X153458085Y-78559789D01*
X153424818Y-78472070D01*
X153328183Y-78332071D01*
X153210632Y-78227930D01*
X153200849Y-78219263D01*
X153050226Y-78140210D01*
X152885056Y-78099500D01*
X152714944Y-78099500D01*
X152549773Y-78140210D01*
X152399150Y-78219263D01*
X152271816Y-78332072D01*
X152175182Y-78472068D01*
X152114860Y-78631125D01*
X152114859Y-78631130D01*
X152094355Y-78800000D01*
X145293503Y-78800000D01*
X145305645Y-78700000D01*
X145285140Y-78531128D01*
X145224818Y-78372070D01*
X145222608Y-78368869D01*
X145174726Y-78299500D01*
X145128183Y-78232071D01*
X145000852Y-78119266D01*
X145000849Y-78119263D01*
X144850226Y-78040210D01*
X144685056Y-77999500D01*
X144514944Y-77999500D01*
X144349773Y-78040210D01*
X144199150Y-78119263D01*
X144071816Y-78232072D01*
X143975182Y-78372068D01*
X143914860Y-78531125D01*
X143914859Y-78531130D01*
X143894355Y-78700000D01*
X130635410Y-78700000D01*
X130624818Y-78672070D01*
X130621958Y-78667927D01*
X130552934Y-78567929D01*
X130528183Y-78532071D01*
X130400852Y-78419266D01*
X130400849Y-78419263D01*
X130250226Y-78340210D01*
X130085056Y-78299500D01*
X129914944Y-78299500D01*
X129749773Y-78340210D01*
X129599150Y-78419263D01*
X129482638Y-78522484D01*
X129472882Y-78531128D01*
X129471816Y-78532072D01*
X129375182Y-78672068D01*
X129314860Y-78831125D01*
X129314859Y-78831130D01*
X129307299Y-78893391D01*
X129279676Y-78957569D01*
X129221741Y-78996625D01*
X129154528Y-78998840D01*
X129084010Y-78981459D01*
X129023629Y-78946303D01*
X128991841Y-78884083D01*
X128990589Y-78876007D01*
X128985140Y-78831128D01*
X128973524Y-78800500D01*
X128935410Y-78700000D01*
X128924818Y-78672070D01*
X128921958Y-78667927D01*
X128852934Y-78567929D01*
X128828183Y-78532071D01*
X128700852Y-78419266D01*
X128700849Y-78419263D01*
X128550226Y-78340210D01*
X128385056Y-78299500D01*
X128227581Y-78299500D01*
X128160542Y-78279815D01*
X128114787Y-78227011D01*
X128104485Y-78190447D01*
X128089723Y-78068872D01*
X128085140Y-78031128D01*
X128073524Y-78000500D01*
X128047214Y-77931125D01*
X128024818Y-77872070D01*
X128020242Y-77865441D01*
X127928183Y-77732071D01*
X127927121Y-77731130D01*
X127921454Y-77726110D01*
X127884326Y-77666923D01*
X127885092Y-77597057D01*
X127887725Y-77589354D01*
X127947640Y-77431372D01*
X127968145Y-77262500D01*
X127947640Y-77093628D01*
X127928678Y-77043630D01*
X127887317Y-76934568D01*
X127816568Y-76832072D01*
X127790683Y-76794571D01*
X127663352Y-76681766D01*
X127663349Y-76681763D01*
X127512726Y-76602710D01*
X127347556Y-76562000D01*
X127177444Y-76562000D01*
X127012273Y-76602710D01*
X126861650Y-76681763D01*
X126734316Y-76794572D01*
X126637682Y-76934568D01*
X126577360Y-77093625D01*
X126577359Y-77093630D01*
X126556855Y-77262500D01*
X125012074Y-77262500D01*
X125018145Y-77212500D01*
X124997640Y-77043628D01*
X124937318Y-76884570D01*
X124840683Y-76744571D01*
X124745816Y-76660526D01*
X124713349Y-76631763D01*
X124562726Y-76552710D01*
X124397556Y-76512000D01*
X124227444Y-76512000D01*
X124062273Y-76552710D01*
X123911650Y-76631763D01*
X123784316Y-76744572D01*
X123687682Y-76884568D01*
X123627360Y-77043625D01*
X123627359Y-77043630D01*
X123606855Y-77212500D01*
X123195020Y-77212500D01*
X123185140Y-77131128D01*
X123124818Y-76972070D01*
X123098933Y-76934570D01*
X123090476Y-76922318D01*
X123028183Y-76832071D01*
X122900852Y-76719266D01*
X122900849Y-76719263D01*
X122750226Y-76640210D01*
X122585056Y-76599500D01*
X122414944Y-76599500D01*
X122249773Y-76640210D01*
X122099150Y-76719263D01*
X121971816Y-76832072D01*
X121875182Y-76972068D01*
X121814860Y-77131125D01*
X121814859Y-77131130D01*
X121794355Y-77300000D01*
X114939146Y-77300000D01*
X114825226Y-77240210D01*
X114660056Y-77199500D01*
X114489944Y-77199500D01*
X114324773Y-77240210D01*
X114174150Y-77319263D01*
X114104042Y-77381374D01*
X114047610Y-77431369D01*
X114046816Y-77432072D01*
X113950182Y-77572068D01*
X113889860Y-77731125D01*
X113889859Y-77731130D01*
X113869355Y-77900000D01*
X111635410Y-77900000D01*
X111624818Y-77872070D01*
X111620242Y-77865441D01*
X111579655Y-77806641D01*
X111528183Y-77732071D01*
X111400852Y-77619266D01*
X111400849Y-77619263D01*
X111250226Y-77540210D01*
X111085056Y-77499500D01*
X110914944Y-77499500D01*
X110749773Y-77540210D01*
X110599150Y-77619263D01*
X110482227Y-77722849D01*
X110418994Y-77752570D01*
X110349730Y-77743386D01*
X110317773Y-77722849D01*
X110200849Y-77619263D01*
X110050226Y-77540210D01*
X109885056Y-77499500D01*
X109714944Y-77499500D01*
X109549773Y-77540210D01*
X109399150Y-77619263D01*
X109282638Y-77722484D01*
X109272882Y-77731128D01*
X109271816Y-77732072D01*
X109175182Y-77872068D01*
X109114860Y-78031125D01*
X109114859Y-78031130D01*
X109094355Y-78200000D01*
X101079171Y-78200000D01*
X101043867Y-78045017D01*
X101042943Y-78040586D01*
X100891116Y-77240210D01*
X100842560Y-76984241D01*
X100841798Y-76979786D01*
X100680085Y-75916733D01*
X100679500Y-75912352D01*
X100655087Y-75700000D01*
X113194355Y-75700000D01*
X113214859Y-75868869D01*
X113214860Y-75868874D01*
X113275182Y-76027931D01*
X113324929Y-76100000D01*
X113371817Y-76167929D01*
X113477505Y-76261560D01*
X113499150Y-76280736D01*
X113649773Y-76359789D01*
X113649775Y-76359790D01*
X113814944Y-76400500D01*
X113985055Y-76400500D01*
X113985056Y-76400500D01*
X114048253Y-76384923D01*
X114118054Y-76387992D01*
X114175117Y-76428311D01*
X114179977Y-76434879D01*
X114271815Y-76567927D01*
X114271816Y-76567928D01*
X114271817Y-76567929D01*
X114311077Y-76602710D01*
X114399150Y-76680736D01*
X114549773Y-76759789D01*
X114549775Y-76759790D01*
X114714944Y-76800500D01*
X114885056Y-76800500D01*
X115050225Y-76759790D01*
X115198886Y-76681766D01*
X115200849Y-76680736D01*
X115200850Y-76680734D01*
X115200852Y-76680734D01*
X115328183Y-76567929D01*
X115424818Y-76427930D01*
X115485140Y-76268872D01*
X115505645Y-76100000D01*
X115485140Y-75931128D01*
X115424818Y-75772070D01*
X115328183Y-75632071D01*
X115214244Y-75531130D01*
X115200849Y-75519263D01*
X115050226Y-75440210D01*
X114885056Y-75399500D01*
X114714944Y-75399500D01*
X114714940Y-75399500D01*
X114651743Y-75415076D01*
X114581941Y-75412006D01*
X114524879Y-75371685D01*
X114520020Y-75365119D01*
X114428183Y-75232071D01*
X114300852Y-75119266D01*
X114300849Y-75119263D01*
X114150226Y-75040210D01*
X113985056Y-74999500D01*
X113814944Y-74999500D01*
X113649773Y-75040210D01*
X113499150Y-75119263D01*
X113371816Y-75232072D01*
X113275182Y-75372068D01*
X113214860Y-75531125D01*
X113214859Y-75531130D01*
X113194355Y-75700000D01*
X100655087Y-75700000D01*
X100563117Y-74900000D01*
X111494355Y-74900000D01*
X111514859Y-75068869D01*
X111514860Y-75068874D01*
X111575182Y-75227931D01*
X111637475Y-75318177D01*
X111671817Y-75367929D01*
X111753180Y-75440010D01*
X111799150Y-75480736D01*
X111949773Y-75559789D01*
X111949775Y-75559790D01*
X112114944Y-75600500D01*
X112285056Y-75600500D01*
X112450225Y-75559790D01*
X112529692Y-75518081D01*
X112600849Y-75480736D01*
X112600850Y-75480734D01*
X112600852Y-75480734D01*
X112728183Y-75367929D01*
X112824818Y-75227930D01*
X112885140Y-75068872D01*
X112905645Y-74900000D01*
X112885140Y-74731128D01*
X112873524Y-74700500D01*
X112858085Y-74659789D01*
X112824818Y-74572070D01*
X112728183Y-74432071D01*
X112600852Y-74319266D01*
X112600849Y-74319263D01*
X112450226Y-74240210D01*
X112285056Y-74199500D01*
X112114944Y-74199500D01*
X111949773Y-74240210D01*
X111799150Y-74319263D01*
X111671816Y-74432072D01*
X111575182Y-74572068D01*
X111514860Y-74731125D01*
X111514859Y-74731130D01*
X111494355Y-74900000D01*
X100563117Y-74900000D01*
X100556691Y-74844100D01*
X100556258Y-74839597D01*
X100545393Y-74700500D01*
X100472524Y-73767665D01*
X100472255Y-73763151D01*
X100460778Y-73486435D01*
X100427696Y-72688823D01*
X100427593Y-72684383D01*
X100424702Y-72100000D01*
X113694355Y-72100000D01*
X113714859Y-72268869D01*
X113714860Y-72268874D01*
X113775182Y-72427931D01*
X113871817Y-72567930D01*
X113943070Y-72631053D01*
X113980197Y-72690242D01*
X113979431Y-72760108D01*
X113976786Y-72767839D01*
X113914861Y-72931122D01*
X113914859Y-72931130D01*
X113894355Y-73100000D01*
X113914859Y-73268869D01*
X113914860Y-73268874D01*
X113975182Y-73427931D01*
X113975185Y-73427936D01*
X114010819Y-73479561D01*
X114032702Y-73545915D01*
X114015236Y-73613567D01*
X114010819Y-73620439D01*
X113975185Y-73672063D01*
X113975182Y-73672068D01*
X113914860Y-73831125D01*
X113914859Y-73831130D01*
X113894355Y-74000000D01*
X113914859Y-74168869D01*
X113914860Y-74168874D01*
X113975182Y-74327931D01*
X114037475Y-74418177D01*
X114071817Y-74467929D01*
X114177505Y-74561560D01*
X114199150Y-74580736D01*
X114349773Y-74659789D01*
X114349775Y-74659790D01*
X114514944Y-74700500D01*
X114685056Y-74700500D01*
X114850225Y-74659790D01*
X114929692Y-74618081D01*
X115000849Y-74580736D01*
X115000850Y-74580734D01*
X115000852Y-74580734D01*
X115128183Y-74467929D01*
X115224818Y-74327930D01*
X115285140Y-74168872D01*
X115305645Y-74000000D01*
X115285140Y-73831128D01*
X115224818Y-73672070D01*
X115224816Y-73672068D01*
X115224816Y-73672066D01*
X115224815Y-73672065D01*
X115189181Y-73620441D01*
X115167297Y-73554087D01*
X115184762Y-73486435D01*
X115188005Y-73481389D01*
X118512966Y-73481389D01*
X118533470Y-73650258D01*
X118533471Y-73650263D01*
X118593793Y-73809320D01*
X118608848Y-73831130D01*
X118690428Y-73949318D01*
X118796116Y-74042949D01*
X118817761Y-74062125D01*
X118968384Y-74141178D01*
X118968386Y-74141179D01*
X119133555Y-74181889D01*
X119303667Y-74181889D01*
X119468836Y-74141179D01*
X119548303Y-74099470D01*
X119619460Y-74062125D01*
X119619461Y-74062123D01*
X119619463Y-74062123D01*
X119746794Y-73949318D01*
X119843429Y-73809319D01*
X119903751Y-73650261D01*
X119924256Y-73481389D01*
X119903751Y-73312517D01*
X119843429Y-73153459D01*
X119746794Y-73013460D01*
X119619463Y-72900655D01*
X119619460Y-72900652D01*
X119468837Y-72821599D01*
X119303667Y-72780889D01*
X119133555Y-72780889D01*
X118968384Y-72821599D01*
X118817761Y-72900652D01*
X118690427Y-73013461D01*
X118593793Y-73153457D01*
X118533471Y-73312514D01*
X118533470Y-73312519D01*
X118512966Y-73481389D01*
X115188005Y-73481389D01*
X115189181Y-73479559D01*
X115224815Y-73427934D01*
X115224816Y-73427933D01*
X115224817Y-73427931D01*
X115224818Y-73427930D01*
X115285140Y-73268872D01*
X115305645Y-73100000D01*
X115285140Y-72931128D01*
X115224818Y-72772070D01*
X115128183Y-72632071D01*
X115056926Y-72568943D01*
X115019802Y-72509757D01*
X115020569Y-72439891D01*
X115023213Y-72432159D01*
X115024815Y-72427933D01*
X115024818Y-72427930D01*
X115085140Y-72268872D01*
X115105645Y-72100000D01*
X115085140Y-71931128D01*
X115024818Y-71772070D01*
X115021958Y-71767927D01*
X114959837Y-71677930D01*
X114928183Y-71632071D01*
X114814244Y-71531130D01*
X114800849Y-71519263D01*
X114650226Y-71440210D01*
X114485056Y-71399500D01*
X114314944Y-71399500D01*
X114149773Y-71440210D01*
X113999150Y-71519263D01*
X113871816Y-71632072D01*
X113775182Y-71772068D01*
X113714860Y-71931125D01*
X113714859Y-71931130D01*
X113694355Y-72100000D01*
X100424702Y-72100000D01*
X100422273Y-71609134D01*
X100422333Y-71604622D01*
X100424653Y-71531125D01*
X100430370Y-71350000D01*
X116444355Y-71350000D01*
X116464859Y-71518869D01*
X116464860Y-71518874D01*
X116525182Y-71677931D01*
X116587303Y-71767927D01*
X116621817Y-71817929D01*
X116692712Y-71880736D01*
X116749150Y-71930736D01*
X116899773Y-72009789D01*
X116899775Y-72009790D01*
X117064944Y-72050500D01*
X117235056Y-72050500D01*
X117400225Y-72009790D01*
X117479692Y-71968081D01*
X117550849Y-71930736D01*
X117550850Y-71930734D01*
X117550852Y-71930734D01*
X117678183Y-71817929D01*
X117774818Y-71677930D01*
X117835140Y-71518872D01*
X117855645Y-71350000D01*
X117835140Y-71181128D01*
X117835139Y-71181125D01*
X117835138Y-71181121D01*
X117828369Y-71163272D01*
X117823002Y-71093609D01*
X117856150Y-71032103D01*
X117862076Y-71026493D01*
X117928183Y-70967929D01*
X118024818Y-70827930D01*
X118085140Y-70668872D01*
X118093503Y-70600000D01*
X120294355Y-70600000D01*
X120314859Y-70768869D01*
X120314860Y-70768874D01*
X120375182Y-70927931D01*
X120437475Y-71018177D01*
X120471817Y-71067929D01*
X120577505Y-71161560D01*
X120599150Y-71180736D01*
X120689071Y-71227930D01*
X120749775Y-71259790D01*
X120914944Y-71300500D01*
X121085056Y-71300500D01*
X121087085Y-71300000D01*
X138194355Y-71300000D01*
X138214859Y-71468869D01*
X138214860Y-71468874D01*
X138275182Y-71627931D01*
X138309695Y-71677931D01*
X138371817Y-71767929D01*
X138428256Y-71817929D01*
X138499150Y-71880736D01*
X138649773Y-71959789D01*
X138649775Y-71959790D01*
X138814944Y-72000500D01*
X138985056Y-72000500D01*
X139150225Y-71959790D01*
X139229692Y-71918081D01*
X139300849Y-71880736D01*
X139300850Y-71880734D01*
X139300852Y-71880734D01*
X139428183Y-71767929D01*
X139475071Y-71700000D01*
X144694355Y-71700000D01*
X144714859Y-71868869D01*
X144714860Y-71868874D01*
X144775182Y-72027931D01*
X144790761Y-72050500D01*
X144871817Y-72167929D01*
X144977505Y-72261560D01*
X144999150Y-72280736D01*
X145149773Y-72359789D01*
X145149775Y-72359790D01*
X145314944Y-72400500D01*
X145485056Y-72400500D01*
X145650225Y-72359790D01*
X145729692Y-72318081D01*
X145800849Y-72280736D01*
X145800850Y-72280734D01*
X145800852Y-72280734D01*
X145928183Y-72167929D01*
X146024818Y-72027930D01*
X146085140Y-71868872D01*
X146105645Y-71700000D01*
X146085140Y-71531128D01*
X146080641Y-71519266D01*
X146024817Y-71372068D01*
X145947315Y-71259789D01*
X145928183Y-71232071D01*
X145814244Y-71131130D01*
X145800849Y-71119263D01*
X145650226Y-71040210D01*
X145485056Y-70999500D01*
X145314944Y-70999500D01*
X145149773Y-71040210D01*
X144999150Y-71119263D01*
X144871816Y-71232072D01*
X144775182Y-71372068D01*
X144714860Y-71531125D01*
X144714859Y-71531130D01*
X144694355Y-71700000D01*
X139475071Y-71700000D01*
X139524818Y-71627930D01*
X139585140Y-71468872D01*
X139605645Y-71300000D01*
X139585140Y-71131128D01*
X139580641Y-71119266D01*
X139543780Y-71022070D01*
X139524818Y-70972070D01*
X139523389Y-70970000D01*
X139475071Y-70900000D01*
X150794355Y-70900000D01*
X150814859Y-71068869D01*
X150814860Y-71068874D01*
X150875182Y-71227931D01*
X150921477Y-71295000D01*
X150971817Y-71367929D01*
X151053406Y-71440210D01*
X151099150Y-71480736D01*
X151249773Y-71559789D01*
X151249775Y-71559790D01*
X151414944Y-71600500D01*
X151585056Y-71600500D01*
X151750225Y-71559790D01*
X151829692Y-71518081D01*
X151900849Y-71480736D01*
X151900850Y-71480734D01*
X151900852Y-71480734D01*
X152028183Y-71367929D01*
X152124818Y-71227930D01*
X152185140Y-71068872D01*
X152205645Y-70900000D01*
X152190946Y-70778945D01*
X152202406Y-70710024D01*
X152249310Y-70658237D01*
X152314042Y-70640000D01*
X153238638Y-70640000D01*
X153305677Y-70659685D01*
X153326319Y-70676319D01*
X153583681Y-70933681D01*
X153617166Y-70995004D01*
X153620000Y-71021362D01*
X153620000Y-72440000D01*
X153770000Y-72590000D01*
X154830000Y-72590000D01*
X154830000Y-70124500D01*
X154849685Y-70057461D01*
X154902489Y-70011706D01*
X154954000Y-70000500D01*
X155261555Y-70000500D01*
X155328594Y-70020185D01*
X155343779Y-70031682D01*
X155399148Y-70080734D01*
X155549775Y-70159790D01*
X155714944Y-70200500D01*
X155885056Y-70200500D01*
X156050225Y-70159790D01*
X156129692Y-70118081D01*
X156200849Y-70080736D01*
X156200850Y-70080734D01*
X156200852Y-70080734D01*
X156328183Y-69967929D01*
X156424818Y-69827930D01*
X156485140Y-69668872D01*
X156505645Y-69500000D01*
X156485140Y-69331128D01*
X156480641Y-69319266D01*
X156424817Y-69172068D01*
X156371621Y-69095001D01*
X156328183Y-69032071D01*
X156233316Y-68948026D01*
X156200849Y-68919263D01*
X156050226Y-68840210D01*
X155885056Y-68799500D01*
X155714944Y-68799500D01*
X155549773Y-68840210D01*
X155399150Y-68919264D01*
X155343782Y-68968316D01*
X155280549Y-68998037D01*
X155261555Y-68999500D01*
X154954000Y-68999500D01*
X154886961Y-68979815D01*
X154841206Y-68927011D01*
X154830000Y-68875500D01*
X154830000Y-64630000D01*
X153700000Y-64630000D01*
X153699999Y-64630000D01*
X153655800Y-64674199D01*
X153640568Y-66029455D01*
X153620131Y-66096269D01*
X153604257Y-66115742D01*
X152616319Y-67103681D01*
X152554996Y-67137166D01*
X152528638Y-67140000D01*
X150920000Y-67140000D01*
X150920000Y-68095218D01*
X150916397Y-68124894D01*
X150914859Y-68131131D01*
X150894355Y-68300000D01*
X150914859Y-68468869D01*
X150916397Y-68475107D01*
X150920000Y-68504783D01*
X150920000Y-70468499D01*
X150900315Y-70535538D01*
X150898051Y-70538938D01*
X150875182Y-70572069D01*
X150814860Y-70731125D01*
X150814859Y-70731130D01*
X150794355Y-70900000D01*
X139475071Y-70900000D01*
X139428183Y-70832071D01*
X139314244Y-70731130D01*
X139300849Y-70719263D01*
X139150226Y-70640210D01*
X138985056Y-70599500D01*
X138814944Y-70599500D01*
X138649773Y-70640210D01*
X138499150Y-70719263D01*
X138371816Y-70832072D01*
X138275182Y-70972068D01*
X138214860Y-71131125D01*
X138214859Y-71131130D01*
X138194355Y-71300000D01*
X121087085Y-71300000D01*
X121250225Y-71259790D01*
X121329692Y-71218081D01*
X121400849Y-71180736D01*
X121400850Y-71180734D01*
X121400852Y-71180734D01*
X121528183Y-71067929D01*
X121624818Y-70927930D01*
X121685140Y-70768872D01*
X121705645Y-70600000D01*
X121685140Y-70431128D01*
X121624818Y-70272070D01*
X121621958Y-70267927D01*
X121575416Y-70200500D01*
X121528183Y-70132071D01*
X121414869Y-70031684D01*
X121400849Y-70019263D01*
X121250226Y-69940210D01*
X121087085Y-69900000D01*
X126794355Y-69900000D01*
X126814859Y-70068869D01*
X126814860Y-70068874D01*
X126875182Y-70227931D01*
X126937475Y-70318177D01*
X126971817Y-70367929D01*
X127075506Y-70459789D01*
X127099150Y-70480736D01*
X127188591Y-70527678D01*
X127249775Y-70559790D01*
X127414944Y-70600500D01*
X127585056Y-70600500D01*
X127750225Y-70559790D01*
X127850540Y-70507140D01*
X127900849Y-70480736D01*
X127900850Y-70480734D01*
X127900852Y-70480734D01*
X128028183Y-70367929D01*
X128124818Y-70227930D01*
X128185140Y-70068872D01*
X128205645Y-69900000D01*
X128185140Y-69731128D01*
X128174251Y-69702417D01*
X128164132Y-69675735D01*
X138970090Y-69675735D01*
X138990594Y-69844604D01*
X138990595Y-69844609D01*
X139050917Y-70003666D01*
X139070257Y-70031684D01*
X139147552Y-70143664D01*
X139211707Y-70200500D01*
X139274885Y-70256471D01*
X139417132Y-70331128D01*
X139425510Y-70335525D01*
X139590679Y-70376235D01*
X139760791Y-70376235D01*
X139925960Y-70335525D01*
X140005427Y-70293816D01*
X140076584Y-70256471D01*
X140076585Y-70256469D01*
X140076587Y-70256469D01*
X140203918Y-70143664D01*
X140300553Y-70003665D01*
X140360875Y-69844607D01*
X140360875Y-69844606D01*
X140363437Y-69837851D01*
X140405614Y-69782148D01*
X140471212Y-69758090D01*
X140539402Y-69773317D01*
X140588536Y-69822992D01*
X140602475Y-69866874D01*
X140614859Y-69968869D01*
X140614860Y-69968874D01*
X140675182Y-70127931D01*
X140725274Y-70200500D01*
X140771817Y-70267929D01*
X140877505Y-70361560D01*
X140899150Y-70380736D01*
X141049773Y-70459789D01*
X141049775Y-70459790D01*
X141214944Y-70500500D01*
X141385056Y-70500500D01*
X141550225Y-70459790D01*
X141629692Y-70418081D01*
X141700849Y-70380736D01*
X141700850Y-70380734D01*
X141700852Y-70380734D01*
X141828183Y-70267929D01*
X141924818Y-70127930D01*
X141985140Y-69968872D01*
X142005645Y-69800000D01*
X141985140Y-69631128D01*
X141924818Y-69472070D01*
X141897208Y-69432071D01*
X141839042Y-69347803D01*
X141828183Y-69332071D01*
X141700852Y-69219266D01*
X141700849Y-69219263D01*
X141550226Y-69140210D01*
X141385056Y-69099500D01*
X141214944Y-69099500D01*
X141049773Y-69140210D01*
X140899150Y-69219263D01*
X140786274Y-69319263D01*
X140772882Y-69331128D01*
X140771816Y-69332072D01*
X140675182Y-69472068D01*
X140675182Y-69472069D01*
X140612297Y-69637884D01*
X140570119Y-69693587D01*
X140504521Y-69717644D01*
X140436331Y-69702417D01*
X140387198Y-69652741D01*
X140373260Y-69608862D01*
X140360875Y-69506863D01*
X140300553Y-69347805D01*
X140203918Y-69207806D01*
X140082467Y-69100210D01*
X140076584Y-69094998D01*
X139925961Y-69015945D01*
X139760791Y-68975235D01*
X139590679Y-68975235D01*
X139425508Y-69015945D01*
X139274885Y-69094998D01*
X139147551Y-69207807D01*
X139050917Y-69347803D01*
X138990595Y-69506860D01*
X138990594Y-69506865D01*
X138970090Y-69675735D01*
X128164132Y-69675735D01*
X128132046Y-69591130D01*
X128124818Y-69572070D01*
X128028183Y-69432071D01*
X127914244Y-69331130D01*
X127900849Y-69319263D01*
X127750226Y-69240210D01*
X127585056Y-69199500D01*
X127414944Y-69199500D01*
X127249773Y-69240210D01*
X127099150Y-69319263D01*
X126982638Y-69422484D01*
X126971821Y-69432068D01*
X126971816Y-69432072D01*
X126875182Y-69572068D01*
X126814860Y-69731125D01*
X126814859Y-69731130D01*
X126794355Y-69900000D01*
X121087085Y-69900000D01*
X121085056Y-69899500D01*
X120914944Y-69899500D01*
X120749773Y-69940210D01*
X120599150Y-70019263D01*
X120471816Y-70132072D01*
X120375182Y-70272068D01*
X120314860Y-70431125D01*
X120314859Y-70431130D01*
X120294355Y-70600000D01*
X118093503Y-70600000D01*
X118105645Y-70500000D01*
X118085140Y-70331128D01*
X118024818Y-70172070D01*
X117997208Y-70132071D01*
X117990476Y-70122318D01*
X117928183Y-70032071D01*
X117800852Y-69919266D01*
X117800849Y-69919263D01*
X117650226Y-69840210D01*
X117485056Y-69799500D01*
X117314944Y-69799500D01*
X117149773Y-69840210D01*
X116999150Y-69919263D01*
X116871816Y-70032072D01*
X116775182Y-70172068D01*
X116714860Y-70331125D01*
X116714859Y-70331130D01*
X116694355Y-70500000D01*
X116714859Y-70668869D01*
X116714859Y-70668870D01*
X116714860Y-70668872D01*
X116721631Y-70686726D01*
X116726998Y-70756387D01*
X116693851Y-70817894D01*
X116687917Y-70823511D01*
X116621816Y-70882071D01*
X116525182Y-71022068D01*
X116464860Y-71181125D01*
X116464859Y-71181130D01*
X116444355Y-71350000D01*
X100430370Y-71350000D01*
X100456256Y-70529934D01*
X100456481Y-70525429D01*
X100457728Y-70507140D01*
X100508656Y-69760000D01*
X115014355Y-69760000D01*
X115034859Y-69928869D01*
X115034860Y-69928874D01*
X115095182Y-70087931D01*
X115144783Y-70159789D01*
X115191817Y-70227929D01*
X115297505Y-70321560D01*
X115319150Y-70340736D01*
X115469773Y-70419789D01*
X115469775Y-70419790D01*
X115634944Y-70460500D01*
X115805056Y-70460500D01*
X115970225Y-70419790D01*
X116069041Y-70367927D01*
X116120849Y-70340736D01*
X116120850Y-70340734D01*
X116120852Y-70340734D01*
X116248183Y-70227929D01*
X116344818Y-70087930D01*
X116405140Y-69928872D01*
X116425645Y-69760000D01*
X116405140Y-69591128D01*
X116344818Y-69432070D01*
X116248183Y-69292071D01*
X116120852Y-69179266D01*
X116120849Y-69179263D01*
X115970226Y-69100210D01*
X115805056Y-69059500D01*
X115634944Y-69059500D01*
X115469773Y-69100210D01*
X115319150Y-69179263D01*
X115191816Y-69292072D01*
X115095182Y-69432068D01*
X115034860Y-69591125D01*
X115034859Y-69591130D01*
X115014355Y-69760000D01*
X100508656Y-69760000D01*
X100529606Y-69452657D01*
X100529989Y-69448237D01*
X100639998Y-68400000D01*
X107094355Y-68400000D01*
X107114859Y-68568869D01*
X107114860Y-68568874D01*
X107175182Y-68727931D01*
X107237475Y-68818177D01*
X107271817Y-68867929D01*
X107377505Y-68961560D01*
X107399150Y-68980736D01*
X107500019Y-69033676D01*
X107549775Y-69059790D01*
X107714944Y-69100500D01*
X107885056Y-69100500D01*
X108050225Y-69059790D01*
X108165097Y-68999500D01*
X108200849Y-68980736D01*
X108200850Y-68980734D01*
X108200852Y-68980734D01*
X108328183Y-68867929D01*
X108424818Y-68727930D01*
X108485140Y-68568872D01*
X108504726Y-68407567D01*
X142086788Y-68407567D01*
X142107292Y-68576436D01*
X142107293Y-68576441D01*
X142167615Y-68735498D01*
X142211793Y-68799500D01*
X142264250Y-68875496D01*
X142315466Y-68920869D01*
X142391583Y-68988303D01*
X142527790Y-69059790D01*
X142542208Y-69067357D01*
X142707377Y-69108067D01*
X142877489Y-69108067D01*
X143042658Y-69067357D01*
X143122125Y-69025648D01*
X143193282Y-68988303D01*
X143193283Y-68988301D01*
X143193285Y-68988301D01*
X143320616Y-68875496D01*
X143417251Y-68735497D01*
X143477573Y-68576439D01*
X143498078Y-68407567D01*
X143498078Y-68407565D01*
X143498078Y-68400066D01*
X143499896Y-68400066D01*
X143509774Y-68340633D01*
X143556674Y-68288843D01*
X143591738Y-68274205D01*
X143650225Y-68259790D01*
X143800852Y-68180734D01*
X143928183Y-68067929D01*
X144024818Y-67927930D01*
X144076070Y-67792786D01*
X144118247Y-67737084D01*
X144183845Y-67713026D01*
X144252035Y-67728252D01*
X144301169Y-67777928D01*
X144307954Y-67792786D01*
X144320865Y-67826830D01*
X144349447Y-67902195D01*
X144370069Y-67932071D01*
X144450267Y-68048258D01*
X144472150Y-68114612D01*
X144464160Y-68162668D01*
X144418119Y-68284069D01*
X144418119Y-68284070D01*
X144397615Y-68452940D01*
X144418119Y-68621809D01*
X144418120Y-68621814D01*
X144478442Y-68780871D01*
X144538535Y-68867929D01*
X144575077Y-68920869D01*
X144680765Y-69014500D01*
X144702410Y-69033676D01*
X144829180Y-69100210D01*
X144853035Y-69112730D01*
X145018204Y-69153440D01*
X145188316Y-69153440D01*
X145353485Y-69112730D01*
X145454905Y-69059500D01*
X145504109Y-69033676D01*
X145504110Y-69033674D01*
X145504112Y-69033674D01*
X145631443Y-68920869D01*
X145728078Y-68780870D01*
X145788400Y-68621812D01*
X145808905Y-68452940D01*
X145788400Y-68284068D01*
X145728078Y-68125010D01*
X145631443Y-67985011D01*
X145631439Y-67985008D01*
X145627256Y-67978947D01*
X145605373Y-67912592D01*
X145613362Y-67864542D01*
X145659405Y-67743137D01*
X145679910Y-67574265D01*
X145675381Y-67536967D01*
X145686841Y-67468045D01*
X145733745Y-67416258D01*
X145740842Y-67412229D01*
X145800852Y-67380734D01*
X145869715Y-67319726D01*
X145932945Y-67290007D01*
X146002209Y-67299189D01*
X146053989Y-67342101D01*
X146071817Y-67367929D01*
X146149987Y-67437181D01*
X146199150Y-67480736D01*
X146349773Y-67559789D01*
X146349775Y-67559790D01*
X146514944Y-67600500D01*
X146685056Y-67600500D01*
X146850225Y-67559790D01*
X146929692Y-67518081D01*
X147000849Y-67480736D01*
X147000850Y-67480734D01*
X147000852Y-67480734D01*
X147128183Y-67367929D01*
X147224818Y-67227930D01*
X147285140Y-67068872D01*
X147305645Y-66900000D01*
X147285140Y-66731128D01*
X147280641Y-66719266D01*
X147224817Y-66572068D01*
X147161773Y-66480734D01*
X147128183Y-66432071D01*
X147000852Y-66319266D01*
X147000849Y-66319263D01*
X146850226Y-66240210D01*
X146685056Y-66199500D01*
X146514944Y-66199500D01*
X146349773Y-66240210D01*
X146199150Y-66319264D01*
X146130286Y-66380272D01*
X146067052Y-66409993D01*
X145997789Y-66400809D01*
X145946010Y-66357897D01*
X145928184Y-66332072D01*
X145800849Y-66219263D01*
X145650226Y-66140210D01*
X145485056Y-66099500D01*
X145314944Y-66099500D01*
X145149773Y-66140210D01*
X144999150Y-66219263D01*
X144871816Y-66332072D01*
X144775182Y-66472068D01*
X144714860Y-66631125D01*
X144714859Y-66631130D01*
X144694355Y-66800000D01*
X144694355Y-66800002D01*
X144698883Y-66837299D01*
X144687422Y-66906222D01*
X144640517Y-66958007D01*
X144633415Y-66962038D01*
X144573416Y-66993529D01*
X144573413Y-66993531D01*
X144446081Y-67106337D01*
X144349447Y-67246333D01*
X144349447Y-67246334D01*
X144298194Y-67381478D01*
X144256016Y-67437181D01*
X144190418Y-67461238D01*
X144122228Y-67446011D01*
X144073095Y-67396335D01*
X144066310Y-67381477D01*
X144035410Y-67300000D01*
X144024818Y-67272070D01*
X143928183Y-67132071D01*
X143800852Y-67019266D01*
X143800849Y-67019263D01*
X143650226Y-66940210D01*
X143485056Y-66899500D01*
X143314944Y-66899500D01*
X143149773Y-66940210D01*
X142999150Y-67019263D01*
X142903863Y-67103681D01*
X142872882Y-67131128D01*
X142871816Y-67132072D01*
X142775182Y-67272068D01*
X142714860Y-67431125D01*
X142714859Y-67431130D01*
X142694355Y-67600000D01*
X142694355Y-67607501D01*
X142692539Y-67607501D01*
X142682650Y-67666947D01*
X142635743Y-67718731D01*
X142600694Y-67733361D01*
X142542205Y-67747777D01*
X142391583Y-67826830D01*
X142264249Y-67939639D01*
X142167615Y-68079635D01*
X142107293Y-68238692D01*
X142107292Y-68238697D01*
X142086788Y-68407567D01*
X108504726Y-68407567D01*
X108505645Y-68400000D01*
X108485140Y-68231128D01*
X108424818Y-68072070D01*
X108421958Y-68067927D01*
X108347315Y-67959789D01*
X108328183Y-67932071D01*
X108233316Y-67848026D01*
X108200849Y-67819263D01*
X108050226Y-67740210D01*
X107885056Y-67699500D01*
X107714944Y-67699500D01*
X107549773Y-67740210D01*
X107399150Y-67819263D01*
X107329762Y-67880736D01*
X107276494Y-67927928D01*
X107271816Y-67932072D01*
X107175182Y-68072068D01*
X107114860Y-68231125D01*
X107114859Y-68231130D01*
X107094355Y-68400000D01*
X100639998Y-68400000D01*
X100642221Y-68378816D01*
X100642774Y-68374343D01*
X100793950Y-67309803D01*
X100794664Y-67305360D01*
X100795626Y-67300000D01*
X118794355Y-67300000D01*
X118814859Y-67468869D01*
X118814860Y-67468874D01*
X118875182Y-67627931D01*
X118929810Y-67707072D01*
X118971817Y-67767929D01*
X119077505Y-67861560D01*
X119099150Y-67880736D01*
X119249773Y-67959789D01*
X119249775Y-67959790D01*
X119414944Y-68000500D01*
X119585056Y-68000500D01*
X119750225Y-67959790D01*
X119859962Y-67902195D01*
X119900849Y-67880736D01*
X119900850Y-67880734D01*
X119900852Y-67880734D01*
X120028183Y-67767929D01*
X120124818Y-67627930D01*
X120185140Y-67468872D01*
X120205645Y-67300000D01*
X120185140Y-67131128D01*
X120124818Y-66972070D01*
X120117893Y-66962038D01*
X120047315Y-66859789D01*
X120028183Y-66832071D01*
X119914244Y-66731130D01*
X119900849Y-66719263D01*
X119750226Y-66640210D01*
X119585056Y-66599500D01*
X119414944Y-66599500D01*
X119249773Y-66640210D01*
X119099150Y-66719263D01*
X118971816Y-66832072D01*
X118875182Y-66972068D01*
X118814860Y-67131125D01*
X118814859Y-67131130D01*
X118794355Y-67300000D01*
X100795626Y-67300000D01*
X100795772Y-67299189D01*
X100984595Y-66247025D01*
X100985472Y-66242607D01*
X101016476Y-66100000D01*
X116094355Y-66100000D01*
X116114859Y-66268869D01*
X116114860Y-66268874D01*
X116175182Y-66427931D01*
X116218163Y-66490199D01*
X116271817Y-66567929D01*
X116353406Y-66640210D01*
X116399150Y-66680736D01*
X116549773Y-66759789D01*
X116549775Y-66759790D01*
X116714944Y-66800500D01*
X116885056Y-66800500D01*
X117050225Y-66759790D01*
X117129692Y-66718081D01*
X117200849Y-66680736D01*
X117200850Y-66680734D01*
X117200852Y-66680734D01*
X117328183Y-66567929D01*
X117424818Y-66427930D01*
X117485140Y-66268872D01*
X117493503Y-66200000D01*
X120494355Y-66200000D01*
X120514859Y-66368869D01*
X120514860Y-66368874D01*
X120575182Y-66527931D01*
X120625274Y-66600500D01*
X120671817Y-66667929D01*
X120775506Y-66759789D01*
X120799150Y-66780736D01*
X120896961Y-66832071D01*
X120949775Y-66859790D01*
X121114944Y-66900500D01*
X121285056Y-66900500D01*
X121450225Y-66859790D01*
X121529692Y-66818081D01*
X121600849Y-66780736D01*
X121600850Y-66780734D01*
X121600852Y-66780734D01*
X121728183Y-66667929D01*
X121824818Y-66527930D01*
X121885140Y-66368872D01*
X121905645Y-66200000D01*
X121885140Y-66031128D01*
X121835410Y-65900000D01*
X142594355Y-65900000D01*
X142614859Y-66068869D01*
X142614860Y-66068874D01*
X142675182Y-66227931D01*
X142737475Y-66318177D01*
X142771817Y-66367929D01*
X142839546Y-66427931D01*
X142899150Y-66480736D01*
X142989071Y-66527930D01*
X143049775Y-66559790D01*
X143214944Y-66600500D01*
X143385056Y-66600500D01*
X143550225Y-66559790D01*
X143629692Y-66518081D01*
X143700849Y-66480736D01*
X143700850Y-66480734D01*
X143700852Y-66480734D01*
X143828183Y-66367929D01*
X143924818Y-66227930D01*
X143985140Y-66068872D01*
X144005645Y-65900000D01*
X143985140Y-65731128D01*
X143924818Y-65572070D01*
X143902826Y-65540210D01*
X143874726Y-65499500D01*
X143828183Y-65432071D01*
X143700852Y-65319266D01*
X143700849Y-65319263D01*
X143550226Y-65240210D01*
X143385056Y-65199500D01*
X143214944Y-65199500D01*
X143049773Y-65240210D01*
X142899150Y-65319263D01*
X142771816Y-65432072D01*
X142675182Y-65572068D01*
X142614860Y-65731125D01*
X142614859Y-65731130D01*
X142594355Y-65900000D01*
X121835410Y-65900000D01*
X121824818Y-65872070D01*
X121728183Y-65732071D01*
X121600852Y-65619266D01*
X121600849Y-65619263D01*
X121450226Y-65540210D01*
X121285056Y-65499500D01*
X121114944Y-65499500D01*
X120949773Y-65540210D01*
X120799150Y-65619263D01*
X120682638Y-65722484D01*
X120672882Y-65731128D01*
X120671816Y-65732072D01*
X120575182Y-65872068D01*
X120514860Y-66031125D01*
X120514859Y-66031130D01*
X120494355Y-66200000D01*
X117493503Y-66200000D01*
X117505645Y-66100000D01*
X117485140Y-65931128D01*
X117424818Y-65772070D01*
X117397208Y-65732071D01*
X117390476Y-65722318D01*
X117328183Y-65632071D01*
X117200852Y-65519266D01*
X117200849Y-65519263D01*
X117050226Y-65440210D01*
X116885056Y-65399500D01*
X116714944Y-65399500D01*
X116549773Y-65440210D01*
X116399150Y-65519263D01*
X116271816Y-65632072D01*
X116175182Y-65772068D01*
X116114860Y-65931125D01*
X116114859Y-65931130D01*
X116094355Y-66100000D01*
X101016476Y-66100000D01*
X101213903Y-65191898D01*
X101214920Y-65187599D01*
X101481562Y-64145860D01*
X101482737Y-64141594D01*
X101495017Y-64100000D01*
X144294355Y-64100000D01*
X144314859Y-64268869D01*
X144314860Y-64268874D01*
X144375182Y-64427931D01*
X144437475Y-64518177D01*
X144471817Y-64567929D01*
X144541881Y-64630000D01*
X144599150Y-64680736D01*
X144749773Y-64759789D01*
X144749775Y-64759790D01*
X144914944Y-64800500D01*
X145085056Y-64800500D01*
X145250225Y-64759790D01*
X145329692Y-64718081D01*
X145400849Y-64680736D01*
X145400850Y-64680734D01*
X145400852Y-64680734D01*
X145528183Y-64567929D01*
X145624818Y-64427930D01*
X145685140Y-64268872D01*
X145705645Y-64100000D01*
X145693503Y-64000000D01*
X147294355Y-64000000D01*
X147314859Y-64168869D01*
X147314860Y-64168874D01*
X147375182Y-64327931D01*
X147437475Y-64418177D01*
X147471817Y-64467929D01*
X147577505Y-64561560D01*
X147599150Y-64580736D01*
X147749773Y-64659789D01*
X147749775Y-64659790D01*
X147914944Y-64700500D01*
X148085056Y-64700500D01*
X148250225Y-64659790D01*
X148329692Y-64618081D01*
X148400849Y-64580736D01*
X148400850Y-64580734D01*
X148400852Y-64580734D01*
X148528183Y-64467929D01*
X148624818Y-64327930D01*
X148685140Y-64168872D01*
X148705645Y-64000000D01*
X148685140Y-63831128D01*
X148624818Y-63672070D01*
X148624816Y-63672068D01*
X148624816Y-63672066D01*
X148624815Y-63672065D01*
X148589181Y-63620441D01*
X148567297Y-63554087D01*
X148584762Y-63486435D01*
X148589181Y-63479559D01*
X148624815Y-63427934D01*
X148624816Y-63427933D01*
X148624817Y-63427931D01*
X148624818Y-63427930D01*
X148685140Y-63268872D01*
X148705645Y-63100000D01*
X148685140Y-62931128D01*
X148624818Y-62772070D01*
X148624812Y-62772062D01*
X148623697Y-62770446D01*
X148623241Y-62769066D01*
X148621329Y-62765421D01*
X148621934Y-62765103D01*
X148601811Y-62704093D01*
X148619272Y-62636440D01*
X148623697Y-62629554D01*
X148624817Y-62627931D01*
X148624816Y-62627931D01*
X148624818Y-62627930D01*
X148685140Y-62468872D01*
X148705645Y-62300000D01*
X148685140Y-62131128D01*
X148624818Y-61972070D01*
X148621958Y-61967927D01*
X148590476Y-61922318D01*
X148528183Y-61832071D01*
X148400852Y-61719266D01*
X148400849Y-61719263D01*
X148250226Y-61640210D01*
X148085056Y-61599500D01*
X147914944Y-61599500D01*
X147749773Y-61640210D01*
X147599150Y-61719263D01*
X147539544Y-61772070D01*
X147472882Y-61831128D01*
X147471816Y-61832072D01*
X147375182Y-61972068D01*
X147314860Y-62131125D01*
X147314859Y-62131130D01*
X147294355Y-62300000D01*
X147314859Y-62468869D01*
X147314860Y-62468874D01*
X147375182Y-62627931D01*
X147375186Y-62627937D01*
X147376312Y-62629569D01*
X147376767Y-62630951D01*
X147378669Y-62634574D01*
X147378066Y-62634890D01*
X147398189Y-62695925D01*
X147380718Y-62763576D01*
X147376312Y-62770431D01*
X147375186Y-62772062D01*
X147375182Y-62772068D01*
X147314860Y-62931125D01*
X147314859Y-62931130D01*
X147294355Y-63100000D01*
X147314859Y-63268869D01*
X147314860Y-63268874D01*
X147375182Y-63427931D01*
X147375185Y-63427936D01*
X147410819Y-63479561D01*
X147432702Y-63545915D01*
X147415236Y-63613567D01*
X147410819Y-63620439D01*
X147375185Y-63672063D01*
X147375182Y-63672068D01*
X147314860Y-63831125D01*
X147314859Y-63831130D01*
X147294355Y-64000000D01*
X145693503Y-64000000D01*
X145685140Y-63931128D01*
X145624818Y-63772070D01*
X145528183Y-63632071D01*
X145400852Y-63519266D01*
X145400849Y-63519263D01*
X145250226Y-63440210D01*
X145085056Y-63399500D01*
X144914944Y-63399500D01*
X144749773Y-63440210D01*
X144599150Y-63519263D01*
X144471816Y-63632072D01*
X144375182Y-63772068D01*
X144314860Y-63931125D01*
X144314859Y-63931130D01*
X144294355Y-64100000D01*
X101495017Y-64100000D01*
X101787203Y-63110339D01*
X101788559Y-63106038D01*
X101847220Y-62931128D01*
X102130458Y-62086586D01*
X102131971Y-62082337D01*
X102226554Y-61831125D01*
X102351225Y-61500000D01*
X117094355Y-61500000D01*
X117114859Y-61668869D01*
X117114860Y-61668874D01*
X117175182Y-61827931D01*
X117237475Y-61918177D01*
X117271817Y-61967929D01*
X117399148Y-62080734D01*
X117549775Y-62159790D01*
X117586611Y-62168869D01*
X117624128Y-62178116D01*
X117684509Y-62213272D01*
X117711240Y-62262222D01*
X117712200Y-62261859D01*
X117714831Y-62268798D01*
X117714849Y-62268830D01*
X117714858Y-62268869D01*
X117775182Y-62427930D01*
X117775182Y-62427931D01*
X117837475Y-62518177D01*
X117871817Y-62567929D01*
X117975506Y-62659789D01*
X117999150Y-62680736D01*
X118149773Y-62759789D01*
X118149775Y-62759790D01*
X118314944Y-62800500D01*
X118485056Y-62800500D01*
X118650225Y-62759790D01*
X118756346Y-62704093D01*
X118800849Y-62680736D01*
X118800850Y-62680734D01*
X118800852Y-62680734D01*
X118928183Y-62567929D01*
X119024818Y-62427930D01*
X119085140Y-62268872D01*
X119105645Y-62100000D01*
X119093503Y-62000000D01*
X133894355Y-62000000D01*
X133914859Y-62168869D01*
X133914860Y-62168874D01*
X133975182Y-62327931D01*
X134037475Y-62418177D01*
X134071817Y-62467929D01*
X134177505Y-62561560D01*
X134199150Y-62580736D01*
X134349773Y-62659789D01*
X134349775Y-62659790D01*
X134514944Y-62700500D01*
X134685056Y-62700500D01*
X134850225Y-62659790D01*
X134929692Y-62618081D01*
X135000849Y-62580736D01*
X135000850Y-62580734D01*
X135000852Y-62580734D01*
X135128183Y-62467929D01*
X135224818Y-62327930D01*
X135285140Y-62168872D01*
X135305645Y-62000000D01*
X135285140Y-61831128D01*
X135224818Y-61672070D01*
X135222608Y-61668869D01*
X135174726Y-61599500D01*
X135128183Y-61532071D01*
X135000852Y-61419266D01*
X135000849Y-61419263D01*
X134850226Y-61340210D01*
X134685056Y-61299500D01*
X134514944Y-61299500D01*
X134349773Y-61340210D01*
X134199150Y-61419263D01*
X134071816Y-61532072D01*
X133975182Y-61672068D01*
X133914860Y-61831125D01*
X133914859Y-61831130D01*
X133894355Y-62000000D01*
X119093503Y-62000000D01*
X119085140Y-61931128D01*
X119024818Y-61772070D01*
X118928183Y-61632071D01*
X118800852Y-61519266D01*
X118800849Y-61519263D01*
X118650226Y-61440210D01*
X118575870Y-61421883D01*
X118515489Y-61386727D01*
X118488760Y-61337777D01*
X118487800Y-61338142D01*
X118485162Y-61331187D01*
X118485148Y-61331161D01*
X118485140Y-61331130D01*
X118485140Y-61331128D01*
X118424818Y-61172070D01*
X118328183Y-61032071D01*
X118200852Y-60919266D01*
X118200849Y-60919263D01*
X118050226Y-60840210D01*
X117885056Y-60799500D01*
X117714944Y-60799500D01*
X117549773Y-60840210D01*
X117399150Y-60919263D01*
X117271816Y-61032072D01*
X117175182Y-61172068D01*
X117114860Y-61331125D01*
X117114859Y-61331130D01*
X117094355Y-61500000D01*
X102351225Y-61500000D01*
X102510841Y-61076060D01*
X102512479Y-61071937D01*
X102927836Y-60080123D01*
X102929654Y-60075996D01*
X102983385Y-59959790D01*
X103288456Y-59300000D01*
X121494355Y-59300000D01*
X121514859Y-59468869D01*
X121514860Y-59468874D01*
X121575182Y-59627931D01*
X121637475Y-59718177D01*
X121671817Y-59767929D01*
X121777505Y-59861560D01*
X121799150Y-59880736D01*
X121949773Y-59959789D01*
X121949775Y-59959790D01*
X122114944Y-60000500D01*
X122285056Y-60000500D01*
X122450225Y-59959790D01*
X122529692Y-59918081D01*
X122600849Y-59880736D01*
X122600850Y-59880734D01*
X122600852Y-59880734D01*
X122728183Y-59767929D01*
X122824818Y-59627930D01*
X122885140Y-59468872D01*
X122905645Y-59300000D01*
X122885140Y-59131128D01*
X122824818Y-58972070D01*
X122728183Y-58832071D01*
X122600852Y-58719266D01*
X122600849Y-58719263D01*
X122450226Y-58640210D01*
X122287085Y-58600000D01*
X142294355Y-58600000D01*
X142314859Y-58768869D01*
X142314860Y-58768874D01*
X142375182Y-58927931D01*
X142437475Y-59018177D01*
X142471817Y-59067929D01*
X142577505Y-59161560D01*
X142599150Y-59180736D01*
X142749773Y-59259789D01*
X142749775Y-59259790D01*
X142914944Y-59300500D01*
X143085056Y-59300500D01*
X143250225Y-59259790D01*
X143329692Y-59218081D01*
X143400849Y-59180736D01*
X143400850Y-59180734D01*
X143400852Y-59180734D01*
X143528183Y-59067929D01*
X143624818Y-58927930D01*
X143685140Y-58768872D01*
X143705645Y-58600000D01*
X143685140Y-58431128D01*
X143624818Y-58272070D01*
X143528183Y-58132071D01*
X143400852Y-58019266D01*
X143400849Y-58019263D01*
X143250226Y-57940210D01*
X143085056Y-57899500D01*
X142914944Y-57899500D01*
X142749773Y-57940210D01*
X142599150Y-58019263D01*
X142471816Y-58132072D01*
X142375182Y-58272068D01*
X142314860Y-58431125D01*
X142314859Y-58431130D01*
X142294355Y-58600000D01*
X122287085Y-58600000D01*
X122285056Y-58599500D01*
X122114944Y-58599500D01*
X121949773Y-58640210D01*
X121799150Y-58719263D01*
X121671816Y-58832072D01*
X121575182Y-58972068D01*
X121514860Y-59131125D01*
X121514859Y-59131130D01*
X121494355Y-59300000D01*
X103288456Y-59300000D01*
X103380913Y-59100038D01*
X103382865Y-59096011D01*
X103869465Y-58137130D01*
X103871564Y-58133177D01*
X104383184Y-57210103D01*
X144575504Y-57210103D01*
X144596008Y-57378972D01*
X144596009Y-57378977D01*
X144656331Y-57538034D01*
X144718624Y-57628280D01*
X144752966Y-57678032D01*
X144858654Y-57771663D01*
X144880299Y-57790839D01*
X145030922Y-57869892D01*
X145030924Y-57869893D01*
X145196093Y-57910603D01*
X145366205Y-57910603D01*
X145531374Y-57869893D01*
X145610841Y-57828184D01*
X145681998Y-57790839D01*
X145681999Y-57790837D01*
X145682001Y-57790837D01*
X145809332Y-57678032D01*
X145905967Y-57538033D01*
X145966289Y-57378975D01*
X145986794Y-57210103D01*
X145966289Y-57041231D01*
X145905967Y-56882173D01*
X145809332Y-56742174D01*
X145682001Y-56629369D01*
X145681998Y-56629366D01*
X145531375Y-56550313D01*
X145366205Y-56509603D01*
X145196093Y-56509603D01*
X145030922Y-56550313D01*
X144880299Y-56629366D01*
X144752965Y-56742175D01*
X144656331Y-56882171D01*
X144596009Y-57041228D01*
X144596008Y-57041233D01*
X144575504Y-57210103D01*
X104383184Y-57210103D01*
X104392818Y-57192722D01*
X104395057Y-57188851D01*
X104950310Y-56268007D01*
X104952666Y-56264257D01*
X105541136Y-55364325D01*
X105543673Y-55360595D01*
X105581646Y-55306909D01*
X106164615Y-54482707D01*
X106167221Y-54479163D01*
X106456734Y-54100000D01*
X121594355Y-54100000D01*
X121614859Y-54268869D01*
X121614860Y-54268874D01*
X121675182Y-54427931D01*
X121711756Y-54480916D01*
X121771817Y-54567929D01*
X121851103Y-54638170D01*
X121899150Y-54680736D01*
X122049773Y-54759789D01*
X122049775Y-54759790D01*
X122214944Y-54800500D01*
X122385056Y-54800500D01*
X122550225Y-54759790D01*
X122629692Y-54718081D01*
X122700849Y-54680736D01*
X122700850Y-54680734D01*
X122700852Y-54680734D01*
X122828183Y-54567929D01*
X122924818Y-54427930D01*
X122985140Y-54268872D01*
X123005645Y-54100000D01*
X122985140Y-53931128D01*
X122924818Y-53772070D01*
X122922608Y-53768869D01*
X122890476Y-53722318D01*
X122828183Y-53632071D01*
X122791982Y-53600000D01*
X136094355Y-53600000D01*
X136114859Y-53768869D01*
X136114860Y-53768874D01*
X136175182Y-53927931D01*
X136237475Y-54018177D01*
X136271817Y-54067929D01*
X136377505Y-54161560D01*
X136399150Y-54180736D01*
X136549773Y-54259789D01*
X136549775Y-54259790D01*
X136714944Y-54300500D01*
X136885056Y-54300500D01*
X137050225Y-54259790D01*
X137129692Y-54218081D01*
X137200849Y-54180736D01*
X137200850Y-54180734D01*
X137200852Y-54180734D01*
X137328183Y-54067929D01*
X137424818Y-53927930D01*
X137485140Y-53768872D01*
X137505645Y-53600000D01*
X137485140Y-53431128D01*
X137424818Y-53272070D01*
X137328183Y-53132071D01*
X137200852Y-53019266D01*
X137200849Y-53019263D01*
X137050226Y-52940210D01*
X136885056Y-52899500D01*
X136714944Y-52899500D01*
X136549773Y-52940210D01*
X136399150Y-53019263D01*
X136271816Y-53132072D01*
X136175182Y-53272068D01*
X136114860Y-53431125D01*
X136114859Y-53431130D01*
X136094355Y-53600000D01*
X122791982Y-53600000D01*
X122700852Y-53519266D01*
X122700849Y-53519263D01*
X122550226Y-53440210D01*
X122385056Y-53399500D01*
X122214944Y-53399500D01*
X122049773Y-53440210D01*
X121899150Y-53519263D01*
X121771816Y-53632072D01*
X121675182Y-53772068D01*
X121614860Y-53931125D01*
X121614859Y-53931130D01*
X121594355Y-54100000D01*
X106456734Y-54100000D01*
X106819806Y-53624500D01*
X106822547Y-53621043D01*
X107505882Y-52790773D01*
X107508777Y-52787384D01*
X107940689Y-52300000D01*
X113494355Y-52300000D01*
X113514859Y-52468869D01*
X113514860Y-52468874D01*
X113575182Y-52627931D01*
X113612125Y-52681451D01*
X113671817Y-52767929D01*
X113777505Y-52861560D01*
X113799150Y-52880736D01*
X113934201Y-52951616D01*
X113949775Y-52959790D01*
X114114944Y-53000500D01*
X114285056Y-53000500D01*
X114450225Y-52959790D01*
X114565097Y-52899500D01*
X114600849Y-52880736D01*
X114600850Y-52880734D01*
X114600852Y-52880734D01*
X114728183Y-52767929D01*
X114824818Y-52627930D01*
X114885140Y-52468872D01*
X114905645Y-52300000D01*
X114885140Y-52131128D01*
X114873524Y-52100500D01*
X114828191Y-51980964D01*
X114824818Y-51972070D01*
X114728183Y-51832071D01*
X114600852Y-51719266D01*
X114600849Y-51719263D01*
X114450226Y-51640210D01*
X114285056Y-51599500D01*
X114114944Y-51599500D01*
X113949773Y-51640210D01*
X113799150Y-51719263D01*
X113671816Y-51832072D01*
X113575182Y-51972068D01*
X113514860Y-52131125D01*
X113514859Y-52131130D01*
X113494355Y-52300000D01*
X107940689Y-52300000D01*
X108221939Y-51982628D01*
X108224946Y-51979358D01*
X108967013Y-51201156D01*
X108970148Y-51197987D01*
X109740107Y-50447399D01*
X109743342Y-50444358D01*
X110013034Y-50200000D01*
X130794355Y-50200000D01*
X130814859Y-50368869D01*
X130814860Y-50368874D01*
X130875182Y-50527931D01*
X130877666Y-50531529D01*
X130971817Y-50667929D01*
X131053406Y-50740210D01*
X131099150Y-50780736D01*
X131249773Y-50859789D01*
X131249775Y-50859790D01*
X131414944Y-50900500D01*
X131560605Y-50900500D01*
X131627644Y-50920185D01*
X131673399Y-50972989D01*
X131683343Y-51042147D01*
X131676547Y-51068471D01*
X131614861Y-51231125D01*
X131614859Y-51231130D01*
X131594355Y-51400000D01*
X131614859Y-51568869D01*
X131614860Y-51568874D01*
X131675182Y-51727931D01*
X131737475Y-51818177D01*
X131771817Y-51867929D01*
X131877505Y-51961560D01*
X131899150Y-51980736D01*
X132049773Y-52059789D01*
X132049775Y-52059790D01*
X132214944Y-52100500D01*
X132385056Y-52100500D01*
X132550225Y-52059790D01*
X132629692Y-52018081D01*
X132700849Y-51980736D01*
X132700850Y-51980734D01*
X132700852Y-51980734D01*
X132828183Y-51867929D01*
X132924818Y-51727930D01*
X132985140Y-51568872D01*
X133005645Y-51400000D01*
X132985140Y-51231128D01*
X132924818Y-51072070D01*
X132828183Y-50932071D01*
X132700852Y-50819266D01*
X132700849Y-50819263D01*
X132550226Y-50740210D01*
X132385056Y-50699500D01*
X132239395Y-50699500D01*
X132172356Y-50679815D01*
X132126601Y-50627011D01*
X132116657Y-50557853D01*
X132123453Y-50531529D01*
X132124818Y-50527930D01*
X132185140Y-50368872D01*
X132205645Y-50200000D01*
X132185140Y-50031128D01*
X132124818Y-49872070D01*
X132122608Y-49868869D01*
X132090476Y-49822318D01*
X132028183Y-49732071D01*
X131900852Y-49619266D01*
X131900849Y-49619263D01*
X131750226Y-49540210D01*
X131585056Y-49499500D01*
X131414944Y-49499500D01*
X131249773Y-49540210D01*
X131099150Y-49619263D01*
X130971816Y-49732072D01*
X130875182Y-49872068D01*
X130814860Y-50031125D01*
X130814859Y-50031130D01*
X130794355Y-50200000D01*
X110013034Y-50200000D01*
X110540201Y-49722354D01*
X110543558Y-49719422D01*
X111245392Y-49128695D01*
X124804500Y-49128695D01*
X124839103Y-49302658D01*
X124839106Y-49302667D01*
X124906983Y-49466540D01*
X124906990Y-49466553D01*
X125005535Y-49614034D01*
X125005538Y-49614038D01*
X125130961Y-49739461D01*
X125130965Y-49739464D01*
X125278446Y-49838009D01*
X125278459Y-49838016D01*
X125401363Y-49888923D01*
X125442334Y-49905894D01*
X125442336Y-49905894D01*
X125442341Y-49905896D01*
X125616304Y-49940499D01*
X125616307Y-49940500D01*
X125616309Y-49940500D01*
X125793693Y-49940500D01*
X125793694Y-49940499D01*
X125851682Y-49928964D01*
X125967658Y-49905896D01*
X125967661Y-49905894D01*
X125967666Y-49905894D01*
X126131547Y-49838013D01*
X126279035Y-49739464D01*
X126404464Y-49614035D01*
X126503013Y-49466547D01*
X126570894Y-49302666D01*
X126605499Y-49128695D01*
X133444500Y-49128695D01*
X133479103Y-49302658D01*
X133479106Y-49302667D01*
X133546983Y-49466540D01*
X133546990Y-49466553D01*
X133645535Y-49614034D01*
X133645538Y-49614038D01*
X133770961Y-49739461D01*
X133770965Y-49739464D01*
X133918446Y-49838009D01*
X133918459Y-49838016D01*
X134041363Y-49888923D01*
X134082334Y-49905894D01*
X134082336Y-49905894D01*
X134082341Y-49905896D01*
X134256304Y-49940499D01*
X134256307Y-49940500D01*
X134256309Y-49940500D01*
X134433693Y-49940500D01*
X134433694Y-49940499D01*
X134491682Y-49928964D01*
X134607658Y-49905896D01*
X134607661Y-49905894D01*
X134607666Y-49905894D01*
X134771547Y-49838013D01*
X134919035Y-49739464D01*
X134958499Y-49700000D01*
X137394355Y-49700000D01*
X137414859Y-49868869D01*
X137414860Y-49868874D01*
X137475182Y-50027931D01*
X137537475Y-50118177D01*
X137571817Y-50167929D01*
X137677505Y-50261560D01*
X137699150Y-50280736D01*
X137849773Y-50359789D01*
X137849775Y-50359790D01*
X138014944Y-50400500D01*
X138185056Y-50400500D01*
X138350225Y-50359790D01*
X138429692Y-50318081D01*
X138500849Y-50280736D01*
X138500850Y-50280734D01*
X138500852Y-50280734D01*
X138628183Y-50167929D01*
X138724818Y-50027930D01*
X138785140Y-49868872D01*
X138805645Y-49700000D01*
X139094355Y-49700000D01*
X139114859Y-49868869D01*
X139114860Y-49868874D01*
X139175182Y-50027931D01*
X139237475Y-50118177D01*
X139271817Y-50167929D01*
X139377505Y-50261560D01*
X139399150Y-50280736D01*
X139549773Y-50359789D01*
X139549775Y-50359790D01*
X139714944Y-50400500D01*
X139885056Y-50400500D01*
X140050225Y-50359790D01*
X140129692Y-50318081D01*
X140200849Y-50280736D01*
X140200850Y-50280734D01*
X140200852Y-50280734D01*
X140328183Y-50167929D01*
X140424818Y-50027930D01*
X140485140Y-49868872D01*
X140505645Y-49700000D01*
X140485140Y-49531128D01*
X140424818Y-49372070D01*
X140328183Y-49232071D01*
X140200852Y-49119266D01*
X140200849Y-49119263D01*
X140050226Y-49040210D01*
X139885056Y-48999500D01*
X139714944Y-48999500D01*
X139549773Y-49040210D01*
X139399150Y-49119263D01*
X139271816Y-49232072D01*
X139175182Y-49372068D01*
X139114860Y-49531125D01*
X139114859Y-49531130D01*
X139094355Y-49700000D01*
X138805645Y-49700000D01*
X138785140Y-49531128D01*
X138724818Y-49372070D01*
X138628183Y-49232071D01*
X138500852Y-49119266D01*
X138500849Y-49119263D01*
X138350226Y-49040210D01*
X138185056Y-48999500D01*
X138014944Y-48999500D01*
X137849773Y-49040210D01*
X137699150Y-49119263D01*
X137571816Y-49232072D01*
X137475182Y-49372068D01*
X137414860Y-49531125D01*
X137414859Y-49531130D01*
X137394355Y-49700000D01*
X134958499Y-49700000D01*
X135044464Y-49614035D01*
X135143013Y-49466547D01*
X135210894Y-49302666D01*
X135245500Y-49128691D01*
X135245500Y-47851309D01*
X135245500Y-47851306D01*
X135245499Y-47851304D01*
X135210896Y-47677341D01*
X135210893Y-47677332D01*
X135143016Y-47513459D01*
X135143009Y-47513446D01*
X135044464Y-47365965D01*
X135044461Y-47365961D01*
X134919038Y-47240538D01*
X134919034Y-47240535D01*
X134771553Y-47141990D01*
X134771540Y-47141983D01*
X134607667Y-47074106D01*
X134607658Y-47074103D01*
X134433694Y-47039500D01*
X134433691Y-47039500D01*
X134256309Y-47039500D01*
X134256306Y-47039500D01*
X134082341Y-47074103D01*
X134082332Y-47074106D01*
X133918459Y-47141983D01*
X133918446Y-47141990D01*
X133770965Y-47240535D01*
X133770961Y-47240538D01*
X133645538Y-47365961D01*
X133645535Y-47365965D01*
X133546990Y-47513446D01*
X133546983Y-47513459D01*
X133479106Y-47677332D01*
X133479103Y-47677341D01*
X133444500Y-47851304D01*
X133444500Y-49128695D01*
X126605499Y-49128695D01*
X126605500Y-49128691D01*
X126605500Y-47851309D01*
X126605500Y-47851306D01*
X126605499Y-47851304D01*
X126570896Y-47677341D01*
X126570893Y-47677332D01*
X126503016Y-47513459D01*
X126503009Y-47513446D01*
X126404464Y-47365965D01*
X126404461Y-47365961D01*
X126279038Y-47240538D01*
X126279034Y-47240535D01*
X126131553Y-47141990D01*
X126131540Y-47141983D01*
X125967667Y-47074106D01*
X125967658Y-47074103D01*
X125793694Y-47039500D01*
X125793691Y-47039500D01*
X125616309Y-47039500D01*
X125616306Y-47039500D01*
X125442341Y-47074103D01*
X125442332Y-47074106D01*
X125278459Y-47141983D01*
X125278446Y-47141990D01*
X125130965Y-47240535D01*
X125130961Y-47240538D01*
X125005538Y-47365961D01*
X125005535Y-47365965D01*
X124906990Y-47513446D01*
X124906983Y-47513459D01*
X124839106Y-47677332D01*
X124839103Y-47677341D01*
X124804500Y-47851304D01*
X124804500Y-49128695D01*
X111245392Y-49128695D01*
X111366219Y-49026996D01*
X111369686Y-49024184D01*
X112217064Y-48362247D01*
X112220609Y-48359580D01*
X113091617Y-47728983D01*
X113095241Y-47726459D01*
X113988667Y-47128080D01*
X113992409Y-47125671D01*
X114907086Y-46560292D01*
X114910898Y-46558031D01*
X115845577Y-46026424D01*
X115849512Y-46024280D01*
X116802966Y-45527142D01*
X116806934Y-45525164D01*
X117777920Y-45063142D01*
X117781949Y-45061313D01*
X118769143Y-44635040D01*
X118773294Y-44633337D01*
X119775327Y-44243399D01*
X119779511Y-44241857D01*
X120795162Y-43888729D01*
X120799439Y-43887329D01*
X121827256Y-43571518D01*
X121831567Y-43570279D01*
X122823429Y-43304718D01*
X122855499Y-43300500D01*
X124788905Y-43300500D01*
X124855944Y-43320185D01*
G37*
%TD.AperFunction*%
%TD*%
M02*
