%TF.GenerationSoftware,KiCad,Pcbnew,8.0.1*%
%TF.CreationDate,2024-05-30T22:25:26-04:00*%
%TF.ProjectId,esp32s3,65737033-3273-4332-9e6b-696361645f70,rev?*%
%TF.SameCoordinates,Original*%
%TF.FileFunction,Copper,L4,Bot*%
%TF.FilePolarity,Positive*%
%FSLAX46Y46*%
G04 Gerber Fmt 4.6, Leading zero omitted, Abs format (unit mm)*
G04 Created by KiCad (PCBNEW 8.0.1) date 2024-05-30 22:25:26*
%MOMM*%
%LPD*%
G01*
G04 APERTURE LIST*
G04 Aperture macros list*
%AMRoundRect*
0 Rectangle with rounded corners*
0 $1 Rounding radius*
0 $2 $3 $4 $5 $6 $7 $8 $9 X,Y pos of 4 corners*
0 Add a 4 corners polygon primitive as box body*
4,1,4,$2,$3,$4,$5,$6,$7,$8,$9,$2,$3,0*
0 Add four circle primitives for the rounded corners*
1,1,$1+$1,$2,$3*
1,1,$1+$1,$4,$5*
1,1,$1+$1,$6,$7*
1,1,$1+$1,$8,$9*
0 Add four rect primitives between the rounded corners*
20,1,$1+$1,$2,$3,$4,$5,0*
20,1,$1+$1,$4,$5,$6,$7,0*
20,1,$1+$1,$6,$7,$8,$9,0*
20,1,$1+$1,$8,$9,$2,$3,0*%
%AMHorizOval*
0 Thick line with rounded ends*
0 $1 width*
0 $2 $3 position (X,Y) of the first rounded end (center of the circle)*
0 $4 $5 position (X,Y) of the second rounded end (center of the circle)*
0 Add line between two ends*
20,1,$1,$2,$3,$4,$5,0*
0 Add two circle primitives to create the rounded ends*
1,1,$1,$2,$3*
1,1,$1,$4,$5*%
G04 Aperture macros list end*
%TA.AperFunction,ComponentPad*%
%ADD10O,1.000000X2.100000*%
%TD*%
%TA.AperFunction,ComponentPad*%
%ADD11O,1.000000X1.800000*%
%TD*%
%TA.AperFunction,ComponentPad*%
%ADD12RoundRect,0.131234X-0.685064X-0.223988X-0.339545X-0.635761X0.685064X0.223988X0.339545X0.635761X0*%
%TD*%
%TA.AperFunction,ComponentPad*%
%ADD13HorizOval,0.800000X0.128558X-0.153209X-0.128558X0.153209X0*%
%TD*%
%TA.AperFunction,ViaPad*%
%ADD14C,0.600000*%
%TD*%
%TA.AperFunction,Conductor*%
%ADD15C,0.200000*%
%TD*%
G04 APERTURE END LIST*
D10*
%TO.P,J1,S1,SHIELD*%
%TO.N,unconnected-(J1-SHIELD-PadS1)_1*%
X134345000Y-48490000D03*
D11*
%TO.N,unconnected-(J1-SHIELD-PadS1)_2*%
X134345000Y-44290000D03*
D10*
%TO.N,unconnected-(J1-SHIELD-PadS1)_0*%
X125705000Y-48490000D03*
D11*
%TO.N,unconnected-(J1-SHIELD-PadS1)*%
X125705000Y-44290000D03*
%TD*%
D12*
%TO.P,SW1,4*%
%TO.N,N/C*%
X108068981Y-85781036D03*
%TO.P,SW1,3*%
X112832038Y-91457424D03*
D13*
%TO.P,SW1,2,2*%
%TO.N,GP0*%
X109986117Y-91939540D03*
%TO.P,SW1,1,1*%
%TO.N,GND*%
X107100000Y-88500000D03*
%TD*%
D14*
%TO.N,GND*%
X119000000Y-74400000D03*
X121000000Y-74800000D03*
X121700000Y-75500000D03*
X120900000Y-75800000D03*
X121500000Y-76600000D03*
X120900000Y-77400000D03*
X119100000Y-76400000D03*
X119100000Y-77500000D03*
X119100000Y-78500000D03*
X119100000Y-75300000D03*
X121900000Y-89200000D03*
%TO.N,+3V3*%
X151500000Y-70900000D03*
X115600000Y-86500000D03*
X119000000Y-83400000D03*
%TO.N,GND*%
X145800000Y-87600000D03*
X145800000Y-86700000D03*
X152000000Y-87200000D03*
X152000000Y-86300000D03*
X145600000Y-81400000D03*
X145000000Y-80800000D03*
X143300000Y-72300000D03*
X143400000Y-71300000D03*
X155500000Y-73600000D03*
X156000000Y-72800000D03*
X156200000Y-71500000D03*
X157400000Y-67800000D03*
X156700000Y-66300000D03*
X156300000Y-64100000D03*
X155500000Y-63600000D03*
X154200000Y-62500000D03*
X150800000Y-61300000D03*
X149900000Y-61100000D03*
X144600000Y-73900000D03*
X145100000Y-73200000D03*
X145300000Y-74400000D03*
X145300000Y-75800000D03*
%TO.N,GP0*%
X122500000Y-77300000D03*
X123500000Y-79700000D03*
%TO.N,GND*%
X147900000Y-69600000D03*
X148800000Y-69600000D03*
X149700000Y-69600000D03*
X147900000Y-68800000D03*
X148800000Y-68800000D03*
X149700000Y-68800000D03*
X149700000Y-68000000D03*
X148800000Y-68000000D03*
X147900000Y-68000000D03*
%TO.N,LCD_CS*%
X130000000Y-79000000D03*
%TO.N,LCD_RST*%
X130050000Y-80300000D03*
%TO.N,GND*%
X114000000Y-50900000D03*
X114700000Y-50400000D03*
X114000000Y-49100000D03*
X114000000Y-50000000D03*
X114000000Y-48200000D03*
X114700000Y-48600000D03*
X114700000Y-49500000D03*
X114700000Y-47700000D03*
X107600000Y-60800000D03*
X108500000Y-60800000D03*
X106700000Y-60800000D03*
X107100000Y-60100000D03*
X108000000Y-60100000D03*
X106200000Y-60100000D03*
X103600000Y-68100000D03*
X104500000Y-68100000D03*
X102700000Y-68100000D03*
X103100000Y-67400000D03*
X104000000Y-67400000D03*
X102200000Y-67400000D03*
X110600000Y-75000000D03*
X110600000Y-74100000D03*
X110600000Y-75900000D03*
X109900000Y-75500000D03*
X109900000Y-74600000D03*
X109900000Y-76400000D03*
X125500000Y-72700000D03*
X126400000Y-72700000D03*
X124600000Y-72700000D03*
X125000000Y-72000000D03*
X125900000Y-72000000D03*
X115500000Y-56900000D03*
X114800000Y-58300000D03*
X115500000Y-57800000D03*
X114800000Y-57400000D03*
X114800000Y-60100000D03*
X114800000Y-59200000D03*
X115500000Y-59600000D03*
X115500000Y-58700000D03*
X144300000Y-90100000D03*
X143600000Y-91500000D03*
X144300000Y-91000000D03*
X143600000Y-90600000D03*
X143600000Y-93300000D03*
X143600000Y-92400000D03*
X144300000Y-92800000D03*
X144300000Y-91900000D03*
X145800000Y-83100000D03*
X145100000Y-84500000D03*
X145800000Y-84000000D03*
X145100000Y-83600000D03*
X145100000Y-86300000D03*
X145100000Y-85400000D03*
X145800000Y-85800000D03*
X145800000Y-84900000D03*
X152700000Y-82200000D03*
X152000000Y-83600000D03*
X152700000Y-83100000D03*
X152000000Y-82700000D03*
X152000000Y-85400000D03*
X152000000Y-84500000D03*
X152700000Y-84900000D03*
X152700000Y-84000000D03*
X153300000Y-62300000D03*
X156000000Y-64900000D03*
X153500000Y-63400000D03*
X154500000Y-63400000D03*
X142100000Y-60900000D03*
X141400000Y-62300000D03*
X142100000Y-61800000D03*
X141400000Y-61400000D03*
X141400000Y-64100000D03*
X141400000Y-63200000D03*
X142100000Y-63600000D03*
X142100000Y-62700000D03*
X127400000Y-54800000D03*
X126700000Y-56200000D03*
X127400000Y-55700000D03*
X126700000Y-55300000D03*
X127400000Y-56600000D03*
X124000000Y-45800000D03*
X122600000Y-45100000D03*
X123100000Y-45800000D03*
X123500000Y-45100000D03*
X120800000Y-45100000D03*
X121700000Y-45100000D03*
X121300000Y-45800000D03*
X122200000Y-45800000D03*
X135400000Y-53600000D03*
X134000000Y-52900000D03*
X134500000Y-53600000D03*
X134900000Y-52900000D03*
X132200000Y-52900000D03*
X133100000Y-52900000D03*
X132700000Y-53600000D03*
X133600000Y-53600000D03*
X138900000Y-56900000D03*
X137500000Y-56200000D03*
X138000000Y-56900000D03*
X138400000Y-56200000D03*
X135700000Y-56200000D03*
X136600000Y-56200000D03*
X136200000Y-56900000D03*
X137100000Y-56900000D03*
X126700000Y-60500000D03*
X125300000Y-59800000D03*
X125800000Y-60500000D03*
X126200000Y-59800000D03*
X123500000Y-59800000D03*
X124400000Y-59800000D03*
X124000000Y-60500000D03*
X124900000Y-60500000D03*
X136700000Y-69500000D03*
X135300000Y-68800000D03*
X135800000Y-69500000D03*
X136200000Y-68800000D03*
X133500000Y-68800000D03*
X134400000Y-68800000D03*
X134000000Y-69500000D03*
X134900000Y-69500000D03*
X136900000Y-79600000D03*
X135500000Y-78900000D03*
X136000000Y-79600000D03*
X136400000Y-78900000D03*
X133700000Y-78900000D03*
X134600000Y-78900000D03*
X134200000Y-79600000D03*
X135100000Y-79600000D03*
X140500000Y-86800000D03*
X139100000Y-86100000D03*
X139600000Y-86800000D03*
X140000000Y-86100000D03*
X137300000Y-86100000D03*
X138200000Y-86100000D03*
X137800000Y-86800000D03*
X138700000Y-86800000D03*
X136600000Y-93400000D03*
X135200000Y-92700000D03*
X135700000Y-93400000D03*
X136100000Y-92700000D03*
X133400000Y-92700000D03*
X134300000Y-92700000D03*
X133900000Y-93400000D03*
X134800000Y-93400000D03*
X128900000Y-93500000D03*
X127500000Y-92800000D03*
X128000000Y-93500000D03*
X128400000Y-92800000D03*
X125700000Y-92800000D03*
X126600000Y-92800000D03*
X126200000Y-93500000D03*
X127100000Y-93500000D03*
X112900000Y-83800000D03*
X111500000Y-83100000D03*
X112000000Y-83800000D03*
X112400000Y-83100000D03*
X109700000Y-83100000D03*
X110600000Y-83100000D03*
X110200000Y-83800000D03*
X111100000Y-83800000D03*
X107100000Y-77300000D03*
X105700000Y-76600000D03*
X106200000Y-77300000D03*
X106600000Y-76600000D03*
X103900000Y-76600000D03*
X104800000Y-76600000D03*
X104400000Y-77300000D03*
X105300000Y-77300000D03*
X113800000Y-69500000D03*
X112400000Y-68800000D03*
X112900000Y-69500000D03*
X113300000Y-68800000D03*
X110600000Y-68800000D03*
X111500000Y-68800000D03*
X111100000Y-69500000D03*
X112000000Y-69500000D03*
X108600000Y-63900000D03*
X109100000Y-64600000D03*
X111800000Y-64600000D03*
X110900000Y-64600000D03*
X110000000Y-64600000D03*
X109500000Y-63900000D03*
X110400000Y-63900000D03*
X111300000Y-63900000D03*
X154500000Y-76300000D03*
X154200000Y-77300000D03*
X155000000Y-74500000D03*
X154100000Y-74500000D03*
X154500000Y-75400000D03*
X153300000Y-71400000D03*
X153200000Y-72300000D03*
X153900000Y-72900000D03*
X151800000Y-75600000D03*
X151200000Y-74500000D03*
X146600000Y-75400000D03*
X147300000Y-77700000D03*
X150700000Y-81700000D03*
X144900000Y-79800000D03*
X146700000Y-73600000D03*
X145900000Y-73800000D03*
X145800000Y-72800000D03*
X144100000Y-70800000D03*
X144300000Y-71700000D03*
X145200000Y-70700000D03*
X144200000Y-66600000D03*
X144900000Y-66100000D03*
%TO.N,Net-(U6-XTB)*%
X153300000Y-68100000D03*
%TO.N,GND*%
X113500000Y-78000000D03*
X113500000Y-77100000D03*
X122400000Y-73600000D03*
X120800000Y-73500000D03*
X122400000Y-76300000D03*
X121800000Y-78500000D03*
X120900000Y-78500000D03*
%TO.N,LoRa_NSS*%
X145400000Y-71700000D03*
%TO.N,GND*%
X126000000Y-77200000D03*
X127500000Y-81800000D03*
%TO.N,MOSI*%
X141300000Y-69800000D03*
%TO.N,+3V3*%
X145000000Y-64100000D03*
%TO.N,CHG_STAT*%
X139300000Y-69900000D03*
%TO.N,MOSI*%
X130800000Y-58500000D03*
X133200000Y-58600000D03*
%TO.N,MISO*%
X134300000Y-58400000D03*
X130800000Y-57600000D03*
%TO.N,+3V3*%
X139800000Y-49700000D03*
%TO.N,GPS_ON*%
X120900000Y-91600000D03*
X122200000Y-59300000D03*
%TO.N,+3V3*%
X134100000Y-90000000D03*
X123026085Y-80373915D03*
X148000000Y-63100000D03*
X140600000Y-89600000D03*
X144600000Y-78700000D03*
X122300000Y-86500000D03*
X128300971Y-80252441D03*
X148000000Y-62300000D03*
X115720000Y-69760000D03*
X122300000Y-54100000D03*
X118100000Y-88000000D03*
X120800000Y-70600000D03*
X136800000Y-53600000D03*
X114200000Y-52300000D03*
X148000000Y-64000000D03*
X107800000Y-68400000D03*
X116800000Y-66100000D03*
%TO.N,GPS_TXD*%
X118400000Y-62100000D03*
X119100000Y-82000000D03*
%TO.N,GPS_RXD*%
X118500000Y-81400000D03*
X117800000Y-61500000D03*
%TO.N,VCC*%
X138100000Y-49700000D03*
X145100000Y-57200000D03*
%TO.N,Net-(J1-CC1)*%
X131500000Y-50200000D03*
X132300000Y-51400000D03*
%TO.N,Net-(U6-XTB)*%
X151600000Y-68300000D03*
%TO.N,Net-(U6-XTA)*%
X155800000Y-69500000D03*
X151700000Y-69141158D03*
%TO.N,ANT_SW_CTRL*%
X146600000Y-66900000D03*
X152800000Y-78800000D03*
%TO.N,LCD_RST*%
X116800000Y-93800000D03*
%TO.N,LoRa_BUSY*%
X115400000Y-88600000D03*
X144974265Y-67574265D03*
%TO.N,LoRa_NSS*%
X114968081Y-95700000D03*
%TO.N,INT_MAG*%
X122701302Y-92101302D03*
X140550000Y-93050000D03*
%TO.N,+3V3*%
X132300000Y-84500000D03*
X131100000Y-82800000D03*
%TO.N,SCK*%
X138900000Y-71300000D03*
X117400000Y-70500000D03*
X121200000Y-66200000D03*
X116900000Y-81900000D03*
%TO.N,XL_INT1*%
X124100000Y-90800000D03*
X139800000Y-89200000D03*
%TO.N,LCD_CS*%
X134700000Y-86100000D03*
X116200000Y-92800000D03*
%TO.N,LCD_HSYNC*%
X127262500Y-77262500D03*
X121250000Y-80950000D03*
%TO.N,Net-(J5-Pin_12)*%
X122600000Y-83350000D03*
X128976515Y-79676429D03*
%TO.N,LoRa_RST*%
X116200000Y-95600000D03*
X145103260Y-68452940D03*
%TO.N,LCD_VSYNC*%
X122074925Y-81753431D03*
X127400000Y-78200000D03*
%TO.N,LoRa_DIO1*%
X114800000Y-89400000D03*
X145400000Y-66800000D03*
%TO.N,CHIP_PU*%
X124312500Y-77212500D03*
X119500000Y-67300000D03*
%TO.N,XL_INT0*%
X123401302Y-91401302D03*
X139300000Y-89900000D03*
%TO.N,Net-(J5-Pin_2)*%
X133000000Y-81500000D03*
X127300000Y-89700000D03*
%TO.N,LCD_DE*%
X128300000Y-79000000D03*
X120900000Y-82300000D03*
%TO.N,BAT_V*%
X127500000Y-69900000D03*
X135700000Y-62900000D03*
%TO.N,SDA*%
X114575000Y-77900000D03*
X137900000Y-88700000D03*
X125300000Y-89600000D03*
X119025735Y-87974265D03*
%TO.N,SCL*%
X124700000Y-90200000D03*
X136800000Y-90400000D03*
X119900000Y-88300000D03*
X115500000Y-78100000D03*
%TO.N,MISO*%
X143400000Y-67600000D03*
X108424265Y-80475735D03*
%TO.N,GPIO_INT*%
X119218611Y-73481389D03*
X119250000Y-86450000D03*
%TO.N,MOSI*%
X142792433Y-68407567D03*
X110500000Y-81100000D03*
%TO.N,SPI_IO1*%
X111000000Y-78200000D03*
X113900000Y-75700000D03*
%TO.N,SPI_IO2*%
X112200000Y-74900000D03*
X114600000Y-73100000D03*
%TO.N,SPI_IO0*%
X114800000Y-76100000D03*
X114400000Y-72100000D03*
%TO.N,SPI_CS0*%
X114600000Y-74000000D03*
X109800000Y-78200000D03*
%TO.N,GPIO_RST*%
X117150000Y-71350000D03*
X118400000Y-85500000D03*
%TO.N,CHG_STAT*%
X143000000Y-58600000D03*
X127900000Y-88900000D03*
X143300000Y-65900000D03*
%TO.N,GND*%
X152600000Y-77000000D03*
X118100000Y-90800000D03*
X145900000Y-75000000D03*
X146500000Y-82400000D03*
X152400000Y-62100000D03*
X155000000Y-72900000D03*
X117300000Y-91600000D03*
X152800000Y-76000000D03*
X122600000Y-84500000D03*
X147100000Y-81000000D03*
X147900000Y-71800000D03*
X147600000Y-76800000D03*
X149900000Y-82500000D03*
X149400000Y-62400000D03*
X117300000Y-90000000D03*
X155200000Y-71200000D03*
X145500000Y-76700000D03*
X148100000Y-83200000D03*
X151400000Y-80800000D03*
X147274997Y-82900000D03*
X147300000Y-88100000D03*
X147800000Y-80600000D03*
X146800000Y-76700000D03*
X153000000Y-81000000D03*
X152400000Y-80400000D03*
X151500000Y-81900000D03*
X156600000Y-67300000D03*
X148900000Y-78200000D03*
X154300000Y-64200000D03*
X146100000Y-65200000D03*
X153700000Y-75800000D03*
X147000000Y-71900000D03*
X153400000Y-64300000D03*
X151600000Y-61900000D03*
X150200000Y-84100000D03*
X146400000Y-81400000D03*
X156200000Y-68200000D03*
X151900000Y-66800000D03*
X150600000Y-80800000D03*
X147900000Y-82300000D03*
X147300000Y-84200000D03*
X127700000Y-96200000D03*
X147500000Y-61300000D03*
X146600000Y-63600000D03*
X146200000Y-77400000D03*
X150200000Y-77100000D03*
X155900000Y-70600000D03*
X149100000Y-61500000D03*
X141300000Y-59900000D03*
X152300000Y-65000000D03*
X146000000Y-80700000D03*
X150700000Y-82600000D03*
X147300000Y-76000000D03*
X153300000Y-77800000D03*
X154400000Y-73600000D03*
X153200000Y-65500000D03*
X153800000Y-79300000D03*
X155900000Y-65900000D03*
X147500000Y-78700000D03*
X145800000Y-66000000D03*
X145200000Y-77500000D03*
X147100000Y-81800000D03*
X145600000Y-82200000D03*
X157100000Y-68700000D03*
X149800000Y-80800000D03*
X155100000Y-65300000D03*
X152600000Y-64000000D03*
X153400000Y-80200000D03*
X118900000Y-91600000D03*
X146300000Y-64400000D03*
X153900000Y-78400000D03*
X152100000Y-81300000D03*
X147300000Y-74300000D03*
X155100000Y-64400000D03*
X146100000Y-76100000D03*
X155400000Y-72100000D03*
X150100000Y-64900000D03*
X149900000Y-81700000D03*
X156900000Y-69700000D03*
X153500000Y-76600000D03*
X147700000Y-72700000D03*
X150600000Y-83400000D03*
X150800000Y-62400000D03*
X152500000Y-66200000D03*
X118900000Y-90000000D03*
X152600000Y-62900000D03*
X151700000Y-76700000D03*
X148400000Y-61100000D03*
X149800000Y-83300000D03*
X146700000Y-62700000D03*
X150600000Y-77800000D03*
X147800000Y-81400000D03*
X155900000Y-66900000D03*
X146500000Y-74400000D03*
X150600000Y-75400000D03*
X147400000Y-75100000D03*
X150700000Y-73800000D03*
X146900000Y-61900000D03*
X155200000Y-66300000D03*
X150100000Y-62000000D03*
X156800000Y-70500000D03*
X150600000Y-88200000D03*
%TD*%
D15*
%TO.N,LCD_CS*%
X130000000Y-79501471D02*
X130000000Y-79000000D01*
X129400000Y-80101471D02*
X130000000Y-79501471D01*
X120371232Y-93000000D02*
X129400000Y-83971232D01*
X129400000Y-83971232D02*
X129400000Y-80101471D01*
X116400000Y-93000000D02*
X120371232Y-93000000D01*
X116200000Y-92800000D02*
X116400000Y-93000000D01*
%TO.N,LCD_RST*%
X116925000Y-93925000D02*
X116800000Y-93800000D01*
X120029075Y-93925000D02*
X116925000Y-93925000D01*
X130050000Y-83904075D02*
X120029075Y-93925000D01*
X130050000Y-80300000D02*
X130050000Y-83904075D01*
%TO.N,GPS_ON*%
X120200000Y-73500000D02*
X120200000Y-82448529D01*
X118900000Y-72200000D02*
X120200000Y-73500000D01*
X118900000Y-62767463D02*
X118900000Y-72200000D01*
X120900000Y-83148529D02*
X120900000Y-91600000D01*
X122200000Y-59467463D02*
X118900000Y-62767463D01*
X122200000Y-59300000D02*
X122200000Y-59467463D01*
X120200000Y-82448529D02*
X120900000Y-83148529D01*
%TO.N,MOSI*%
X142792433Y-68206053D02*
X142792433Y-68407567D01*
X133200000Y-58613620D02*
X142792433Y-68206053D01*
X133200000Y-58600000D02*
X133200000Y-58613620D01*
%TO.N,MISO*%
X134300000Y-58800000D02*
X143100000Y-67600000D01*
X134300000Y-58400000D02*
X134300000Y-58800000D01*
X143100000Y-67600000D02*
X143400000Y-67600000D01*
%TO.N,Net-(J1-CC1)*%
X131500000Y-50600000D02*
X132300000Y-51400000D01*
X131500000Y-50200000D02*
X131500000Y-50600000D01*
%TO.N,BAT_V*%
X128700000Y-69900000D02*
X135700000Y-62900000D01*
X127500000Y-69900000D02*
X128700000Y-69900000D01*
%TO.N,CHIP_PU*%
X121700000Y-74425000D02*
X121700000Y-69500000D01*
X124312500Y-77212500D02*
X124312500Y-77037500D01*
X124312500Y-77037500D02*
X121700000Y-74425000D01*
X121700000Y-69500000D02*
X119500000Y-67300000D01*
%TO.N,GPS_TXD*%
X119100000Y-81057537D02*
X119100000Y-82000000D01*
X118400000Y-80357537D02*
X119100000Y-81057537D01*
X118400000Y-62100000D02*
X118400000Y-80357537D01*
%TO.N,GPS_RXD*%
X118000000Y-80900000D02*
X118500000Y-81400000D01*
X118000000Y-70251471D02*
X118000000Y-80900000D01*
X117800000Y-70051471D02*
X118000000Y-70251471D01*
X117800000Y-61500000D02*
X117800000Y-70051471D01*
%TO.N,GP0*%
X122500000Y-78700000D02*
X123500000Y-79700000D01*
X122500000Y-77300000D02*
X122500000Y-78700000D01*
%TO.N,LoRa_NSS*%
X142425000Y-74675000D02*
X145400000Y-71700000D01*
X140339520Y-96000000D02*
X142425000Y-93914520D01*
X128100000Y-96800000D02*
X128900000Y-96000000D01*
X128900000Y-96000000D02*
X140339520Y-96000000D01*
X116068081Y-96800000D02*
X128100000Y-96800000D01*
X114968081Y-95700000D02*
X116068081Y-96800000D01*
X142425000Y-93914520D02*
X142425000Y-74675000D01*
%TO.N,LoRa_RST*%
X140173835Y-95600000D02*
X116200000Y-95600000D01*
X142025000Y-93748835D02*
X140173835Y-95600000D01*
X142025000Y-71392261D02*
X142025000Y-93748835D01*
X145103260Y-68452940D02*
X144964321Y-68452940D01*
X144964321Y-68452940D02*
X142025000Y-71392261D01*
%TO.N,LoRa_BUSY*%
X114751471Y-88600000D02*
X115400000Y-88600000D01*
X114075000Y-89276471D02*
X114751471Y-88600000D01*
X114075000Y-93775000D02*
X114075000Y-89276471D01*
X115275000Y-94975000D02*
X114075000Y-93775000D01*
X140233149Y-94975000D02*
X115275000Y-94975000D01*
X141625000Y-93583149D02*
X140233149Y-94975000D01*
X144503260Y-68219963D02*
X141625000Y-71098223D01*
X141625000Y-71098223D02*
X141625000Y-93583149D01*
X144503260Y-68045270D02*
X144503260Y-68219963D01*
X144974265Y-67574265D02*
X144503260Y-68045270D01*
%TO.N,LoRa_DIO1*%
X114800000Y-93000000D02*
X114800000Y-89400000D01*
X140142463Y-94500000D02*
X116300000Y-94500000D01*
X144000000Y-68048529D02*
X141225000Y-70823529D01*
X141225000Y-93417463D02*
X140142463Y-94500000D01*
X116300000Y-94500000D02*
X114800000Y-93000000D01*
X144000000Y-67700000D02*
X144000000Y-68048529D01*
X144900000Y-66800000D02*
X144000000Y-67700000D01*
X141225000Y-70823529D02*
X141225000Y-93417463D01*
X145400000Y-66800000D02*
X144900000Y-66800000D01*
%TO.N,ANT_SW_CTRL*%
X146375000Y-72375000D02*
X152800000Y-78800000D01*
X146375000Y-67125000D02*
X146375000Y-72375000D01*
X146600000Y-66900000D02*
X146375000Y-67125000D01*
%TO.N,SCK*%
X121500000Y-66200000D02*
X121200000Y-66200000D01*
X126543127Y-71243127D02*
X121500000Y-66200000D01*
X138843127Y-71243127D02*
X126543127Y-71243127D01*
X138900000Y-71300000D02*
X138843127Y-71243127D01*
%TO.N,CHG_STAT*%
X133442463Y-88900000D02*
X127900000Y-88900000D01*
X139527400Y-82815063D02*
X133442463Y-88900000D01*
X139527400Y-70127400D02*
X139527400Y-82815063D01*
X139300000Y-69900000D02*
X139527400Y-70127400D01*
%TO.N,MOSI*%
X141400000Y-69800000D02*
X141300000Y-69800000D01*
X142792433Y-68407567D02*
X141400000Y-69800000D01*
%TO.N,SCL*%
X125200000Y-90700000D02*
X124700000Y-90200000D01*
X136800000Y-90400000D02*
X136500000Y-90700000D01*
X136500000Y-90700000D02*
X125200000Y-90700000D01*
%TO.N,XL_INT0*%
X123500000Y-91500000D02*
X123401302Y-91401302D01*
X137700000Y-91500000D02*
X123500000Y-91500000D01*
X139300000Y-89900000D02*
X137700000Y-91500000D01*
%TO.N,XL_INT1*%
X137251471Y-91100000D02*
X124400000Y-91100000D01*
X139151471Y-89200000D02*
X137251471Y-91100000D01*
X139800000Y-89200000D02*
X139151471Y-89200000D01*
X124400000Y-91100000D02*
X124100000Y-90800000D01*
%TO.N,SDA*%
X137542463Y-89057537D02*
X135617463Y-89057537D01*
X137900000Y-88700000D02*
X137542463Y-89057537D01*
X135617463Y-89057537D02*
X135500000Y-89175000D01*
%TO.N,INT_MAG*%
X122702604Y-92100000D02*
X122701302Y-92101302D01*
X139600000Y-92100000D02*
X122702604Y-92100000D01*
X140550000Y-93050000D02*
X139600000Y-92100000D01*
%TO.N,XL_INT0*%
X123320061Y-91401302D02*
X123401302Y-91401302D01*
X123270323Y-91451040D02*
X123320061Y-91401302D01*
%TO.N,SDA*%
X133851471Y-89175000D02*
X135500000Y-89175000D01*
X135500000Y-89175000D02*
X135507537Y-89175000D01*
X132726471Y-90300000D02*
X133851471Y-89175000D01*
X126000000Y-90300000D02*
X132726471Y-90300000D01*
X125300000Y-89600000D02*
X126000000Y-90300000D01*
%TO.N,Net-(J5-Pin_2)*%
X133000000Y-82300000D02*
X133000000Y-81500000D01*
X127300000Y-88000000D02*
X133000000Y-82300000D01*
X127300000Y-89700000D02*
X127300000Y-88000000D01*
%TO.N,GPIO_RST*%
X117575000Y-84675000D02*
X117575000Y-71775000D01*
X117575000Y-71775000D02*
X117150000Y-71350000D01*
X118400000Y-85500000D02*
X117575000Y-84675000D01*
%TO.N,GPIO_INT*%
X119750000Y-85950000D02*
X119750000Y-74012778D01*
X119250000Y-86450000D02*
X119750000Y-85950000D01*
X119750000Y-74012778D02*
X119218611Y-73481389D01*
%TO.N,SDA*%
X118939967Y-87974265D02*
X114575000Y-83609298D01*
X119025735Y-87974265D02*
X118939967Y-87974265D01*
X114575000Y-83609298D02*
X114575000Y-77900000D01*
%TO.N,SCL*%
X115100000Y-83200000D02*
X115100000Y-78500000D01*
X119900000Y-88000000D02*
X115100000Y-83200000D01*
X119900000Y-88300000D02*
X119900000Y-88000000D01*
X115100000Y-78500000D02*
X115500000Y-78100000D01*
%TO.N,Net-(J5-Pin_12)*%
X128952527Y-79652441D02*
X128976515Y-79676429D01*
X123402390Y-83350000D02*
X127099949Y-79652441D01*
X127099949Y-79652441D02*
X128952527Y-79652441D01*
X122600000Y-83350000D02*
X123402390Y-83350000D01*
%TO.N,LCD_DE*%
X127009928Y-79000000D02*
X128300000Y-79000000D01*
X121000000Y-82400000D02*
X123609928Y-82400000D01*
X120900000Y-82300000D02*
X121000000Y-82400000D01*
X123609928Y-82400000D02*
X127009928Y-79000000D01*
%TO.N,SCK*%
X116475000Y-70982537D02*
X116957537Y-70500000D01*
X116475000Y-81475000D02*
X116475000Y-70982537D01*
X116957537Y-70500000D02*
X117400000Y-70500000D01*
X116900000Y-81900000D02*
X116475000Y-81475000D01*
%TO.N,SPI_IO1*%
X113900000Y-75700000D02*
X113500000Y-75700000D01*
X113500000Y-75700000D02*
X111000000Y-78200000D01*
%TO.N,SPI_IO0*%
X115875021Y-73352608D02*
X114622413Y-72100000D01*
X114622413Y-72100000D02*
X114400000Y-72100000D01*
X115875021Y-75024979D02*
X115875021Y-73352608D01*
X114800000Y-76100000D02*
X115875021Y-75024979D01*
%TO.N,SPI_CS0*%
X114300000Y-74300000D02*
X113742463Y-74300000D01*
X113742463Y-74300000D02*
X109842463Y-78200000D01*
X114600000Y-74000000D02*
X114300000Y-74300000D01*
X109842463Y-78200000D02*
X109800000Y-78200000D01*
%TO.N,SPI_IO2*%
X113400000Y-73700000D02*
X112200000Y-74900000D01*
X114000000Y-73700000D02*
X113400000Y-73700000D01*
X114600000Y-73100000D02*
X114000000Y-73700000D01*
%TO.N,LCD_VSYNC*%
X122321494Y-82000000D02*
X123267464Y-82000000D01*
X123267464Y-82000000D02*
X127067464Y-78200000D01*
X122074925Y-81753431D02*
X122321494Y-82000000D01*
X127067464Y-78200000D02*
X127400000Y-78200000D01*
%TO.N,LCD_HSYNC*%
X123525000Y-81000000D02*
X127262500Y-77262500D01*
X121300000Y-81000000D02*
X123525000Y-81000000D01*
X121250000Y-80950000D02*
X121300000Y-81000000D01*
%TO.N,LCD_CS*%
X130200000Y-78800000D02*
X130000000Y-79000000D01*
X131242463Y-78800000D02*
X130200000Y-78800000D01*
X134700000Y-82257537D02*
X131242463Y-78800000D01*
X134700000Y-86100000D02*
X134700000Y-82257537D01*
%TO.N,MOSI*%
X130625000Y-58675000D02*
X130800000Y-58500000D01*
X119690686Y-58675000D02*
X130625000Y-58675000D01*
%TO.N,MISO*%
X121375000Y-57600000D02*
X130800000Y-57600000D01*
X120200000Y-57600000D02*
X121375000Y-57600000D01*
%TO.N,CHG_STAT*%
X143000000Y-58600000D02*
X143300000Y-58900000D01*
X143300000Y-58900000D02*
X143300000Y-65900000D01*
%TO.N,VCC*%
X145100000Y-56700000D02*
X138100000Y-49700000D01*
X145100000Y-57200000D02*
X145100000Y-56700000D01*
%TO.N,MISO*%
X108424265Y-80475735D02*
X108424265Y-69375735D01*
X108424265Y-69375735D02*
X120200000Y-57600000D01*
%TO.N,MOSI*%
X108824265Y-69541421D02*
X119690686Y-58675000D01*
X110500000Y-81100000D02*
X108824265Y-79424265D01*
X108824265Y-79424265D02*
X108824265Y-69541421D01*
%TD*%
%TA.AperFunction,Conductor*%
%TO.N,GND*%
G36*
X124855944Y-43320185D02*
G01*
X124901699Y-43372989D01*
X124911643Y-43442147D01*
X124903466Y-43471952D01*
X124839106Y-43627332D01*
X124839103Y-43627341D01*
X124804500Y-43801304D01*
X124804500Y-44778695D01*
X124839103Y-44952658D01*
X124839106Y-44952667D01*
X124906983Y-45116540D01*
X124906990Y-45116553D01*
X125005535Y-45264034D01*
X125005538Y-45264038D01*
X125130961Y-45389461D01*
X125130965Y-45389464D01*
X125278446Y-45488009D01*
X125278459Y-45488016D01*
X125372970Y-45527163D01*
X125442334Y-45555894D01*
X125442336Y-45555894D01*
X125442341Y-45555896D01*
X125616304Y-45590499D01*
X125616307Y-45590500D01*
X125616309Y-45590500D01*
X125793693Y-45590500D01*
X125793694Y-45590499D01*
X125851682Y-45578964D01*
X125967658Y-45555896D01*
X125967661Y-45555894D01*
X125967666Y-45555894D01*
X126131547Y-45488013D01*
X126279035Y-45389464D01*
X126404464Y-45264035D01*
X126503013Y-45116547D01*
X126570894Y-44952666D01*
X126605500Y-44778691D01*
X126605500Y-43801309D01*
X126605500Y-43801306D01*
X126605499Y-43801304D01*
X126570896Y-43627341D01*
X126570893Y-43627332D01*
X126506534Y-43471952D01*
X126499065Y-43402482D01*
X126530341Y-43340003D01*
X126590430Y-43304352D01*
X126621095Y-43300500D01*
X129998961Y-43300500D01*
X129999577Y-43300502D01*
X133422476Y-43317517D01*
X133489414Y-43337534D01*
X133534906Y-43390565D01*
X133544506Y-43459772D01*
X133536419Y-43488966D01*
X133479106Y-43627334D01*
X133479105Y-43627338D01*
X133479104Y-43627341D01*
X133479103Y-43627341D01*
X133444500Y-43801304D01*
X133444500Y-44778695D01*
X133479103Y-44952658D01*
X133479106Y-44952667D01*
X133546983Y-45116540D01*
X133546990Y-45116553D01*
X133645535Y-45264034D01*
X133645538Y-45264038D01*
X133770961Y-45389461D01*
X133770965Y-45389464D01*
X133918446Y-45488009D01*
X133918459Y-45488016D01*
X134012970Y-45527163D01*
X134082334Y-45555894D01*
X134082336Y-45555894D01*
X134082341Y-45555896D01*
X134256304Y-45590499D01*
X134256307Y-45590500D01*
X134256309Y-45590500D01*
X134433693Y-45590500D01*
X134433694Y-45590499D01*
X134491682Y-45578964D01*
X134607658Y-45555896D01*
X134607661Y-45555894D01*
X134607666Y-45555894D01*
X134771547Y-45488013D01*
X134919035Y-45389464D01*
X135044464Y-45264035D01*
X135143013Y-45116547D01*
X135210894Y-44952666D01*
X135245500Y-44778691D01*
X135245500Y-43801309D01*
X135245500Y-43801306D01*
X135245499Y-43801304D01*
X135210896Y-43627341D01*
X135210893Y-43627332D01*
X135157391Y-43498165D01*
X135149922Y-43428696D01*
X135181197Y-43366217D01*
X135241287Y-43330565D01*
X135272560Y-43326715D01*
X137135218Y-43335975D01*
X137166560Y-43340164D01*
X138110466Y-43592035D01*
X138114578Y-43593210D01*
X138924212Y-43839746D01*
X139094421Y-43891575D01*
X139098528Y-43892904D01*
X140067379Y-44225192D01*
X140071438Y-44226663D01*
X141028163Y-44592488D01*
X141032168Y-44594100D01*
X141975556Y-44992998D01*
X141979496Y-44994745D01*
X142908464Y-45426259D01*
X142912297Y-45428122D01*
X143265139Y-45607208D01*
X143825682Y-45891714D01*
X143829498Y-45893735D01*
X144726168Y-46388829D01*
X144729873Y-46390960D01*
X145608785Y-46916979D01*
X145612400Y-46919228D01*
X146472497Y-47475544D01*
X146476069Y-47477945D01*
X146761994Y-47677334D01*
X147316195Y-48063805D01*
X147319693Y-48066335D01*
X148138967Y-48681124D01*
X148142364Y-48683767D01*
X148939721Y-49326689D01*
X148943028Y-49329452D01*
X149570003Y-49872070D01*
X149717523Y-49999741D01*
X149720728Y-50002614D01*
X150105503Y-50359789D01*
X150471415Y-50699455D01*
X150474528Y-50702447D01*
X150829089Y-51055336D01*
X151159943Y-51384629D01*
X151200507Y-51425001D01*
X151203507Y-51428093D01*
X151903902Y-52175490D01*
X151906768Y-52178657D01*
X152421646Y-52767927D01*
X152580719Y-52949983D01*
X152583503Y-52953283D01*
X153230190Y-53747594D01*
X153232857Y-53750989D01*
X153851500Y-54567329D01*
X153854047Y-54570815D01*
X153987161Y-54759790D01*
X154413003Y-55364337D01*
X154443888Y-55408182D01*
X154446312Y-55411754D01*
X155006637Y-56269135D01*
X155008936Y-56272789D01*
X155539558Y-57149954D01*
X155540845Y-57152132D01*
X155562886Y-57190306D01*
X155564090Y-57192102D01*
X155564136Y-57192182D01*
X155564137Y-57192183D01*
X155590855Y-57216094D01*
X155595843Y-57220814D01*
X155615489Y-57240460D01*
X155615492Y-57240462D01*
X155621938Y-57245408D01*
X155621798Y-57245590D01*
X155632360Y-57253239D01*
X155635067Y-57255662D01*
X155635068Y-57255662D01*
X155635069Y-57255663D01*
X155649658Y-57262105D01*
X155657668Y-57265643D01*
X155669577Y-57271688D01*
X155670239Y-57272070D01*
X155684011Y-57280021D01*
X155690569Y-57281778D01*
X155708573Y-57288122D01*
X155722146Y-57294116D01*
X155735615Y-57295490D01*
X155755111Y-57299072D01*
X155760438Y-57300500D01*
X155778402Y-57300500D01*
X155790991Y-57301141D01*
X155816842Y-57303779D01*
X155816842Y-57303778D01*
X155816843Y-57303779D01*
X155818369Y-57303449D01*
X155819121Y-57303288D01*
X155845267Y-57300500D01*
X159375500Y-57300500D01*
X159442539Y-57320185D01*
X159488294Y-57372989D01*
X159499500Y-57424500D01*
X159499500Y-86577509D01*
X159479815Y-86644548D01*
X159427011Y-86690303D01*
X159376088Y-86701508D01*
X155877243Y-86718112D01*
X155850521Y-86715328D01*
X155849232Y-86715050D01*
X155849225Y-86715049D01*
X155822371Y-86717790D01*
X155810379Y-86718430D01*
X155791553Y-86718520D01*
X155791402Y-86718521D01*
X155791400Y-86718521D01*
X155791396Y-86718522D01*
X155787055Y-86719707D01*
X155767005Y-86723440D01*
X155754536Y-86724713D01*
X155754528Y-86724715D01*
X155740026Y-86731119D01*
X155722617Y-86737302D01*
X155715077Y-86739361D01*
X155715069Y-86739364D01*
X155701544Y-86747258D01*
X155689147Y-86753588D01*
X155667460Y-86763166D01*
X155667453Y-86763171D01*
X155663984Y-86766276D01*
X155653100Y-86774198D01*
X155653159Y-86774274D01*
X155646735Y-86779251D01*
X155627880Y-86798285D01*
X155622486Y-86803414D01*
X155596524Y-86826650D01*
X155596518Y-86826657D01*
X155596345Y-86826956D01*
X155593338Y-86831466D01*
X155573247Y-86866649D01*
X155571612Y-86869428D01*
X155014142Y-87789247D01*
X155011726Y-87793074D01*
X154421258Y-88691628D01*
X154418704Y-88695365D01*
X153795822Y-89571792D01*
X153793133Y-89575433D01*
X153138684Y-90428539D01*
X153135864Y-90432079D01*
X152450714Y-91260733D01*
X152447766Y-91264168D01*
X151732853Y-92067239D01*
X151729783Y-92070564D01*
X150986001Y-92847048D01*
X150982811Y-92850259D01*
X150211229Y-93599039D01*
X150207923Y-93602132D01*
X149409479Y-94322298D01*
X149406064Y-94325267D01*
X149047216Y-94625925D01*
X148581895Y-95015789D01*
X148578397Y-95018614D01*
X147729562Y-95678610D01*
X147725938Y-95681323D01*
X146853604Y-96309884D01*
X146849884Y-96312463D01*
X145955180Y-96908777D01*
X145951369Y-96911218D01*
X145035488Y-97474487D01*
X145031590Y-97476787D01*
X144095763Y-98006254D01*
X144091783Y-98008410D01*
X143137295Y-98503353D01*
X143133240Y-98505363D01*
X142161300Y-98965150D01*
X142157174Y-98967011D01*
X141169086Y-99391028D01*
X141164894Y-99392737D01*
X140161987Y-99780412D01*
X140157736Y-99781966D01*
X139141399Y-100132762D01*
X139137095Y-100134161D01*
X138341042Y-100376794D01*
X138271176Y-100377510D01*
X138215506Y-100344126D01*
X135000001Y-97000000D01*
X135000000Y-97000000D01*
X128907176Y-97000000D01*
X128840137Y-96980315D01*
X128794382Y-96927511D01*
X128784438Y-96858353D01*
X128813463Y-96794797D01*
X128819495Y-96788319D01*
X129070995Y-96536819D01*
X129132318Y-96503334D01*
X129158676Y-96500500D01*
X140405410Y-96500500D01*
X140405412Y-96500500D01*
X140532706Y-96466392D01*
X140646834Y-96400500D01*
X142825500Y-94221834D01*
X142891392Y-94107706D01*
X142925500Y-93980413D01*
X142925500Y-93848628D01*
X142925500Y-78700000D01*
X143894355Y-78700000D01*
X143914859Y-78868869D01*
X143914860Y-78868874D01*
X143975182Y-79027931D01*
X143983658Y-79040210D01*
X144071817Y-79167929D01*
X144177505Y-79261560D01*
X144199150Y-79280736D01*
X144349773Y-79359789D01*
X144349775Y-79359790D01*
X144514944Y-79400500D01*
X144685056Y-79400500D01*
X144850225Y-79359790D01*
X144944958Y-79310070D01*
X145000849Y-79280736D01*
X145000850Y-79280734D01*
X145000852Y-79280734D01*
X145128183Y-79167929D01*
X145224818Y-79027930D01*
X145285140Y-78868872D01*
X145305645Y-78700000D01*
X145285140Y-78531128D01*
X145224818Y-78372070D01*
X145202826Y-78340210D01*
X145179073Y-78305797D01*
X145128183Y-78232071D01*
X145000852Y-78119266D01*
X145000849Y-78119263D01*
X144850226Y-78040210D01*
X144685056Y-77999500D01*
X144514944Y-77999500D01*
X144349773Y-78040210D01*
X144199150Y-78119263D01*
X144071816Y-78232072D01*
X143975182Y-78372068D01*
X143914860Y-78531125D01*
X143914859Y-78531130D01*
X143894355Y-78700000D01*
X142925500Y-78700000D01*
X142925500Y-74933676D01*
X142945185Y-74866637D01*
X142961819Y-74845995D01*
X145370995Y-72436819D01*
X145432318Y-72403334D01*
X145458676Y-72400500D01*
X145485056Y-72400500D01*
X145650225Y-72359790D01*
X145692874Y-72337405D01*
X145761381Y-72323680D01*
X145826435Y-72349172D01*
X145867380Y-72405787D01*
X145872060Y-72433013D01*
X145873439Y-72432832D01*
X145874500Y-72440891D01*
X145908608Y-72568187D01*
X145921202Y-72590000D01*
X145974500Y-72682314D01*
X145974502Y-72682316D01*
X152064396Y-78772210D01*
X152097881Y-78833533D01*
X152099811Y-78844943D01*
X152114859Y-78968870D01*
X152114860Y-78968875D01*
X152175182Y-79127930D01*
X152175182Y-79127931D01*
X152219370Y-79191947D01*
X152271817Y-79267929D01*
X152349578Y-79336819D01*
X152399150Y-79380736D01*
X152541241Y-79455311D01*
X152549775Y-79459790D01*
X152714944Y-79500500D01*
X152885056Y-79500500D01*
X153050225Y-79459790D01*
X153129692Y-79418081D01*
X153200849Y-79380736D01*
X153200850Y-79380734D01*
X153200852Y-79380734D01*
X153328183Y-79267929D01*
X153424818Y-79127930D01*
X153485140Y-78968872D01*
X153505645Y-78800000D01*
X153485140Y-78631128D01*
X153424818Y-78472070D01*
X153421789Y-78467682D01*
X153388368Y-78419263D01*
X153328183Y-78332071D01*
X153210632Y-78227930D01*
X153200849Y-78219263D01*
X153050226Y-78140210D01*
X152885056Y-78099500D01*
X152858676Y-78099500D01*
X152791637Y-78079815D01*
X152770995Y-78063181D01*
X146911819Y-72204005D01*
X146878334Y-72142682D01*
X146875500Y-72116324D01*
X146875500Y-70900000D01*
X150794355Y-70900000D01*
X150814859Y-71068869D01*
X150814860Y-71068874D01*
X150875182Y-71227931D01*
X150900040Y-71263943D01*
X150971817Y-71367929D01*
X151053406Y-71440210D01*
X151099150Y-71480736D01*
X151231962Y-71550441D01*
X151249775Y-71559790D01*
X151414944Y-71600500D01*
X151585056Y-71600500D01*
X151750225Y-71559790D01*
X151829692Y-71518081D01*
X151900849Y-71480736D01*
X151900850Y-71480734D01*
X151900852Y-71480734D01*
X152028183Y-71367929D01*
X152124818Y-71227930D01*
X152185140Y-71068872D01*
X152205645Y-70900000D01*
X152190946Y-70778945D01*
X152202406Y-70710024D01*
X152249310Y-70658237D01*
X152314042Y-70640000D01*
X153238638Y-70640000D01*
X153305677Y-70659685D01*
X153326319Y-70676319D01*
X153583681Y-70933681D01*
X153617166Y-70995004D01*
X153620000Y-71021362D01*
X153620000Y-72440000D01*
X153770000Y-72590000D01*
X154830000Y-72590000D01*
X154830000Y-69500000D01*
X155094355Y-69500000D01*
X155114859Y-69668869D01*
X155114860Y-69668874D01*
X155175182Y-69827931D01*
X155224928Y-69899999D01*
X155271817Y-69967929D01*
X155377446Y-70061508D01*
X155399150Y-70080736D01*
X155489071Y-70127930D01*
X155549775Y-70159790D01*
X155714944Y-70200500D01*
X155885056Y-70200500D01*
X156050225Y-70159790D01*
X156165097Y-70099500D01*
X156200849Y-70080736D01*
X156200850Y-70080734D01*
X156200852Y-70080734D01*
X156328183Y-69967929D01*
X156424818Y-69827930D01*
X156485140Y-69668872D01*
X156505645Y-69500000D01*
X156485140Y-69331128D01*
X156480641Y-69319266D01*
X156435221Y-69199500D01*
X156424818Y-69172070D01*
X156402826Y-69140210D01*
X156372770Y-69096666D01*
X156328183Y-69032071D01*
X156219373Y-68935674D01*
X156200849Y-68919263D01*
X156050226Y-68840210D01*
X155885056Y-68799500D01*
X155714944Y-68799500D01*
X155549773Y-68840210D01*
X155399150Y-68919263D01*
X155271816Y-69032072D01*
X155175182Y-69172068D01*
X155114860Y-69331125D01*
X155114859Y-69331130D01*
X155094355Y-69500000D01*
X154830000Y-69500000D01*
X154830000Y-64630000D01*
X153700000Y-64630000D01*
X153699999Y-64630000D01*
X153655800Y-64674199D01*
X153640568Y-66029455D01*
X153620131Y-66096269D01*
X153604257Y-66115742D01*
X152616319Y-67103681D01*
X152554996Y-67137166D01*
X152528638Y-67140000D01*
X150920000Y-67140000D01*
X150920000Y-68095218D01*
X150916397Y-68124894D01*
X150914859Y-68131131D01*
X150894355Y-68300000D01*
X150914859Y-68468869D01*
X150916397Y-68475107D01*
X150920000Y-68504783D01*
X150920000Y-70468499D01*
X150900315Y-70535538D01*
X150898051Y-70538938D01*
X150875182Y-70572069D01*
X150814860Y-70731125D01*
X150814859Y-70731130D01*
X150794355Y-70900000D01*
X146875500Y-70900000D01*
X146875500Y-67621484D01*
X146895185Y-67554445D01*
X146941873Y-67511688D01*
X147000852Y-67480734D01*
X147128183Y-67367929D01*
X147224818Y-67227930D01*
X147285140Y-67068872D01*
X147305645Y-66900000D01*
X147285140Y-66731128D01*
X147280641Y-66719266D01*
X147227755Y-66579815D01*
X147224818Y-66572070D01*
X147221958Y-66567927D01*
X147158160Y-66475500D01*
X147128183Y-66432071D01*
X147000852Y-66319266D01*
X147000849Y-66319263D01*
X146850226Y-66240210D01*
X146685056Y-66199500D01*
X146514944Y-66199500D01*
X146349773Y-66240210D01*
X146199150Y-66319264D01*
X146130286Y-66380272D01*
X146067052Y-66409993D01*
X145997789Y-66400809D01*
X145946010Y-66357897D01*
X145928184Y-66332072D01*
X145800849Y-66219263D01*
X145650226Y-66140210D01*
X145485056Y-66099500D01*
X145314944Y-66099500D01*
X145149773Y-66140210D01*
X144999150Y-66219264D01*
X144943782Y-66268316D01*
X144880549Y-66298037D01*
X144861555Y-66299500D01*
X144834107Y-66299500D01*
X144712552Y-66332069D01*
X144712553Y-66332070D01*
X144706814Y-66333607D01*
X144592686Y-66399500D01*
X144592683Y-66399502D01*
X144499498Y-66492688D01*
X143974627Y-67017557D01*
X143913304Y-67051042D01*
X143843612Y-67046058D01*
X143804721Y-67022693D01*
X143800852Y-67019266D01*
X143800850Y-67019264D01*
X143650226Y-66940210D01*
X143485056Y-66899500D01*
X143314944Y-66899500D01*
X143314942Y-66899500D01*
X143216272Y-66923819D01*
X143146470Y-66920749D01*
X143098917Y-66891103D01*
X142989833Y-66782019D01*
X142956348Y-66720696D01*
X142961332Y-66651004D01*
X143003204Y-66595071D01*
X143068668Y-66570654D01*
X143107188Y-66573940D01*
X143214944Y-66600500D01*
X143385056Y-66600500D01*
X143550225Y-66559790D01*
X143678080Y-66492686D01*
X143700849Y-66480736D01*
X143700850Y-66480734D01*
X143700852Y-66480734D01*
X143828183Y-66367929D01*
X143924818Y-66227930D01*
X143985140Y-66068872D01*
X144005645Y-65900000D01*
X143985140Y-65731128D01*
X143924818Y-65572070D01*
X143902826Y-65540210D01*
X143823922Y-65425898D01*
X143826186Y-65424334D01*
X143801961Y-65372774D01*
X143800500Y-65353796D01*
X143800500Y-64100000D01*
X144294355Y-64100000D01*
X144314859Y-64268869D01*
X144314860Y-64268874D01*
X144375182Y-64427931D01*
X144437475Y-64518177D01*
X144471817Y-64567929D01*
X144541881Y-64630000D01*
X144599150Y-64680736D01*
X144749773Y-64759789D01*
X144749775Y-64759790D01*
X144914944Y-64800500D01*
X145085056Y-64800500D01*
X145250225Y-64759790D01*
X145329692Y-64718081D01*
X145400849Y-64680736D01*
X145400850Y-64680734D01*
X145400852Y-64680734D01*
X145528183Y-64567929D01*
X145624818Y-64427930D01*
X145685140Y-64268872D01*
X145705645Y-64100000D01*
X145693503Y-64000000D01*
X147294355Y-64000000D01*
X147314859Y-64168869D01*
X147314860Y-64168874D01*
X147375182Y-64327931D01*
X147437475Y-64418177D01*
X147471817Y-64467929D01*
X147577505Y-64561560D01*
X147599150Y-64580736D01*
X147749773Y-64659789D01*
X147749775Y-64659790D01*
X147914944Y-64700500D01*
X148085056Y-64700500D01*
X148250225Y-64659790D01*
X148329692Y-64618081D01*
X148400849Y-64580736D01*
X148400850Y-64580734D01*
X148400852Y-64580734D01*
X148528183Y-64467929D01*
X148624818Y-64327930D01*
X148685140Y-64168872D01*
X148705645Y-64000000D01*
X148685140Y-63831128D01*
X148624818Y-63672070D01*
X148624816Y-63672068D01*
X148624816Y-63672066D01*
X148624815Y-63672065D01*
X148589181Y-63620441D01*
X148567297Y-63554087D01*
X148584762Y-63486435D01*
X148589181Y-63479559D01*
X148624815Y-63427934D01*
X148624816Y-63427933D01*
X148624817Y-63427931D01*
X148624818Y-63427930D01*
X148685140Y-63268872D01*
X148705645Y-63100000D01*
X148685140Y-62931128D01*
X148672398Y-62897531D01*
X148624817Y-62772068D01*
X148623697Y-62770446D01*
X148623241Y-62769066D01*
X148621329Y-62765421D01*
X148621934Y-62765103D01*
X148601811Y-62704093D01*
X148619272Y-62636440D01*
X148623697Y-62629554D01*
X148624817Y-62627931D01*
X148624816Y-62627931D01*
X148624818Y-62627930D01*
X148685140Y-62468872D01*
X148705645Y-62300000D01*
X148685140Y-62131128D01*
X148624818Y-61972070D01*
X148614539Y-61957179D01*
X148554069Y-61869573D01*
X148528183Y-61832071D01*
X148400852Y-61719266D01*
X148400849Y-61719263D01*
X148250226Y-61640210D01*
X148085056Y-61599500D01*
X147914944Y-61599500D01*
X147749773Y-61640210D01*
X147599150Y-61719263D01*
X147471816Y-61832072D01*
X147375182Y-61972068D01*
X147314860Y-62131125D01*
X147314859Y-62131130D01*
X147294355Y-62300000D01*
X147314859Y-62468869D01*
X147314860Y-62468874D01*
X147375182Y-62627931D01*
X147375186Y-62627937D01*
X147376312Y-62629569D01*
X147376767Y-62630951D01*
X147378669Y-62634574D01*
X147378066Y-62634890D01*
X147398189Y-62695925D01*
X147380718Y-62763576D01*
X147376312Y-62770431D01*
X147375186Y-62772062D01*
X147375182Y-62772068D01*
X147314860Y-62931125D01*
X147314859Y-62931130D01*
X147294355Y-63100000D01*
X147314859Y-63268869D01*
X147314860Y-63268874D01*
X147375182Y-63427931D01*
X147375185Y-63427936D01*
X147410819Y-63479561D01*
X147432702Y-63545915D01*
X147415236Y-63613567D01*
X147410819Y-63620439D01*
X147375185Y-63672063D01*
X147375182Y-63672068D01*
X147314860Y-63831125D01*
X147314859Y-63831130D01*
X147294355Y-64000000D01*
X145693503Y-64000000D01*
X145685140Y-63931128D01*
X145624818Y-63772070D01*
X145528183Y-63632071D01*
X145400852Y-63519266D01*
X145400849Y-63519263D01*
X145250226Y-63440210D01*
X145085056Y-63399500D01*
X144914944Y-63399500D01*
X144749773Y-63440210D01*
X144599150Y-63519263D01*
X144471816Y-63632072D01*
X144375182Y-63772068D01*
X144314860Y-63931125D01*
X144314859Y-63931130D01*
X144294355Y-64100000D01*
X143800500Y-64100000D01*
X143800500Y-58834110D01*
X143800500Y-58834108D01*
X143766392Y-58706814D01*
X143718545Y-58623942D01*
X143702839Y-58576895D01*
X143685140Y-58431128D01*
X143624818Y-58272070D01*
X143528183Y-58132071D01*
X143400852Y-58019266D01*
X143400849Y-58019263D01*
X143250226Y-57940210D01*
X143085056Y-57899500D01*
X142914944Y-57899500D01*
X142749773Y-57940210D01*
X142599150Y-58019263D01*
X142471816Y-58132072D01*
X142375182Y-58272068D01*
X142314860Y-58431125D01*
X142314859Y-58431130D01*
X142294355Y-58600000D01*
X142314859Y-58768869D01*
X142314860Y-58768874D01*
X142375182Y-58927931D01*
X142437475Y-59018177D01*
X142471817Y-59067929D01*
X142599148Y-59180734D01*
X142733127Y-59251052D01*
X142783338Y-59299635D01*
X142799500Y-59360847D01*
X142799500Y-65353796D01*
X142779815Y-65420835D01*
X142776015Y-65425854D01*
X142776078Y-65425898D01*
X142675182Y-65572068D01*
X142614860Y-65731125D01*
X142614859Y-65731130D01*
X142594355Y-65900000D01*
X142614859Y-66068869D01*
X142614859Y-66068870D01*
X142614860Y-66068872D01*
X142616632Y-66073544D01*
X142621998Y-66143207D01*
X142588849Y-66204712D01*
X142527711Y-66238533D01*
X142457993Y-66233931D01*
X142413008Y-66205194D01*
X134984512Y-58776698D01*
X134951027Y-58715375D01*
X134956011Y-58645683D01*
X134956251Y-58645046D01*
X134985139Y-58568875D01*
X134985140Y-58568870D01*
X135005645Y-58400000D01*
X134985140Y-58231128D01*
X134924818Y-58072070D01*
X134828183Y-57932071D01*
X134700852Y-57819266D01*
X134700849Y-57819263D01*
X134550226Y-57740210D01*
X134385056Y-57699500D01*
X134214944Y-57699500D01*
X134049773Y-57740210D01*
X133899150Y-57819263D01*
X133771816Y-57932071D01*
X133744574Y-57971538D01*
X133690290Y-58015527D01*
X133620841Y-58023185D01*
X133584899Y-58010892D01*
X133450226Y-57940210D01*
X133285056Y-57899500D01*
X133114944Y-57899500D01*
X132949773Y-57940210D01*
X132799150Y-58019263D01*
X132671816Y-58132072D01*
X132575182Y-58272068D01*
X132514860Y-58431125D01*
X132514859Y-58431130D01*
X132494355Y-58600000D01*
X132514859Y-58768869D01*
X132514860Y-58768874D01*
X132575182Y-58927931D01*
X132637475Y-59018177D01*
X132671817Y-59067929D01*
X132775506Y-59159789D01*
X132799150Y-59180736D01*
X132949773Y-59259789D01*
X132949775Y-59259790D01*
X133114944Y-59300500D01*
X133127704Y-59300500D01*
X133194743Y-59320185D01*
X133215385Y-59336819D01*
X135866385Y-61987819D01*
X135899870Y-62049142D01*
X135894886Y-62118834D01*
X135853014Y-62174767D01*
X135787550Y-62199184D01*
X135778704Y-62199500D01*
X135614944Y-62199500D01*
X135449773Y-62240210D01*
X135299150Y-62319263D01*
X135171816Y-62432072D01*
X135075182Y-62572068D01*
X135075182Y-62572069D01*
X135014860Y-62731124D01*
X135014859Y-62731129D01*
X134999811Y-62855055D01*
X134972188Y-62919233D01*
X134964396Y-62927788D01*
X128529005Y-69363181D01*
X128467682Y-69396666D01*
X128441324Y-69399500D01*
X128038445Y-69399500D01*
X127971406Y-69379815D01*
X127956218Y-69368316D01*
X127950422Y-69363181D01*
X127900852Y-69319266D01*
X127900850Y-69319265D01*
X127900849Y-69319264D01*
X127750226Y-69240210D01*
X127585056Y-69199500D01*
X127414944Y-69199500D01*
X127249773Y-69240210D01*
X127099150Y-69319263D01*
X127011781Y-69396666D01*
X126971821Y-69432068D01*
X126971816Y-69432072D01*
X126875182Y-69572068D01*
X126814860Y-69731125D01*
X126814859Y-69731130D01*
X126794355Y-69900000D01*
X126814859Y-70068869D01*
X126814860Y-70068874D01*
X126875182Y-70227931D01*
X126925272Y-70300497D01*
X126971817Y-70367929D01*
X127043782Y-70431684D01*
X127099150Y-70480736D01*
X127152681Y-70508831D01*
X127202893Y-70557415D01*
X127218868Y-70625434D01*
X127195533Y-70691292D01*
X127140297Y-70734079D01*
X127095055Y-70742627D01*
X126801803Y-70742627D01*
X126734764Y-70722942D01*
X126714122Y-70706308D01*
X121807316Y-65799502D01*
X121807314Y-65799500D01*
X121777317Y-65782181D01*
X121737269Y-65745235D01*
X121728183Y-65732071D01*
X121600852Y-65619266D01*
X121600849Y-65619263D01*
X121450226Y-65540210D01*
X121285056Y-65499500D01*
X121114944Y-65499500D01*
X120949773Y-65540210D01*
X120799150Y-65619263D01*
X120682638Y-65722484D01*
X120672882Y-65731128D01*
X120671816Y-65732072D01*
X120575182Y-65872068D01*
X120514860Y-66031125D01*
X120514859Y-66031130D01*
X120494355Y-66200000D01*
X120514859Y-66368869D01*
X120514860Y-66368874D01*
X120575182Y-66527931D01*
X120625274Y-66600500D01*
X120671817Y-66667929D01*
X120748711Y-66736051D01*
X120799150Y-66780736D01*
X120948626Y-66859187D01*
X120949775Y-66859790D01*
X121114944Y-66900500D01*
X121285056Y-66900500D01*
X121383727Y-66876180D01*
X121453528Y-66879249D01*
X121501082Y-66908896D01*
X126142627Y-71550441D01*
X126235813Y-71643627D01*
X126349941Y-71709519D01*
X126477235Y-71743627D01*
X138297359Y-71743627D01*
X138364398Y-71763312D01*
X138379586Y-71774812D01*
X138499147Y-71880733D01*
X138499149Y-71880735D01*
X138614591Y-71941324D01*
X138649775Y-71959790D01*
X138814944Y-72000500D01*
X138902900Y-72000500D01*
X138969939Y-72020185D01*
X139015694Y-72072989D01*
X139026900Y-72124500D01*
X139026900Y-82556386D01*
X139007215Y-82623425D01*
X138990581Y-82644067D01*
X135599692Y-86034955D01*
X135538369Y-86068440D01*
X135468677Y-86063456D01*
X135412744Y-86021584D01*
X135388915Y-85962219D01*
X135385140Y-85931128D01*
X135380641Y-85919266D01*
X135324817Y-85772068D01*
X135223922Y-85625898D01*
X135226186Y-85624334D01*
X135201961Y-85572774D01*
X135200500Y-85553796D01*
X135200500Y-82191647D01*
X135200500Y-82191645D01*
X135166392Y-82064351D01*
X135100500Y-81950223D01*
X135007314Y-81857037D01*
X131549777Y-78399500D01*
X131492713Y-78366554D01*
X131435650Y-78333608D01*
X131372002Y-78316554D01*
X131308355Y-78299500D01*
X130265893Y-78299500D01*
X130134108Y-78299500D01*
X130134106Y-78299500D01*
X130126049Y-78300561D01*
X130125676Y-78297728D01*
X130092789Y-78298044D01*
X130092503Y-78300404D01*
X130085057Y-78299500D01*
X130085056Y-78299500D01*
X129914944Y-78299500D01*
X129749773Y-78340210D01*
X129599150Y-78419263D01*
X129482638Y-78522484D01*
X129472882Y-78531128D01*
X129471816Y-78532072D01*
X129375182Y-78672068D01*
X129314860Y-78831125D01*
X129314859Y-78831130D01*
X129307299Y-78893391D01*
X129279676Y-78957569D01*
X129221741Y-78996625D01*
X129154528Y-78998840D01*
X129084010Y-78981459D01*
X129023629Y-78946303D01*
X128991841Y-78884083D01*
X128990589Y-78876007D01*
X128989723Y-78868872D01*
X128985140Y-78831128D01*
X128983499Y-78826802D01*
X128924817Y-78672068D01*
X128850142Y-78563884D01*
X128828183Y-78532071D01*
X128731259Y-78446204D01*
X128700849Y-78419263D01*
X128550226Y-78340210D01*
X128385056Y-78299500D01*
X128227581Y-78299500D01*
X128160542Y-78279815D01*
X128114787Y-78227011D01*
X128104485Y-78190447D01*
X128089723Y-78068872D01*
X128085140Y-78031128D01*
X128024818Y-77872070D01*
X127993839Y-77827190D01*
X127928183Y-77732071D01*
X127927121Y-77731130D01*
X127921454Y-77726110D01*
X127884326Y-77666923D01*
X127885092Y-77597057D01*
X127887725Y-77589354D01*
X127947640Y-77431372D01*
X127968145Y-77262500D01*
X127947640Y-77093628D01*
X127947638Y-77093624D01*
X127887317Y-76934568D01*
X127816568Y-76832072D01*
X127790683Y-76794571D01*
X127663352Y-76681766D01*
X127663349Y-76681763D01*
X127512726Y-76602710D01*
X127347556Y-76562000D01*
X127177444Y-76562000D01*
X127012273Y-76602710D01*
X126861650Y-76681763D01*
X126734316Y-76794572D01*
X126637682Y-76934568D01*
X126637682Y-76934569D01*
X126577360Y-77093624D01*
X126577359Y-77093629D01*
X126562311Y-77217556D01*
X126534688Y-77281734D01*
X126526896Y-77290289D01*
X124348503Y-79468682D01*
X124287180Y-79502167D01*
X124217488Y-79497183D01*
X124161555Y-79455311D01*
X124144883Y-79424979D01*
X124124818Y-79372070D01*
X124028183Y-79232071D01*
X123900852Y-79119266D01*
X123900849Y-79119263D01*
X123750226Y-79040210D01*
X123585056Y-78999500D01*
X123558676Y-78999500D01*
X123491637Y-78979815D01*
X123470995Y-78963181D01*
X123036819Y-78529005D01*
X123003334Y-78467682D01*
X123000500Y-78441324D01*
X123000500Y-77846204D01*
X123020185Y-77779165D01*
X123023985Y-77774146D01*
X123023922Y-77774103D01*
X123057048Y-77726111D01*
X123124818Y-77627930D01*
X123185140Y-77468872D01*
X123205645Y-77300000D01*
X123185140Y-77131128D01*
X123124818Y-76972070D01*
X123098933Y-76934570D01*
X123090476Y-76922318D01*
X123028183Y-76832071D01*
X122900852Y-76719266D01*
X122900849Y-76719263D01*
X122750226Y-76640210D01*
X122585056Y-76599500D01*
X122414944Y-76599500D01*
X122249773Y-76640210D01*
X122099150Y-76719263D01*
X121971816Y-76832072D01*
X121875182Y-76972068D01*
X121814860Y-77131125D01*
X121814859Y-77131130D01*
X121794355Y-77300000D01*
X121814859Y-77468869D01*
X121814860Y-77468874D01*
X121875182Y-77627931D01*
X121976078Y-77774103D01*
X121973807Y-77775670D01*
X121998034Y-77827190D01*
X121999500Y-77846204D01*
X121999500Y-78634108D01*
X121999500Y-78765892D01*
X122010190Y-78805788D01*
X122033608Y-78893187D01*
X122064275Y-78946303D01*
X122099500Y-79007314D01*
X122099502Y-79007316D01*
X122676668Y-79584482D01*
X122710153Y-79645805D01*
X122705169Y-79715497D01*
X122663297Y-79771430D01*
X122646614Y-79781959D01*
X122625234Y-79793180D01*
X122497901Y-79905987D01*
X122401267Y-80045983D01*
X122340945Y-80205040D01*
X122340944Y-80205045D01*
X122320440Y-80373915D01*
X122320440Y-80375500D01*
X122320112Y-80376616D01*
X122319536Y-80381361D01*
X122318747Y-80381265D01*
X122300755Y-80442539D01*
X122247951Y-80488294D01*
X122196440Y-80499500D01*
X121844883Y-80499500D01*
X121777844Y-80479815D01*
X121762656Y-80468315D01*
X121650852Y-80369266D01*
X121650850Y-80369264D01*
X121500226Y-80290210D01*
X121335056Y-80249500D01*
X121164944Y-80249500D01*
X120999773Y-80290210D01*
X120882126Y-80351957D01*
X120813618Y-80365683D01*
X120748564Y-80340191D01*
X120707620Y-80283575D01*
X120700500Y-80242161D01*
X120700500Y-73434110D01*
X120700500Y-73434108D01*
X120666392Y-73306814D01*
X120600500Y-73192686D01*
X120507314Y-73099500D01*
X119436819Y-72029005D01*
X119403334Y-71967682D01*
X119400500Y-71941324D01*
X119400500Y-68207676D01*
X119420185Y-68140637D01*
X119472989Y-68094882D01*
X119542147Y-68084938D01*
X119605703Y-68113963D01*
X119612181Y-68119995D01*
X121163181Y-69670995D01*
X121196666Y-69732318D01*
X121199500Y-69758676D01*
X121199500Y-69818728D01*
X121179815Y-69885767D01*
X121127011Y-69931522D01*
X121057853Y-69941466D01*
X121045826Y-69939125D01*
X120885057Y-69899500D01*
X120885056Y-69899500D01*
X120714944Y-69899500D01*
X120549773Y-69940210D01*
X120399150Y-70019263D01*
X120271816Y-70132072D01*
X120175182Y-70272068D01*
X120114860Y-70431125D01*
X120114859Y-70431130D01*
X120094355Y-70600000D01*
X120114859Y-70768869D01*
X120114860Y-70768874D01*
X120175182Y-70927931D01*
X120237475Y-71018177D01*
X120271817Y-71067929D01*
X120329765Y-71119266D01*
X120399150Y-71180736D01*
X120489071Y-71227930D01*
X120549775Y-71259790D01*
X120714944Y-71300500D01*
X120885056Y-71300500D01*
X121045826Y-71260874D01*
X121115627Y-71263943D01*
X121172689Y-71304263D01*
X121198895Y-71369032D01*
X121199500Y-71381271D01*
X121199500Y-74490891D01*
X121233608Y-74618187D01*
X121257628Y-74659790D01*
X121299500Y-74732314D01*
X121299502Y-74732316D01*
X123582875Y-77015689D01*
X123616360Y-77077012D01*
X123618290Y-77118315D01*
X123606855Y-77212499D01*
X123627359Y-77381369D01*
X123627360Y-77381374D01*
X123687682Y-77540431D01*
X123726769Y-77597057D01*
X123784317Y-77680429D01*
X123890005Y-77774060D01*
X123911650Y-77793236D01*
X124061852Y-77872068D01*
X124062275Y-77872290D01*
X124227444Y-77913000D01*
X124397556Y-77913000D01*
X124562725Y-77872290D01*
X124648655Y-77827190D01*
X124713349Y-77793236D01*
X124713350Y-77793234D01*
X124713352Y-77793234D01*
X124840683Y-77680429D01*
X124937318Y-77540430D01*
X124997640Y-77381372D01*
X125018145Y-77212500D01*
X124997640Y-77043628D01*
X124937318Y-76884570D01*
X124840683Y-76744571D01*
X124745816Y-76660526D01*
X124713349Y-76631763D01*
X124562728Y-76552711D01*
X124562724Y-76552709D01*
X124560182Y-76552083D01*
X124558356Y-76551053D01*
X124555716Y-76550052D01*
X124555868Y-76549649D01*
X124502183Y-76519369D01*
X122236819Y-74254005D01*
X122203334Y-74192682D01*
X122200500Y-74166324D01*
X122200500Y-69434110D01*
X122200500Y-69434108D01*
X122166392Y-69306814D01*
X122100500Y-69192686D01*
X122007314Y-69099500D01*
X120235602Y-67327788D01*
X120202117Y-67266465D01*
X120200187Y-67255053D01*
X120185140Y-67131131D01*
X120185139Y-67131125D01*
X120152878Y-67046058D01*
X120124818Y-66972070D01*
X120102826Y-66940210D01*
X120047315Y-66859789D01*
X120028183Y-66832071D01*
X119933316Y-66748026D01*
X119900849Y-66719263D01*
X119750226Y-66640210D01*
X119585056Y-66599500D01*
X119524500Y-66599500D01*
X119457461Y-66579815D01*
X119411706Y-66527011D01*
X119400500Y-66475500D01*
X119400500Y-63026138D01*
X119420185Y-62959099D01*
X119436814Y-62938462D01*
X122379682Y-59995593D01*
X122437691Y-59962879D01*
X122450225Y-59959790D01*
X122600852Y-59880734D01*
X122728183Y-59767929D01*
X122824818Y-59627930D01*
X122885140Y-59468872D01*
X122905645Y-59300000D01*
X122905645Y-59299999D01*
X122905645Y-59299500D01*
X122905748Y-59299148D01*
X122906549Y-59292554D01*
X122907645Y-59292687D01*
X122925330Y-59232461D01*
X122978134Y-59186706D01*
X123029645Y-59175500D01*
X130559108Y-59175500D01*
X130598457Y-59175500D01*
X130628132Y-59179103D01*
X130714944Y-59200500D01*
X130885056Y-59200500D01*
X131050225Y-59159790D01*
X131129692Y-59118081D01*
X131200849Y-59080736D01*
X131200850Y-59080734D01*
X131200852Y-59080734D01*
X131328183Y-58967929D01*
X131424818Y-58827930D01*
X131485140Y-58668872D01*
X131505645Y-58500000D01*
X131485140Y-58331128D01*
X131424818Y-58172070D01*
X131424816Y-58172068D01*
X131424816Y-58172066D01*
X131424815Y-58172065D01*
X131389181Y-58120441D01*
X131367297Y-58054087D01*
X131384762Y-57986435D01*
X131389181Y-57979559D01*
X131421959Y-57932072D01*
X131424818Y-57927930D01*
X131485140Y-57768872D01*
X131505645Y-57600000D01*
X131485140Y-57431128D01*
X131424818Y-57272070D01*
X131424554Y-57271688D01*
X131375071Y-57200000D01*
X131328183Y-57132071D01*
X131214244Y-57031130D01*
X131200849Y-57019263D01*
X131050226Y-56940210D01*
X130885056Y-56899500D01*
X130714944Y-56899500D01*
X130549773Y-56940210D01*
X130399150Y-57019264D01*
X130343782Y-57068316D01*
X130280549Y-57098037D01*
X130261555Y-57099500D01*
X120134107Y-57099500D01*
X120006812Y-57133608D01*
X119892686Y-57199500D01*
X119892683Y-57199502D01*
X108705922Y-68386262D01*
X108644599Y-68419747D01*
X108574907Y-68414763D01*
X108518974Y-68372891D01*
X108495145Y-68313527D01*
X108485140Y-68231128D01*
X108424818Y-68072070D01*
X108328183Y-67932071D01*
X108200852Y-67819266D01*
X108200849Y-67819263D01*
X108050226Y-67740210D01*
X107885056Y-67699500D01*
X107714944Y-67699500D01*
X107549773Y-67740210D01*
X107399150Y-67819263D01*
X107271816Y-67932072D01*
X107175182Y-68072068D01*
X107114860Y-68231125D01*
X107114859Y-68231130D01*
X107094355Y-68400000D01*
X107114859Y-68568869D01*
X107114860Y-68568874D01*
X107175182Y-68727931D01*
X107237475Y-68818177D01*
X107271817Y-68867929D01*
X107348286Y-68935674D01*
X107399150Y-68980736D01*
X107500019Y-69033676D01*
X107549775Y-69059790D01*
X107714944Y-69100500D01*
X107818259Y-69100500D01*
X107885298Y-69120185D01*
X107931053Y-69172989D01*
X107940997Y-69242147D01*
X107938037Y-69256576D01*
X107923765Y-69309843D01*
X107923765Y-69309845D01*
X107923765Y-79929531D01*
X107904080Y-79996570D01*
X107900280Y-80001589D01*
X107900343Y-80001633D01*
X107799447Y-80147803D01*
X107739125Y-80306860D01*
X107739124Y-80306865D01*
X107718620Y-80475735D01*
X107739124Y-80644604D01*
X107739125Y-80644609D01*
X107799447Y-80803666D01*
X107839517Y-80861716D01*
X107896082Y-80943664D01*
X107995873Y-81032071D01*
X108023415Y-81056471D01*
X108174038Y-81135524D01*
X108174040Y-81135525D01*
X108339209Y-81176235D01*
X108509321Y-81176235D01*
X108674490Y-81135525D01*
X108753957Y-81093816D01*
X108825114Y-81056471D01*
X108825115Y-81056469D01*
X108825117Y-81056469D01*
X108952448Y-80943664D01*
X109049083Y-80803665D01*
X109103921Y-80659066D01*
X109146097Y-80603365D01*
X109211694Y-80579307D01*
X109279885Y-80594533D01*
X109307543Y-80615357D01*
X109764396Y-81072210D01*
X109797881Y-81133533D01*
X109799811Y-81144943D01*
X109814859Y-81268870D01*
X109814860Y-81268875D01*
X109875182Y-81427930D01*
X109875182Y-81427931D01*
X109924929Y-81500000D01*
X109971817Y-81567929D01*
X110039293Y-81627707D01*
X110099150Y-81680736D01*
X110237659Y-81753431D01*
X110249775Y-81759790D01*
X110414944Y-81800500D01*
X110585056Y-81800500D01*
X110750225Y-81759790D01*
X110829692Y-81718081D01*
X110900849Y-81680736D01*
X110900850Y-81680734D01*
X110900852Y-81680734D01*
X111028183Y-81567929D01*
X111124818Y-81427930D01*
X111185140Y-81268872D01*
X111205645Y-81100000D01*
X111185140Y-80931128D01*
X111180641Y-80919266D01*
X111147993Y-80833178D01*
X111124818Y-80772070D01*
X111028183Y-80632071D01*
X110900852Y-80519266D01*
X110900849Y-80519263D01*
X110750226Y-80440210D01*
X110585056Y-80399500D01*
X110558676Y-80399500D01*
X110491637Y-80379815D01*
X110470995Y-80363181D01*
X109361084Y-79253270D01*
X109327599Y-79191947D01*
X109324765Y-79165589D01*
X109324765Y-78946816D01*
X109344450Y-78879777D01*
X109397254Y-78834022D01*
X109466412Y-78824078D01*
X109506389Y-78837019D01*
X109549775Y-78859790D01*
X109714944Y-78900500D01*
X109885056Y-78900500D01*
X110050225Y-78859790D01*
X110200852Y-78780734D01*
X110317774Y-78677150D01*
X110381006Y-78647429D01*
X110450269Y-78656613D01*
X110482225Y-78677149D01*
X110590919Y-78773444D01*
X110599147Y-78780733D01*
X110599149Y-78780735D01*
X110725791Y-78847202D01*
X110749775Y-78859790D01*
X110914944Y-78900500D01*
X111085056Y-78900500D01*
X111250225Y-78859790D01*
X111400256Y-78781047D01*
X111400849Y-78780736D01*
X111400850Y-78780734D01*
X111400852Y-78780734D01*
X111528183Y-78667929D01*
X111624818Y-78527930D01*
X111685140Y-78368872D01*
X111700187Y-78244943D01*
X111727809Y-78180767D01*
X111735591Y-78172221D01*
X113519313Y-76388499D01*
X113580634Y-76355016D01*
X113642142Y-76359414D01*
X113642492Y-76357995D01*
X113814944Y-76400500D01*
X113985055Y-76400500D01*
X113985056Y-76400500D01*
X114048253Y-76384923D01*
X114118054Y-76387992D01*
X114175117Y-76428311D01*
X114179977Y-76434879D01*
X114271815Y-76567927D01*
X114271816Y-76567928D01*
X114271817Y-76567929D01*
X114311077Y-76602710D01*
X114399150Y-76680736D01*
X114549773Y-76759789D01*
X114549775Y-76759790D01*
X114714944Y-76800500D01*
X114885056Y-76800500D01*
X115050225Y-76759790D01*
X115198886Y-76681766D01*
X115200849Y-76680736D01*
X115200850Y-76680734D01*
X115200852Y-76680734D01*
X115328183Y-76567929D01*
X115424818Y-76427930D01*
X115485140Y-76268872D01*
X115500187Y-76144943D01*
X115527809Y-76080767D01*
X115535591Y-76072221D01*
X115762819Y-75844994D01*
X115824142Y-75811509D01*
X115893834Y-75816493D01*
X115949767Y-75858365D01*
X115974184Y-75923829D01*
X115974500Y-75932675D01*
X115974500Y-77352797D01*
X115954815Y-77419836D01*
X115902011Y-77465591D01*
X115832853Y-77475535D01*
X115792875Y-77462594D01*
X115750225Y-77440209D01*
X115585056Y-77399500D01*
X115414944Y-77399500D01*
X115249774Y-77440209D01*
X115249774Y-77440210D01*
X115239269Y-77445723D01*
X115170760Y-77459444D01*
X115105708Y-77433948D01*
X115099424Y-77428739D01*
X114975852Y-77319266D01*
X114975850Y-77319264D01*
X114825226Y-77240210D01*
X114660056Y-77199500D01*
X114489944Y-77199500D01*
X114324773Y-77240210D01*
X114174150Y-77319263D01*
X114057638Y-77422484D01*
X114047610Y-77431369D01*
X114046816Y-77432072D01*
X113950182Y-77572068D01*
X113889860Y-77731125D01*
X113889859Y-77731130D01*
X113869355Y-77900000D01*
X113889859Y-78068869D01*
X113889860Y-78068874D01*
X113950182Y-78227931D01*
X114051078Y-78374103D01*
X114048807Y-78375670D01*
X114073034Y-78427190D01*
X114074500Y-78446204D01*
X114074500Y-83543406D01*
X114074500Y-83675190D01*
X114084512Y-83712555D01*
X114108608Y-83802485D01*
X114136330Y-83850500D01*
X114174500Y-83916612D01*
X114174502Y-83916614D01*
X115864650Y-85606762D01*
X115898135Y-85668085D01*
X115893151Y-85737777D01*
X115851279Y-85793710D01*
X115785815Y-85818127D01*
X115747294Y-85814840D01*
X115685056Y-85799500D01*
X115514944Y-85799500D01*
X115349773Y-85840210D01*
X115199150Y-85919263D01*
X115071816Y-86032072D01*
X114975182Y-86172068D01*
X114914860Y-86331125D01*
X114914859Y-86331130D01*
X114894355Y-86500000D01*
X114914859Y-86668869D01*
X114914860Y-86668874D01*
X114975182Y-86827931D01*
X114991027Y-86850886D01*
X115071817Y-86967929D01*
X115176591Y-87060750D01*
X115199150Y-87080736D01*
X115330266Y-87149551D01*
X115349775Y-87159790D01*
X115514944Y-87200500D01*
X115685056Y-87200500D01*
X115850225Y-87159790D01*
X115936214Y-87114659D01*
X116000849Y-87080736D01*
X116000850Y-87080734D01*
X116000852Y-87080734D01*
X116128183Y-86967929D01*
X116224818Y-86827930D01*
X116285140Y-86668872D01*
X116305645Y-86500000D01*
X116286456Y-86341970D01*
X116297916Y-86273050D01*
X116344820Y-86221263D01*
X116412275Y-86203056D01*
X116478866Y-86224208D01*
X116497233Y-86239345D01*
X117594340Y-87336452D01*
X117627825Y-87397775D01*
X117622841Y-87467467D01*
X117588888Y-87516947D01*
X117571818Y-87532069D01*
X117571815Y-87532073D01*
X117475182Y-87672068D01*
X117414860Y-87831125D01*
X117414859Y-87831130D01*
X117394355Y-88000000D01*
X117414859Y-88168869D01*
X117414860Y-88168874D01*
X117475182Y-88327931D01*
X117537475Y-88418177D01*
X117571817Y-88467929D01*
X117653406Y-88540210D01*
X117699150Y-88580736D01*
X117846149Y-88657887D01*
X117849775Y-88659790D01*
X118014944Y-88700500D01*
X118185056Y-88700500D01*
X118350225Y-88659790D01*
X118500852Y-88580734D01*
X118501165Y-88580457D01*
X118501444Y-88580325D01*
X118507031Y-88576470D01*
X118507671Y-88577398D01*
X118564396Y-88550732D01*
X118633660Y-88559910D01*
X118641024Y-88563471D01*
X118747328Y-88619264D01*
X118775510Y-88634055D01*
X118940679Y-88674765D01*
X119110792Y-88674765D01*
X119110795Y-88674764D01*
X119111866Y-88674500D01*
X119195805Y-88653811D01*
X119265605Y-88656879D01*
X119322667Y-88697198D01*
X119327528Y-88703766D01*
X119371817Y-88767929D01*
X119427504Y-88817263D01*
X119499150Y-88880736D01*
X119631516Y-88950207D01*
X119649775Y-88959790D01*
X119814944Y-89000500D01*
X119985056Y-89000500D01*
X120150225Y-88959790D01*
X120190816Y-88938485D01*
X120217874Y-88924285D01*
X120286382Y-88910559D01*
X120351435Y-88936051D01*
X120392380Y-88992667D01*
X120399500Y-89034081D01*
X120399500Y-91053796D01*
X120379815Y-91120835D01*
X120376015Y-91125854D01*
X120376078Y-91125898D01*
X120275182Y-91272068D01*
X120214860Y-91431125D01*
X120214859Y-91431130D01*
X120194355Y-91600000D01*
X120214859Y-91768869D01*
X120214860Y-91768874D01*
X120275182Y-91927931D01*
X120371341Y-92067239D01*
X120371817Y-92067929D01*
X120389928Y-92083974D01*
X120391816Y-92085646D01*
X120428944Y-92144835D01*
X120428178Y-92214700D01*
X120397272Y-92266144D01*
X120200235Y-92463182D01*
X120138915Y-92496666D01*
X120112556Y-92499500D01*
X116908832Y-92499500D01*
X116841793Y-92479815D01*
X116806782Y-92445941D01*
X116728183Y-92332071D01*
X116619712Y-92235974D01*
X116600849Y-92219263D01*
X116450226Y-92140210D01*
X116285056Y-92099500D01*
X116114944Y-92099500D01*
X115949773Y-92140210D01*
X115799150Y-92219263D01*
X115682638Y-92322484D01*
X115674022Y-92330118D01*
X115671816Y-92332072D01*
X115575182Y-92472068D01*
X115575182Y-92472069D01*
X115540442Y-92563673D01*
X115498264Y-92619376D01*
X115432667Y-92643433D01*
X115364476Y-92628206D01*
X115315343Y-92578530D01*
X115300500Y-92519702D01*
X115300500Y-89946204D01*
X115320185Y-89879165D01*
X115323985Y-89874146D01*
X115323922Y-89874103D01*
X115375416Y-89799500D01*
X115424818Y-89727930D01*
X115485140Y-89568872D01*
X115505645Y-89400000D01*
X115505645Y-89399999D01*
X115505645Y-89392573D01*
X115525330Y-89325534D01*
X115578134Y-89279779D01*
X115599972Y-89272176D01*
X115650222Y-89259791D01*
X115650223Y-89259790D01*
X115650225Y-89259790D01*
X115800852Y-89180734D01*
X115928183Y-89067929D01*
X116024818Y-88927930D01*
X116085140Y-88768872D01*
X116105645Y-88600000D01*
X116085140Y-88431128D01*
X116072070Y-88396666D01*
X116024817Y-88272068D01*
X115976223Y-88201668D01*
X115928183Y-88132071D01*
X115800852Y-88019266D01*
X115800849Y-88019263D01*
X115650226Y-87940210D01*
X115485056Y-87899500D01*
X115314944Y-87899500D01*
X115149773Y-87940210D01*
X114999150Y-88019264D01*
X114943782Y-88068316D01*
X114880549Y-88098037D01*
X114861555Y-88099500D01*
X114685578Y-88099500D01*
X114567540Y-88131128D01*
X114567539Y-88131128D01*
X114558286Y-88133606D01*
X114558286Y-88133607D01*
X114444160Y-88199498D01*
X114444154Y-88199502D01*
X113674502Y-88969154D01*
X113674500Y-88969157D01*
X113608608Y-89083283D01*
X113574500Y-89210579D01*
X113574500Y-90226963D01*
X113554815Y-90294002D01*
X113502011Y-90339757D01*
X113432853Y-90349701D01*
X113391375Y-90335960D01*
X113360885Y-90319420D01*
X113218363Y-90286972D01*
X113218362Y-90286972D01*
X113210781Y-90287346D01*
X113072372Y-90294178D01*
X113072369Y-90294179D01*
X112933734Y-90340507D01*
X112861674Y-90387577D01*
X111773295Y-91300836D01*
X111714428Y-91363627D01*
X111644732Y-91492109D01*
X111644731Y-91492110D01*
X111612516Y-91633608D01*
X111612283Y-91634632D01*
X111612478Y-91638590D01*
X111619490Y-91780619D01*
X111619491Y-91780627D01*
X111631382Y-91816209D01*
X111665819Y-91919259D01*
X111687110Y-91951854D01*
X111712886Y-91991317D01*
X111712891Y-91991324D01*
X112111910Y-92466854D01*
X112111926Y-92466871D01*
X112117471Y-92472069D01*
X112174707Y-92525729D01*
X112174709Y-92525730D01*
X112174710Y-92525731D01*
X112186842Y-92532312D01*
X112303190Y-92595427D01*
X112445714Y-92627876D01*
X112591706Y-92620669D01*
X112730341Y-92574341D01*
X112802397Y-92527274D01*
X113330706Y-92083970D01*
X113370794Y-92050332D01*
X113434802Y-92022319D01*
X113503794Y-92033358D01*
X113555866Y-92079945D01*
X113574500Y-92145321D01*
X113574500Y-93840891D01*
X113608608Y-93968187D01*
X113615667Y-93980413D01*
X113674500Y-94082314D01*
X113674501Y-94082315D01*
X113674502Y-94082316D01*
X114550557Y-94958370D01*
X114584042Y-95019693D01*
X114579058Y-95089384D01*
X114545104Y-95138866D01*
X114439897Y-95232071D01*
X114343263Y-95372068D01*
X114282941Y-95531125D01*
X114282940Y-95531130D01*
X114262436Y-95700000D01*
X114282940Y-95868869D01*
X114282941Y-95868874D01*
X114343263Y-96027931D01*
X114393355Y-96100500D01*
X114439898Y-96167929D01*
X114537593Y-96254479D01*
X114567231Y-96280736D01*
X114717854Y-96359789D01*
X114717856Y-96359790D01*
X114883025Y-96400500D01*
X114909405Y-96400500D01*
X114976444Y-96420185D01*
X114997086Y-96436819D01*
X115760767Y-97200500D01*
X115874895Y-97266392D01*
X116002189Y-97300500D01*
X116133974Y-97300500D01*
X124419804Y-97300500D01*
X124486843Y-97320185D01*
X124532598Y-97372989D01*
X124542542Y-97442147D01*
X124513517Y-97505703D01*
X124509192Y-97510440D01*
X124431859Y-97590867D01*
X121785576Y-100342998D01*
X121724921Y-100377678D01*
X121660948Y-100375937D01*
X121078121Y-100203149D01*
X121073805Y-100201784D01*
X120054762Y-99858742D01*
X120050500Y-99857220D01*
X119044677Y-99477225D01*
X119040472Y-99475548D01*
X118049185Y-99059096D01*
X118045045Y-99057267D01*
X117069621Y-98604917D01*
X117065550Y-98602938D01*
X116107286Y-98115290D01*
X116103290Y-98113164D01*
X115163458Y-97590867D01*
X115159543Y-97588597D01*
X114239391Y-97032344D01*
X114235561Y-97029932D01*
X113336341Y-96440479D01*
X113332601Y-96437929D01*
X112455472Y-95816036D01*
X112451828Y-95813351D01*
X111597985Y-95159866D01*
X111594442Y-95157050D01*
X110765027Y-94472846D01*
X110761588Y-94469902D01*
X109957683Y-93755871D01*
X109954355Y-93752804D01*
X109177073Y-93009939D01*
X109173858Y-93006753D01*
X108424167Y-92235974D01*
X108421071Y-92232672D01*
X108025510Y-91795110D01*
X109053234Y-91795110D01*
X109070399Y-91951850D01*
X109070399Y-91951852D01*
X109070400Y-91951854D01*
X109112586Y-92085646D01*
X109117819Y-92102243D01*
X109191186Y-92235974D01*
X109193662Y-92240487D01*
X109270511Y-92332072D01*
X109552134Y-92667696D01*
X109552136Y-92667698D01*
X109675110Y-92766395D01*
X109675112Y-92766396D01*
X109814980Y-92839207D01*
X109966366Y-92883332D01*
X110123451Y-92897075D01*
X110280198Y-92879908D01*
X110430585Y-92832490D01*
X110568831Y-92756646D01*
X110689624Y-92655288D01*
X110788322Y-92532312D01*
X110861133Y-92392444D01*
X110905258Y-92241059D01*
X110919001Y-92083974D01*
X110901834Y-91927226D01*
X110901834Y-91927224D01*
X110901832Y-91927219D01*
X110866829Y-91816209D01*
X110854416Y-91776840D01*
X110778572Y-91638593D01*
X110495159Y-91300836D01*
X110420099Y-91211383D01*
X110420097Y-91211381D01*
X110297123Y-91112684D01*
X110157256Y-91039874D01*
X110157249Y-91039871D01*
X110005873Y-90995749D01*
X110005866Y-90995747D01*
X109848789Y-90982006D01*
X109848779Y-90982006D01*
X109692039Y-90999171D01*
X109692036Y-90999172D01*
X109541646Y-91046591D01*
X109403407Y-91122431D01*
X109403400Y-91122436D01*
X109282611Y-91223790D01*
X109282609Y-91223792D01*
X109183912Y-91346766D01*
X109183912Y-91346767D01*
X109111102Y-91486633D01*
X109111099Y-91486640D01*
X109066977Y-91638016D01*
X109066975Y-91638023D01*
X109053234Y-91795100D01*
X109053234Y-91795110D01*
X108025510Y-91795110D01*
X107700030Y-91435070D01*
X107697057Y-91431658D01*
X107696609Y-91431125D01*
X107005602Y-90608266D01*
X107002755Y-90604747D01*
X106341822Y-89756683D01*
X106339105Y-89753063D01*
X105855345Y-89083283D01*
X105709543Y-88881416D01*
X105706967Y-88877709D01*
X105703199Y-88872070D01*
X105109633Y-87983663D01*
X105107190Y-87979857D01*
X104864377Y-87586037D01*
X104542901Y-87064634D01*
X104540603Y-87060750D01*
X104010073Y-86125509D01*
X104007912Y-86121533D01*
X103998919Y-86104237D01*
X103923005Y-85958242D01*
X106849226Y-85958242D01*
X106856433Y-86104231D01*
X106856434Y-86104239D01*
X106895541Y-86221263D01*
X106902762Y-86242871D01*
X106932767Y-86288807D01*
X106949829Y-86314929D01*
X106949834Y-86314936D01*
X107348853Y-86790466D01*
X107348869Y-86790483D01*
X107362662Y-86803414D01*
X107411650Y-86849341D01*
X107411652Y-86849342D01*
X107411653Y-86849343D01*
X107448679Y-86869428D01*
X107540133Y-86919039D01*
X107682657Y-86951488D01*
X107828649Y-86944281D01*
X107967284Y-86897953D01*
X108039340Y-86850886D01*
X109127724Y-85937623D01*
X109186589Y-85874834D01*
X109256287Y-85746351D01*
X109288736Y-85603828D01*
X109281528Y-85457835D01*
X109235200Y-85319201D01*
X109188134Y-85247144D01*
X109188130Y-85247139D01*
X109188127Y-85247135D01*
X108789108Y-84771605D01*
X108789092Y-84771588D01*
X108766267Y-84750190D01*
X108726312Y-84712731D01*
X108726309Y-84712729D01*
X108726308Y-84712728D01*
X108597829Y-84643033D01*
X108455306Y-84610584D01*
X108455305Y-84610584D01*
X108447724Y-84610958D01*
X108309315Y-84617790D01*
X108309312Y-84617791D01*
X108170677Y-84664119D01*
X108098617Y-84711189D01*
X107010238Y-85624448D01*
X106951371Y-85687239D01*
X106881675Y-85815721D01*
X106881674Y-85815722D01*
X106849226Y-85958242D01*
X103923005Y-85958242D01*
X103511874Y-85167565D01*
X103509879Y-85163551D01*
X103508094Y-85159789D01*
X103048984Y-84192108D01*
X103047119Y-84187984D01*
X102897414Y-83840210D01*
X102621981Y-83200362D01*
X102620288Y-83196221D01*
X102231482Y-82193755D01*
X102229926Y-82189515D01*
X102220345Y-82161859D01*
X101877958Y-81173503D01*
X101876558Y-81169207D01*
X101842057Y-81056471D01*
X101561918Y-80141071D01*
X101560674Y-80136722D01*
X101449617Y-79720046D01*
X101283763Y-79097777D01*
X101282681Y-79093399D01*
X101263071Y-79007314D01*
X101086477Y-78232071D01*
X101043867Y-78045017D01*
X101042943Y-78040586D01*
X100886819Y-77217556D01*
X100842560Y-76984241D01*
X100841798Y-76979786D01*
X100680085Y-75916733D01*
X100679500Y-75912352D01*
X100556691Y-74844100D01*
X100556258Y-74839597D01*
X100550540Y-74766392D01*
X100472524Y-73767665D01*
X100472255Y-73763151D01*
X100468477Y-73672070D01*
X100427696Y-72688823D01*
X100427593Y-72684383D01*
X100422273Y-71609134D01*
X100422333Y-71604622D01*
X100422463Y-71600500D01*
X100456256Y-70529934D01*
X100456481Y-70525429D01*
X100457109Y-70516215D01*
X100529606Y-69452657D01*
X100529989Y-69448237D01*
X100642221Y-68378816D01*
X100642774Y-68374343D01*
X100793950Y-67309803D01*
X100794664Y-67305360D01*
X100801645Y-67266465D01*
X100984595Y-66247025D01*
X100985472Y-66242607D01*
X101213903Y-65191898D01*
X101214920Y-65187599D01*
X101481562Y-64145860D01*
X101482737Y-64141594D01*
X101787203Y-63110339D01*
X101788559Y-63106038D01*
X101815356Y-63026138D01*
X102130458Y-62086586D01*
X102131971Y-62082337D01*
X102226198Y-61832071D01*
X102510841Y-61076060D01*
X102512479Y-61071937D01*
X102927836Y-60080123D01*
X102929654Y-60075996D01*
X103380913Y-59100038D01*
X103382865Y-59096011D01*
X103869465Y-58137130D01*
X103871564Y-58133177D01*
X104392818Y-57192722D01*
X104395057Y-57188851D01*
X104950310Y-56268007D01*
X104952666Y-56264257D01*
X105541136Y-55364325D01*
X105543673Y-55360595D01*
X105581646Y-55306909D01*
X106164615Y-54482707D01*
X106167221Y-54479163D01*
X106456734Y-54100000D01*
X121594355Y-54100000D01*
X121614859Y-54268869D01*
X121614860Y-54268874D01*
X121675182Y-54427931D01*
X121711756Y-54480916D01*
X121771817Y-54567929D01*
X121851103Y-54638170D01*
X121899150Y-54680736D01*
X122049773Y-54759789D01*
X122049775Y-54759790D01*
X122214944Y-54800500D01*
X122385056Y-54800500D01*
X122550225Y-54759790D01*
X122629692Y-54718081D01*
X122700849Y-54680736D01*
X122700850Y-54680734D01*
X122700852Y-54680734D01*
X122828183Y-54567929D01*
X122924818Y-54427930D01*
X122985140Y-54268872D01*
X123005645Y-54100000D01*
X122985140Y-53931128D01*
X122924818Y-53772070D01*
X122922608Y-53768869D01*
X122890476Y-53722318D01*
X122828183Y-53632071D01*
X122791982Y-53600000D01*
X136094355Y-53600000D01*
X136114859Y-53768869D01*
X136114860Y-53768874D01*
X136175182Y-53927931D01*
X136237475Y-54018177D01*
X136271817Y-54067929D01*
X136377505Y-54161560D01*
X136399150Y-54180736D01*
X136549773Y-54259789D01*
X136549775Y-54259790D01*
X136714944Y-54300500D01*
X136885056Y-54300500D01*
X137050225Y-54259790D01*
X137129692Y-54218081D01*
X137200849Y-54180736D01*
X137200850Y-54180734D01*
X137200852Y-54180734D01*
X137328183Y-54067929D01*
X137424818Y-53927930D01*
X137485140Y-53768872D01*
X137505645Y-53600000D01*
X137485140Y-53431128D01*
X137424818Y-53272070D01*
X137328183Y-53132071D01*
X137200852Y-53019266D01*
X137200849Y-53019263D01*
X137050226Y-52940210D01*
X136885056Y-52899500D01*
X136714944Y-52899500D01*
X136549773Y-52940210D01*
X136399150Y-53019263D01*
X136271816Y-53132072D01*
X136175182Y-53272068D01*
X136114860Y-53431125D01*
X136114859Y-53431130D01*
X136094355Y-53600000D01*
X122791982Y-53600000D01*
X122700852Y-53519266D01*
X122700849Y-53519263D01*
X122550226Y-53440210D01*
X122385056Y-53399500D01*
X122214944Y-53399500D01*
X122049773Y-53440210D01*
X121899150Y-53519263D01*
X121771816Y-53632072D01*
X121675182Y-53772068D01*
X121614860Y-53931125D01*
X121614859Y-53931130D01*
X121594355Y-54100000D01*
X106456734Y-54100000D01*
X106819806Y-53624500D01*
X106822547Y-53621043D01*
X107505882Y-52790773D01*
X107508777Y-52787384D01*
X107940689Y-52300000D01*
X113494355Y-52300000D01*
X113514859Y-52468869D01*
X113514860Y-52468874D01*
X113575182Y-52627931D01*
X113612125Y-52681451D01*
X113671817Y-52767929D01*
X113777505Y-52861560D01*
X113799150Y-52880736D01*
X113934201Y-52951616D01*
X113949775Y-52959790D01*
X114114944Y-53000500D01*
X114285056Y-53000500D01*
X114450225Y-52959790D01*
X114565097Y-52899500D01*
X114600849Y-52880736D01*
X114600850Y-52880734D01*
X114600852Y-52880734D01*
X114728183Y-52767929D01*
X114824818Y-52627930D01*
X114885140Y-52468872D01*
X114905645Y-52300000D01*
X114885140Y-52131128D01*
X114873524Y-52100500D01*
X114828191Y-51980964D01*
X114824818Y-51972070D01*
X114728183Y-51832071D01*
X114600852Y-51719266D01*
X114600849Y-51719263D01*
X114450226Y-51640210D01*
X114285056Y-51599500D01*
X114114944Y-51599500D01*
X113949773Y-51640210D01*
X113799150Y-51719263D01*
X113671816Y-51832072D01*
X113575182Y-51972068D01*
X113514860Y-52131125D01*
X113514859Y-52131130D01*
X113494355Y-52300000D01*
X107940689Y-52300000D01*
X108221939Y-51982628D01*
X108224946Y-51979358D01*
X108967013Y-51201156D01*
X108970148Y-51197987D01*
X109740107Y-50447399D01*
X109743342Y-50444358D01*
X110013034Y-50200000D01*
X130794355Y-50200000D01*
X130814859Y-50368869D01*
X130814860Y-50368874D01*
X130875182Y-50527931D01*
X130971816Y-50667928D01*
X130980932Y-50676004D01*
X131018058Y-50735194D01*
X131018478Y-50736724D01*
X131033607Y-50793184D01*
X131033607Y-50793185D01*
X131048665Y-50819266D01*
X131099500Y-50907314D01*
X131099502Y-50907316D01*
X131564396Y-51372210D01*
X131597881Y-51433533D01*
X131599811Y-51444943D01*
X131614859Y-51568870D01*
X131614860Y-51568875D01*
X131675182Y-51727930D01*
X131675182Y-51727931D01*
X131737475Y-51818177D01*
X131771817Y-51867929D01*
X131877505Y-51961560D01*
X131899150Y-51980736D01*
X132049773Y-52059789D01*
X132049775Y-52059790D01*
X132214944Y-52100500D01*
X132385056Y-52100500D01*
X132550225Y-52059790D01*
X132629692Y-52018081D01*
X132700849Y-51980736D01*
X132700850Y-51980734D01*
X132700852Y-51980734D01*
X132828183Y-51867929D01*
X132924818Y-51727930D01*
X132985140Y-51568872D01*
X133005645Y-51400000D01*
X132985140Y-51231128D01*
X132924818Y-51072070D01*
X132828183Y-50932071D01*
X132700852Y-50819266D01*
X132700849Y-50819263D01*
X132550226Y-50740210D01*
X132385056Y-50699500D01*
X132358676Y-50699500D01*
X132291637Y-50679815D01*
X132270995Y-50663181D01*
X132184512Y-50576698D01*
X132151027Y-50515375D01*
X132156011Y-50445683D01*
X132156251Y-50445046D01*
X132185139Y-50368875D01*
X132185140Y-50368870D01*
X132185140Y-50368869D01*
X132205645Y-50200000D01*
X132185140Y-50031128D01*
X132124818Y-49872070D01*
X132122608Y-49868869D01*
X132052210Y-49766880D01*
X132028183Y-49732071D01*
X131900852Y-49619266D01*
X131900849Y-49619263D01*
X131750226Y-49540210D01*
X131585056Y-49499500D01*
X131414944Y-49499500D01*
X131249773Y-49540210D01*
X131099150Y-49619263D01*
X130971816Y-49732072D01*
X130875182Y-49872068D01*
X130814860Y-50031125D01*
X130814859Y-50031130D01*
X130794355Y-50200000D01*
X110013034Y-50200000D01*
X110540201Y-49722354D01*
X110543558Y-49719422D01*
X111245392Y-49128695D01*
X124804500Y-49128695D01*
X124839103Y-49302658D01*
X124839106Y-49302667D01*
X124906983Y-49466540D01*
X124906990Y-49466553D01*
X125005535Y-49614034D01*
X125005538Y-49614038D01*
X125130961Y-49739461D01*
X125130965Y-49739464D01*
X125278446Y-49838009D01*
X125278459Y-49838016D01*
X125401363Y-49888923D01*
X125442334Y-49905894D01*
X125442336Y-49905894D01*
X125442341Y-49905896D01*
X125616304Y-49940499D01*
X125616307Y-49940500D01*
X125616309Y-49940500D01*
X125793693Y-49940500D01*
X125793694Y-49940499D01*
X125851682Y-49928964D01*
X125967658Y-49905896D01*
X125967661Y-49905894D01*
X125967666Y-49905894D01*
X126131547Y-49838013D01*
X126279035Y-49739464D01*
X126404464Y-49614035D01*
X126503013Y-49466547D01*
X126570894Y-49302666D01*
X126605499Y-49128695D01*
X133444500Y-49128695D01*
X133479103Y-49302658D01*
X133479106Y-49302667D01*
X133546983Y-49466540D01*
X133546990Y-49466553D01*
X133645535Y-49614034D01*
X133645538Y-49614038D01*
X133770961Y-49739461D01*
X133770965Y-49739464D01*
X133918446Y-49838009D01*
X133918459Y-49838016D01*
X134041363Y-49888923D01*
X134082334Y-49905894D01*
X134082336Y-49905894D01*
X134082341Y-49905896D01*
X134256304Y-49940499D01*
X134256307Y-49940500D01*
X134256309Y-49940500D01*
X134433693Y-49940500D01*
X134433694Y-49940499D01*
X134491682Y-49928964D01*
X134607658Y-49905896D01*
X134607661Y-49905894D01*
X134607666Y-49905894D01*
X134771547Y-49838013D01*
X134919035Y-49739464D01*
X134958499Y-49700000D01*
X137394355Y-49700000D01*
X137414859Y-49868869D01*
X137414860Y-49868874D01*
X137475182Y-50027931D01*
X137537475Y-50118177D01*
X137571817Y-50167929D01*
X137677505Y-50261560D01*
X137699150Y-50280736D01*
X137849773Y-50359789D01*
X137849775Y-50359790D01*
X138014944Y-50400500D01*
X138041324Y-50400500D01*
X138108363Y-50420185D01*
X138129005Y-50436819D01*
X144442984Y-56750798D01*
X144476469Y-56812121D01*
X144471485Y-56881813D01*
X144471245Y-56882449D01*
X144414861Y-57031122D01*
X144414859Y-57031130D01*
X144394355Y-57200000D01*
X144414859Y-57368869D01*
X144414860Y-57368874D01*
X144475182Y-57527931D01*
X144524929Y-57600000D01*
X144571817Y-57667929D01*
X144653406Y-57740210D01*
X144699150Y-57780736D01*
X144849773Y-57859789D01*
X144849775Y-57859790D01*
X145014944Y-57900500D01*
X145185056Y-57900500D01*
X145350225Y-57859790D01*
X145429692Y-57818081D01*
X145500849Y-57780736D01*
X145500850Y-57780734D01*
X145500852Y-57780734D01*
X145628183Y-57667929D01*
X145724818Y-57527930D01*
X145785140Y-57368872D01*
X145805645Y-57200000D01*
X145785140Y-57031128D01*
X145780641Y-57019266D01*
X145735221Y-56899500D01*
X145724818Y-56872070D01*
X145628183Y-56732071D01*
X145628182Y-56732070D01*
X145623922Y-56725898D01*
X145626186Y-56724334D01*
X145601961Y-56672774D01*
X145600500Y-56653796D01*
X145600500Y-56634110D01*
X145600500Y-56634108D01*
X145566392Y-56506814D01*
X145500500Y-56392686D01*
X145407314Y-56299500D01*
X139719995Y-50612181D01*
X139686510Y-50550858D01*
X139691494Y-50481166D01*
X139733366Y-50425233D01*
X139798830Y-50400816D01*
X139807676Y-50400500D01*
X139885056Y-50400500D01*
X140050225Y-50359790D01*
X140129692Y-50318081D01*
X140200849Y-50280736D01*
X140200850Y-50280734D01*
X140200852Y-50280734D01*
X140328183Y-50167929D01*
X140424818Y-50027930D01*
X140485140Y-49868872D01*
X140505645Y-49700000D01*
X140485140Y-49531128D01*
X140424818Y-49372070D01*
X140328183Y-49232071D01*
X140200852Y-49119266D01*
X140200849Y-49119263D01*
X140050226Y-49040210D01*
X139885056Y-48999500D01*
X139714944Y-48999500D01*
X139549773Y-49040210D01*
X139399150Y-49119263D01*
X139271816Y-49232072D01*
X139175182Y-49372068D01*
X139114860Y-49531125D01*
X139114859Y-49531130D01*
X139094027Y-49702702D01*
X139066405Y-49766880D01*
X139008471Y-49805936D01*
X138938618Y-49807471D01*
X138883250Y-49775436D01*
X138835602Y-49727788D01*
X138802117Y-49666465D01*
X138800187Y-49655053D01*
X138795842Y-49619266D01*
X138785140Y-49531128D01*
X138724818Y-49372070D01*
X138628183Y-49232071D01*
X138500852Y-49119266D01*
X138500849Y-49119263D01*
X138350226Y-49040210D01*
X138185056Y-48999500D01*
X138014944Y-48999500D01*
X137849773Y-49040210D01*
X137699150Y-49119263D01*
X137571816Y-49232072D01*
X137475182Y-49372068D01*
X137414860Y-49531125D01*
X137414859Y-49531130D01*
X137394355Y-49700000D01*
X134958499Y-49700000D01*
X135044464Y-49614035D01*
X135143013Y-49466547D01*
X135210894Y-49302666D01*
X135245500Y-49128691D01*
X135245500Y-47851309D01*
X135245500Y-47851306D01*
X135245499Y-47851304D01*
X135210896Y-47677341D01*
X135210893Y-47677332D01*
X135143016Y-47513459D01*
X135143009Y-47513446D01*
X135044464Y-47365965D01*
X135044461Y-47365961D01*
X134919038Y-47240538D01*
X134919034Y-47240535D01*
X134771553Y-47141990D01*
X134771540Y-47141983D01*
X134607667Y-47074106D01*
X134607658Y-47074103D01*
X134433694Y-47039500D01*
X134433691Y-47039500D01*
X134256309Y-47039500D01*
X134256306Y-47039500D01*
X134082341Y-47074103D01*
X134082332Y-47074106D01*
X133918459Y-47141983D01*
X133918446Y-47141990D01*
X133770965Y-47240535D01*
X133770961Y-47240538D01*
X133645538Y-47365961D01*
X133645535Y-47365965D01*
X133546990Y-47513446D01*
X133546983Y-47513459D01*
X133479106Y-47677332D01*
X133479103Y-47677341D01*
X133444500Y-47851304D01*
X133444500Y-49128695D01*
X126605499Y-49128695D01*
X126605500Y-49128691D01*
X126605500Y-47851309D01*
X126605500Y-47851306D01*
X126605499Y-47851304D01*
X126570896Y-47677341D01*
X126570893Y-47677332D01*
X126503016Y-47513459D01*
X126503009Y-47513446D01*
X126404464Y-47365965D01*
X126404461Y-47365961D01*
X126279038Y-47240538D01*
X126279034Y-47240535D01*
X126131553Y-47141990D01*
X126131540Y-47141983D01*
X125967667Y-47074106D01*
X125967658Y-47074103D01*
X125793694Y-47039500D01*
X125793691Y-47039500D01*
X125616309Y-47039500D01*
X125616306Y-47039500D01*
X125442341Y-47074103D01*
X125442332Y-47074106D01*
X125278459Y-47141983D01*
X125278446Y-47141990D01*
X125130965Y-47240535D01*
X125130961Y-47240538D01*
X125005538Y-47365961D01*
X125005535Y-47365965D01*
X124906990Y-47513446D01*
X124906983Y-47513459D01*
X124839106Y-47677332D01*
X124839103Y-47677341D01*
X124804500Y-47851304D01*
X124804500Y-49128695D01*
X111245392Y-49128695D01*
X111366219Y-49026996D01*
X111369686Y-49024184D01*
X112217064Y-48362247D01*
X112220609Y-48359580D01*
X113091617Y-47728983D01*
X113095241Y-47726459D01*
X113988667Y-47128080D01*
X113992409Y-47125671D01*
X114907086Y-46560292D01*
X114910898Y-46558031D01*
X115845577Y-46026424D01*
X115849512Y-46024280D01*
X116802966Y-45527142D01*
X116806934Y-45525164D01*
X117777920Y-45063142D01*
X117781949Y-45061313D01*
X118769143Y-44635040D01*
X118773294Y-44633337D01*
X119775327Y-44243399D01*
X119779511Y-44241857D01*
X120795162Y-43888729D01*
X120799439Y-43887329D01*
X121827256Y-43571518D01*
X121831567Y-43570279D01*
X122823429Y-43304718D01*
X122855499Y-43300500D01*
X124788905Y-43300500D01*
X124855944Y-43320185D01*
G37*
%TD.AperFunction*%
%TA.AperFunction,Conductor*%
G36*
X122178930Y-92585470D02*
G01*
X122217823Y-92608835D01*
X122300450Y-92682036D01*
X122451077Y-92761092D01*
X122616246Y-92801802D01*
X122786358Y-92801802D01*
X122951527Y-92761092D01*
X123040849Y-92714211D01*
X123102147Y-92682040D01*
X123102149Y-92682038D01*
X123102154Y-92682036D01*
X123132346Y-92655288D01*
X123158989Y-92631685D01*
X123222222Y-92601963D01*
X123241216Y-92600500D01*
X139341324Y-92600500D01*
X139408363Y-92620185D01*
X139429005Y-92636819D01*
X139814396Y-93022210D01*
X139847881Y-93083533D01*
X139849811Y-93094943D01*
X139864859Y-93218870D01*
X139864860Y-93218875D01*
X139925182Y-93377930D01*
X139925182Y-93377931D01*
X140021818Y-93517930D01*
X140132612Y-93616085D01*
X140169739Y-93675274D01*
X140168971Y-93745139D01*
X140138066Y-93796581D01*
X139971466Y-93963182D01*
X139910146Y-93996666D01*
X139883787Y-93999500D01*
X120961751Y-93999500D01*
X120894712Y-93979815D01*
X120848957Y-93927011D01*
X120839013Y-93857853D01*
X120868038Y-93794297D01*
X120874070Y-93787819D01*
X121161389Y-93500500D01*
X122047918Y-92613969D01*
X122109239Y-92580486D01*
X122178930Y-92585470D01*
G37*
%TD.AperFunction*%
%TA.AperFunction,Conductor*%
G36*
X127540429Y-80172626D02*
G01*
X127586184Y-80225430D01*
X127596486Y-80261994D01*
X127615830Y-80421310D01*
X127615831Y-80421315D01*
X127676153Y-80580372D01*
X127730474Y-80659068D01*
X127772788Y-80720370D01*
X127854153Y-80792453D01*
X127900121Y-80833177D01*
X128050744Y-80912230D01*
X128050746Y-80912231D01*
X128215915Y-80952941D01*
X128386027Y-80952941D01*
X128551196Y-80912231D01*
X128701823Y-80833175D01*
X128701832Y-80833166D01*
X128705054Y-80830944D01*
X128707801Y-80830037D01*
X128708464Y-80829690D01*
X128708521Y-80829800D01*
X128771408Y-80809058D01*
X128839060Y-80826519D01*
X128886533Y-80877784D01*
X128899500Y-80932990D01*
X128899500Y-83712555D01*
X128879815Y-83779594D01*
X128863181Y-83800236D01*
X121612181Y-91051236D01*
X121550858Y-91084721D01*
X121481166Y-91079737D01*
X121425233Y-91037865D01*
X121400816Y-90972401D01*
X121400500Y-90963555D01*
X121400500Y-86780297D01*
X121420185Y-86713258D01*
X121472989Y-86667503D01*
X121542147Y-86657559D01*
X121605703Y-86686584D01*
X121640442Y-86736327D01*
X121675181Y-86827928D01*
X121675182Y-86827931D01*
X121691027Y-86850886D01*
X121771817Y-86967929D01*
X121876591Y-87060750D01*
X121899150Y-87080736D01*
X122030266Y-87149551D01*
X122049775Y-87159790D01*
X122214944Y-87200500D01*
X122385056Y-87200500D01*
X122550225Y-87159790D01*
X122636214Y-87114659D01*
X122700849Y-87080736D01*
X122700850Y-87080734D01*
X122700852Y-87080734D01*
X122828183Y-86967929D01*
X122924818Y-86827930D01*
X122985140Y-86668872D01*
X123005645Y-86500000D01*
X122985140Y-86331128D01*
X122924818Y-86172070D01*
X122828183Y-86032071D01*
X122714244Y-85931130D01*
X122700849Y-85919263D01*
X122550226Y-85840210D01*
X122385056Y-85799500D01*
X122214944Y-85799500D01*
X122049773Y-85840210D01*
X121899150Y-85919263D01*
X121771816Y-86032072D01*
X121675182Y-86172068D01*
X121675182Y-86172069D01*
X121640442Y-86263673D01*
X121598264Y-86319376D01*
X121532667Y-86343433D01*
X121464476Y-86328206D01*
X121415343Y-86278530D01*
X121400500Y-86219702D01*
X121400500Y-83082636D01*
X121397750Y-83072375D01*
X121397750Y-83072374D01*
X121393522Y-83056596D01*
X121395183Y-82986746D01*
X121434345Y-82928883D01*
X121498573Y-82901377D01*
X121513296Y-82900500D01*
X121841643Y-82900500D01*
X121908682Y-82920185D01*
X121954437Y-82972989D01*
X121964381Y-83042147D01*
X121957585Y-83068468D01*
X121956104Y-83072375D01*
X121914860Y-83181125D01*
X121914859Y-83181130D01*
X121894355Y-83350000D01*
X121914859Y-83518869D01*
X121914860Y-83518874D01*
X121975182Y-83677931D01*
X122009695Y-83727931D01*
X122071817Y-83817929D01*
X122128256Y-83867929D01*
X122199150Y-83930736D01*
X122349773Y-84009789D01*
X122349775Y-84009790D01*
X122514944Y-84050500D01*
X122685056Y-84050500D01*
X122850225Y-84009790D01*
X123000852Y-83930734D01*
X123056218Y-83881683D01*
X123119451Y-83851963D01*
X123138445Y-83850500D01*
X123468280Y-83850500D01*
X123468282Y-83850500D01*
X123595576Y-83816392D01*
X123709704Y-83750500D01*
X127270944Y-80189260D01*
X127332267Y-80155775D01*
X127358625Y-80152941D01*
X127473390Y-80152941D01*
X127540429Y-80172626D01*
G37*
%TD.AperFunction*%
%TA.AperFunction,Conductor*%
G36*
X136589829Y-62714493D02*
G01*
X136608196Y-62729630D01*
X142065679Y-68187113D01*
X142099164Y-68248436D01*
X142101094Y-68289740D01*
X142092245Y-68362619D01*
X142064623Y-68426797D01*
X142056830Y-68435354D01*
X141429004Y-69063181D01*
X141367681Y-69096666D01*
X141341323Y-69099500D01*
X141214944Y-69099500D01*
X141049773Y-69140210D01*
X140899150Y-69219263D01*
X140800326Y-69306814D01*
X140772882Y-69331128D01*
X140771816Y-69332072D01*
X140675182Y-69472068D01*
X140614860Y-69631125D01*
X140614859Y-69631130D01*
X140594355Y-69800000D01*
X140614859Y-69968869D01*
X140614860Y-69968874D01*
X140675182Y-70127931D01*
X140771817Y-70267930D01*
X140808579Y-70300497D01*
X140832804Y-70321959D01*
X140869931Y-70381147D01*
X140869165Y-70451012D01*
X140838261Y-70502453D01*
X140824503Y-70516210D01*
X140824500Y-70516215D01*
X140758608Y-70630341D01*
X140724500Y-70757637D01*
X140724500Y-88775500D01*
X140704815Y-88842539D01*
X140652011Y-88888294D01*
X140600500Y-88899500D01*
X140508832Y-88899500D01*
X140441793Y-88879815D01*
X140406782Y-88845941D01*
X140374728Y-88799503D01*
X140328183Y-88732071D01*
X140239845Y-88653811D01*
X140200849Y-88619263D01*
X140050226Y-88540210D01*
X139885056Y-88499500D01*
X139714944Y-88499500D01*
X139549773Y-88540210D01*
X139399150Y-88619264D01*
X139374971Y-88640684D01*
X139356692Y-88656879D01*
X139343782Y-88668316D01*
X139280549Y-88698037D01*
X139261555Y-88699500D01*
X139085579Y-88699500D01*
X138958283Y-88733608D01*
X138844157Y-88799500D01*
X138844153Y-88799503D01*
X138813020Y-88830636D01*
X138751696Y-88864121D01*
X138682005Y-88859135D01*
X138626072Y-88817263D01*
X138601656Y-88751798D01*
X138602244Y-88728007D01*
X138605645Y-88700000D01*
X138585140Y-88531128D01*
X138524818Y-88372070D01*
X138518682Y-88363181D01*
X138488368Y-88319264D01*
X138428183Y-88232071D01*
X138315306Y-88132071D01*
X138300849Y-88119263D01*
X138150226Y-88040210D01*
X137985056Y-87999500D01*
X137814944Y-87999500D01*
X137649773Y-88040210D01*
X137499150Y-88119263D01*
X137371816Y-88232072D01*
X137275182Y-88372068D01*
X137235385Y-88477008D01*
X137193207Y-88532711D01*
X137127610Y-88556768D01*
X137119443Y-88557037D01*
X135551571Y-88557037D01*
X135424275Y-88591145D01*
X135352906Y-88632351D01*
X135310149Y-88657037D01*
X135310147Y-88657038D01*
X135308678Y-88657887D01*
X135246677Y-88674500D01*
X134675139Y-88674500D01*
X134608100Y-88654815D01*
X134562345Y-88602011D01*
X134552401Y-88532853D01*
X134581426Y-88469297D01*
X134587458Y-88462819D01*
X137256567Y-85793710D01*
X139927899Y-83122378D01*
X139935740Y-83108798D01*
X139993792Y-83008249D01*
X140003240Y-82972989D01*
X140004344Y-82968871D01*
X140012965Y-82936691D01*
X140027900Y-82880956D01*
X140027900Y-82749171D01*
X140027900Y-70061508D01*
X140027036Y-70058285D01*
X140005304Y-69977183D01*
X140001984Y-69930144D01*
X140005645Y-69900000D01*
X139985140Y-69731128D01*
X139924818Y-69572070D01*
X139828183Y-69432071D01*
X139714244Y-69331130D01*
X139700849Y-69319263D01*
X139550226Y-69240210D01*
X139385056Y-69199500D01*
X139214944Y-69199500D01*
X139049773Y-69240210D01*
X138899150Y-69319263D01*
X138811781Y-69396666D01*
X138771821Y-69432068D01*
X138771816Y-69432072D01*
X138675182Y-69572068D01*
X138614860Y-69731125D01*
X138614859Y-69731130D01*
X138594355Y-69900000D01*
X138614859Y-70068869D01*
X138614860Y-70068874D01*
X138675182Y-70227931D01*
X138725272Y-70300497D01*
X138771817Y-70367929D01*
X138808855Y-70400741D01*
X138845980Y-70459929D01*
X138845213Y-70529795D01*
X138806796Y-70588155D01*
X138756302Y-70613953D01*
X138649773Y-70640210D01*
X138499156Y-70719260D01*
X138497112Y-70720672D01*
X138495376Y-70721244D01*
X138492506Y-70722751D01*
X138492255Y-70722273D01*
X138430759Y-70742559D01*
X138426664Y-70742627D01*
X127904945Y-70742627D01*
X127837906Y-70722942D01*
X127792151Y-70670138D01*
X127782207Y-70600980D01*
X127811232Y-70537424D01*
X127847319Y-70508831D01*
X127869655Y-70497107D01*
X127900852Y-70480734D01*
X127956218Y-70431683D01*
X128019451Y-70401963D01*
X128038445Y-70400500D01*
X128765890Y-70400500D01*
X128765892Y-70400500D01*
X128893186Y-70366392D01*
X129007314Y-70300500D01*
X135670995Y-63636819D01*
X135732318Y-63603334D01*
X135758676Y-63600500D01*
X135785056Y-63600500D01*
X135950225Y-63559790D01*
X136089990Y-63486435D01*
X136100849Y-63480736D01*
X136100850Y-63480734D01*
X136100852Y-63480734D01*
X136228183Y-63367929D01*
X136324818Y-63227930D01*
X136385140Y-63068872D01*
X136405645Y-62900000D01*
X136397419Y-62832256D01*
X136408879Y-62763335D01*
X136455783Y-62711548D01*
X136523238Y-62693341D01*
X136589829Y-62714493D01*
G37*
%TD.AperFunction*%
%TA.AperFunction,Conductor*%
G36*
X119054155Y-74162318D02*
G01*
X119133555Y-74181889D01*
X119133561Y-74181889D01*
X119140440Y-74182724D01*
X119204619Y-74210342D01*
X119243679Y-74268274D01*
X119249500Y-74305821D01*
X119249500Y-80199861D01*
X119229815Y-80266900D01*
X119177011Y-80312655D01*
X119107853Y-80322599D01*
X119044297Y-80293574D01*
X119037819Y-80287542D01*
X118936819Y-80186542D01*
X118903334Y-80125219D01*
X118900500Y-80098861D01*
X118900500Y-74282720D01*
X118920185Y-74215681D01*
X118972989Y-74169926D01*
X119042147Y-74159982D01*
X119054155Y-74162318D01*
G37*
%TD.AperFunction*%
%TA.AperFunction,Conductor*%
G36*
X117218834Y-61957179D02*
G01*
X117274767Y-61999051D01*
X117299184Y-62064515D01*
X117299500Y-62073361D01*
X117299500Y-65365918D01*
X117279815Y-65432957D01*
X117227011Y-65478712D01*
X117157853Y-65488656D01*
X117117875Y-65475715D01*
X117050225Y-65440209D01*
X116885056Y-65399500D01*
X116714944Y-65399500D01*
X116549773Y-65440210D01*
X116399150Y-65519263D01*
X116271816Y-65632072D01*
X116175182Y-65772068D01*
X116114860Y-65931125D01*
X116114859Y-65931130D01*
X116094355Y-66100000D01*
X116114859Y-66268869D01*
X116114860Y-66268874D01*
X116175182Y-66427931D01*
X116237475Y-66518177D01*
X116271817Y-66567929D01*
X116353406Y-66640210D01*
X116399150Y-66680736D01*
X116549773Y-66759789D01*
X116549775Y-66759790D01*
X116714944Y-66800500D01*
X116885056Y-66800500D01*
X117050225Y-66759790D01*
X117090816Y-66738485D01*
X117117874Y-66724285D01*
X117186382Y-66710559D01*
X117251435Y-66736051D01*
X117292380Y-66792667D01*
X117299500Y-66834081D01*
X117299500Y-69706158D01*
X117279815Y-69773197D01*
X117227011Y-69818952D01*
X117205175Y-69826555D01*
X117149773Y-69840210D01*
X116999149Y-69919264D01*
X116999147Y-69919266D01*
X116937812Y-69973603D01*
X116887680Y-70000562D01*
X116770087Y-70032071D01*
X116770086Y-70032070D01*
X116764351Y-70033607D01*
X116670261Y-70087931D01*
X116650223Y-70099500D01*
X116650222Y-70099501D01*
X116589934Y-70159789D01*
X116559620Y-70190103D01*
X116498296Y-70223587D01*
X116428605Y-70218603D01*
X116372671Y-70176731D01*
X116348255Y-70111266D01*
X116355996Y-70058454D01*
X116405140Y-69928872D01*
X116425645Y-69760000D01*
X116405140Y-69591128D01*
X116344818Y-69432070D01*
X116322336Y-69399500D01*
X116275793Y-69332071D01*
X116248183Y-69292071D01*
X116120852Y-69179266D01*
X116120849Y-69179263D01*
X115970226Y-69100210D01*
X115805056Y-69059500D01*
X115634944Y-69059500D01*
X115469773Y-69100210D01*
X115319150Y-69179263D01*
X115191816Y-69292072D01*
X115095182Y-69432068D01*
X115034860Y-69591125D01*
X115034859Y-69591130D01*
X115014355Y-69760000D01*
X115034859Y-69928869D01*
X115034860Y-69928874D01*
X115095182Y-70087931D01*
X115125651Y-70132072D01*
X115191817Y-70227929D01*
X115273730Y-70300497D01*
X115319150Y-70340736D01*
X115456577Y-70412863D01*
X115469775Y-70419790D01*
X115634944Y-70460500D01*
X115805056Y-70460500D01*
X115970225Y-70419790D01*
X116005841Y-70401096D01*
X116074348Y-70387371D01*
X116139401Y-70412863D01*
X116180346Y-70469478D01*
X116184183Y-70539242D01*
X116151149Y-70598574D01*
X116074500Y-70675223D01*
X116008608Y-70789349D01*
X115974500Y-70916645D01*
X115974500Y-72444911D01*
X115954815Y-72511950D01*
X115902011Y-72557705D01*
X115832853Y-72567649D01*
X115769297Y-72538624D01*
X115762819Y-72532592D01*
X115057398Y-71827171D01*
X115029138Y-71783462D01*
X115024818Y-71772070D01*
X114928183Y-71632071D01*
X114814243Y-71531129D01*
X114800849Y-71519263D01*
X114650226Y-71440210D01*
X114485056Y-71399500D01*
X114314944Y-71399500D01*
X114149773Y-71440210D01*
X113999150Y-71519263D01*
X113871816Y-71632072D01*
X113775182Y-71772068D01*
X113714860Y-71931125D01*
X113714859Y-71931130D01*
X113694355Y-72100000D01*
X113714859Y-72268869D01*
X113714860Y-72268874D01*
X113775182Y-72427931D01*
X113871817Y-72567930D01*
X113943070Y-72631053D01*
X113980197Y-72690242D01*
X113979431Y-72760108D01*
X113976786Y-72767840D01*
X113914860Y-72931124D01*
X113914859Y-72931129D01*
X113899811Y-73055054D01*
X113872188Y-73119232D01*
X113864399Y-73127785D01*
X113829007Y-73163179D01*
X113767685Y-73196665D01*
X113741323Y-73199500D01*
X113334104Y-73199500D01*
X113318193Y-73203763D01*
X113318194Y-73203764D01*
X113206814Y-73233608D01*
X113206812Y-73233608D01*
X113206812Y-73233609D01*
X113092686Y-73299500D01*
X113092683Y-73299502D01*
X112229005Y-74163181D01*
X112167682Y-74196666D01*
X112141324Y-74199500D01*
X112114944Y-74199500D01*
X111949773Y-74240210D01*
X111799150Y-74319263D01*
X111671816Y-74432072D01*
X111575182Y-74572068D01*
X111514860Y-74731125D01*
X111514859Y-74731130D01*
X111494355Y-74900000D01*
X111514859Y-75068869D01*
X111514860Y-75068874D01*
X111575182Y-75227931D01*
X111671817Y-75367930D01*
X111704254Y-75396666D01*
X111729587Y-75419109D01*
X111766714Y-75478297D01*
X111765948Y-75548162D01*
X111735042Y-75599605D01*
X109871468Y-77463181D01*
X109810145Y-77496666D01*
X109783787Y-77499500D01*
X109714944Y-77499500D01*
X109549774Y-77540209D01*
X109506390Y-77562980D01*
X109437882Y-77576704D01*
X109372829Y-77551212D01*
X109331885Y-77494596D01*
X109324765Y-77453183D01*
X109324765Y-69800096D01*
X109344450Y-69733057D01*
X109361079Y-69712420D01*
X117087819Y-61985679D01*
X117149142Y-61952195D01*
X117218834Y-61957179D01*
G37*
%TD.AperFunction*%
%TA.AperFunction,Conductor*%
G36*
X145834746Y-68875683D02*
G01*
X145870564Y-68935674D01*
X145874500Y-68966670D01*
X145874500Y-70952797D01*
X145854815Y-71019836D01*
X145802011Y-71065591D01*
X145732853Y-71075535D01*
X145692875Y-71062594D01*
X145650225Y-71040209D01*
X145485056Y-70999500D01*
X145314944Y-70999500D01*
X145149773Y-71040210D01*
X144999150Y-71119263D01*
X144871816Y-71232072D01*
X144775182Y-71372068D01*
X144775182Y-71372069D01*
X144714860Y-71531124D01*
X144714859Y-71531129D01*
X144699811Y-71655055D01*
X144672188Y-71719233D01*
X144664396Y-71727788D01*
X142737181Y-73655004D01*
X142675858Y-73688489D01*
X142606166Y-73683505D01*
X142550233Y-73641633D01*
X142525816Y-73576169D01*
X142525500Y-73567323D01*
X142525500Y-71650936D01*
X142545185Y-71583897D01*
X142561814Y-71563260D01*
X144935315Y-69189758D01*
X144996638Y-69156274D01*
X145022996Y-69153440D01*
X145188316Y-69153440D01*
X145353485Y-69112730D01*
X145454905Y-69059500D01*
X145504109Y-69033676D01*
X145504110Y-69033674D01*
X145504112Y-69033674D01*
X145631443Y-68920869D01*
X145648450Y-68896229D01*
X145702733Y-68852240D01*
X145772181Y-68844580D01*
X145834746Y-68875683D01*
G37*
%TD.AperFunction*%
%TD*%
M02*
