%TF.GenerationSoftware,KiCad,Pcbnew,8.0.1*%
%TF.CreationDate,2024-05-30T22:25:26-04:00*%
%TF.ProjectId,esp32s3,65737033-3273-4332-9e6b-696361645f70,rev?*%
%TF.SameCoordinates,Original*%
%TF.FileFunction,Paste,Top*%
%TF.FilePolarity,Positive*%
%FSLAX46Y46*%
G04 Gerber Fmt 4.6, Leading zero omitted, Abs format (unit mm)*
G04 Created by KiCad (PCBNEW 8.0.1) date 2024-05-30 22:25:26*
%MOMM*%
%LPD*%
G01*
G04 APERTURE LIST*
G04 Aperture macros list*
%AMRoundRect*
0 Rectangle with rounded corners*
0 $1 Rounding radius*
0 $2 $3 $4 $5 $6 $7 $8 $9 X,Y pos of 4 corners*
0 Add a 4 corners polygon primitive as box body*
4,1,4,$2,$3,$4,$5,$6,$7,$8,$9,$2,$3,0*
0 Add four circle primitives for the rounded corners*
1,1,$1+$1,$2,$3*
1,1,$1+$1,$4,$5*
1,1,$1+$1,$6,$7*
1,1,$1+$1,$8,$9*
0 Add four rect primitives between the rounded corners*
20,1,$1+$1,$2,$3,$4,$5,0*
20,1,$1+$1,$4,$5,$6,$7,0*
20,1,$1+$1,$6,$7,$8,$9,0*
20,1,$1+$1,$8,$9,$2,$3,0*%
%AMFreePoly0*
4,1,50,0.364509,0.373079,0.400557,0.358147,0.402331,0.356372,0.403779,0.355902,0.406374,0.352329,0.428147,0.330557,0.436043,0.311493,0.440106,0.305902,0.441186,0.299076,0.443079,0.294509,0.443090,0.287057,0.445000,0.275000,0.445000,-0.965000,0.443079,-0.984509,0.428147,-1.020558,0.426371,-1.022333,0.425902,-1.023779,0.422332,-1.026372,0.400558,-1.048147,0.381492,-1.056044,
0.375902,-1.060106,0.371686,-1.060106,0.364509,-1.063079,0.325491,-1.063079,0.318314,-1.060106,0.314098,-1.060106,0.305304,-1.054717,0.289443,-1.048147,0.281262,-1.039984,0.274289,-1.035711,-0.965711,0.204289,-0.978147,0.219443,-0.993079,0.255491,-0.993079,0.258002,-0.993769,0.259357,-0.993079,0.263713,-0.993079,0.294509,-0.985182,0.313573,-0.984101,0.320399,-0.981119,0.323380,
-0.978147,0.330557,-0.950557,0.358147,-0.943380,0.361119,-0.940399,0.364101,-0.930371,0.366508,-0.914509,0.373079,-0.902928,0.373096,-0.895000,0.375000,0.345000,0.375000,0.364509,0.373079,0.364509,0.373079,$1*%
G04 Aperture macros list end*
%ADD10C,0.000000*%
%ADD11R,0.254000X0.254000*%
%ADD12R,0.600000X1.240000*%
%ADD13R,0.300000X1.240000*%
%ADD14R,0.711200X0.990600*%
%ADD15RoundRect,0.140000X0.170000X-0.140000X0.170000X0.140000X-0.170000X0.140000X-0.170000X-0.140000X0*%
%ADD16RoundRect,0.140000X-0.140000X-0.170000X0.140000X-0.170000X0.140000X0.170000X-0.140000X0.170000X0*%
%ADD17RoundRect,0.140000X0.140000X0.170000X-0.140000X0.170000X-0.140000X-0.170000X0.140000X-0.170000X0*%
%ADD18RoundRect,0.100000X0.155000X0.100000X-0.155000X0.100000X-0.155000X-0.100000X0.155000X-0.100000X0*%
%ADD19RoundRect,0.147500X-0.172500X0.147500X-0.172500X-0.147500X0.172500X-0.147500X0.172500X0.147500X0*%
%ADD20RoundRect,0.135000X-0.135000X-0.185000X0.135000X-0.185000X0.135000X0.185000X-0.135000X0.185000X0*%
%ADD21R,0.900000X0.800000*%
%ADD22RoundRect,0.218750X-0.218750X-0.381250X0.218750X-0.381250X0.218750X0.381250X-0.218750X0.381250X0*%
%ADD23R,1.000000X1.000000*%
%ADD24R,1.050000X2.200000*%
%ADD25RoundRect,0.135000X-0.185000X0.135000X-0.185000X-0.135000X0.185000X-0.135000X0.185000X0.135000X0*%
%ADD26RoundRect,0.147500X-0.147500X-0.172500X0.147500X-0.172500X0.147500X0.172500X-0.147500X0.172500X0*%
%ADD27R,0.660400X0.711200*%
%ADD28R,2.200000X1.800000*%
%ADD29R,1.300000X0.300000*%
%ADD30RoundRect,0.140000X-0.170000X0.140000X-0.170000X-0.140000X0.170000X-0.140000X0.170000X0.140000X0*%
%ADD31RoundRect,0.150000X0.150000X-0.650000X0.150000X0.650000X-0.150000X0.650000X-0.150000X-0.650000X0*%
%ADD32RoundRect,0.150000X0.150000X-0.512500X0.150000X0.512500X-0.150000X0.512500X-0.150000X-0.512500X0*%
%ADD33R,1.524000X0.457200*%
%ADD34R,0.800000X0.900000*%
%ADD35RoundRect,0.135000X0.135000X0.185000X-0.135000X0.185000X-0.135000X-0.185000X0.135000X-0.185000X0*%
%ADD36R,0.599999X0.249999*%
%ADD37R,0.249999X0.599999*%
%ADD38RoundRect,0.225000X0.375000X-0.225000X0.375000X0.225000X-0.375000X0.225000X-0.375000X-0.225000X0*%
%ADD39R,1.800000X0.800000*%
%ADD40RoundRect,0.250000X0.250000X0.750000X-0.250000X0.750000X-0.250000X-0.750000X0.250000X-0.750000X0*%
%ADD41RoundRect,0.150000X-0.587500X-0.150000X0.587500X-0.150000X0.587500X0.150000X-0.587500X0.150000X0*%
%ADD42RoundRect,0.135000X0.185000X-0.135000X0.185000X0.135000X-0.185000X0.135000X-0.185000X-0.135000X0*%
%ADD43RoundRect,0.375000X-0.375000X0.625000X-0.375000X-0.625000X0.375000X-0.625000X0.375000X0.625000X0*%
%ADD44RoundRect,0.500000X-1.400000X0.500000X-1.400000X-0.500000X1.400000X-0.500000X1.400000X0.500000X0*%
%ADD45RoundRect,0.075000X-0.075000X0.225000X-0.075000X-0.225000X0.075000X-0.225000X0.075000X0.225000X0*%
%ADD46RoundRect,0.075000X-0.237500X0.075000X-0.237500X-0.075000X0.237500X-0.075000X0.237500X0.075000X0*%
%ADD47RoundRect,0.375000X-0.375000X1.375000X-0.375000X-1.375000X0.375000X-1.375000X0.375000X1.375000X0*%
%ADD48FreePoly0,270.000000*%
%ADD49RoundRect,0.050000X0.050000X0.350000X-0.050000X0.350000X-0.050000X-0.350000X0.050000X-0.350000X0*%
%ADD50RoundRect,0.050000X0.350000X0.050000X-0.350000X0.050000X-0.350000X-0.050000X0.350000X-0.050000X0*%
%ADD51RoundRect,0.250000X0.285000X0.285000X-0.285000X0.285000X-0.285000X-0.285000X0.285000X-0.285000X0*%
%ADD52RoundRect,0.147500X0.147500X0.172500X-0.147500X0.172500X-0.147500X-0.172500X0.147500X-0.172500X0*%
%ADD53R,0.430000X0.350000*%
%ADD54R,0.350000X0.430000*%
%ADD55RoundRect,0.062500X0.062500X0.350000X-0.062500X0.350000X-0.062500X-0.350000X0.062500X-0.350000X0*%
%ADD56RoundRect,0.062500X0.350000X0.062500X-0.350000X0.062500X-0.350000X-0.062500X0.350000X-0.062500X0*%
%ADD57RoundRect,0.250000X0.275000X0.275000X-0.275000X0.275000X-0.275000X-0.275000X0.275000X-0.275000X0*%
G04 APERTURE END LIST*
D10*
%TO.C,U11*%
G36*
X117960880Y-89670932D02*
G01*
X117969999Y-89673698D01*
X117978401Y-89678189D01*
X117985765Y-89684234D01*
X117991810Y-89691597D01*
X117996300Y-89700000D01*
X117999066Y-89709118D01*
X118000001Y-89718598D01*
X118000001Y-90701400D01*
X117999066Y-90710879D01*
X117996300Y-90719998D01*
X117991810Y-90728400D01*
X117985765Y-90735764D01*
X117978401Y-90741809D01*
X117969999Y-90746299D01*
X117960880Y-90749065D01*
X117951401Y-90750000D01*
X116968599Y-90750000D01*
X116959119Y-90749065D01*
X116950001Y-90746299D01*
X116941598Y-90741809D01*
X116934235Y-90735764D01*
X116928190Y-90728400D01*
X116923699Y-90719998D01*
X116920933Y-90710879D01*
X116920001Y-90701400D01*
X116920001Y-89718598D01*
X116920933Y-89709118D01*
X116923699Y-89700000D01*
X116928190Y-89691597D01*
X116934235Y-89684234D01*
X116941598Y-89678189D01*
X116950001Y-89673698D01*
X116959119Y-89670932D01*
X116968599Y-89670000D01*
X117951401Y-89670000D01*
X117960880Y-89670932D01*
G37*
G36*
X117960880Y-90950935D02*
G01*
X117969999Y-90953701D01*
X117978401Y-90958191D01*
X117985765Y-90964236D01*
X117991810Y-90971600D01*
X117996300Y-90980002D01*
X117999066Y-90989121D01*
X118000001Y-90998600D01*
X118000001Y-91981402D01*
X117999066Y-91990882D01*
X117996300Y-92000000D01*
X117991810Y-92008403D01*
X117985765Y-92015766D01*
X117978401Y-92021811D01*
X117969999Y-92026302D01*
X117960880Y-92029068D01*
X117951401Y-92030000D01*
X116968599Y-92030000D01*
X116959119Y-92029068D01*
X116950001Y-92026302D01*
X116941598Y-92021811D01*
X116934235Y-92015766D01*
X116928190Y-92008403D01*
X116923699Y-92000000D01*
X116920933Y-91990882D01*
X116920001Y-91981402D01*
X116920001Y-90998600D01*
X116920933Y-90989121D01*
X116923699Y-90980002D01*
X116928190Y-90971600D01*
X116934235Y-90964236D01*
X116941598Y-90958191D01*
X116950001Y-90953701D01*
X116959119Y-90950935D01*
X116968599Y-90950000D01*
X117951401Y-90950000D01*
X117960880Y-90950935D01*
G37*
G36*
X119240883Y-89670932D02*
G01*
X119250001Y-89673698D01*
X119258404Y-89678189D01*
X119265767Y-89684234D01*
X119271812Y-89691597D01*
X119276303Y-89700000D01*
X119279069Y-89709118D01*
X119280001Y-89718598D01*
X119280001Y-90701400D01*
X119279069Y-90710879D01*
X119276303Y-90719998D01*
X119271812Y-90728400D01*
X119265767Y-90735764D01*
X119258404Y-90741809D01*
X119250001Y-90746299D01*
X119240883Y-90749065D01*
X119231403Y-90750000D01*
X118248601Y-90750000D01*
X118239122Y-90749065D01*
X118230003Y-90746299D01*
X118221601Y-90741809D01*
X118214237Y-90735764D01*
X118208192Y-90728400D01*
X118203702Y-90719998D01*
X118200936Y-90710879D01*
X118200001Y-90701400D01*
X118200001Y-89718598D01*
X118200936Y-89709118D01*
X118203702Y-89700000D01*
X118208192Y-89691597D01*
X118214237Y-89684234D01*
X118221601Y-89678189D01*
X118230003Y-89673698D01*
X118239122Y-89670932D01*
X118248601Y-89670000D01*
X119231403Y-89670000D01*
X119240883Y-89670932D01*
G37*
G36*
X119240883Y-90950935D02*
G01*
X119250001Y-90953701D01*
X119258404Y-90958191D01*
X119265767Y-90964236D01*
X119271812Y-90971600D01*
X119276303Y-90980002D01*
X119279069Y-90989121D01*
X119280001Y-90998600D01*
X119280001Y-91981402D01*
X119279069Y-91990882D01*
X119276303Y-92000000D01*
X119271812Y-92008403D01*
X119265767Y-92015766D01*
X119258404Y-92021811D01*
X119250001Y-92026302D01*
X119240883Y-92029068D01*
X119231403Y-92030000D01*
X118248601Y-92030000D01*
X118239122Y-92029068D01*
X118230003Y-92026302D01*
X118221601Y-92021811D01*
X118214237Y-92015766D01*
X118208192Y-92008403D01*
X118203702Y-92000000D01*
X118200936Y-91990882D01*
X118200001Y-91981402D01*
X118200001Y-90998600D01*
X118200936Y-90989121D01*
X118203702Y-90980002D01*
X118208192Y-90971600D01*
X118214237Y-90964236D01*
X118221601Y-90958191D01*
X118230003Y-90953701D01*
X118239122Y-90950935D01*
X118248601Y-90950000D01*
X119231403Y-90950000D01*
X119240883Y-90950935D01*
G37*
%TD*%
D11*
%TO.C,U12*%
X149299998Y-79400000D03*
X148899999Y-79400000D03*
X148500000Y-79400000D03*
X148500000Y-79806400D03*
X148899999Y-79806400D03*
X149299998Y-79806400D03*
%TD*%
D12*
%TO.C,J1*%
X133225000Y-49090000D03*
X132425000Y-49090000D03*
D13*
X131275000Y-49090000D03*
X130275000Y-49090000D03*
X129775000Y-49090000D03*
X128775000Y-49090000D03*
D12*
X127625000Y-49090000D03*
X126825000Y-49090000D03*
X126825000Y-49090000D03*
X127625000Y-49090000D03*
D13*
X128275000Y-49090000D03*
X129275000Y-49090000D03*
X130775000Y-49090000D03*
X131775000Y-49090000D03*
D12*
X132425000Y-49090000D03*
X133225000Y-49090000D03*
%TD*%
D14*
%TO.C,SW2*%
X105600000Y-70000000D03*
X105600000Y-74500002D03*
X103450002Y-70000000D03*
X103450002Y-74500002D03*
%TD*%
D15*
%TO.C,C19*%
X148900000Y-82480000D03*
X148900000Y-81520000D03*
%TD*%
D16*
%TO.C,C33*%
X138840000Y-93700000D03*
X139800000Y-93700000D03*
%TD*%
%TO.C,C16*%
X115020000Y-52300000D03*
X115980000Y-52300000D03*
%TD*%
D17*
%TO.C,C18*%
X147880000Y-65100000D03*
X146920000Y-65100000D03*
%TD*%
D18*
%TO.C,Q3*%
X121410000Y-95300000D03*
X121410000Y-96300000D03*
X122700000Y-95800000D03*
%TD*%
D15*
%TO.C,C1*%
X126696820Y-82290000D03*
X126696820Y-81330000D03*
%TD*%
D19*
%TO.C,L3*%
X108600000Y-56115000D03*
X108600000Y-57085000D03*
%TD*%
D20*
%TO.C,R12*%
X150890000Y-78800000D03*
X151910000Y-78800000D03*
%TD*%
D21*
%TO.C,X1*%
X126303180Y-83810000D03*
X124653180Y-83810000D03*
X124653180Y-85060000D03*
X126303180Y-85060000D03*
%TD*%
D22*
%TO.C,L4*%
X149157500Y-63770000D03*
X151282500Y-63770000D03*
%TD*%
D23*
%TO.C,J4*%
X148900000Y-84700000D03*
D24*
X150375000Y-86200000D03*
D23*
X148900000Y-87700000D03*
D24*
X147425000Y-86200000D03*
%TD*%
D25*
%TO.C,R16*%
X121400000Y-85790000D03*
X121400000Y-86810000D03*
%TD*%
D26*
%TO.C,L2*%
X125115000Y-78900000D03*
X126085000Y-78900000D03*
%TD*%
D20*
%TO.C,R7*%
X133280000Y-51400000D03*
X134300000Y-51400000D03*
%TD*%
D27*
%TO.C,U9*%
X131400000Y-98900000D03*
X128707600Y-98900000D03*
X128707600Y-100601800D03*
X131400000Y-100601800D03*
%TD*%
D28*
%TO.C,J5*%
X134850000Y-60350000D03*
X134850000Y-83650000D03*
D29*
X131600000Y-62250000D03*
X131600000Y-62750000D03*
X131600000Y-63250000D03*
X131600000Y-63750000D03*
X131600000Y-64250000D03*
X131600000Y-64750000D03*
X131600000Y-65250000D03*
X131600000Y-65750000D03*
X131600000Y-66250000D03*
X131600000Y-66750000D03*
X131600000Y-67250000D03*
X131600000Y-67750000D03*
X131600000Y-68250000D03*
X131600000Y-68750000D03*
X131600000Y-69250000D03*
X131600000Y-69750000D03*
X131600000Y-70250000D03*
X131600000Y-70750000D03*
X131600000Y-71250000D03*
X131600000Y-71750000D03*
X131600000Y-72250000D03*
X131600000Y-72750000D03*
X131600000Y-73250000D03*
X131600000Y-73750000D03*
X131600000Y-74250000D03*
X131600000Y-74750000D03*
X131600000Y-75250000D03*
X131600000Y-75750000D03*
X131600000Y-76250000D03*
X131600000Y-76750000D03*
X131600000Y-77250000D03*
X131600000Y-77750000D03*
X131600000Y-78250000D03*
X131600000Y-78750000D03*
X131600000Y-79250000D03*
X131600000Y-79750000D03*
X131600000Y-80250000D03*
X131600000Y-80750000D03*
X131600000Y-81250000D03*
X131600000Y-81750000D03*
%TD*%
D30*
%TO.C,C6*%
X115400000Y-82700000D03*
X115400000Y-83660000D03*
%TD*%
D31*
%TO.C,U10*%
X109795000Y-79800000D03*
X111065000Y-79800000D03*
X112335000Y-79800000D03*
X113605000Y-79800000D03*
X113605000Y-72600000D03*
X112335000Y-72600000D03*
X111065000Y-72600000D03*
X109795000Y-72600000D03*
%TD*%
D16*
%TO.C,C20*%
X152220000Y-74800000D03*
X153180000Y-74800000D03*
%TD*%
%TO.C,C14*%
X140040000Y-45500000D03*
X141000000Y-45500000D03*
%TD*%
D20*
%TO.C,R1*%
X105780000Y-68400000D03*
X106800000Y-68400000D03*
%TD*%
D30*
%TO.C,C3*%
X113080000Y-85390000D03*
X113080000Y-86350000D03*
%TD*%
D32*
%TO.C,U3*%
X128900000Y-53800000D03*
X129850000Y-53800000D03*
X130800000Y-53800000D03*
X130800000Y-51525000D03*
X129850000Y-51525000D03*
X128900000Y-51525000D03*
%TD*%
D33*
%TO.C,U5*%
X118932000Y-66465200D03*
X118932000Y-65830200D03*
X118932000Y-65169800D03*
X118932000Y-64534800D03*
X114868000Y-64534800D03*
X114868000Y-65169800D03*
X114868000Y-65830200D03*
X114868000Y-66465200D03*
%TD*%
D34*
%TO.C,Q1_Xtal1*%
X153980000Y-68050000D03*
X153980000Y-69450000D03*
X155080000Y-69450000D03*
X155080000Y-68050000D03*
%TD*%
D15*
%TO.C,C11*%
X116500000Y-69760000D03*
X116500000Y-68800000D03*
%TD*%
D20*
%TO.C,R24*%
X119090000Y-95200000D03*
X120110000Y-95200000D03*
%TD*%
D17*
%TO.C,C4*%
X131400000Y-93000000D03*
X130440000Y-93000000D03*
%TD*%
D30*
%TO.C,C7*%
X114200000Y-82700000D03*
X114200000Y-83660000D03*
%TD*%
D16*
%TO.C,C23*%
X152220000Y-73700000D03*
X153180000Y-73700000D03*
%TD*%
D35*
%TO.C,R23*%
X122810000Y-94000000D03*
X121790000Y-94000000D03*
%TD*%
D32*
%TO.C,U4*%
X143750000Y-58337500D03*
X144700000Y-58337500D03*
X145650000Y-58337500D03*
X145650000Y-56062500D03*
X143750000Y-56062500D03*
%TD*%
D17*
%TO.C,C5*%
X124303180Y-82210000D03*
X123343180Y-82210000D03*
%TD*%
D20*
%TO.C,R5*%
X120580000Y-83200000D03*
X121600000Y-83200000D03*
%TD*%
D16*
%TO.C,C24*%
X132620000Y-85800000D03*
X133580000Y-85800000D03*
%TD*%
D20*
%TO.C,R14*%
X135090000Y-88300000D03*
X136110000Y-88300000D03*
%TD*%
D15*
%TO.C,C12*%
X114900000Y-69740000D03*
X114900000Y-68780000D03*
%TD*%
D16*
%TO.C,C22*%
X109240000Y-70400000D03*
X110200000Y-70400000D03*
%TD*%
D20*
%TO.C,R15*%
X135080000Y-89600000D03*
X136100000Y-89600000D03*
%TD*%
D36*
%TO.C,U11*%
X116200002Y-89600000D03*
X116200002Y-90099999D03*
X116200002Y-90600000D03*
X116200002Y-91100000D03*
X116200002Y-91600001D03*
X116200002Y-92100000D03*
D37*
X116850001Y-92749999D03*
X117350000Y-92749999D03*
X117850001Y-92749999D03*
X118350001Y-92749999D03*
X118850002Y-92749999D03*
X119350001Y-92749999D03*
D36*
X120000000Y-92100000D03*
X120000000Y-91600001D03*
X120000000Y-91100000D03*
X120000000Y-90600000D03*
X120000000Y-90099999D03*
X120000000Y-89600000D03*
D37*
X119350001Y-88950001D03*
X118850002Y-88950001D03*
X118350001Y-88950001D03*
X117850001Y-88950001D03*
X117350000Y-88950001D03*
X116850001Y-88950001D03*
%TD*%
D17*
%TO.C,C32*%
X146580000Y-79800000D03*
X145620000Y-79800000D03*
%TD*%
D25*
%TO.C,R4*%
X122400000Y-60390000D03*
X122400000Y-61410000D03*
%TD*%
D35*
%TO.C,R3*%
X122000000Y-52400000D03*
X120980000Y-52400000D03*
%TD*%
D38*
%TO.C,D2*%
X124600000Y-57400000D03*
X124600000Y-54100000D03*
%TD*%
%TO.C,D1*%
X145200000Y-54200000D03*
X145200000Y-50900000D03*
%TD*%
D39*
%TO.C,ATGM336H1*%
X120050000Y-56000000D03*
X110350000Y-62600000D03*
X110350000Y-59300000D03*
X110350000Y-57100000D03*
X110350000Y-61500000D03*
X110350000Y-60400000D03*
X110350000Y-58200000D03*
X110350000Y-54900000D03*
X120050000Y-53800000D03*
X120050000Y-54900000D03*
X120050000Y-57100000D03*
X120050000Y-58200000D03*
X120050000Y-59300000D03*
X120050000Y-60400000D03*
X120050000Y-61500000D03*
X120050000Y-62600000D03*
X110350000Y-56000000D03*
X110350000Y-53800000D03*
%TD*%
D40*
%TO.C,J2*%
X149600000Y-57700000D03*
X151600000Y-57700000D03*
%TD*%
D17*
%TO.C,C15*%
X113400000Y-52300000D03*
X112440000Y-52300000D03*
%TD*%
D16*
%TO.C,C31*%
X150920000Y-79800000D03*
X151880000Y-79800000D03*
%TD*%
D41*
%TO.C,Q1*%
X147825000Y-52050000D03*
X147825000Y-53950000D03*
X149700000Y-53000000D03*
%TD*%
D42*
%TO.C,R9*%
X144500000Y-49410000D03*
X144500000Y-48390000D03*
%TD*%
D30*
%TO.C,C8*%
X116600000Y-82700000D03*
X116600000Y-83660000D03*
%TD*%
D43*
%TO.C,U2*%
X142300000Y-47300000D03*
X140000000Y-47300000D03*
D44*
X140000000Y-53600000D03*
D43*
X137700000Y-47300000D03*
%TD*%
D20*
%TO.C,R22*%
X119090000Y-96400000D03*
X120110000Y-96400000D03*
%TD*%
D45*
%TO.C,FL1*%
X150000000Y-74000000D03*
X149500000Y-74000000D03*
X149000000Y-74000000D03*
X148500000Y-74000000D03*
D46*
X148187500Y-74700000D03*
D45*
X148500000Y-75400000D03*
X149000000Y-75400000D03*
X149500000Y-75400000D03*
X150000000Y-75400000D03*
D46*
X150312500Y-74700000D03*
%TD*%
D42*
%TO.C,R2*%
X114380000Y-86380000D03*
X114380000Y-85360000D03*
%TD*%
D47*
%TO.C,BT1*%
X116060000Y-49050000D03*
D48*
X121325000Y-50455000D03*
%TD*%
D30*
%TO.C,C9*%
X117900000Y-82700000D03*
X117900000Y-83660000D03*
%TD*%
D35*
%TO.C,R8*%
X142200000Y-55600000D03*
X141180000Y-55600000D03*
%TD*%
D30*
%TO.C,C17*%
X152500000Y-70620000D03*
X152500000Y-71580000D03*
%TD*%
D17*
%TO.C,C2*%
X131400000Y-96400000D03*
X130440000Y-96400000D03*
%TD*%
D42*
%TO.C,R10*%
X142000000Y-58910000D03*
X142000000Y-57890000D03*
%TD*%
D49*
%TO.C,U1*%
X122550000Y-79450000D03*
X122150000Y-79450000D03*
X121750000Y-79450000D03*
X121350000Y-79450000D03*
X120950000Y-79450000D03*
X120550000Y-79450000D03*
X120150000Y-79450000D03*
X119750000Y-79450000D03*
X119350000Y-79450000D03*
X118950000Y-79450000D03*
X118550000Y-79450000D03*
X118150000Y-79450000D03*
X117750000Y-79450000D03*
X117350000Y-79450000D03*
D50*
X116500000Y-78600000D03*
X116500000Y-78200000D03*
X116500000Y-77800000D03*
X116500000Y-77400000D03*
X116500000Y-77000000D03*
X116500000Y-76600000D03*
X116500000Y-76200000D03*
X116500000Y-75800000D03*
X116500000Y-75400000D03*
X116500000Y-75000000D03*
X116500000Y-74600000D03*
X116500000Y-74200000D03*
X116500000Y-73800000D03*
X116500000Y-73400000D03*
D49*
X117350000Y-72550000D03*
X117750000Y-72550000D03*
X118150000Y-72550000D03*
X118550000Y-72550000D03*
X118950000Y-72550000D03*
X119350000Y-72550000D03*
X119750000Y-72550000D03*
X120150000Y-72550000D03*
X120550000Y-72550000D03*
X120950000Y-72550000D03*
X121350000Y-72550000D03*
X121750000Y-72550000D03*
X122150000Y-72550000D03*
X122550000Y-72550000D03*
D50*
X123400000Y-73400000D03*
X123400000Y-73800000D03*
X123400000Y-74200000D03*
X123400000Y-74600000D03*
X123400000Y-75000000D03*
X123400000Y-75400000D03*
X123400000Y-75800000D03*
X123400000Y-76200000D03*
X123400000Y-76600000D03*
X123400000Y-77000000D03*
X123400000Y-77400000D03*
X123400000Y-77800000D03*
X123400000Y-78200000D03*
X123400000Y-78600000D03*
D51*
X118620000Y-74670000D03*
X118620000Y-76000000D03*
X118620000Y-77330000D03*
X119950000Y-74670000D03*
X119950000Y-76000000D03*
X119950000Y-77330000D03*
X121280000Y-74670000D03*
X121280000Y-76000000D03*
X121280000Y-77330000D03*
%TD*%
D35*
%TO.C,R13*%
X146610000Y-78700000D03*
X145590000Y-78700000D03*
%TD*%
%TO.C,R19*%
X133600000Y-87100000D03*
X132580000Y-87100000D03*
%TD*%
%TO.C,R6*%
X127100000Y-51100000D03*
X126080000Y-51100000D03*
%TD*%
D52*
%TO.C,L5*%
X151285000Y-72600000D03*
X150315000Y-72600000D03*
%TD*%
D20*
%TO.C,R17*%
X135080000Y-90900000D03*
X136100000Y-90900000D03*
%TD*%
D53*
%TO.C,U8*%
X138910000Y-90900000D03*
X138910000Y-91400000D03*
X138910000Y-91900000D03*
X138910000Y-92400000D03*
D54*
X139405000Y-92395000D03*
X139905000Y-92395000D03*
D53*
X140400000Y-92400000D03*
X140400000Y-91900000D03*
X140400000Y-91400000D03*
X140400000Y-90900000D03*
D54*
X139905000Y-90905000D03*
X139405000Y-90905000D03*
%TD*%
D16*
%TO.C,C13*%
X137720000Y-45500000D03*
X138680000Y-45500000D03*
%TD*%
D55*
%TO.C,U6*%
X150010000Y-70777500D03*
X149510000Y-70777500D03*
X149010000Y-70777500D03*
X148510000Y-70777500D03*
X148010000Y-70777500D03*
X147510000Y-70777500D03*
D56*
X146822500Y-70090000D03*
X146822500Y-69590000D03*
X146822500Y-69090000D03*
X146822500Y-68590000D03*
X146822500Y-68090000D03*
X146822500Y-67590000D03*
D55*
X147510000Y-66902500D03*
X148010000Y-66902500D03*
X148510000Y-66902500D03*
X149010000Y-66902500D03*
X149510000Y-66902500D03*
X150010000Y-66902500D03*
D56*
X150697500Y-67590000D03*
X150697500Y-68090000D03*
X150697500Y-68590000D03*
X150697500Y-69090000D03*
X150697500Y-69590000D03*
X150697500Y-70090000D03*
D57*
X148110000Y-68190000D03*
X148110000Y-69490000D03*
X149410000Y-68190000D03*
X149410000Y-69490000D03*
%TD*%
D17*
%TO.C,C21*%
X151070000Y-65520000D03*
X150110000Y-65520000D03*
%TD*%
D16*
%TO.C,C10*%
X125120000Y-77780000D03*
X126080000Y-77780000D03*
%TD*%
D23*
%TO.C,J3*%
X104900000Y-62700000D03*
D24*
X106375000Y-64200000D03*
D23*
X104900000Y-65700000D03*
D24*
X103425000Y-64200000D03*
%TD*%
D25*
%TO.C,R18*%
X125500000Y-81300000D03*
X125500000Y-82320000D03*
%TD*%
D30*
%TO.C,C25*%
X144900000Y-62300000D03*
X144900000Y-63260000D03*
%TD*%
D25*
%TO.C,R11*%
X140700000Y-57890000D03*
X140700000Y-58910000D03*
%TD*%
D19*
%TO.C,L1*%
X131400000Y-94200000D03*
X131400000Y-95170000D03*
%TD*%
M02*
