M48
; DRILL file {KiCad 8.0.1} date 2024-05-30T22:25:29-0400
; FORMAT={-:-/ absolute / inch / decimal}
; #@! TF.CreationDate,2024-05-30T22:25:29-04:00
; #@! TF.GenerationSoftware,Kicad,Pcbnew,8.0.1
; #@! TF.FileFunction,Plated,1,4,PTH
FMAT,2
INCH
; #@! TA.AperFunction,Plated,PTH,ViaDrill
T1C0.0118
; #@! TA.AperFunction,Plated,PTH,ComponentDrill
T2C0.0157
; #@! TA.AperFunction,Plated,PTH,ComponentDrill
T3C0.0197
; #@! TA.AperFunction,Plated,PTH,ComponentDrill
T4C0.0236
%
G90
G05
T1
X4.0236Y-2.6535
X4.0433Y-2.6811
X4.0591Y-2.6535
X4.0787Y-2.6811
X4.0906Y-3.0157
X4.0945Y-2.6535
X4.1102Y-3.0433
X4.1142Y-2.6811
X4.126Y-3.0157
X4.1457Y-3.0433
X4.1614Y-3.0157
X4.1811Y-2.3661
X4.1811Y-3.0433
X4.1969Y-3.0157
X4.2008Y-2.3937
X4.2165Y-2.3661
X4.2165Y-3.0433
X4.2362Y-2.3937
X4.2441Y-2.6929
X4.252Y-2.3661
X4.2687Y-3.1683
X4.2717Y-2.3937
X4.2756Y-2.5157
X4.2953Y-2.5433
X4.311Y-2.5157
X4.3189Y-3.2717
X4.3228Y-3.0787
X4.3268Y-2.937
X4.3268Y-2.9724
X4.3268Y-3.0079
X4.3307Y-2.5433
X4.3386Y-3.2992
X4.3465Y-2.5157
X4.3504Y-3.1929
X4.3543Y-2.7087
X4.3543Y-2.9173
X4.3543Y-2.9528
X4.3543Y-2.9882
X4.3543Y-3.2717
X4.3661Y-2.5433
X4.3701Y-3.0787
X4.374Y-2.7362
X4.374Y-3.2992
X4.3819Y-2.5157
X4.3898Y-2.7087
X4.3898Y-3.2717
X4.4016Y-2.5433
X4.4094Y-2.7362
X4.4094Y-3.2992
X4.4173Y-2.9488
X4.4252Y-2.7087
X4.4252Y-3.2717
X4.4449Y-2.7362
X4.4449Y-3.2992
X4.4606Y-2.7087
X4.4685Y-3.0354
X4.4685Y-3.0709
X4.4803Y-2.7362
X4.4843Y-2.9803
X4.4882Y-1.8976
X4.4882Y-1.9331
X4.4882Y-1.9685
X4.4882Y-2.0039
X4.4961Y-2.0591
X4.5039Y-2.8386
X4.5108Y-3.0669
X4.5118Y-2.878
X4.5118Y-2.9134
X4.5157Y-1.878
X4.5157Y-1.9134
X4.5157Y-1.9488
X4.5157Y-1.9843
X4.5197Y-2.2598
X4.5197Y-2.2953
X4.5197Y-2.3307
X4.5197Y-2.3661
X4.5197Y-2.9961
X4.5197Y-3.5197
X4.5263Y-3.7677
X4.5433Y-3.4882
X4.5472Y-2.2402
X4.5472Y-2.2756
X4.5472Y-2.311
X4.5472Y-2.3465
X4.5472Y-3.0748
X4.5512Y-3.4055
X4.5559Y-2.7465
X4.5748Y-3.6535
X4.5748Y-3.7638
X4.5984Y-2.6024
X4.5984Y-3.6929
X4.6024Y-3.2244
X4.6122Y-2.8091
X4.6181Y-3.5433
X4.6181Y-3.6063
X4.622Y-2.7756
X4.6378Y-2.4213
X4.6496Y-3.4646
X4.6496Y-3.5748
X4.6614Y-2.4449
X4.6614Y-3.3661
X4.6654Y-3.2047
X4.6811Y-3.5433
X4.6811Y-3.6063
X4.685Y-2.9291
X4.685Y-3.2835
X4.6861Y-3.4636
X4.689Y-2.9646
X4.689Y-3.0079
X4.689Y-3.0512
X4.689Y-3.0906
X4.689Y-3.2283
X4.6936Y-2.893
X4.6949Y-3.4035
X4.7047Y-2.6496
X4.7205Y-3.4764
X4.7559Y-1.7756
X4.7559Y-2.7795
X4.7559Y-2.8937
X4.7598Y-2.9843
X4.7598Y-3.0472
X4.7598Y-3.0906
X4.7598Y-3.2402
X4.7598Y-3.6063
X4.7638Y-2.9449
X4.7717Y-2.6063
X4.7736Y-3.187
X4.7756Y-1.8031
X4.7835Y-3.0157
X4.7913Y-1.7756
X4.7913Y-2.9724
X4.7953Y-3.0906
X4.7992Y-3.5118
X4.8061Y-3.2186
X4.811Y-1.8031
X4.811Y-2.3346
X4.815Y-2.1299
X4.815Y-3.4055
X4.8189Y-2.8976
X4.8189Y-3.0039
X4.8228Y-3.0433
X4.8268Y-1.7756
X4.8268Y-3.2815
X4.8268Y-3.3268
X4.8308Y-3.626
X4.8435Y-3.1643
X4.8465Y-1.8031
X4.8583Y-3.5985
X4.8622Y-1.7756
X4.8622Y-2.3543
X4.8622Y-3.1378
X4.8819Y-1.8031
X4.8819Y-2.3819
X4.8858Y-3.5748
X4.8942Y-3.0399
X4.8976Y-2.3543
X4.9055Y-2.8622
X4.9094Y-3.5512
X4.9173Y-2.3819
X4.9213Y-2.8346
X4.9331Y-2.3543
X4.9331Y-3.5276
X4.9409Y-2.8622
X4.9488Y-3.6535
X4.9528Y-2.3819
X4.9567Y-2.8346
X4.9606Y-3.0394
X4.9685Y-2.3543
X4.9685Y-3.6811
X4.9764Y-2.8622
X4.9843Y-3.6535
X4.9882Y-2.1772
X4.9882Y-2.2126
X4.9882Y-2.3819
X5.0039Y-3.6811
X5.0103Y-3.0418
X5.0118Y-3.5315
X5.0157Y-2.1575
X5.0157Y-2.1929
X5.0157Y-2.2283
X5.0157Y-3.0787
X5.0197Y-2.752
X5.0197Y-3.2205
X5.0197Y-3.6535
X5.0276Y-3.7874
X5.0354Y-3.5
X5.0394Y-3.6811
X5.0512Y-3.1102
X5.0512Y-3.1595
X5.0551Y-3.6535
X5.0748Y-3.6811
X5.0778Y-3.1369
X5.1181Y-3.1102
X5.1201Y-3.1614
X5.1496Y-2.2677
X5.1496Y-2.3031
X5.1614Y-3.2598
X5.1772Y-1.9764
X5.2047Y-2.0827
X5.2087Y-2.0236
X5.2087Y-3.3268
X5.2244Y-2.1102
X5.2362Y-3.2087
X5.2402Y-2.0827
X5.2441Y-2.3071
X5.252Y-3.6496
X5.2559Y-2.7087
X5.2598Y-2.1102
X5.2638Y-3.1063
X5.2717Y-3.6772
X5.2756Y-2.0827
X5.2756Y-2.7362
X5.2795Y-3.5433
X5.2835Y-3.1339
X5.2874Y-2.2992
X5.2874Y-3.6496
X5.2913Y-2.7087
X5.2953Y-2.1102
X5.2992Y-3.1063
X5.3031Y-3.3898
X5.3071Y-3.6772
X5.311Y-2.0827
X5.311Y-2.7362
X5.3189Y-3.1339
X5.3228Y-3.6496
X5.3268Y-2.7087
X5.3307Y-2.1102
X5.3346Y-3.1063
X5.3425Y-2.2126
X5.3425Y-2.4764
X5.3425Y-3.6772
X5.3465Y-2.7362
X5.3543Y-3.1339
X5.3583Y-3.6496
X5.3622Y-2.2402
X5.3622Y-2.7087
X5.3701Y-3.1063
X5.378Y-2.2126
X5.378Y-3.6772
X5.3819Y-2.7362
X5.3858Y-2.1102
X5.3858Y-3.5591
X5.3898Y-3.1339
X5.3976Y-2.2402
X5.4055Y-3.3898
X5.4134Y-2.2126
X5.4252Y-3.4173
X5.4291Y-3.4921
X5.4331Y-2.2402
X5.437Y-1.9567
X5.4409Y-3.3898
X5.4488Y-2.2126
X5.4606Y-3.4173
X5.4685Y-2.2402
X5.4685Y-2.8071
X5.4764Y-3.3898
X5.4843Y-2.752
X5.4843Y-3.5394
X5.4961Y-3.4173
X5.5039Y-1.9567
X5.5039Y-3.5118
X5.5118Y-3.3898
X5.5315Y-3.4173
X5.5335Y-3.6634
X5.5354Y-3.5276
X5.563Y-2.3583
X5.563Y-2.748
X5.5669Y-2.4173
X5.5669Y-2.4528
X5.5669Y-2.4882
X5.5669Y-2.5236
X5.5945Y-2.3976
X5.5945Y-2.4331
X5.5945Y-2.4685
X5.5945Y-2.5039
X5.6217Y-2.6932
X5.6299Y-2.3071
X5.6417Y-2.5945
X5.6417Y-2.8465
X5.6457Y-2.6614
X5.6457Y-2.8071
X5.6535Y-3.5669
X5.6535Y-3.6024
X5.6535Y-3.6378
X5.6535Y-3.6732
X5.6732Y-2.7874
X5.6772Y-2.622
X5.6811Y-2.8228
X5.6811Y-3.5472
X5.6811Y-3.5827
X5.6811Y-3.6181
X5.6811Y-3.6535
X5.6929Y-2.9094
X5.6929Y-3.0984
X5.7047Y-2.6024
X5.7047Y-3.1417
X5.7076Y-2.6604
X5.7087Y-2.5236
X5.7087Y-3.1811
X5.7126Y-2.252
X5.7126Y-2.8819
X5.7126Y-3.2913
X5.7126Y-3.3268
X5.7126Y-3.3622
X5.7126Y-3.3976
X5.7127Y-2.695
X5.7165Y-2.7835
X5.7165Y-3.0512
X5.7205Y-2.9291
X5.7205Y-2.9843
X5.7244Y-2.6299
X5.7244Y-2.8228
X5.7283Y-3.0197
X5.7323Y-3.2047
X5.7323Y-3.2362
X5.7402Y-2.5984
X5.7402Y-2.8661
X5.7402Y-3.2717
X5.7402Y-3.3071
X5.7402Y-3.3425
X5.7402Y-3.378
X5.7402Y-3.4134
X5.7402Y-3.4488
X5.7441Y-2.9055
X5.7441Y-2.9528
X5.748Y-3.1772
X5.752Y-2.5669
X5.752Y-2.9961
X5.7559Y-3.0472
X5.7598Y-2.5354
X5.7638Y-3.2047
X5.7677Y-2.9291
X5.7677Y-3.2441
X5.7717Y-2.5039
X5.7717Y-2.6339
X5.7717Y-2.9685
X5.7756Y-2.4685
X5.7756Y-2.8976
X5.7795Y-3.0197
X5.7835Y-2.437
X5.7874Y-2.8307
X5.7913Y-3.189
X5.7913Y-3.2205
X5.7982Y-3.2638
X5.7992Y-2.9252
X5.7992Y-2.9921
X5.7992Y-3.0591
X5.7992Y-3.315
X5.7992Y-3.4685
X5.8031Y-2.9567
X5.8071Y-2.4134
X5.8071Y-3.0984
X5.811Y-3.0236
X5.815Y-2.8622
X5.8189Y-3.1732
X5.8189Y-3.2047
X5.8228Y-2.6772
X5.8228Y-2.7087
X5.8228Y-2.7402
X5.8228Y-2.8268
X5.8228Y-3.2402
X5.8268Y-2.4528
X5.8268Y-2.4843
X5.8268Y-2.5197
X5.8307Y-3.2756
X5.8425Y-2.4055
X5.8583Y-2.6772
X5.8583Y-2.7087
X5.8583Y-2.7402
X5.8622Y-3.0787
X5.8701Y-2.4213
X5.8819Y-2.4567
X5.8937Y-2.6772
X5.8937Y-2.7087
X5.8937Y-2.7402
X5.8976Y-3.1811
X5.8976Y-3.2795
X5.9016Y-2.4055
X5.9016Y-3.2165
X5.9016Y-3.248
X5.9094Y-2.4409
X5.9094Y-2.5551
X5.9134Y-3.0354
X5.9134Y-3.311
X5.9291Y-2.9685
X5.9291Y-3.063
X5.9291Y-3.1811
X5.9291Y-3.2835
X5.9291Y-3.4724
X5.9331Y-2.9055
X5.9331Y-3.2165
X5.9331Y-3.252
X5.937Y-2.4134
X5.937Y-2.4567
X5.9528Y-2.9331
X5.9606Y-3.1811
X5.9646Y-2.7913
X5.9646Y-3.2244
X5.9685Y-2.437
X5.9685Y-2.689
X5.9724Y-2.7221
X5.9724Y-3.0197
X5.9764Y-2.9764
X5.9803Y-2.6299
X5.9843Y-3.2559
X5.9843Y-3.2913
X5.9843Y-3.3268
X5.9843Y-3.3622
X5.9843Y-3.3976
X5.9843Y-3.4331
X5.9882Y-3.2008
X5.9961Y-2.5591
X6.0Y-2.4449
X6.0Y-3.1654
X6.0039Y-2.6063
X6.0079Y-2.4764
X6.0079Y-2.5197
X6.0079Y-3.0315
X6.0118Y-3.2362
X6.0118Y-3.2717
X6.0118Y-3.3071
X6.0118Y-3.3425
X6.0157Y-2.9921
X6.0157Y-3.1024
X6.0236Y-3.189
X6.0315Y-2.5787
X6.0315Y-2.8465
X6.0354Y-2.4528
X6.0354Y-2.6811
X6.0354Y-2.811
X6.0354Y-3.063
X6.0394Y-2.5315
X6.0394Y-3.1575
X6.0433Y-2.4961
X6.0433Y-3.0157
X6.0512Y-2.9843
X6.0551Y-3.122
X6.0591Y-2.8701
X6.0591Y-3.0866
X6.0669Y-2.9331
X6.0709Y-2.4606
X6.0709Y-3.0433
X6.0748Y-2.5276
X6.0787Y-2.8976
X6.0827Y-2.4961
X6.0827Y-2.9685
X6.0827Y-3.0039
X6.1024Y-2.8701
X6.1024Y-2.9331
X6.1063Y-2.5354
X6.1063Y-2.5709
X6.1102Y-2.6102
X6.1102Y-2.8031
X6.1181Y-2.8386
X6.122Y-2.5039
X6.122Y-2.8976
X6.1339Y-2.7362
X6.1378Y-2.5945
X6.1378Y-2.6339
X6.1378Y-2.7795
X6.1417Y-2.5551
X6.1417Y-2.8661
X6.1496Y-2.685
X6.1496Y-2.815
X6.1535Y-2.5236
X6.1654Y-2.6496
X6.1693Y-2.6102
X6.1732Y-2.7756
X6.1772Y-2.7441
X6.185Y-2.7047
X6.1969Y-2.6693
T2
G00X4.2115Y-3.4782
M15
G01X4.2216Y-3.4903
M16
G05
G00X4.3251Y-3.6136
M15
G01X4.3352Y-3.6257
M16
G05
T3
G00X4.2637Y-3.3696
M15
G01X4.2456Y-3.3848
M16
G05
G00X4.4513Y-3.5931
M15
G01X4.4332Y-3.6083
M16
G05
T4
G00X4.949Y-1.7594
M15
G01X4.949Y-1.728
M16
G05
G00X4.949Y-1.9307
M15
G01X4.949Y-1.8874
M16
G05
G00X5.2892Y-1.7594
M15
G01X5.2892Y-1.728
M16
G05
G00X5.2892Y-1.9307
M15
G01X5.2892Y-1.8874
M16
G05
M30
